<?xml version="1.0" encoding="utf-8"?>
<!-- Generator: Adobe Illustrator 21.0.0, SVG Export Plug-In . SVG Version: 6.00 Build 0)  -->
<svg version="1.1" id="Layer_1" xmlns="http://www.w3.org/2000/svg" xmlns:xlink="http://www.w3.org/1999/xlink" x="0px" y="0px"
	 viewBox="0 0 196 57" style="enable-background:new 0 0 196 57;" xml:space="preserve">
<style type="text/css">
	.st0{fill:#FFFFFF;}
	.st1{font-family:'Arial-BoldMT';}
	.st2{font-size:33.3015px;}
</style>
<g>
	<text transform="matrix(1 0 0 1 38.5137 39.6289)" class="st0 st1 st2">Alphabet</text>
	<path class="st0" d="M195.5,56.8H-0.2V31.2c0-0.1,0-0.6,0.7-1.3C2.1,28.3,7.9,26,29,28V8.1C29,8,29,4.9,31.2,2.6
		c1.4-1.5,3.5-2.2,6.1-2.2h158.3V56.8z M0.9,55.8h193.7V1.4H37.2c-2.3,0-4.1,0.6-5.3,1.9c-1.9,1.9-1.9,4.7-1.9,4.7l0,21.1l-0.6-0.1
		C8,26.9,2.6,29.3,1.3,30.5c-0.5,0.4-0.5,0.7-0.5,0.7L0.9,55.8z"/>
	<path class="st0" d="M0.8,31.4l-0.9-0.5C7.8,16,17.3,8.5,23.8,4.9c7.1-4,12.3-4.4,12.5-4.4l0.1,1C36.2,1.5,15.8,3.3,0.8,31.4z"/>
</g>
</svg>
