<?xml version="1.0" encoding="utf-8"?>
<!-- Generator: Adobe Illustrator 21.0.0, SVG Export Plug-In . SVG Version: 6.00 Build 0)  -->
<svg version="1.1" id="Layer_1" xmlns="http://www.w3.org/2000/svg" xmlns:xlink="http://www.w3.org/1999/xlink" x="0px" y="0px"
	 viewBox="0 0 180 36.8" style="enable-background:new 0 0 180 36.8;" xml:space="preserve">
<style type="text/css">
	.st0{fill:#FFFFFF;}
</style>
<g>
	<path class="st0" d="M39.3,17.8c0-3.6,0-7.2,0-10.9c0-0.6,0-0.6,0.5-0.6c2.5,0,5,0,7.5,0c0.8,0,1.7,0.2,2.5,0.5
		c0.8,0.2,1.5,0.6,2.2,1.1c0.8,0.6,1.3,1.4,1.6,2.4c0.6,1.9-0.2,4.5-1.6,5.6c-0.5,0.4-1.1,0.7-1.6,1c-0.1,0-0.1,0.1-0.2,0.2
		c0.1,0,0.1,0.1,0.2,0.1c1.5,0.1,2.5,1,3.5,2.1c0.3,0.4,0.4,0.9,0.7,1.2c0.4,0.5,0.3,1.1,0.4,1.6c0.1,0.5,0.2,1.1-0.1,1.7
		c-0.2,0.3,0.1,0.7-0.2,0.9c0,0.7-0.4,1.2-0.8,1.6c-0.6,0.7-1.3,1.4-2.2,1.9c-1,0.5-2,0.8-3.1,1c-0.6,0.1-1.3,0.2-1.9,0.2
		c-2.2,0-4.4,0-6.6,0c-0.7,0-0.7,0-0.7-0.7C39.3,25,39.3,21.4,39.3,17.8z M43.3,22.7c0,1,0,2.1,0,3.1c0,0.2,0.1,0.3,0.3,0.3
		c1.2,0,2.3,0,3.5,0c0.4,0,0.9,0,1.3-0.2c1-0.4,1.8-0.9,2.2-2c0.2-0.5,0.5-1.1,0.3-1.6c-0.1-0.3-0.1-0.6-0.2-0.9
		c-0.1-0.3-0.2-0.6-0.4-0.9c-0.8-1-1.9-1.3-3.1-1.4c-0.3,0-0.7,0.1-1,0C45.4,18.8,44.7,19,44,19c-0.5,0-0.7,0.2-0.7,0.7
		C43.3,20.6,43.3,21.7,43.3,22.7z M43.3,12.7c0,0.9,0,1.9,0,2.8c0,0.3,0,0.4,0.3,0.4c0.8,0,1.6,0,2.4,0c0.5,0,0.9-0.1,1.3-0.2
		c1.7-0.6,2.6-1.8,2.4-3.5c-0.1-0.7-0.3-1.3-0.8-1.8c-0.5-0.5-1.1-0.7-1.8-0.7c-1.2-0.1-2.4,0-3.6,0c-0.3,0-0.3,0.2-0.3,0.4
		C43.3,10.9,43.3,11.8,43.3,12.7z"/>
	<path class="st0" d="M119.1,24.7c0-3.7,0-7.3,0-11c0-0.2,0-0.4,0-0.6c0-0.1,0.2-0.2,0.2-0.2c0.4,0.4,0.9,0.2,1.3,0.2
		c0.6,0,1.1,0.4,1.6,0.2c0.4-0.1,0.7-0.1,1.1-0.2c0.8-0.3,1.7-0.6,2.6-0.5c0.2,0,0.5,0.1,0.7-0.2c0,0,0.2-0.1,0.3,0
		c0.2,0.3,0.5,0.2,0.8,0.2c2.4,0,4.2,1.1,5.7,2.8c0.6,0.7,1,1.7,1.2,2.6c0.4,1.6,0.3,3.3,0.2,4.9c-0.1,1.1-0.6,2.2-1.2,3.2
		c-1,1.5-2.4,2.5-4.1,3.1c-0.6,0.2-1.1,0.4-1.7,0.4c-0.8,0-1.6,0-2.4,0c-0.7,0-1.4-0.1-2.1-0.4c-0.4-0.2-0.6-0.1-0.6,0.4
		c0,2.2,0,4.4,0,6.6c0,0.5,0,0.5-0.5,0.5c-0.9,0-1.7,0-2.6,0c-0.6,0-0.6,0-0.6-0.6c0-2.3,0-4.6,0-6.9
		C119.1,27.7,119.1,26.2,119.1,24.7z M122.8,21.1c0,0.9,0,1.9,0,2.8c0,0.5,0.2,0.9,0.5,1.2c0.8,0.9,1.8,1.5,3.1,1.4c0.3,0,0.7,0,1,0
		c1,0,1.9-0.4,2.5-1.2c0.7-0.8,1.2-1.8,1.2-2.9c0-0.9,0-1.8,0-2.7c0-1.4-1-2.9-2.2-3.7c-0.7-0.5-1.5-0.4-2.3-0.4
		c-0.9-0.1-1.7,0.2-2.4,0.7c-0.8,0.5-1.4,1.1-1.3,2.2C122.8,19.4,122.8,20.3,122.8,21.1z"/>
	<path class="st0" d="M101.9,17.2c0-3.9,0-7.7,0-11.6c0-0.6,0-0.6,0.6-0.6c0.8,0,1.7,0,2.5,0c0.8,0,0.8,0.1,0.8,0.9
		c0,2.2,0,4.4,0,6.6c0,2.4,0,4.8,0,7.2c0,0.1,0,0.2,0.1,0.3c0.1-0.1,0.2-0.1,0.2-0.2c0.3-0.3,0.6-0.7,0.8-1.1c1-1.3,2.2-2.5,3.1-3.9
		c0.3-0.5,0.9-0.9,1.2-1.5c0.3-0.4,0.7-0.6,1.2-0.5c1.1,0.1,2.2,0,3.3,0c0.3,0,0.4,0.1,0.3,0.4c-0.1,0.2-0.2,0.4-0.4,0.6
		c-0.7,0.8-1.4,1.5-2.1,2.3c-0.9,1.1-1.8,2.2-2.8,3.2c-0.3,0.3-0.6,0.7-0.9,1.1c-0.1,0.1-0.1,0.4-0.1,0.6c0.1,0.3,0.3,0.5,0.5,0.8
		c0.7,0.8,1.4,1.6,2.1,2.4c0.4,0.5,0.8,1,1.2,1.4c0.4,0.5,0.8,0.8,1.2,1.4c0.5,0.7,1.1,1.3,1.7,1.9c0.1,0.1,0.1,0.2,0.2,0.4
		c-0.1,0-0.3,0.1-0.4,0.1c-1.3,0-2.7,0-4,0c-0.2,0-0.3-0.1-0.4-0.3c-0.4-0.6-1-1.2-1.5-1.8c-0.4-0.5-0.9-0.9-1.1-1.4
		c-0.3-0.6-0.8-0.9-1.1-1.4c-0.3-0.6-0.9-1.1-1.3-1.6c-0.3-0.3-0.5-0.7-0.8-1c0,0-0.1-0.1-0.2-0.1c0,0.1-0.1,0.1-0.1,0.2
		c0,0.7,0,1.4,0,2.1c0,1.5,0,3,0,4.6c0,0.7-0.1,0.8-0.8,0.8c-0.9,0-1.7,0-2.6,0c-0.5,0-0.5,0-0.5-0.5c0-2.1,0-4.3,0-6.4
		C101.9,20.7,101.9,18.9,101.9,17.2z"/>
	<path class="st0" d="M16.9,34.2c-0.2,0-0.4,0-0.5,0c-1.3,0.1-2.6-0.1-3.9-0.6c-0.2-0.1-0.6-0.1-0.8-0.2c-0.9-0.4-1.9-0.6-2.8-1.2
		c-1.9-1.1-3.6-2.4-5-4.1c-0.9-1-1.6-2.2-2.2-3.4c-0.3-0.6-0.6-1.3-0.9-1.9c-0.3-0.6-0.4-1.3-0.6-2c-0.2-0.7-0.2-1.5-0.2-2.2
		c0-0.7,0-1.4,0-2.2c-0.1-1.8,0.4-3.4,1-5c0.4-1.1,0.9-2.1,1.4-3.1C2.9,7.4,3.5,6.7,4.2,6C5.1,5,6,4,7.1,3.3C8,2.8,8.8,2,9.8,1.8
		c0.1,0,0.2-0.1,0.3-0.2C11,1.2,12,1,13,0.7c1-0.3,2-0.5,3.1-0.4c0.2,0,0.4-0.1,0.7-0.2c0.5-0.2,0.9,0.2,1.3,0.2c0.4,0,0.9,0,1.3,0
		c0.4,0,0.8,0.3,1.2,0.3c0.5,0,1,0.3,1.5,0.4c1,0.1,1.8,0.7,2.7,1c0.9,0.3,1.7,1,2.5,1.6c0.7,0.5,1.3,1.1,1.9,1.7
		c1.7,1.7,2.7,3.2,3.7,5.9c0.7,0.9,0.6,2.1,1.1,3c0,0,0,0.1,0,0.1c0,0.5-0.1,1,0.1,1.5c0.2,0.5,0.1,0.9,0.1,1.4c0,0.5,0.1,1,0,1.5
		c-0.3,1.6-0.5,3.3-1.2,4.8c-0.5,1.1-1.1,2.2-1.6,3.2c-0.2,0.4-0.5,0.8-0.8,1.1c-0.8,0.8-1.2,1.8-2.3,2.3c-1.2,1.4-2.9,2.1-4.5,2.9
		c-0.9,0.4-1.8,0.6-2.8,0.9C19.7,34.1,18.3,34.2,16.9,34.2z M32.7,17.3c-0.1-1-0.1-2.1-0.3-3c-0.2-1-0.6-2-1-3
		c-0.5-1.4-1.2-2.7-2.2-3.9c-1.7-2-3.8-3.7-6.3-4.6c-1.2-0.5-2.5-0.7-3.7-1c-0.5-0.1-1,0.1-1.5,0c-0.5-0.1-0.9,0-1.3,0
		c-1.1,0-2.1,0.2-3.1,0.4c-1,0.3-2.1,0.6-3,1.1C9.2,3.7,8.4,4.3,7.6,4.9c-1.4,1-2.4,2.2-3.4,3.5c-0.7,1-1.2,2.2-1.7,3.3
		c-0.6,1.4-0.9,2.9-1,4.4c0,1-0.1,2.1,0,3c0.2,1.1,0.5,2.1,0.8,3.1c0.7,2,1.7,3.7,3.1,5.2c0.7,0.8,1.4,1.5,2.3,2.1
		c1.1,0.8,2.2,1.5,3.5,2c1.6,0.6,3.2,1,4.9,1c0.3,0,0.7,0.3,1,0.2c0.8-0.4,1.8,0.1,2.6-0.4c0.9,0.1,1.7-0.3,2.5-0.6
		c2.1-0.7,3.9-1.9,5.6-3.4c0.6-0.6,1.2-1.2,1.7-1.9c1-1.3,1.7-2.8,2.3-4.3C32.3,20.7,32.7,19,32.7,17.3z"/>
	<path class="st0" d="M146.1,29.6c-0.4,0-0.7,0-1,0c-1.4,0.1-2.7-0.4-3.9-1.1c-0.5-0.3-1-0.6-1.4-1.2c-0.3-0.6-1-1-1.3-1.8
		c-0.3-0.9-0.7-1.7-0.8-2.7c-0.1-0.7-0.2-1.3-0.2-2c0.1-1,0.2-2.1,0.6-3.1c0.6-1.4,1.4-2.7,2.6-3.6c0.8-0.6,1.8-1,2.7-1.3
		c0.6-0.2,1.3-0.3,2-0.2c0.2,0,0.4,0,0.5-0.1c0.3-0.2,0.5-0.2,0.8,0c0.1,0.1,0.3,0.1,0.5,0.1c1.2-0.2,2.2,0.3,3.2,0.7
		c1.1,0.5,2.1,1.3,2.8,2.5c0.6,1,0.8,2.1,1.3,3.2c0.1,0.2,0,0.4,0,0.5c0,0.7,0,1.4,0,2.2c-0.1,1.9-0.7,3.5-1.8,5
		c-1.1,1.4-2.5,2.2-4.2,2.6C147.6,29.6,146.8,29.5,146.1,29.6z M150.6,21.2c0-0.3,0-0.5,0-0.8c0-1.6-0.6-3-1.8-4
		c-0.5-0.5-1.1-0.8-1.9-0.7c-0.4,0-0.9,0-1.3,0c-1.5,0-2.5,0.8-3.3,2c-0.6,0.9-0.8,2-0.9,3c-0.1,0.6,0.1,1.2,0.2,1.9
		c0.2,1.1,0.6,2.1,1.4,2.9c0.8,0.8,1.6,1.1,2.7,1.1c0.5,0,0.9,0,1.4,0c0.2,0,0.4,0,0.5,0c1.4-0.6,2.2-1.7,2.7-3.1
		c0.1-0.3,0.2-0.7,0.2-1C150.6,22,150.6,21.6,150.6,21.2z"/>
	<path class="st0" d="M74.3,29.6c-0.5,0-0.9,0-1.4,0c-0.7,0-1.3-0.2-1.9-0.4c-1.1-0.4-1.9-1-2.7-1.8c-0.8-0.9-1.4-1.9-1.8-3
		c-0.5-1.5-0.5-3-0.4-4.6c0.4-0.7,0.2-1.5,0.6-2.2c0.4-0.7,0.7-1.4,1.1-2c0.4-0.7,1.1-1.1,1.7-1.5c1.3-0.8,2.7-1.3,4.3-1.3
		c0.3,0,0.7,0.1,0.9-0.2c0,0,0.2,0,0.2,0c0.6,0.3,1.3,0.1,1.9,0.2c0.9,0.2,1.8,0.4,2.5,0.9c0.3,0.2,0.7,0.3,0.9,0.6
		c0.3,0.2,0.4,0.6,0.6,0.8c0.6,0.5,1,1.2,1.3,2c0.3,0.8,0.7,1.6,0.6,2.6c-0.1,0.7,0.4,1.4,0.2,2.1c-0.3,1.4-0.3,2.8-1.1,4
		c-1.1,1.7-2.4,3.1-4.4,3.7c-0.8,0.2-1.6,0.4-2.5,0.3C74.8,29.6,74.6,29.6,74.3,29.6z M74.4,26.6c0.3,0,0.5,0,0.6,0
		c1.7,0,2.8-0.7,3.5-2.2c0.4-0.8,0.5-1.7,0.6-2.6c0.1-0.8,0-1.5-0.2-2.3c-0.2-1-0.5-1.8-1.1-2.5c-0.7-0.8-1.6-1.3-2.7-1.3
		c-0.4,0-0.8,0-1.2,0c-1.2-0.1-2.1,0.6-2.8,1.4c-0.7,0.8-1.1,1.8-1.2,2.9c-0.1,1.3-0.1,2.7,0.4,4c0.4,0.9,0.9,1.7,1.8,2.2
		C73,26.5,73.7,26.7,74.4,26.6z"/>
	<path class="st0" d="M172.1,20.8c0-1.5,0-3,0-4.6c0-0.3-0.1-0.4-0.4-0.4c0,0-0.1,0-0.1,0c-0.7,0-1.4,0-2.1,0c0-0.7-0.1-1.5-0.1-2.2
		c0-0.2,0-0.4,0-0.5c0-0.1,0.2-0.2,0.3-0.2c0.7,0,1.3,0,2,0c0.4,0,0.4-0.1,0.4-0.4c0-0.9,0-1.9,0-2.8c0-0.4,0.2-0.6,0.5-0.7
		c1-0.2,1.9-0.5,2.8-0.8c0.4-0.2,0.6-0.1,0.6,0.4c0,1.3,0,2.5,0,3.8c0,0.5,0,0.5,0.5,0.5c0.9,0,1.8,0,2.7,0c0.5,0,0.7,0.2,0.7,0.7
		c0,0.8,0,1.5,0,2.3c-0.7,0-1.5,0.1-2.2,0.1c-0.4,0-0.9,0-1.3,0c-0.3,0-0.3,0.1-0.3,0.4c0,2.8,0,5.5,0,8.3c0,0.5,0.2,1.1,0.4,1.4
		c0.3,0.3,0.8,0.5,1.2,0.6c0.6,0.1,1.3,0.2,1.9-0.4c0,0,0.3,0.1,0.3,0.2c0,0.9,0,1.7,0,2.6c0,0.2-0.2,0.4-0.4,0.5
		c-0.5,0.1-0.9,0.2-1.4,0.2c-0.7,0-1.5,0.1-2.2,0c-1.4-0.1-2.6-0.6-3.3-2.1c-0.3-0.8-0.5-1.6-0.6-2.4
		C172.1,23.7,172.1,22.3,172.1,20.8z"/>
	<path class="st0" d="M93.8,29.6c-0.7,0-1.2,0-1.7,0c-0.1,0-1.6-0.4-1.7-0.4c-0.6-0.4-1.3-0.7-1.9-1.1c-0.1,0-0.2-0.1-0.3-0.1
		c-0.5-0.6-1-1.1-1.5-1.8c-0.5-0.8-0.8-1.7-1.1-2.6c-0.2-0.6-0.2-1.3-0.2-1.9c0.1-1.8,0.3-3.5,1.3-5.1c1.2-2,2.8-3.2,5.1-3.7
		c0.6-0.1,1.2-0.2,1.8-0.2c0.2,0,0.4,0,0.5-0.1c0.3-0.2,0.5-0.2,0.8,0c0.2,0.1,0.5,0.1,0.7,0.1c0.9-0.1,1.7,0.3,2.6,0.6
		c0.2,0.1,0.4,0.1,0.4,0.4c0,0.9,0,1.9,0,2.8c0,0.3-0.1,0.4-0.4,0.2c-0.5-0.3-1-0.6-1.5-0.8c-0.7-0.3-1.5-0.2-2.2-0.2
		c-0.9,0-1.6,0.2-2.3,0.6c-1.3,0.8-2.6,2.3-2.5,4.1c0,0.6,0,1.2,0,1.7c0,1.1,0.4,2.1,1.2,2.9c0.6,0.7,1.3,1.2,2.2,1.4
		c0.2,0,0.4,0.1,0.6,0.1c0.4,0,0.8,0,1.2,0c1,0,1.9-0.2,2.7-0.8c0.2-0.1,0.4-0.2,0.7-0.2c0.2,0,0.4,0,0.3,0.3c0,0.8,0,1.6,0,2.4
		c0,0.3-0.1,0.5-0.4,0.6c-0.7,0.2-1.2,0.8-2,0.7C95.3,29.8,94.4,29.5,93.8,29.6z"/>
	<path class="st0" d="M58.7,17.2c0-3.8,0-7.7,0-11.5c0-0.7,0-0.7,0.7-0.7c0.9,0,1.7,0,2.6,0c0.4,0,0.4,0.1,0.4,0.4
		c0,0.1,0,0.3,0,0.4c0,7.5,0,15.1,0,22.6c0,0.2,0,0.4,0,0.6c0,0.1-0.2,0.2-0.3,0.2c0,0-0.1,0-0.1,0c-1.1,0-2.2,0-3.2,0
		c0-1-0.1-2.1-0.1-3.1C58.7,23.2,58.7,20.2,58.7,17.2z"/>
	<path class="st0" d="M158.2,21.2c0-2.5,0-5,0-7.5c0-0.6,0-0.5,0.6-0.6c0.5-0.1,0.9,0.2,1.4,0.2c0.4,0,0.9-0.2,1.3,0.2
		c0.1,0.1,0.4-0.1,0.6-0.2c0.6-0.3,2.4-0.7,3-0.7c0.1,0,0.1,0,0.2,0c0.8,0,1.6,0.1,2.4,0.1c0,0.8,0,1.5,0,2.3c0,0.1,0,0.1,0,0.2
		c0,0.8-0.1,0.9-0.8,0.6c-0.6-0.2-1.2-0.2-1.8-0.1c-1,0.2-2,0.6-2.7,1.4c-0.2,0.3-0.4,0.6-0.4,0.9c0,3.3,0,6.7,0,10
		c0,0.2,0,0.4,0,0.7c0,0.5-0.2,0.6-0.6,0.6c-1,0-2,0-2.9,0c-0.3,0-0.3-0.1-0.3-0.4c0-0.9,0-1.9,0-2.8
		C158.2,24.5,158.2,22.8,158.2,21.2z"/>
	<path class="st0" d="M17,4.4c0.6,0,1.2,0,1.7,0c1,0,2,0.4,3,0.7c1.1,0.4,2.2,1,3.1,1.7c0.4,0.3,0.7,0.7,1.1,1
		c0.7,0.5,1.2,1.2,1.7,1.8c0.6,0.7,0.9,1.7,1.3,2.5c0.5,0.8,0.6,1.7,0.9,2.6c0.4,1.5,0.3,3,0.2,4.5c-0.1,1.4-0.6,2.7-1.3,4
		c-1,1.8-2.2,3.2-3.8,4.5c-1.1,0.9-2.4,1.5-3.6,2c-0.6,0.2-1.2,0.4-1.9,0.5c-0.8,0.1-1.7,0.3-2.5,0.2c-1-0.1-2.1-0.2-3.1-0.5
		c-0.6-0.1-1.1-0.3-1.6-0.5c-0.5-0.2-1.1-0.4-1.5-0.7c-0.6-0.3-1.2-0.7-1.7-1.2C8.6,27,8.3,26.9,8,26.6c-1.4-1.5-2.6-3.1-3.2-5.2
		C4.5,20.3,4,19.2,4.1,18c0-0.2-0.2-0.5-0.2-0.7C4,16.5,4,15.7,4.2,14.9c0.2-0.6,0.2-1.2,0.5-1.9c0.4-1.1,0.9-2.1,1.6-3
		C6.6,9.4,7,8.8,7.4,8.4C8.2,7.7,9,7,9.9,6.4c1-0.7,2-1.2,3.2-1.5c0.6-0.1,1.1-0.4,1.7-0.5C15.4,4.3,16.2,4.4,17,4.4z M25.7,17.1
		c0-0.8,0-1.5-0.2-2.3c-0.1-0.4-0.4-0.7-0.5-1.1c-0.2-1-0.9-1.7-1.5-2.4c-0.2-0.3-0.5-0.5-0.9-0.7c-0.4-0.2-0.7-0.6-1.1-0.8
		c-1.1-0.7-2.2-1.1-3.5-1.3c-0.7-0.1-1.4-0.1-2.1,0c-0.8,0.1-1.5,0.2-2.2,0.6c-0.8,0.4-1.6,1-2.3,1.5c-0.8,0.5-1.4,1.3-1.9,2.1
		c-0.9,1.5-1.3,3.1-1.3,4.9c0,0.4,0.1,0.7,0.2,1.1c0.1,0.5,0.2,0.9,0.3,1.4c0.4,1.3,1.2,2.3,2.1,3.4c0.4,0.5,1,0.6,1.4,1
		c1.3,1,2.9,1.4,4.5,1.5c0.7,0.1,1.5,0,2.2-0.2c0.5-0.2,1.1-0.2,1.6-0.6c0.6-0.4,1.2-0.7,1.7-1.1c1.1-0.8,1.9-1.8,2.5-3
		C25.5,19.8,25.7,18.5,25.7,17.1z"/>
</g>
</svg>
