<?xml version="1.0" encoding="utf-8"?>
<!-- Generator: Adobe Illustrator 21.0.0, SVG Export Plug-In . SVG Version: 6.00 Build 0)  -->
<svg version="1.1" id="Layer_1" xmlns="http://www.w3.org/2000/svg" xmlns:xlink="http://www.w3.org/1999/xlink" x="0px" y="0px"
	 viewBox="0 0 101.2 73.6" style="enable-background:new 0 0 101.2 73.6;" xml:space="preserve">
<style type="text/css">
	.st0{fill:#FFFFFF;}
</style>
<g>
	<g>
		<path class="st0" d="M101.1,55c-2-1.6-4-3.1-5.9-4.8c-0.3-0.3-0.6-0.9-0.6-1.4c0-8.6,0-17.1,0-25.7c0-3.7,0-7.3,0-11
			c0-0.7-0.1-1.3-0.2-2.2c-0.5,0.4-0.8,0.6-1.1,0.8C80,22,66.7,33.3,53.4,44.5c-2.4,2-3.5,2-5.9,0C34.3,33.3,21,22.1,7.8,10.8
			c-0.3-0.3-0.6-0.5-1.1-0.9c0,16.6,0,32.9,0,49.4c0.3-0.3,0.7-0.5,1-0.8c7-6.1,13.9-12.2,20.9-18.2c2.1-1.8,5.1-0.9,5.6,1.7
			c0.3,1.4-0.3,2.4-1.4,3.3c-5,4.4-10,8.8-15.1,13.2c-2.9,2.5-5.7,5-8.6,7.5c0,0.1,0,0.3,0,0.4c1,0.2,1.9,0.5,2.9,0.5
			c11.3,0,22.6,0,33.9,0c1.4,0,2.4,0.3,3.5,1.2c2,1.8,4.2,3.5,6.5,5.4c-0.7,0-1.1,0.1-1.5,0.1c-14.1,0-28.3,0-42.4,0
			c-6.9,0-12-5.1-12-11.9c0-16.5,0-33,0-49.5C0,5,5,0,12.2,0c25.7,0,51.5,0,77.2,0c6.6,0,11.8,5,11.8,11.5c0,14.3,0,28.7,0,43
			C101.1,54.7,101.1,54.9,101.1,55z M88,6.7c-25.1,0-49.9,0-75,0c12.6,10.7,25,21.2,37.5,31.7C63,27.8,75.3,17.4,88,6.7z"/>
		<path class="st0" d="M77.4,64.2c0,0.5,0,1,0,1.5c0,1.4,0.1,2.7,0,4.1c-0.2,2-1.4,2.6-3,1.4c-4.3-3.5-8.6-7-12.9-10.6
			c-1.7-1.4-1.7-3.6,0-4.9c4.3-3.5,8.6-7,12.9-10.5c1.5-1.2,2.8-0.6,2.9,1.4c0.1,1.8,0,3.6,0,5.6c8.1-0.5,14.8,2,19.8,8.5
			c2.8,3.6,3.8,7.9,3.9,12.8C94.7,66.3,86.8,63.5,77.4,64.2z"/>
		<path class="st0" d="M66.3,47.3c-0.5,0.7-0.8,1.3-1.2,1.8c-1.6,1.4-3.3,2.7-4.9,4c-3.6,3-3.6,7.2,0,10.2c1.7,1.4,3.4,2.7,5,4.1
			c0.9,0.8,1,3.2,0,4c-0.3,0.2-0.9,0.4-1.3,0.3c-0.6-0.2-1.1-0.5-1.5-0.9c-4-3.2-7.9-6.4-11.9-9.6c-2.3-1.8-2.2-4,0-5.8
			c3.9-3.2,7.8-6.4,11.8-9.6c0,0,0.1,0,0.1-0.1c0.8-0.6,1.7-1.4,2.6-0.7C65.6,45.3,65.8,46.4,66.3,47.3z"/>
	</g>
</g>
</svg>
