<?xml version="1.0" encoding="utf-8"?>
<!-- Generator: Adobe Illustrator 21.0.0, SVG Export Plug-In . SVG Version: 6.00 Build 0)  -->
<svg version="1.1" id="Layer_1" xmlns="http://www.w3.org/2000/svg" xmlns:xlink="http://www.w3.org/1999/xlink" x="0px" y="0px"
	 viewBox="0 0 88.3 86.3" style="enable-background:new 0 0 88.3 86.3;" xml:space="preserve">
<style type="text/css">
	.st0{fill:#FFFFFF;}
</style>
<path class="st0" d="M36.3,63.6c-1.7,1.5-2.5,3.3-2.8,5.4c0,0.2-0.2,0.5-0.4,0.5c-2,0.8-4,1.3-6.2,1c-2.9-0.4-4.8-2.1-6.3-4.4
	c-1.4-2.4-3.4-4.1-6.2-4.6c-0.7-0.1-1.5,0-2.2,0.1c-0.6,0.1-0.8,0.7-0.3,1.2c0.3,0.4,0.7,0.7,1.1,1c2.3,1.4,4,3.5,5,6
	c2,5.5,7.1,7.8,13,7.1c0.8-0.1,1.5-0.2,2.4-0.3c0,0.4,0,0.7,0,1c0,2.1,0,4.1,0,6.2c0,2.2-1.3,3.1-3.3,2.4c-3.8-1.3-7.3-3-10.5-5.3
	C9.7,74.1,3.5,64.9,1,53.2C-2.8,35.8,4.8,17.3,19.8,7.4C37.4-4.2,60.6-2,75.6,12.9C82.7,20,86.9,28.5,88,38.5
	c1.5,13.3-2.1,25.2-11.1,35.3c-5,5.7-11.2,9.6-18.4,12.1c-2,0.7-3.2-0.2-3.2-2.3c0-3.4,0-6.9,0-10.3c0-4.7-0.3-5.8-2.8-9.7
	c1.7-0.3,3.4-0.6,5.1-1c5.6-1.4,10.1-4.1,12.6-9.5c2-4.2,2.4-8.7,2.1-13.3c-0.3-3.6-1.5-6.8-3.9-9.5c-0.2-0.2-0.2-0.6-0.1-0.9
	c1.2-3.6,0.8-7.2-0.3-10.7c-0.2-0.6-0.6-0.6-1.1-0.6c-2.5,0-4.7,0.9-6.8,2c-1.3,0.6-2.4,1.4-3.7,2.1c-0.4,0.2-1,0.3-1.5,0.2
	c-6.9-1.6-13.8-1.7-20.7,0c-0.7,0.2-1.1,0-1.7-0.3c-2.7-1.7-5.4-3.2-8.6-3.8c-2.5-0.5-2.8-0.3-3.4,2.1c-0.8,3.1-0.9,6.2,0.2,9.3
	c0.1,0.2,0,0.6-0.2,0.8c-3.3,4-4.4,8.7-4,13.8c0.2,3.1,0.8,6.1,2.1,8.9c2.4,5,6.6,7.9,11.8,9.3c1.6,0.5,3.3,0.7,5,1
	C35.6,63.4,35.8,63.5,36.3,63.6z"/>
</svg>
