<?xml version="1.0" encoding="utf-8"?>
<!-- Generator: Adobe Illustrator 21.0.0, SVG Export Plug-In . SVG Version: 6.00 Build 0)  -->
<svg version="1.1" id="Layer_1" xmlns="http://www.w3.org/2000/svg" xmlns:xlink="http://www.w3.org/1999/xlink" x="0px" y="0px"
	 viewBox="0 0 173.2 43.3" style="enable-background:new 0 0 173.2 43.3;" xml:space="preserve">
<style type="text/css">
	.st0{fill:#FFFFFF;}
</style>
<g>
	<path class="st0" d="M173.2,30.2c-0.2,0-0.1,0.1-0.1,0.2c0,1.2-0.3,2.4-0.8,3.5c-0.2,0.5-0.3,1-0.6,1.5c-0.4,0.8-0.9,1.5-1.4,2.3
		c-0.6,0.8-1.2,1.5-1.9,2.2c-0.6,0.6-1.4,1-2,1.5c-0.4,0-0.7,0.3-1.1,0.4c-0.4,0.1-0.7,0.2-1.1,0.4c-0.4,0.1-0.8,0.1-1.2,0.2
		c-0.7,0.2-1.4,0.1-2.1,0.1c-0.2,0-0.5-0.2-0.8-0.1c-0.2,0-0.4,0.3-0.7,0.4c-0.1,0.1-0.3,0-0.4,0.2c-0.3-0.1-0.6,0.1-1,0.1
		c-2.5,0-4.9,0-7.4,0c-0.2,0-0.3-0.1-0.2-0.3c0.2-0.5,0.2-1,0.4-1.5c0.1-0.2,0.2-0.5,0.4-0.6c0.1-0.1,0.2-0.1,0.4-0.1
		c0.1,0,0.1,0.1,0.2,0.2c0.1,0.3,0.3,0.7,0.4,1c0,0.1,0.1,0.1,0.2,0c0.5-0.4,0.5-1.2,0-1.7c-0.1-0.1-0.3-0.3-0.3-0.4
		c0-0.1,0.2-0.2,0.2-0.4c0.1-0.1,0.1-0.2,0.2-0.3c0.1-0.1,0.1-0.1,0.2,0c0.1,0.1,0.2,0.2,0.3,0.3c0.1,0.1,0.5,0.1,0.7,0
		c0.2-0.1,0.2-0.4,0.1-0.5c-0.4-0.2-0.7-0.6-1.1-1c-0.4-0.4-0.9-0.3-1.2,0.1c-0.4,0.6-0.9,1.1-1.2,1.7c-0.2,0.6-0.4,1.2-0.4,1.8
		c0,0.4-0.1,0.9-0.1,1.3c0,0-0.1,0.1-0.1,0.1c-0.4,0-0.7,0-1.1,0c-0.1,0-0.1-0.1-0.1-0.2c0-0.7,0-1.4,0-2.2c0-0.2,0.1-0.3,0.2-0.4
		c0.1,0,0.2,0.1,0.3,0.1c0.1,0.1,0.3,0.2,0.5,0c0.2-0.1,0.3-0.5,0.2-0.6c-0.1-0.2-0.3-0.4-0.4-0.6c-0.2-0.3-0.2-0.4,0-0.7
		c0.1-0.1,0.1-0.2,0.2-0.3c0.1-0.1,0.1-0.2,0.2,0c0.2,0.3,0.4,0.1,0.7,0.2c0,0,0.1-0.1,0.1-0.1c0-0.1-0.1-0.2-0.1-0.3
		c0-0.1-0.1-0.2,0.1-0.2c0.2,0,0.4-0.1,0.6,0.1c0,0,0.1,0.1,0.2,0c0.1-0.1,0.2-0.2,0.3-0.3c-0.1-0.1-0.1-0.2-0.3-0.3
		c-0.5-0.3-1-0.5-1.6-0.4c-0.3,0-0.6,0.1-0.8,0.4c-0.2,0.3-0.5,0.4-0.8,0.4c-0.3,0-0.6,0-0.9,0c-0.3,0-0.6,0.1-0.8,0.1
		c-0.1,0-0.3,0.1-0.3,0.2c-0.2,0.4-0.5,0.8-0.8,1.2c-0.2,0.3-0.4,0.6-0.3,1c0,0.2,0,0.5,0,0.7c0,0.5,0.1,1,0.4,1.4
		c0.1,0.1,0.1,0.2,0.1,0.3c0.2,0.4,0.1,0.4-0.2,0.4c-1.5,0-2.9,0-4.4,0c-2.8,0-5.5,0-8.3,0c-0.2,0-0.3,0-0.5,0
		c-0.1,0-0.2-0.1-0.1-0.2c0.1-0.2,0.2-0.3,0.3-0.5c0.3-0.3,0.5-0.6,0.9-0.3c0.2,0.1,0.5,0.1,0.7,0.1c0.3,0.1,0.6-0.1,0.9-0.3
		c0.1-0.1,0.2-0.1,0-0.2c-0.5-0.2-0.9-0.5-1.4-0.6c-0.2-0.1-0.2-0.2-0.2-0.3c0-0.2,0-0.4,0.1-0.6c0.1-0.5,0.1-1.1-0.3-1.5
		c-0.3-0.3-1.1-0.4-1.5-0.3c-0.3,0.1-0.5,0.2-0.7,0.4c-0.2,0.2-0.4,0.2-0.5,0c-0.2-0.3-0.6-0.4-0.9-0.5c-0.2-0.1-0.2-0.2-0.1-0.3
		c0.1-0.2,0.1-0.4,0.1-0.6c0-0.3,0.3-0.5,0.6-0.5c0.4,0,0.8,0,1.2,0.2c0.3,0.1,0.6,0.2,0.9,0.2c0.1,0,0.2,0,0.2-0.1
		c0,0,0-0.1-0.1-0.2c-0.4-0.4-0.7-0.8-1.3-0.9c-0.1,0-0.2-0.1-0.4-0.1c-0.4,0-0.8,0-1.2,0c-0.4,0-0.6,0.1-0.7,0.4
		c-0.1,0.3-0.3,0.3-0.5,0.2c-0.2-0.1-0.4,0-0.6,0c-0.4,0.1-0.8,0.2-1.2,0.3c-0.3,0.1-0.5,0.2-0.6,0.5c-0.3,0.6-0.7,1.2-1,1.8
		c-0.1,0.1-0.1,0.3-0.1,0.4c0,0.4-0.1,0.7-0.1,1.1c0,0.5,0.2,1,0.5,1.5c0.1,0.1,0.2,0.2,0.2,0.4c0.1,0.2,0.1,0.2-0.1,0.2
		c-0.2,0-0.4,0-0.5,0c-5.5,0-11,0-16.4,0c-0.2,0-0.5,0.1-0.6,0c-0.2-0.2-0.3-0.5-0.5-0.7c-0.2-0.5-0.3-1-0.4-1.5
		c-0.1-0.3,0.1-0.6,0.1-0.9c0.1-0.3,0.2-0.6,0.4-0.8c0.4-0.3,0.4-0.7,0.5-1.1c0.3-1,1.2-1.8,2.3-1.7c0.5,0,0.8-0.1,1.1-0.4
		c0.4-0.3,0.8-0.4,1.3-0.4c0.1,0,0.2,0,0.3,0c0.5-0.1,1,0,1.5,0.3c0.3,0.2,0.4,0.1,0.6-0.3c0.4-1,0.6-2.1,0.9-3.1
		c0.1-0.2,0.1-0.4,0.2-0.5c0.3-0.7,0.6-1.4,0.9-2.1c0.1-0.2,0.2-0.5,0.3-0.7c0.1-0.2,0.1-0.4,0.1-0.5c-0.1-0.3-0.3-0.7-0.4-1
		c-0.1-0.4-0.3-0.8-0.4-1.3c-0.2-0.6-0.3-1.1-0.5-1.7c-0.2-0.5-0.2-1.1-0.5-1.6c-0.1-0.2,0-0.5-0.1-0.8c-0.1-0.3-0.1-0.6,0.2-0.8
		c0.4-0.2,0.4-0.7,0.5-1.1c0-0.1,0.1-0.2,0.1-0.2c0-0.1,0-0.2,0-0.2c-0.1,0-0.2,0-0.2,0c-0.1,0.1-0.4,0-0.5,0.2
		c-0.1,0.2-0.2,0.3-0.3,0.4c-0.1,0.1-0.2,0.1-0.2,0c0-0.3-0.2-0.5-0.1-0.8c0-0.1,0-0.3-0.1-0.4c-0.1-0.3,0.1-0.8,0.3-1.1
		c0.2-0.1,0.3-0.2,0.4-0.4c0.1-0.1,0.1-0.2,0.1-0.2c0-0.3,0-0.7,0-1c0,0,0-0.1,0-0.1c0,0-0.1,0-0.1,0.1c-0.2,0.1-0.4,0.2-0.5,0.4
		c-0.1,0.1-0.2,0.2-0.2,0.3c0-0.2,0-0.3,0-0.5c0-0.3,0-0.7,0-1c0-0.3,0-0.6,0.4-0.7c0.1,0,0.2-0.2,0.2-0.3c0-0.3,0-0.5,0-0.8
		c-0.1-0.9,0.1-1.9,0.2-2.8c0.1-0.9,0.2-1.7,0.5-2.6c0.2-0.4,0.3-0.9,0.7-1.2c0.2-0.2,0.3-0.5,0.3-0.8c0-0.3-0.1-0.6,0.1-0.9
		c-0.1-0.4,0.2-0.6,0.5-0.8c0.1-0.1,0.2-0.1,0.3-0.2c0.1-0.1,0.2-0.2,0.3-0.3c-0.1,0-0.3-0.1-0.4-0.1c-0.2,0-0.2-0.1-0.2-0.2
		c0-0.2,0.1-0.4,0.2-0.5c0.2-0.3,0.4-0.5,0.6-0.8c0.1-0.2,0.2-0.3,0.3-0.5c0.3-0.4,0.7-0.6,1.1-0.9c0.2-0.1,0.5-0.2,0.6-0.1
		c0.2,0.1,0.5,0,0.6,0.1c0.4,0.2,0.8,0,1.2,0.3c0,0,0.1,0,0.2,0c0,0,0-0.1-0.1-0.1c-0.2-0.2-0.3-0.6-0.7-0.5c0,0-0.1-0.1-0.1-0.1
		c0,0,0-0.1,0.1-0.1c0.4,0,0.7-0.3,1.1-0.4c0.1,0,0.3,0,0.4,0c0.1,0,0.2,0.1,0.3,0.2c0.3,0.5,0.7,0.9,1,1.3c0,0,0.1,0.1,0.1,0.1
		c0-0.1,0.1-0.1,0.1-0.2c0-0.3,0-0.6,0-0.9c0-0.4-0.3-0.6-0.4-1c0.1,0,0.2,0,0.3,0c0.4,0.3,0.9,0.5,1.4,0.8c0.7,0.5,0.7,0.4,1.5,0
		c0.1-0.1,0.3-0.2,0.4-0.1c0.1,0.1,0.1,0.3,0.1,0.4c0,0-0.1,0.1-0.1,0.1c-0.1,0.4-0.3,0.8-0.2,1.2c0,0,0.1,0.1,0.1,0.1
		c0.2-0.3,0.5-0.6,0.7-0.9c-0.1-0.3,0.2-0.4,0.3-0.6c0.1-0.4,0.4-0.7,0.8-0.6c0.1,0,0.2,0,0.2-0.1c0.2-0.1,0.4-0.1,0.6,0
		c0.1,0.1,0.2,0.1,0.4,0.1c-0.1,0.1-0.2,0.2-0.2,0.3c0,0.2,0,0.4,0,0.5c0,0,0.1,0.1,0.2,0.1c0.3,0,0.6-0.2,0.8-0.3
		c0.5-0.3,1-0.1,1.4,0.1c0.2,0.1,0.2,0.2,0,0.3c-0.2,0.1-0.4,0.2-0.6,0.4c0,0-0.1,0.1-0.1,0.1c0,0,0.1,0.1,0.1,0.1
		c0.5-0.1,1.1,0.1,1.6-0.1c0.2-0.1,0.4-0.1,0.6,0.1c0.3,0.3,0.7,0.6,0.9,0.9c0.6,0.9,1,1.9,1.4,2.9c0,0-0.1,0.1-0.1,0.2
		c0,0-0.1,0-0.2,0c-0.2,0-0.3,0.2-0.2,0.3c0.1,0.1,0.3,0.2,0.5,0.3c0.2,0.2,0.5,0.3,0.6,0.6c0.1,0.3,0.4,0.6,0.7,0.7
		c0.4,0.2,0.7,0.5,1,0.8c0.7,0.6,1,1.4,1.2,2.3c0.2,0.8,0.3,1.6,0.5,2.4c0,0.1,0,0.3-0.2,0.3c-0.3,0-0.5-0.1-0.8-0.1c0,0,0,0,0,0
		c0,0,0-0.1,0-0.1c0,0-0.1,0-0.1,0c0,0,0,0.1,0.1,0.1c0,0.4,0.2,0.8,0.6,1c0.2,0.1,0.4,0.2,0.6,0.3c0.2,0,0.4,0.2,0.5,0.4
		c0.3,0.6,0.5,1.2,0.5,1.9c-0.2,0.1-0.3-0.2-0.5-0.2c-0.1,0-0.2,0-0.2-0.1c0,0.1-0.1,0.2,0,0.3c0.2,0.3,0.3,0.6,0.6,0.9
		c0.2,0.1,0.4,0.2,0.5,0.4c0.1,0.2,0,0.5,0,0.7c0,0.1,0,0.3,0,0.4c-0.1,0.3,0.1,0.5,0.3,0.6c0.7,0.4,1.3,0.9,2,1.1
		c0.4,0.1,0.7,0.3,1.2,0.3c1,0,2-0.1,2.9-0.3c0.5-0.1,0.9-0.4,1.4-0.6c0.1,0,0.1-0.2,0.2-0.3c0.1-0.2,0.1-0.4,0.1-0.6
		c0.2-0.8,0.7-1.4,1.5-1.7c0.3-0.1,0.5-0.1,0.8-0.1c0.4,0,0.9,0,1.3,0.1c0.9,0.2,1.7,0.7,2.4,1.3c0.6,0.5,1.2,1.1,1.7,1.7
		c0.7,0.9,1.2,1.8,1.8,2.8c0.5,0.9,0.9,1.8,1.2,2.8c0.2,0.8,0.5,1.5,0.6,2.3c0.1,0.3,0,0.7,0.2,0.9c0.1,0.3,0.1,0.6,0.1,0.8
		c0,0.3,0.1,0.5,0.1,0.8c0,0.5,0,1,0,1.6s0,1,0,1.6c0,0.5-0.1,1-0.1,1.6c0,0.1-0.1,0.2-0.1,0.3c0,0.6-0.2,1.1-0.3,1.7
		c0,0.2,0.1,0.4,0.2,0.4c0.3,0.1,0.6,0.1,1,0.1c0.4,0,0.9,0,1.3,0c0.4,0,0.7-0.1,1.1-0.2c0.8-0.2,1.5-0.7,2.2-1.2
		c0.8-0.5,1.3-1.3,1.9-1.9c0.5-0.6,0.8-1.3,1.1-2c0.2-0.4,0.5-0.8,0.6-1.3c0.1-0.4,0.2-0.8,0.3-1.2c0.1-0.4,0.2-0.8,0.2-1.2
		c0.1-0.4,0.1-0.8,0.1-1.2c0.1-1.3,0-2.6-0.1-3.9c0,0,0,0,0-0.1c-0.3-0.7-0.3-1.4-0.5-2.1c-0.2-0.9-0.5-1.7-0.9-2.5
		c-0.3-0.6-0.6-1.1-0.9-1.7c-0.5-0.8-1-1.6-1.7-2.3c-1.2-1.3-2.5-2.6-4-3.5c-0.4-0.2-0.8-0.5-1.2-0.6c-0.4-0.1-0.9-0.1-1.3,0
		c-0.4,0.2-0.8,0-1.2,0.2c-0.4,0.2-0.9,0-1.3,0c-0.1,0-0.3,0-0.4,0c-1.1-0.4-2.1-0.8-2.8-1.7c0,0,0-0.1-0.1-0.1c0,0,0.1-0.1,0.1-0.1
		c0.1,0,0.3,0,0.4,0.1c0.3,0.1,0.6,0.1,0.9,0.2c0.2,0,0.2-0.1,0.1-0.2c0-0.1-0.1-0.2-0.1-0.2c0.1-0.1,0.2-0.2,0.2-0.2
		c0.3-0.1,0.6-0.1,1-0.1c0.1,0,0.3-0.1,0.4-0.1c0.1,0,0.1,0,0.1-0.2c-0.2-0.3-0.5-0.2-0.7-0.3c-0.3-0.1-0.6,0-0.8-0.1
		c-0.3-0.2-0.5-0.1-0.8-0.1c-0.1,0-0.2,0-0.1,0.1c0.1,0.1,0.1,0.2,0.1,0.3c0,0.2,0,0.3-0.2,0.2c-0.2,0-0.5-0.2-0.7-0.1
		c-0.7,0.1-1-0.3-1.2-0.8c-0.1-0.1-0.1-0.3-0.2-0.4c-0.3-0.4-0.5-0.9-1-1.1c-0.1,0-0.2-0.1-0.2-0.2c0.1,0,0.2-0.1,0.3-0.1
		c0.1,0,0.1,0,0.2,0c0.3-0.1,0.7-0.2,1-0.3c0.3-0.2,0.7-0.2,1-0.3c0.8-0.2,1.6-0.5,2.5-0.4c0.3,0,0.7,0.1,1,0.1c0,0,0.1,0.2,0.1,0.2
		c-0.1,0.1-0.2,0.2-0.3,0.3c-0.1,0.1-0.1,0.1,0,0.2c0.4,0.4,0.8,0.7,1.4,0.7c0.3,0,0.3,0,0.2-0.3c-0.1-0.2-0.2-0.3-0.2-0.5
		c0.1,0,0.3,0,0.3,0c0.5,0.4,1,0.7,1.3,1.2c0.5,0.8,1.1,1.6,1.8,2.3c0.3,0.3,0.5,0.6,0.8,0.8c0.3,0.3,0.6,0.5,0.9,0.7
		c1,0.7,1.9,1.3,2.7,2.2c0.3,0.4,0.7,0.8,1,1.1c0.3,0.3,0.6,0.6,0.8,1c0.7,1.1,1.4,2.1,1.9,3.3c0.2,0.6,0.6,1.1,0.8,1.6
		c0.1,0.3,0.2,0.6,0.3,0.9c0.2,0.3,0.2,0.7,0.3,1c0.1,0.4,0.3,0.9,0.3,1.4c0,0.3,0,0.6,0.1,0.8c0.2,0.3,0,0.5,0.1,0.8
		c0.1,0.3,0.1,0.5,0.1,0.8c0,0.2,0,0.5,0,0.7c0,0,0.1,0.1,0.1,0.1C173.2,28.1,173.2,29.1,173.2,30.2z M138.6,35.2
		c0-0.3-0.1-0.5-0.3-0.7c-0.5-0.5-1.2-0.8-1.9-0.8c-0.5,0-1-0.2-1.6-0.2c-0.1,0-0.3-0.1-0.4-0.1c-0.6,0.2-1.2,0.3-1.7,0.5
		c-0.1,0-0.2,0.1-0.3,0.1c-0.1,0.2-0.3,0.4-0.3,0.6c0,0.1-0.1,0.4,0,0.5c0.1,0.1,0.3-0.1,0.4-0.2c0.1-0.1,0.2-0.1,0.2-0.1
		c0.3-0.1,0.7-0.2,1-0.4c0.2-0.1,0.3-0.1,0.4,0c0.2,0.2,0.4,0.2,0.7,0.1c0.4-0.1,0.8-0.2,1.1-0.2c0.4,0,0.8,0.1,1.1,0.3
		c0.4,0.2,0.8,0.4,1.2,0.5c0.3,0.1,0.3,0.1-6.2-0.1c0,0,0,0,0-0.1c0,0-0.1,0-0.1,0c0,0,0,0.1,0,0.1C132,35.3,132,35.3,138.6,35.2z
		 M126.3,13.4c0.5,0.1,1,0,1.5,0.2c0.2,0.1,0.5,0.1,0.7,0.3c0.2,0.2,0.1,0.4,0.1,0.6c0,0.3-0.2,0.5-0.5,0.3c-0.3-0.2-0.4,0-0.5,0.1
		c-0.2,0.4-0.3,0.7-0.7,0.9c0,0-0.1,0.1-0.1,0.1c0,0.2,0,0.4,0,0.6c0,0.3,0.3,0.6,0.6,0.6c0.8,0.1,1.4,0.6,2.1,0.9
		c0.5,0.3,0.5,0.3,0.8-0.2c0.3-0.4,0.4-0.4,0.9-0.2c0.7,0.3,1.4,0.7,2,1.3c0.4,0.3,0.8,0.6,1.2,1c0,0,0.1,0.1,0.1,0.1
		c0.1,0,0.2,0,0.2-0.1c0-0.3,0.2-0.6-0.1-0.8c-0.7-0.6-1.5-1.1-2.3-1.6c-0.3-0.2-0.6-0.3-0.8-0.4C131,17,131,17,131,16.5
		c0-0.1,0-0.2,0-0.3c0-0.1,0.1-0.2,0.2-0.1c0.4,0,0.8,0,1.2,0.1c0.8,0.3,1.7,0.4,2.5,0.9c0.1,0.1,0.3,0.1,0.4,0.2c0.1,0,0.2,0,0.2,0
		c0-0.2,0-0.4,0-0.5c0-0.1-0.2-0.1-0.2-0.2c-0.4-0.2-0.8-0.4-1.3-0.6c-0.7-0.2-1.3-0.5-2-0.5c-0.3,0-0.6,0-0.9-0.1
		c-0.1,0-0.1-0.1-0.2-0.1c0.1,0,0.1-0.1,0.2-0.1c0.5-0.3,0.9-0.6,1.1-1.1c0.2-0.4,0.4-0.9,0.8-1.2c0,0,0-0.1,0.1-0.2
		c0.3-0.3,0.2-0.7,0.3-1.1c0-0.1,0.2-0.3,0.1-0.5c0,0-0.2,0.1-0.4,0.2c0,0,0,0,0,0c-0.1,0-0.1,0-0.2,0c0,0,0-0.1,0-0.1
		c0.2-0.4,0.2-0.8,0.3-1.2c0.1-0.3,0.1-0.5,0-0.7c-0.1-0.2-0.1-0.4,0-0.6c0-0.1,0.3-0.1,0.4-0.2c0.1-0.1,0.3-0.2,0.4-0.3
		c0.2-0.2,0.5-0.3,0.7-0.5c0.2-0.2,0.1-0.6,0.2-0.8c0.2-0.3,0-0.6,0.2-0.9c0.2-0.3-0.2-0.5-0.3-0.8c-0.1-0.2-0.2-0.5-0.3-0.7
		c-0.3-0.5-0.7-0.9-1.3-1c-0.2,0-0.5-0.1-0.7-0.2c-0.4-0.2-0.8-0.1-1.2,0.1c-0.2,0.1-0.4,0.3-0.7,0.4c-0.1,0-0.4,0.6-0.5,0.7
		c-0.1,0.2-0.3,0.4-0.3,0.7c0,0.1-0.2,0.2-0.3,0.2c-0.2,0-0.4,0-0.5,0c-0.6,0-1.1,0-1.6,0.3c-0.2,0.1-0.3,0.2-0.5,0.3
		c-0.2,0-0.3-0.2-0.5-0.3c-0.5-0.1-0.9-0.3-1.4-0.3c-0.4,0-0.6-0.2-0.7-0.5c-0.2-0.5-0.5-0.8-0.9-1c-0.1,0-0.2-0.1-0.2-0.1
		c0.1-0.4-0.3-0.4-0.5-0.5c-0.2-0.1-0.4-0.1-0.5-0.1c-0.5-0.2-1-0.2-1.5,0.1c-0.2,0.2-0.5,0.3-0.8,0.4c-0.3,0.1-0.5,0.3-0.6,0.6
		c-0.2,0.4-0.4,0.8-0.6,1.2c0,0.1-0.1,0.3,0,0.4c0.3,0.8,0.6,1.5,1.2,2.1c0.2,0.2,0.4,0.3,0.6,0.4c0.2,0.1,0.3,0.2,0.2,0.4
		c-0.2,0.4-0.2,0.8-0.2,1.2c0,0.3,0,0.5,0.1,0.8c0.1,0.2-0.1,0.5,0.1,0.8c0,0,0,0.2,0,0.2c-0.4,0.1-0.2,0.4-0.1,0.6
		c0.2,0.7,0.6,1.4,1.1,1.9c0.2,0.2,0.2,0.5,0.4,0.7c0.1,0.2,0,0.3-0.2,0.3c-0.6,0-1.1,0-1.7,0.1c-0.8,0.2-1.5,0.5-2.2,0.8
		c-0.1,0.1-0.3,0.1-0.3,0.3c0,0.2,0,0.4,0,0.6c0.2-0.1,0.3-0.2,0.5-0.2c0.3-0.1,0.6-0.3,0.8-0.4c0.9-0.5,1.8-0.6,2.8-0.5
		c0.1,0,0.1,0.1,0.1,0.1c0,0.3,0,0.5,0,0.8c0,0.1-0.3,0.1-0.4,0.2c-0.8,0.5-1.7,0.7-2.4,1.3c-0.5,0.2-0.7,0.6-0.6,1.1
		c0,0.1,0.1,0.2,0.1,0.3c0.1,0,0.2-0.1,0.2-0.1c0.4-0.3,0.9-0.7,1.3-1c0.6-0.4,1.2-0.9,2-1.1c0.1,0,0.2-0.1,0.3,0
		c0.2,0.2,0.3,0.4,0.6,0.6c0.1,0.1,0.2,0.1,0.4,0c0.8-0.4,1.6-0.8,2.5-0.9c0.2,0,0.4-0.2,0.5-0.3c0.1-0.3,0.1-0.6,0.2-0.9
		c0,0-0.1-0.1-0.1-0.1c-0.3-0.2-0.5-0.5-0.7-0.8c-0.1-0.1,0-0.4-0.1-0.4c-0.1-0.1-0.3,0-0.5,0c-0.1,0-0.1,0-0.2,0
		c-0.2,0-0.2-0.1-0.2-0.2c0-0.1,0-0.2,0-0.3c-0.1-0.2,0.1-0.3,0.3-0.4C125.2,13.5,125.7,13.4,126.3,13.4z M126.2,18
		c-0.5,0-1.1-0.1-1.6,0.1c-0.4,0.1-0.8,0.1-1.1,0.4c-0.1,0.1-0.2,0.1-0.2,0.1c0,0.6,0,1.1,0.3,1.6c0.1,0.2,0.2,0.2,0.4,0.1
		c0.2-0.1,0.2-0.4,0.5-0.3c0.1,0.1,0,0.3,0.1,0.5c0,0.1,0,0.2,0,0.3c0,0.2,0.1,0.4,0.3,0.5c0.2,0.1,0.4,0.1,0.6,0.1
		c0,0,0.1-0.1,0.1-0.2c0-0.1,0.1-0.2,0.1-0.3c0.2-0.2,0.3-0.5,0.3-0.8c0,0,0.1-0.1,0.1-0.1c0.1,0,0.2,0.1,0.2,0.1
		c0,0.4,0.1,0.7,0.3,1c0.1,0.1,0,0.3,0.1,0.3c0.1,0.1,0.3,0,0.4,0c0.2,0,0.4-0.1,0.5-0.2c0.1,0,0.2-0.2,0.2-0.3
		c0.1-0.3,0.1-0.7,0.1-1c0-0.1,0-0.1,0.1-0.2c0,0,0.1,0.1,0.1,0.1c0.1,0.2,0.3,0.3,0.3,0.5c0.1,0.2,0.2,0.2,0.3,0.1
		c0.5-0.5,0.7-1.2,0.8-1.9c0-0.1-0.1-0.2-0.1-0.3c-0.1-0.1-0.3-0.1-0.5-0.2C128,18.2,127.1,17.9,126.2,18z M135.8,35.5
		c-0.4,0-0.8,0.1-1.2,0.3c-0.1,0-0.2,0.1-0.3,0.1c-0.4,0-0.8-0.1-1,0.3c-0.2,0-0.4,0.1-0.4,0.2c-0.1,0.2-0.1,0.4-0.1,0.6
		c0,0.2,0.1,0.2,0.2,0.1c0.1,0,0.2-0.1,0.3-0.1c0.3,0,0.7,0,1-0.1c0.1-0.1,0.3-0.1,0.4-0.1c0.1,0,0.2-0.1,0.3,0.1
		c0.1,0.2,0.3,0.3,0.4,0.5c0.2,0.2,0.3,0.4,0.4,0.6c0.1,0.2,0.3,0.1,0.4,0.1c0.4,0,0.6,0.3,0.7,0.6c0.1,0.4,0.1,0.8,0.2,1.2
		c0,0.1,0,0.2,0.1,0.2c0.1,0,0.3,0,0.4-0.1c0.3-0.3,0.4-0.7,0.4-1c0-0.3-0.1-0.6-0.6-0.8c-0.2-0.1-0.6-0.3-0.5-0.7
		c0-0.1-0.1-0.2-0.1-0.3c-0.1-0.1-0.2-0.2-0.3-0.3c0,0-0.1-0.1-0.1-0.2c0,0,0.1-0.1,0.1-0.1c0.5,0.1,1,0.1,1.3,0.5
		c0.1,0.1,0.1,0.3,0.2,0.4c0.1,0.1,0.1,0.2,0.2,0.3c0.4,0.2,0.7,0.6,0.9,1c0.3,0,0,0.5,0.3,0.5c0.1-0.2,0.2-0.4,0.2-0.6
		c0,0,0-0.1,0-0.1c0.2-0.6,0.2-0.6-0.4-0.9c-0.1-0.1-0.2-0.1-0.2-0.2c-0.1-0.7-0.5-1-1.1-1.3c-0.2-0.1-0.5-0.2-0.7-0.3
		C136.7,35.7,136.3,35.6,135.8,35.5z M112.7,41.3c0,0.2,0,0.4,0,0.7c0,0.1,0,0.1,0.1,0.2c0-0.1,0-0.1,0.1-0.2
		c0.1-0.3,0.3-0.6,0.4-0.8c0.3-0.5,0.6-0.9,0.9-1.4c0.2-0.4,0.2-0.4,0.6-0.4c0.2,0,0.4,0.1,0.6,0.2c0,0,0.1,0.1,0.1,0.2
		c-0.1,0.4-0.1,0.8-0.2,1.1c-0.1,0.3-0.1,0.5-0.1,0.8c0,0.1,0,0.1,0.1,0.2c0,0,0.1-0.1,0.1-0.1c0.4-0.3,0.6-0.8,0.9-1.2
		c0.2-0.3,0.4-0.5,0.4-0.8c0.1-0.3,0.1-0.7-0.2-0.9c0-0.4-0.4-0.4-0.6-0.6c-0.2-0.3-0.2-0.3,0-0.6c0.1-0.1,0.1-0.2-0.1-0.3
		c-0.3,0-0.6-0.3-0.8,0c-0.8,0.1-1.3,0.5-1.6,1.2C112.9,39.4,112.7,40.4,112.7,41.3z M109.7,40.7c0,0.5-0.1,0.9,0.1,1.3
		c0.1,0.2,0.2,0.3,0.4,0.2c0.2-0.1,0.3-0.2,0.5-0.3c0.1-0.1,0.1-0.1,0.1-0.2c0-0.3,0.1-0.6-0.1-0.8c0-0.1-0.1-0.2,0-0.2
		c0.2-0.2,0.1-0.5,0.1-0.8c0-0.2,0.1-0.4,0.2-0.6c0.1-0.2,0.3-0.2,0.5-0.1c0.2,0.2,0.4,0.3,0.5,0.5c0.1,0.1,0,0.3,0.2,0.2
		c0.1,0,0.2-0.2,0.3-0.3c0.1-0.1,0.1-0.2,0.1-0.3c0-0.3,0.1-0.7-0.1-1c-0.1-0.2-0.3-0.3-0.5-0.3c-0.1,0-0.1-0.1-0.1-0.2
		c0.3-0.2,0-0.6,0.4-0.8c0,0,0,0,0,0c0,0,0,0,0,0c-0.1-0.1-1.1,0.1-1.2,0.2c-0.2,0.3-0.5,0.6-0.7,1C110,39,109.7,39.9,109.7,40.7z
		 M117.2,33.7c0.3,0,0.6,0.1,0.8,0.3c0.3,0.4,0.9,0.7,1.3,1c0.3,0.2,0.6,0.4,0.9,0.3c0.4,0,0.4,0,0.4,0.4c0,0.2-0.1,0.3-0.1,0.5
		c0,0.2,0.2,0.3,0.2,0.4c0,0.1,0,0.2,0,0.3c0.1,0.2,0,0.4,0.3,0.4c0.1,0,0.3-0.1,0.3-0.3c0-0.1,0.1-0.1,0.2-0.2
		c0.1-0.1,0.3-0.2,0.2-0.4c0-0.2-0.2-0.8-0.3-0.9c-0.2-0.1-0.3-0.2-0.5-0.3c-0.1-0.2-0.2-0.3-0.4-0.5c-0.1-0.1-0.2-0.2-0.4-0.3
		c-0.4-0.3-0.9-0.5-1.2-0.9c-0.4-0.4-0.8-0.7-1.3-0.8c-0.3-0.1-0.6-0.2-0.8,0c-0.3,0.2-0.6,0.6-0.7,1c-0.1,0.3,0.1,0.4,0.3,0.3
		C116.7,33.8,116.9,33.7,117.2,33.7z M153.7,26.2c-0.3,0-0.6,0-0.8,0.2c-0.3,0.3-0.6,0.4-1,0.4c-0.1,0-0.1,0.1-0.2,0.1
		c0,0.1,0,0.2,0,0.3c0,0.6,0.2,0.7,0.7,0.7c0.4,0,0.7-0.1,1-0.3c0.2-0.1,0.1-0.1,0-0.2c-0.1-0.2,0-0.3,0.2-0.3
		c0.3,0,0.6,0.1,0.8-0.1c0.2-0.1,0.4-0.1,0.7-0.1c0.3,0,0.3,0.1,0.3,0.3c-0.1,0.4,0.3,0.5,0.5,0.6c0.1,0.1,0.4,0.1,0.5,0.2
		c0.2,0.1,0.4,0.1,0.6,0.1c0.2,0,0.3-0.1,0.2-0.3c0-0.3,0-0.6-0.2-0.9c-0.1-0.1-0.3-0.2-0.5-0.2c-0.1,0-0.1-0.1-0.1-0.1
		c-0.3-0.2-0.5-0.3-0.9-0.1c-0.1,0.1-0.2,0.1-0.4,0C154.7,26.4,154.2,26.3,153.7,26.2z M151.3,24.9c0,0.3,0,0.5,0.1,0.8
		c0.1,0.2,0.2,0.2,0.3,0.1c0.2-0.2,0.5-0.4,0.8-0.5c0.4,0,0.6-0.2,0.9-0.4c0.1,0,0.2-0.1,0.3-0.1c0.3,0,0.7-0.1,0.9,0
		c0.8,0.3,1.6,0.3,2.3,0.8c0.1,0.1,0.2,0,0.2-0.1c0-0.2,0-0.3-0.2-0.5c-0.3-0.2-0.5-0.5-0.7-0.7c-0.1-0.1-0.2-0.1-0.4-0.1
		c-0.2,0-0.4,0.1-0.6,0.1c-0.5,0.2-0.5,0.2-0.7-0.3c-0.1-0.2-0.2-0.2-0.4-0.2c-0.5,0.1-1,0.2-1.6,0.3c-0.2,0-0.5,0.1-0.7,0.2
		c-0.2,0.1-0.3,0.2-0.6,0.2c0,0-0.1,0.1-0.1,0.1C151.3,24.7,151.3,24.8,151.3,24.9z M144.8,25.7c-0.1,0-0.1,0-0.2,0.1
		c0,0,0,0.1,0.1,0.1c0.1,0.1,0.2,0.2,0.3,0.2c0.3,0.2,0.5,0.5,0.6,0.9c0.2,0.5,0.4,1,0.7,1.5c0.1,0.3,0.2,0.5,0.4,0.8
		c0.2,0.3,0.2,0.6,0.3,0.8c0.2,0.6,0.3,1.3,0.5,2c0,0.1,0.1,0.1,0.1,0.2c0,0,0.1-0.1,0.1-0.1c0.1-0.2,0.1-0.4,0.1-0.5
		c0.1-0.2,0-0.5,0.1-0.8c0.2-0.6,0-0.9-0.5-1.3c0,0-0.1,0-0.1,0c-0.2-0.2-0.2-0.4,0-0.6c0.1,0,0.2-0.1,0.2-0.1
		c0.1-0.1,0.2-0.2,0.1-0.4c-0.2-0.2-0.3-0.5-0.5-0.8c-0.1-0.3-0.3-0.5-0.6-0.6c-0.3-0.1-0.4-0.2-0.5-0.5
		C145.8,25.9,145.2,25.8,144.8,25.7z M122.2,33.9c0-0.1,0-0.3,0-0.4c-0.1-0.3-0.1-0.6-0.4-0.8c-0.2-0.1-0.5-0.2-0.4-0.6
		c0,0-0.1-0.1-0.1-0.1c-0.4-0.3-0.8-0.5-1.1-0.8c-0.4-0.4-0.9-0.5-1.4-0.6c-0.2,0-0.5,0.1-0.7-0.1c-0.1-0.1-0.3,0-0.4,0.2
		c-0.1,0.2-0.2,0.4-0.4,0.5c-0.1,0.1-0.3,0.3-0.2,0.5c0.1,0.2,0.3,0.1,0.5,0.1c0,0,0.1,0,0.1,0c0.3-0.2,0.7-0.1,1.1-0.1
		c0.3,0,0.6,0.1,0.9,0.3c0.1,0,0.2,0.2,0.3,0.3c0.4,0.4,0.7,0.8,1.2,1c0.3,0.1,0.4,0.2,0.5,0.5c0.1,0.2,0.3,0.4,0.4,0.6
		c0,0,0,0.1,0.1,0.1c0,0,0.1-0.1,0.1-0.1C122.2,34.2,122.2,34.1,122.2,33.9z M138.2,33.2c-0.1-0.1-0.1-0.2-0.2-0.3
		c-0.1-0.6-0.5-0.9-1.1-1.1c-0.4-0.1-0.8-0.1-1.1-0.5c-0.1-0.1-0.3,0-0.5,0c-0.1,0-0.2,0.1-0.3,0.1c-0.4,0.3-0.4,0.3-1.1,0.4
		c-0.1,0-0.1,0-0.2,0.1c-0.1,0.2-0.2,0.3-0.3,0.5c-0.2,0.2-0.4,0.4-0.3,0.6c0.2,0.2,0.5,0,0.7-0.2c0.6-0.4,1.2-0.4,1.8-0.1
		c0.3,0.2,0.5,0,0.7,0c0.1,0,0.2-0.1,0.3-0.1c0.1,0,0.3,0.1,0.3,0.2c0.2,0.6,0.8,0.3,1.1,0.6C138.1,33.3,138.1,33.2,138.2,33.2z
		 M146.3,32.2C146.3,32.2,146.3,32.2,146.3,32.2c0-0.2,0-0.4,0-0.5c-0.2-0.5-0.3-0.9-0.2-1.4c0,0,0-0.1,0-0.1c0,0-0.1-0.1-0.1-0.1
		c-0.3,0.2-0.8,0.3-1,0.7c-0.1,0.2-0.2,0.3,0,0.5c0.3,0.3,0.3,0.7,0.3,1.1c0,0.2,0,0.5,0,0.7c0,0.2,0.1,0.2,0.2,0.2
		c0.1,0,0.2,0,0.3,0.1c0.1,0.1,0.1,0.2,0.1,0.3c0,0.1,0,0.2,0,0.3c0,0.2,0,0.5,0,0.7c0.2-0.2,0.3-0.4,0.5-0.6
		c0.1-0.2,0.2-0.3,0.3-0.5c0.1-0.1,0.1-0.3,0.1-0.4c-0.1,0-0.3,0-0.4-0.1c-0.2-0.1-0.3-0.1-0.2-0.4
		C146.3,32.6,146.3,32.4,146.3,32.2z M155.3,34.8c0,0,0-0.1,0-0.1c0-0.6-0.1-0.7-0.7-1c-0.2-0.1-0.5-0.2-0.6-0.3
		c-0.3-0.3-0.6-0.2-0.9-0.2c-0.2,0-0.4,0.2-0.6,0.2c-0.4,0.1-0.4,0.4-0.5,0.7c0,0.1,0,0.3,0.2,0.2c0.5,0,0.9,0,1.4,0
		c0.3,0,0.5,0.2,0.5,0.5c0,0.4,0.3,0.6,0.5,0.8c0.3,0.2,0.3,0.1,0.4-0.2C155.3,35.2,155.3,35,155.3,34.8z M154,28.6
		c-0.4,0-0.8-0.1-1.2,0.3c0,0-0.2,0-0.3,0c-0.2,0-0.3,0.1-0.2,0.3c0.1,0.2,0.2,0.3,0.3,0.5c0.1,0.2,0.3,0.2,0.5,0.2
		c0.3-0.3,0.7,0,1-0.2c0.3,0.1,0.6,0.1,0.9,0.2c0.1,0,0.2,0.1,0.2,0.2c-0.1,0.4,0.3,0.4,0.5,0.6c0.1,0.1,0.4,0.3,0.5,0.1
		c0.1-0.1,0.1-0.4,0-0.6c-0.1-0.2-0.2-0.5-0.5-0.6c-0.2-0.1-0.2-0.2-0.3-0.3c-0.1-0.4-0.5-0.4-0.8-0.5
		C154.5,28.5,154.3,28.6,154,28.6z M108.5,41.2c0-0.3,0-0.5,0-0.8c0-0.2,0.1-0.3,0.1-0.5c0-0.1,0.1-0.1,0.2-0.1
		c0.1,0.1,0.3,0,0.4,0.1c0.1,0.1,0.2,0.1,0.3,0c0.1-0.1,0.2-0.3,0.1-0.4c-0.1-0.2-0.1-0.3-0.1-0.5c-0.1-0.2-0.2-0.4-0.4-0.6
		c-0.2-0.1-0.3-0.1-0.5,0c-0.2,0.2-0.5,0.5-0.7,0.7c-0.1,0.1-0.2,0.3-0.2,0.5c0,0.6,0,1.2,0,1.8c0,0.2,0.2,0.4,0.3,0.6
		c0.1,0.1,0.3,0.1,0.4,0.2c0-0.1,0-0.3,0-0.4C108.5,41.7,108.5,41.5,108.5,41.2z M153.6,30.7c-0.6,0-0.8,0.2-0.9,0.8
		c0,0.2,0.1,0.4-0.1,0.5c0,0,0,0.1,0,0.2c0,0,0.1,0,0.2,0c0.2-0.1,0.4-0.3,0.6-0.4c0.5-0.1,1,0.1,1.4,0.4c0.3,0.2,0.5,0.5,0.7,0.8
		c0,0,0.1,0.1,0.1,0.1c0-0.1,0-0.1,0-0.2c0-0.3,0-0.6,0.1-0.9c0.1-0.4,0-0.6-0.3-0.7c-0.2-0.1-0.4-0.1-0.6-0.1
		c-0.3,0-0.6-0.1-0.8-0.4C154,30.7,153.8,30.7,153.6,30.7z M152.2,19.5c-0.2,0-0.3,0-0.4,0.1c-0.3,0.2-0.8,0.8-0.8,1.1
		c0,0.1,0,0.2,0,0.2c0.1,0.1,0.2,0.1,0.3,0c0.4-0.2,0.9-0.3,1.4-0.3c0.2,0,0.4,0.1,0.6,0.1c0.3,0.1,0.6,0.1,0.9,0.2
		c0.1,0,0.2,0,0.4,0c0-0.1-0.1-0.2-0.1-0.3c0-0.1-0.1-0.1-0.1-0.2C154,20,154,20,153.5,20c-0.1,0-0.2,0-0.3,0
		c-0.1,0-0.3-0.1-0.3-0.2C152.7,19.5,152.5,19.4,152.2,19.5z M118.4,36.2c0-0.3-0.1-0.5-0.4-0.5c-0.2,0-0.4-0.1-0.5-0.2
		c-0.2-0.4-0.5-0.4-0.8-0.4c-0.1,0-0.2-0.1-0.2-0.1c-0.3-0.1-0.5-0.2-0.7,0.1c-0.1,0.2-0.2,0.4-0.3,0.7c-0.1,0.2,0,0.3,0.2,0.3
		c0.3-0.1,0.4,0,0.7,0.1c0.6,0.2,1.1,0.5,1.6,0.7c0.1,0,0.1,0.1,0.2,0.1c0-0.1,0.1-0.2,0.1-0.3C118.4,36.5,118.4,36.4,118.4,36.2z
		 M128.8,27.2c-0.2,0.1-0.3-0.1-0.4,0.1c0,0.1,0,0.3,0.1,0.3c0.5,0.2,0.7,0.7,1,1.1c0.4,0.6,0.9,0.8,1.6,0.5
		c0.3-0.1,0.3-0.3,0.1-0.5c-0.3-0.3-0.6-0.6-0.9-0.9c-0.1-0.1-0.1-0.3-0.2-0.4c-0.1-0.1-0.3-0.1-0.5-0.1
		C129.4,27.3,129.1,27.3,128.8,27.2z M154.1,37.1c0-0.5-0.3-0.9-0.8-1c-0.2-0.1-0.3-0.1-0.4-0.3c-0.1-0.2-0.3-0.5-0.5-0.6
		c-0.1,0-0.2-0.1-0.2-0.1c-0.1-0.1-0.3-0.2-0.4-0.1c-0.2,0.1-0.4,0.2-0.5,0.3c-0.2,0.2-0.3,0.5-0.5,0.7c0,0,0,0.1-0.1,0.1
		c0.1,0,0.1,0.1,0.2,0c0.1,0,0.3-0.1,0.4-0.1c0.3-0.2,0.5-0.1,0.7,0c0.1,0.1,0.2,0.1,0.2,0.2c-0.1,0.3,0.2,0.4,0.3,0.4
		c0.3,0.1,0.6,0.2,0.9,0.4c0.1,0.1,0.3,0.1,0.4,0.2C154,37.4,154.2,37.4,154.1,37.1z M134.7,28.4c0.3,0,0.5,0,0.7,0
		c0.1,0,0.1-0.1,0.2-0.2c0,0-0.1-0.1-0.1-0.1c0,0,0,0,0,0c-0.6-0.3-1.2-0.5-1.5-1.2c0,0-0.1-0.1-0.2-0.1c-0.2,0-0.4-0.1-0.5,0
		c-0.2,0.2-0.5,0-0.6,0.1c-0.2,0.1-0.4,0.1-0.6,0.1c-0.1,0-0.1,0-0.2,0.1c0,0,0.1,0.1,0.1,0.1c0.2,0.1,0.4,0.3,0.6,0.4
		C133.2,28.1,133.9,28.5,134.7,28.4z M151.3,22.9c0,0.6,0.1,0.6,0.5,0.5c0.1,0,0.2-0.1,0.3-0.1c0.3-0.3,0.6-0.4,1-0.3
		c0.3,0,0.6-0.1,0.9,0.1c0.1,0,0.2,0,0.3,0c0.1,0,0.1-0.1,0.1-0.2c-0.2-0.3-0.3-0.8-0.9-0.8c-0.1-0.2-0.4,0-0.5-0.1
		c-0.3-0.3-0.6-0.1-0.9,0.1c-0.3,0.2-0.6,0.4-0.8,0.7C151.3,22.7,151.3,22.9,151.3,22.9z M143.5,30.7c-0.2-0.3-0.1-0.6-0.3-1
		c-0.1-0.1-0.2-0.2-0.2-0.1c-0.2,0.3-0.4,0.6-0.6,0.9c-0.1,0.3,0.1,0.6,0.4,0.9c0.2,0.1,0.5,0.2,0.2,0.6c-0.1,0.1,0,0.3,0.1,0.4
		c0.3,0.3,0.4,0.8,0.4,1.2c0,0.1,0,0.1,0.1,0.2c0,0,0.1-0.1,0.1-0.1c0.2-0.3,0.2-0.6,0.3-0.9c0.1-0.2,0.2-0.5,0.1-0.7
		c-0.1-0.2-0.3-0.4-0.5-0.6c0,0,0,0,0,0c-0.1-0.1-0.2-0.2,0-0.3C143.4,31,143.4,30.9,143.5,30.7z M135.7,25.1
		c-0.3,0.1-0.6,0.1-0.9,0.2c-0.2,0.1-0.2,0.2-0.1,0.4c0.5,0.5,0.9,0.9,1.6,1.1c0.3,0.1,0.7,0.3,1.1,0.2c0.1,0,0.1,0,0.2-0.1
		c0,0,0-0.1-0.1-0.2c-0.2-0.2-0.4-0.4-0.6-0.6c-0.2-0.2-0.4-0.4-0.5-0.6C136.2,25.3,136,25,135.7,25.1z M119.4,21.2
		c-0.3,0-0.3,0-0.3,0.3c0,0.1,0,0.3,0.1,0.4c0,0.2,0.1,0.3,0.1,0.4c0.2,0.6,0.7,0.9,1.1,1.3c0.2,0.1,0.4,0.3,0.6,0.4
		c0.2,0.1,0.2,0,0.2-0.1c0-0.3-0.1-0.4-0.2-0.6c-0.2-0.4-0.6-0.6-0.7-1.1c-0.2-0.1-0.1-0.3-0.2-0.5c-0.1-0.1-0.3-0.2-0.5-0.3
		C119.6,21.3,119.5,21.3,119.4,21.2z M126.5,28.3C126.5,28.3,126.5,28.3,126.5,28.3c-0.3,0-0.6,0-0.9,0.2c-0.2,0.1-0.2,0.4-0.3,0.5
		c-0.1,0.1-0.1,0.2-0.2,0.3c-0.3,0.3-0.5,0.7-0.8,1c-0.1,0.1-0.1,0.2-0.1,0.2c0.1,0,0.2,0,0.3,0c0.1,0,0.2-0.2,0.3-0.2
		c0.9-0.1,1.3-0.8,1.8-1.4c0.1-0.1,0.1-0.3,0.2-0.5c0,0-0.1-0.1-0.1-0.2C126.7,28.3,126.6,28.3,126.5,28.3z M131,23.9
		c0,0.3,0,0.5,0.1,0.8c0.2,0.5,0.5,0.7,1.2,0.7c0.2,0,0.4-0.1,0.6-0.2c-0.1-0.1-0.3-0.3-0.4-0.4c-0.4-0.3-0.7-0.6-0.7-1.2
		c0-0.4-0.1-0.8-0.2-1.2c0-0.1-0.1-0.1-0.1-0.2c0,0-0.1,0.1-0.1,0.1C131.2,22.9,130.9,23.3,131,23.9z M141,36.7
		C141,36.7,141,36.7,141,36.7c0-0.6-0.1-1.3-0.1-1.9c0-0.2-0.1-0.3-0.2-0.5c-0.2-0.2-0.4-0.5-0.7-0.7c0,0-0.1,0-0.2,0
		c0,0,0,0.1,0,0.1c-0.1,0.3,0.1,0.5,0.2,0.8c0.2,0.5,0.4,1,0.3,1.5c0,0.5,0,1,0.4,1.5c0,0,0.1,0.1,0.1,0.2c0.1-0.1,0.2-0.2,0.2-0.3
		C141,37.2,141,37,141,36.7z M133.9,23.7c0.2,0,0.2,0,0.2,0c0.1,0,0.2,0,0.2-0.1c0,0-0.1-0.1-0.1-0.1c-0.3-0.3-0.6-0.6-0.5-1.1
		c0-0.1-0.1-0.3-0.2-0.4c-0.2-0.3-0.6-0.4-0.9-0.6c0,0-0.2,0.1-0.2,0.1c0,0.3,0.1,0.5,0.1,0.8c0.1,0.7,0.5,1.2,1.1,1.4
		C133.7,23.6,133.9,23.7,133.9,23.7z M122.2,29.1c0.2,0,0.4,0.1,0.5,0c0.2-0.1,0.5-0.1,0.7-0.2c0.3-0.1,0.5-0.2,0.7-0.4
		c0.2-0.3,0.4-0.6,0.5-0.9c0.1-0.1,0.2-0.2-0.1-0.2c-0.5,0-0.8,0.1-1.1,0.4c-0.3,0.3-0.6,0.5-0.9,0.8c-0.1,0.1-0.2,0.1-0.3,0.2
		c-0.1,0.1-0.2,0.2-0.2,0.3C122.1,29.1,122.2,29.1,122.2,29.1z M117.1,14.1C117.1,14,117.2,14,117.1,14.1c0.1-0.3,0-0.5,0.1-0.6
		c0.2-0.5,0.2-1.1,0.4-1.7c0.1-0.3,0-0.7,0.2-1c0,0,0-0.1-0.1-0.1c-0.3,0.1-0.7,0-0.8,0.3c-0.3,0.6-0.6,1.2-0.2,1.9
		c0,0.1,0,0.1,0,0.2c0.1,0.3,0.2,0.6,0.3,0.9C117.1,14,117.1,14,117.1,14.1z M121.4,26.9c-0.3-0.1-0.4,0.2-0.5,0.4
		c-0.4,0.7-0.9,1.2-1.5,1.5c0,0-0.1,0-0.1,0.1c0,0,0.1,0.1,0.1,0.1c0.2,0,0.4-0.1,0.5,0c0.4,0.3,0.7-0.1,1.1-0.1
		c0.1,0,0.2-0.1,0.3-0.3c0.1-0.5,0.3-0.9,0.4-1.4C121.7,26.9,121.7,26.9,121.4,26.9z M148.4,26.5c0-0.4-0.2-0.7-0.1-1
		c0,0-0.1-0.1-0.1-0.1c-0.2-0.2-0.5-0.6-0.8-0.6c-0.3-0.1-0.5-0.3-0.7-0.5c-0.2-0.2-0.5-0.2-0.7-0.3c0,0-0.1,0-0.1,0.1
		c0,0,0,0.1,0,0.1c0.1,0.1,0.1,0.2,0.2,0.2c0.3,0.4,0.8,0.7,1,1.1c0.3,0.4,0.7,0.7,1,1.1c0,0.1,0.1,0.1,0.2,0.1
		C148.4,26.6,148.4,26.5,148.4,26.5z M140.3,25.1c-0.1-0.1-0.1-0.1-0.1-0.1c-0.6-0.3-1.1-0.6-1.7-0.9c-0.1-0.1-0.3-0.2-0.4-0.1
		c-0.2,0.1-0.5,0.2-0.6,0.3c-0.1,0.3,0.3,0.3,0.5,0.5c0.1,0.1,0.2,0.1,0.3,0.1c0.4,0.2,0.7,0.3,1.2,0.3
		C139.7,25.5,140,25.1,140.3,25.1C140.3,25.2,140.3,25.1,140.3,25.1z M135.8,39.4c-0.1-0.3-0.2-0.5-0.2-0.7
		c-0.1-0.2-0.1-0.3-0.4-0.3c-0.2,0-0.5,0-0.5-0.3c0-0.1-0.2-0.2-0.4-0.4c-0.1-0.1-0.3-0.1-0.4-0.1c-0.1,0.3-0.5,0-0.5,0.2
		c0,0.1,0.2,0.3,0.4,0.4c0.2,0.1,0.4,0.4,0.7,0.3c0.2,0,0.4,0.2,0.4,0.4c0,0.3,0.1,0.5,0.1,0.8c0,0.2,0.3,0.3,0.4,0.1
		C135.6,39.8,135.7,39.6,135.8,39.4z M157.5,37c0-0.2-0.5-0.9-0.7-1c-0.1,0-0.2,0-0.2,0.1c-0.1,0.1-0.1,0.2-0.1,0.3
		c-0.2,0.4-0.2,0.6,0.1,0.9c0.3,0.3,0.5,0.6,0.7,1c0.1,0.1,0,0.2,0.2,0.2c0.1,0,0.2-0.1,0.2-0.2c0-0.2,0.1-0.4-0.1-0.5
		c-0.2-0.2-0.2-0.4-0.1-0.6C157.5,37,157.5,37,157.5,37z M144,27.1c0,0-0.1,0.1-0.1,0.1c0,0.2,0,0.3,0,0.5c0,0.2-0.1,0.3-0.1,0.5
		c-0.1,0.4,0.2,0.7,0.4,1c0.2,0.3,0.3,0.3,0.5,0.1c0.1-0.1,0.2-0.2,0.2-0.2c0.1-0.1,0.1-0.2,0-0.3c-0.2-0.4-0.5-0.8-0.5-1.3
		C144.4,27.2,144.3,27.1,144,27.1z M119,37.1c-0.5,0-0.5,0-0.3,0.4c0.1,0.2,0.2,0.4,0.3,0.6c0.1,0.4,0.3,0.8,0.5,1.1
		c0,0.1,0.1,0.1,0.2,0c0.1-0.2,0.1-0.5,0.2-0.7c0.3-0.4,0-0.7-0.1-1C119.6,37.3,119.4,37,119,37.1z M138.3,17.5
		c-0.1-0.2-0.2-0.6-0.4-0.9c-0.1-0.2-0.2-0.2-0.4-0.2c-0.1,0-0.2-0.1-0.2-0.2c-0.1-0.1-0.1-0.2-0.2-0.3c0,0-0.1,0-0.2,0
		c0,0-0.1,0.1-0.1,0.1c0,0.5-0.1,1,0.4,1.4c0.2,0.1,0.3,0.3,0.4,0.4c0,0,0.1,0.1,0.1,0.1C138,18,138.3,17.8,138.3,17.5z M119.7,25.4
		c-0.1,0-0.2,0-0.3,0c-0.2,0-0.3,0-0.3,0.3c0,0.2-0.1,0.4-0.1,0.6c0,0.2-0.1,0.4-0.1,0.6c0,0.2,0,0.4,0.1,0.6
		c0.1-0.1,0.2-0.3,0.4-0.4c0.3-0.3,0.5-0.7,0.8-1C120.3,25.5,120.2,25.4,119.7,25.4z M126.1,31.9c-0.3,0-0.5,0-0.8,0
		c0,0-0.1,0.2-0.1,0.2c0.2,0.2,0.4,0.4,0.6,0.7c0.1,0.1,0.3,0.2,0.6,0.2c0.2-0.1,0.4-0.1,0.7-0.2c0,0,0-0.1,0-0.1
		c0-0.2-0.1-0.5-0.2-0.7c0-0.1-0.3-0.1-0.5-0.1C126.3,31.9,126.2,31.9,126.1,31.9z M156.3,7.7c0.3,0,0.5,0,0.8,0
		c0,0,0.1-0.2,0.1-0.2c-0.3-0.4-1-0.8-1.4-0.6c-0.4,0.1-0.7,0.3-1.1,0.5c0,0,0,0.1,0,0.1c0.2,0.2,0.5,0.2,0.7,0.3
		C155.7,7.6,156.1,7.8,156.3,7.7z M138.3,20.7c0.2,0,0.4,0,0.6,0c0.1,0,0.1,0,0.2,0c0,0-0.1-0.1-0.1-0.1c-0.2-0.2-0.4-0.4-0.6-0.6
		c-0.1-0.1-0.2-0.3-0.4-0.3c-0.3,0-0.5,0-0.7,0.1c-0.1,0-0.1,0.2-0.1,0.2c0.1,0.2,0.1,0.5,0.5,0.6C137.8,20.7,138.1,20.6,138.3,20.7
		z M159.5,8.2c-0.3,0-0.5,0-0.6,0.1c-0.1,0-0.2,0.1-0.3,0.2c0.1,0,0.2,0.1,0.3,0.1c0.1,0.1,0.3,0.2,0.4,0.3c0.3,0.4,0.8,0.6,1.3,0.9
		c0.1,0,0.1,0.1,0.1,0.1c0-0.1,0.1-0.2,0-0.2c-0.1-0.3-0.3-0.7-0.5-0.9C160.1,8.4,159.8,8.1,159.5,8.2z M129.6,25.4
		c0.3,0,0.4-0.1,0.3-0.3c-0.2-0.2,0-0.5-0.1-0.7c-0.2-0.2-0.1-0.5-0.1-0.7c0-0.1,0-0.1-0.1-0.2c0,0-0.1,0-0.2,0
		c-0.2,0.2-0.4,0.3-0.5,0.5c-0.1,0.2-0.3,0.5-0.2,0.7C128.9,25.1,129.2,25.4,129.6,25.4z M135.7,12.6c0.1-0.4-0.1-0.7-0.3-1.1
		c0-0.1-0.1-0.1-0.2-0.2c-0.1,0.1-0.2,0.2-0.2,0.3c-0.1,0.4-0.1,0.8-0.1,1.2c0,0.1,0,0.2,0,0.2c-0.1,0.2-0.1,0.4,0,0.5
		c0,0,0.3-0.1,0.5-0.1c0.1,0,0.1-0.1,0.2-0.1C135.8,13.2,135.7,12.9,135.7,12.6z M149.4,30.1c0-0.2,0-0.4,0-0.5
		c0.1-0.4-0.2-0.6-0.4-0.8c-0.2-0.2-0.4-0.1-0.6-0.1c0,0-0.1,0.1-0.1,0.2c0,0.2,0,0.3,0.1,0.4c0.1,0.4,0.4,0.7,0.6,1
		c0.1,0.2,0,0.5,0.3,0.6c0-0.2,0-0.5,0.1-0.7C149.4,30.2,149.4,30.2,149.4,30.1z M127.5,24.4c0-0.1,0-0.3,0-0.4c0,0,0-0.1,0-0.1
		c0,0-0.1,0-0.1,0.1c-0.2,0.2-0.4,0.4-0.6,0.6c-0.1,0.1-0.3,0.1-0.3,0.2c-0.1,0.1-0.1,0.3,0,0.5c0.1,0.2,0.1,0.5,0.1,0.7
		c0,0,0,0.1,0.1,0.1c0.1,0,0.1,0,0.2,0C127.2,25.6,127.5,25,127.5,24.4z M125,25c0-0.3-0.1-0.6-0.1-1c0-0.1-0.1-0.2-0.1-0.2
		c-0.2-0.1-0.4-0.2-0.7-0.2c-0.2,0-0.3,0-0.3,0.3c0,0.4,0.3,0.6,0.4,0.9c0.1,0.2,0.4,0.4,0.6,0.6c0,0,0.1,0,0.2,0c0,0,0-0.1,0-0.1
		C125,25.2,125,25.2,125,25z M117.8,23.5c-0.1,0-0.2,0-0.3,0.1c-0.2,0.1-0.3,0.3-0.5,0.5c0,0-0.1,0.2-0.1,0.2
		c0.2,0.2,0.1,0.4,0.2,0.6c0.1,0.1,0.1,0.2,0.1,0.3c0.1-0.1,0.2-0.1,0.2-0.2c0.1-0.2,0.2-0.3,0.4-0.5c0.1-0.1,0.3-0.2,0.4-0.3
		c0.2-0.3,0.2-0.4-0.1-0.5C118,23.6,117.9,23.6,117.8,23.5z M158.6,35.2c-0.2-0.3-0.1-0.5-0.1-0.8c0,0,0,0,0-0.1
		c-0.1-0.2-0.3-0.2-0.4-0.1c-0.3,0.2-0.3,0.6-0.5,0.9c-0.1,0.2,0.2,0.3,0.4,0.5c0,0.1,0,0.2,0.1,0.2c0.1,0.1,0.2,0.2,0.3,0.2
		c0.1-0.1,0.1-0.2,0.2-0.3c0-0.1,0-0.2,0-0.3C158.5,35.4,158.6,35.3,158.6,35.2z M130.3,32.6c-0.1-0.4-0.2-0.6-0.3-0.9
		c-0.1-0.2-0.2-0.4-0.3-0.5c-0.2-0.2-0.4,0.1-0.6,0.1c0,0-0.1,0-0.1,0c-0.2,0-0.2,0.2-0.2,0.3c0.1,0.3,0.3,0.6,0.5,0.7
		c0.3,0.2,0.6,0.3,0.9,0.4C130.3,32.6,130.3,32.6,130.3,32.6z M122.7,23c0-0.1,0-0.2,0-0.3c0-0.3,0-0.6-0.4-0.7c0,0-0.1-0.1-0.1-0.1
		c-0.1-0.2-0.3-0.2-0.4-0.1c-0.1,0-0.1,0.2-0.1,0.4c0,0.1,0.1,0.1,0.1,0.2c0.2,0.4,0.3,0.7,0.5,1.1c0,0.1,0,0.2,0.2,0.2
		c0.2,0,0.1-0.2,0.1-0.3C122.8,23.2,122.7,23.1,122.7,23z M136.3,22.3c0.1,0,0.1,0,0.1,0c0.2,0,0.5,0.1,0.5-0.1
		c0-0.1-0.2-0.3-0.3-0.4c-0.2-0.2-0.4-0.3-0.6-0.4c-0.3-0.1-0.3,0.2-0.5,0.4c0,0-0.1,0-0.1,0c-0.2,0.1-0.2,0.2,0,0.3
		C135.6,22.2,135.9,22.4,136.3,22.3z M142.4,26c0,0.2,0,0.4,0,0.5c0,0.1,0.4,0.6,0.5,0.6c0.1,0,0.3-0.4,0.3-0.6
		c0-0.4-0.1-0.7-0.4-0.9c-0.1-0.1-0.3-0.3-0.4-0.2c-0.2,0-0.1,0.3-0.1,0.4C142.3,25.9,142.4,26,142.4,26z M141.7,23.4
		C141.6,23.3,141.6,23.3,141.7,23.4c-0.2-0.3-0.5-0.4-0.7-0.5c-0.4-0.3-0.6-0.1-0.9,0.1c-0.2,0.1-0.1,0.2,0.1,0.3
		c0.2,0.2,0.5,0,0.7,0.2C141.1,23.6,141.4,23.3,141.7,23.4C141.6,23.4,141.7,23.4,141.7,23.4z M117.7,8.4c0-0.2,0-0.2,0-0.3
		c0-0.1,0.1-0.4-0.1-0.4c-0.1,0-0.3,0.1-0.4,0.2c-0.3,0.3-0.4,0.7-0.4,1.1c0,0,0.2,0.1,0.2,0.1c0.2-0.1,0.4-0.2,0.6-0.4
		C117.8,8.6,117.7,8.4,117.7,8.4z"/>
	<path class="st0" d="M0,10.8c5.2,0,10.5,0,15.7,0c0.2,0,0.4,0,0.5,0c0.1,0,0.1,0.1,0.1,0.2c0,0,0,0,0,0.1c0,0.4,0,0.7,0,1.1
		c-0.4,0-0.7,0.1-1.1,0c-0.5-0.1-1,0.2-1.5,0.1c-0.7,0.4-1.5,0.7-1.8,1.6c-0.1,0.4-0.2,0.8-0.3,1.2c-0.2,0.8-0.1,1.6-0.1,2.5
		c0,6.8,0,13.7,0,20.5c0,0.8,0.1,1.5,0.5,2.3c0.4,0.8,1.2,1.1,1.8,1.3c0.2,0.1,0.4,0.1,0.6,0.1c0.2,0,0.4,0,0.6,0
		c0.2,0,0.4,0.1,0.6,0.1c0.2,0,0.4,0,0.5,0c0,0,0.1,0.1,0.1,0.2c0,0.3,0,0.7,0,1c-0.3,0-0.6,0-0.9,0c-5.1,0-10.3,0-15.4,0
		c0-0.4,0-0.8,0-1.2c0.5,0.1,1-0.2,1.5-0.1c0.7,0,1.3-0.2,1.9-0.5c0.3-0.2,0.6-0.4,0.8-0.8c0.4-0.6,0.5-1.3,0.5-2
		c0-7.6,0-15.2,0-22.8c0-0.6-0.1-1.2-0.3-1.7c-0.3-0.9-0.6-1.2-1.6-1.6c-0.2-0.1-0.4-0.1-0.6-0.1c-0.2-0.1-0.4-0.1-0.6-0.1
		c-0.5,0-1,0-1.6,0C0,11.7,0,11.3,0,10.8z"/>
	<path class="st0" d="M55.8,29.7c0,4.3,0,8.7,0,13c0,0.1,0,0.3,0,0.4c0,0.1,0,0.2-0.2,0.2c0,0-0.1,0-0.1,0c-0.4,0-0.9,0.1-1.2,0
		c-0.3-0.1-0.6-0.5-0.9-0.8c-1.1-1.2-2.3-2.3-3.3-3.5c-0.9-1-2-1.9-2.9-3c-0.9-1.1-2-2-3-3.1c-0.9-1.1-2-1.9-2.9-3
		c-1-1.1-2.1-2.1-3.1-3.2c-0.9-1.1-2-1.9-2.9-3c-1-1.1-2.1-2.1-3.1-3.2c-0.8-0.9-1.6-1.7-2.5-2.6c0,0-0.1-0.1-0.1-0.1
		c0,0.1,0,0.1,0,0.2c0,0.3,0.1,0.5,0.1,0.8c0,0.3,0,0.5,0.1,0.8c0.1,0.1,0,0.4,0,0.5c0,6.1,0,12.2,0,18.3c0,0.7,0.2,1.5,0.4,2.1
		c0.2,0.6,0.7,1,1.4,1.2c0.3,0.1,0.5,0.1,0.8,0.1c0.5,0,1,0.1,1.6,0.1c0,0,0.1,0.1,0.1,0.2c0,0.3,0,0.5,0,0.8c0,0.2-0.1,0.3-0.4,0.4
		c-0.1,0-0.2,0-0.3,0c-3.6,0-7.2,0-10.8,0c-0.1,0-0.2,0-0.3,0c-0.2,0-0.2-0.1-0.2-0.3c0-0.2,0-0.5,0-0.7c0-0.4,0.1-0.5,0.5-0.5
		c0.3,0,0.6,0,0.9,0c0.5,0,1.1-0.2,1.5-0.4c0.3-0.2,0.5-0.4,0.7-0.7c0.3-0.5,0.5-1.1,0.6-1.7c0.1-0.6,0-1.3,0.1-1.9
		c0.3-1.6,0.1-3.1,0.1-4.7c0-1.6,0-3.2,0-4.7c0-1.6,0-3.2,0-4.7s0-3.2,0-4.7c0-0.2,0-0.3-0.1-0.5c-0.1-0.2-0.1-0.5,0-0.8
		c0-0.1,0.1-0.2,0-0.2c-0.2-0.3-0.1-0.7-0.1-1c-0.1-0.9-0.4-1.7-1-2.3c-0.4-0.4-1-0.7-1.5-0.9c-0.6-0.2-1.2-0.3-1.8-0.3
		c-0.2,0-0.3-0.1-0.3-0.3c0-0.3,0-0.6,0-0.9c0-0.2,0.1-0.2,0.2-0.2c1.1,0,2.1,0,3.2,0c2.3,0,4.7,0,7,0c0.3,0,0.5,0.1,0.8,0.3
		c0.6,0.6,1.1,1.3,1.7,1.9c0.6,0.6,1.2,1.1,1.8,1.8c0.8,1,1.8,1.8,2.6,2.8c0.8,1,1.8,1.8,2.6,2.8c0.9,1,1.9,1.9,2.8,2.9
		c0.9,1,1.9,1.9,2.8,2.9c0.9,1,1.9,1.9,2.7,2.9c0.9,1.1,1.9,2,2.8,2.9c0,0,0.1,0.1,0.1,0.1c0-0.1,0.1-0.2,0.1-0.2
		c0-0.3-0.1-0.5-0.1-0.8c0-0.2,0.1-0.5-0.1-0.7c-0.1-0.1,0-0.3,0-0.5c0-4.8,0-9.5,0-14.3c0-0.7-0.2-1.4-0.5-2
		c-0.4-0.7-1.1-1.1-1.9-1.3c-0.5-0.1-1-0.1-1.6-0.1c-0.2,0-0.2-0.1-0.2-0.2c0-0.4,0-0.7,0-1.1c0.4,0,0.7,0,1.1,0c3.3,0,6.6,0,9.9,0
		c0.3,0,0.3,0,0.3,0.3c0,0.3,0,0.7,0,1c-0.3,0-0.7,0-1,0c-0.9,0.1-1.7,0.3-2.4,0.9c-0.4,0.4-0.6,0.9-0.8,1.4
		c-0.1,0.4-0.1,0.8-0.2,1.2c-0.2,0.7-0.1,1.5-0.1,2.2c0,0.7,0,1.5,0,2.2C55.8,23.3,55.8,26.5,55.8,29.7z"/>
	<path class="st0" d="M92.8,25.7c2.3,0,4.5,0,6.8,0c0.3,0,0.3,0,0.3,0.3c0,0.3,0,0.7,0,1c-0.3,0-0.7,0-1,0c-0.5,0-0.9,0.2-1.4,0.3
		c-0.7,0.1-1,0.7-1.2,1.2c-0.1,0.3-0.1,0.6-0.2,0.9c-0.2,1.7-0.1,3.3-0.1,5c0,1.7,0,3.4,0,5.1c0,0.3-0.1,0.4-0.3,0.5
		c-1,0.5-2.1,1-3.1,1.5c-0.7,0.3-1.5,0.6-2.2,0.8c-0.8,0.3-1.5,0.5-2.3,0.5c-0.3,0.2-0.7,0-1.1,0.2c-0.4,0.2-0.7,0-1,0.1
		c-1.5,0.3-3,0.1-4.5,0.1c-0.7,0-1.3-0.1-2-0.2c-0.6,0-1.2-0.1-1.8-0.3c-0.6-0.1-1.2-0.3-1.8-0.5c-0.6-0.2-1.2-0.4-1.8-0.6
		c-0.6-0.2-1.2-0.5-1.7-0.9c-0.7-0.4-1.4-0.8-2-1.3c-1.1-0.8-2-1.7-2.9-2.7c-0.6-0.6-1.1-1.4-1.5-2.1c-0.6-1-1.1-2.1-1.5-3.7
		c-0.2-0.8-0.3-1.5-0.4-2.3c-0.1-0.8-0.1-1.5-0.1-2.3c0-0.3,0.1-0.7,0.1-1c0-0.3,0-0.6,0.1-1c0.1-0.2-0.1-0.6,0.2-0.8
		c0-0.6,0.2-1.2,0.4-1.7c0.3-1,0.6-1.9,1.1-2.8c0.4-0.8,0.9-1.6,1.5-2.4c0.7-0.9,1.4-1.8,2.3-2.5c0.8-0.7,1.7-1.4,2.6-1.9
		c0.9-0.6,1.9-1.1,3-1.5c0.5-0.2,1.1-0.4,1.6-0.6c0.5-0.2,1-0.3,1.5-0.4c0.2,0,0.4-0.1,0.6-0.1c0.2,0,0.4,0,0.6-0.1
		c0.5,0.1,0.9-0.2,1.4-0.1c0.8,0,1.5,0,2.3,0c0.5,0,0.9,0,1.4,0c0.4,0.1,0.8,0.1,1.2,0.1c0.5,0.1,1.1,0.2,1.6,0.3
		c1.2,0.2,2.3,0.6,3.4,1c0.3,0.1,0.6,0.2,0.9,0.4c0.4,0.2,0.8,0.2,1.1,0.2c0.1,0,0.2-0.1,0.3-0.2c0.2-0.3,0.3-0.5,0.4-0.8
		c0.1-0.3,0.1-0.6,0.2-0.9c0-0.1,0.1-0.1,0.2-0.1c0.2,0,0.3,0,0.5,0c0.2,0,0.5-0.1,0.6,0c0.1,0.1,0,0.4,0.1,0.6
		c0.2,0.6,0,1.2,0.2,1.7c0.1,0.5,0,1,0.1,1.5c0.1,0.6,0,1.2,0.1,1.7c0.1,0.6,0,1.1,0.1,1.6c0.1,0.5,0,1.1,0.1,1.6
		c0.1,0.6,0.1,1.2,0.1,1.8c0,0.1,0.1,0.2,0.1,0.3c-0.1,0-0.3,0.1-0.4,0.1c-0.3,0-0.6,0-0.9,0c-0.1-0.2-0.1-0.5-0.2-0.7
		c-0.3-0.8-0.6-1.5-1-2.2c-0.1-0.2-0.2-0.5-0.4-0.6c-0.4-0.5-0.8-1-1.3-1.4c-0.5-0.4-1-0.8-1.5-1.2c-0.7-0.4-1.4-0.7-2.1-1.1
		c-0.7-0.4-1.5-0.6-2.3-0.8c-1.1-0.3-2.3-0.5-3.4-0.4c-0.3,0-0.6,0-0.9,0.1c-0.2,0.1-0.6,0-0.8,0.1c-0.3,0.2-0.6,0-0.8,0.3
		c-0.8,0.1-1.6,0.4-2.3,0.8c-0.9,0.5-1.7,1-2.4,1.7c-0.7,0.7-1.4,1.5-1.9,2.3c-0.3,0.6-0.6,1.2-0.9,1.9c-0.2,0.4-0.4,0.8-0.5,1.2
		c-0.1,0.5-0.2,1-0.4,1.5c-0.1,0.3-0.1,0.7-0.3,1c0,0,0,0,0,0.1c0.1,0.5-0.1,1-0.1,1.5c0,1.2,0,2.4,0,3.6c0.1,1,0.2,2,0.5,3
		c0.2,0.7,0.4,1.3,0.6,2c0.3,0.8,0.8,1.7,1.3,2.4c0.7,1,1.5,1.9,2.5,2.7c1.1,0.9,2.4,1.6,3.8,2c0.6,0.2,1.1,0.3,1.7,0.4
		c0.6,0.1,1.1,0.1,1.7,0.1c0.6,0,1.2,0.1,1.8,0c1-0.2,2-0.5,2.9-1c0.5-0.3,1.1-0.6,1.7-0.9c0.3-0.1,0.4-0.3,0.4-0.7c0-2.7,0-5.3,0-8
		c0-0.4-0.1-0.9-0.2-1.3c0-0.4-0.5-1.1-0.9-1.4c-0.3-0.2-0.7-0.3-1-0.3c-0.6-0.1-1.3-0.2-1.9-0.2c-0.4,0-0.4-0.1-0.4-0.5
		c0-0.8-0.1-0.9,0.8-0.9C88.4,25.7,90.6,25.7,92.8,25.7z"/>
	<path class="st0" d="M127.1,43c-0.2,0-0.3,0-0.5,0c-0.2,0-0.2,0-0.3-0.2c-0.1-0.4-0.3-0.9-0.6-1.2c-0.2-0.3-0.2-0.6-0.2-0.9
		c0-0.2,0-0.4,0.3-0.4c0.3-0.1,0.5-0.3,0.7-0.5c0.2-0.2,0.1-0.3-0.1-0.4c-0.1,0-0.1-0.1-0.2-0.1c-0.1-0.1-0.4,0.1-0.4-0.1
		c0-0.2,0.2-0.3,0.1-0.5c0,0,0.1-0.1,0.2-0.1c0.2-0.1,0.3-0.2,0.5-0.2c0.2-0.1,0.4-0.1,0.5-0.1c0,0.2,0.1,0.5,0.1,0.6
		c-0.2,0.7-0.2,1.4-0.1,2c0.1,0.7,0.2,1.4,0.6,2.1c0.1,0.2,0.1,0.3-0.1,0.3C127.5,43,127.3,43,127.1,43z"/>
	<path class="st0" d="M147.2,43c-0.6,0-0.7,0-0.9-0.6c-0.1-0.4-0.3-0.8-0.4-1.2c-0.1-0.3,0-0.7,0-1c0-0.1,0.2-0.2,0.3-0.4
		c0,0,0.1,0,0.1,0c0.1,0.2,0.3,0.4,0.4,0.6c0,0.1,0.1,0.1,0.2,0.2c0,0,0.1-0.1,0.1-0.1c0.1-0.2,0.2-0.3,0.1-0.5c0-0.3,0.1-0.7-0.1-1
		c-0.1-0.1,0-0.3,0.2-0.3c0.3,0,0.5-0.1,0.8,0.1c-0.1,0.2-0.2,0.4-0.2,0.6c-0.1,0.5-0.4,0.9,0,1.4c0,0.1,0,0.2,0,0.3
		c0,0.3,0,0.5,0,0.8c0,0.3,0.1,0.5,0.1,0.8c0,0.4,0,0.4-0.4,0.4C147.3,43,147.3,43,147.2,43z"/>
	<path class="st0" d="M129.9,40.8c0,0.7-0.2,1.4-0.1,2.1c0,0.2-0.1,0.2-0.2,0.2c-0.2,0-0.3,0-0.5,0c-0.4,0-0.5-0.1-0.5-0.5
		c0-0.3-0.2-0.7-0.2-1c0,0,0,0,0,0c0-0.5-0.1-0.9-0.1-1.4c0-0.4,0.3-0.7,0.6-0.9c0,0,0.1,0,0.2,0c0.3,0.2,0.5,0.6,0.9,0.8
		c0,0,0.1,0.1,0.1,0.2C129.9,40.3,129.9,40.5,129.9,40.8z"/>
	<path class="st0" d="M130.5,42.4c0.1-0.3,0.1-0.6,0.2-0.9c0.1-0.3-0.1-0.6,0.1-0.9c0,0,0-0.1,0-0.2c-0.1-0.4,0.2-0.6,0.3-0.9
		c0-0.1,0.2-0.2,0.3-0.2c0.3,0,0.7-0.1,0.9,0.2c0.2,0.3,0.1,0.5,0,0.8c-0.3,0.7-0.4,1.5-0.7,2.2c-0.1,0.3-0.2,0.4-0.4,0.4
		c-0.1,0-0.3,0-0.4,0c-0.2,0-0.3-0.1-0.2-0.3C130.6,42.7,130.6,42.5,130.5,42.4C130.6,42.4,130.6,42.4,130.5,42.4z"/>
	<path class="st0" d="M141.8,17.1C141.8,17.1,141.8,17.2,141.8,17.1c-0.1,0-0.1,0-0.1,0C141.7,17.1,141.7,17.1,141.8,17.1
		C141.8,17.1,141.8,17.1,141.8,17.1z"/>
	<path class="st0" d="M130.3,9.2c0.4,0,0.8,0,1.1,0c0.1,0,0.2,0,0.2,0.1c0,0.1,0,0.3,0,0.3c-0.5,0.3-0.9,0.6-1.2,1
		c0,0.1-0.2,0.1-0.2,0.1c-0.2,0-0.4,0-0.6,0c-0.3,0-0.5,0-0.7-0.3c0,0-0.1-0.1-0.1-0.1c0,0.1-0.1,0.1-0.1,0.2c0,0.2,0.1,0.5,0.1,0.7
		c0,0.2,0,0.5,0,0.7c0,0.2,0.2,0.3,0.4,0.4c0.1,0.1,0.2,0.1,0.2,0.2c0,0.6,0.5,0.7,1,0.9c0.7,0.2,0.7,0.2,0.3,0.9
		c-0.1,0.2-0.3,0.2-0.4,0.2c-0.3-0.1-0.5-0.4-0.8-0.4c-0.3-0.1-0.4-0.3-0.5-0.5c-0.2-0.2-0.4-0.4-0.6-0.6c-0.1-0.1-0.2-0.2-0.2-0.3
		c-0.1-0.2-0.2-0.4-0.1-0.5c0.1-0.7-0.1-1.4-0.2-2c0-0.3,0.1-0.5,0.4-0.6c0.3-0.1,0.6-0.2,0.9-0.2C129.6,9.2,130,9.2,130.3,9.2z"/>
	<path class="st0" d="M123.1,5.4c0.1,0.4,0,0.5-0.2,0.6c-0.4,0.2-0.9,0.4-1.2,0.7c-0.1,0.1-0.3,0.2-0.4,0.3C121,7.2,121,7.2,120.6,7
		c-0.3-0.1-0.6-0.3-0.8-0.4c-0.5-0.3-0.4-0.3-0.3-0.9c0.1-0.5,0.3-0.9,0.6-1.3c0.4-0.5,0.7-0.6,1.3-0.3c0.3,0.1,0.5,0.2,0.8,0.3
		C122.5,4.6,122.8,5,123.1,5.4C123.1,5.3,123.1,5.5,123.1,5.4z"/>
	<path class="st0" d="M133.8,6.4c0,0.3,0,0.5,0,0.8c0,0.2-0.1,0.3-0.3,0.3c-0.1,0-0.2,0-0.3,0c-0.2,0.1-0.4,0.3-0.6,0.2
		c-0.2,0-0.3-0.3-0.4-0.5c-0.3-0.6-0.9-1-1.4-1.4c-0.1-0.1-0.3-0.1-0.3-0.3c0-0.2,0-0.4,0.1-0.6c0.2-0.3,0.3-0.7,0.8-0.7
		c0.1-0.2,0.3-0.1,0.5-0.2c0.2-0.1,0.3-0.1,0.5,0c0.3,0.2,0.7,0.4,1.1,0.7c0.3,0.2,0.4,0.5,0.4,0.8C133.8,6,133.8,6.2,133.8,6.4z"/>
	<path class="st0" d="M122.5,9c0.2,0,0.4,0.1,0.5,0.1c0.3,0,0.5,0,0.8,0c0.3-0.1,0.5-0.1,0.7,0.2c0.3,0.3,0.6,0.6,0.3,1.1
		c0,0.1,0,0.2,0,0.3c0,0.3,0,0.5-0.1,0.8c-0.1,0.2,0.1,0.5-0.1,0.8c0,0,0,0.1,0,0.1c0.1,0.4,0,0.8-0.5,0.9c-0.1,0-0.2,0.2-0.3,0.3
		c-0.1,0.5-0.7,0.5-1,0.8c0,0-0.2-0.1-0.3-0.1c-0.1-0.1-0.1-0.3-0.1-0.4c0.2-0.3,0.2-0.8,0.7-0.9c0.2,0,0.3-0.1,0.5-0.2
		c0.5-0.3,0.7-1.1,0.6-1.6c0-0.1-0.1-0.3-0.1-0.4c0-0.2,0-0.2-0.3-0.1c-0.4,0.2-0.7,0.1-1-0.1c-0.1,0-0.1-0.1-0.1-0.1
		c-0.1-0.2-0.3-0.4-0.4-0.6c-0.2-0.2-0.4-0.3-0.6-0.4c0,0-0.1-0.1-0.1-0.1c0.1,0,0.1,0,0.2,0C121.9,9.1,122.2,9.1,122.5,9z"/>
	<path class="st0" d="M128.2,6.9c0.4,0,0.7,0,0.8,0.4c0.1,0.1,0.3,0.2,0.4,0.3c0.1,0.1,0.1,0.2,0.2,0.3c0,0-0.1,0.2-0.1,0.2
		c-0.3,0-0.6-0.1-0.8,0.1c0,0-0.1,0-0.2-0.1c-0.1-0.1-0.1-0.1-0.1-0.2c-0.2-0.3-0.2-0.7-0.6-0.8c0,0-0.1-0.1-0.1-0.2
		c0-0.1,0.1-0.1,0.2-0.1C128,6.9,128.1,6.9,128.2,6.9z"/>
	<path class="st0" d="M124.4,8.1c-0.2,0-0.4,0-0.5,0c-0.1,0-0.1,0-0.2-0.1c0,0,0-0.1,0.1-0.2c0.5-0.5,1.1-0.9,1.8-0.8
		c0,0,0.1,0,0.1,0c0,0,0,0.1-0.1,0.1c-0.1,0.1-0.2,0.2-0.3,0.3C125.2,8,124.9,8.3,124.4,8.1z"/>
	<path class="st0" d="M123.3,15.7c0.1,0,0.2,0,0.3,0c0.1,0,0.2,0.1,0.3,0.1c-0.1,0.1-0.1,0.3-0.2,0.3c-0.3,0-0.5,0.2-0.8,0.3
		c-0.1,0-0.3,0.1-0.3-0.2c0-0.1,0-0.2,0-0.3c0-0.1,0.1-0.2,0.2-0.2C123,15.7,123.1,15.7,123.3,15.7z"/>
	<path class="st0" d="M129.6,16c0.1,0,0.3,0,0.4,0c0.1,0,0.2,0,0.2,0.2c0,0.4,0,0.5-0.4,0.3c-0.1-0.1-0.2-0.1-0.3-0.2
		c-0.1-0.1-0.3-0.1-0.5-0.2c0.2,0,0.3-0.1,0.5-0.1C129.5,16,129.5,16,129.6,16z"/>
</g>
</svg>
