<?xml version="1.0" encoding="utf-8"?>
<!-- Generator: Adobe Illustrator 21.0.0, SVG Export Plug-In . SVG Version: 6.00 Build 0)  -->
<svg version="1.1" id="Layer_1" xmlns="http://www.w3.org/2000/svg" xmlns:xlink="http://www.w3.org/1999/xlink" x="0px" y="0px"
	 viewBox="0 0 101.2 101.1" xml:space="preserve">
	<style type="text/css">
		.st0{fill:#FFFFFF;}
	</style>
	<path class="st0" d="M50.6,101c-14.4,0-28.7-0.1-43.1,0c-4,0-6.7-2.7-7.3-5.6C0.1,94.9,0,94.3,0,93.8C0,64.9,0,36.1,0,7.2C0,3.2,3.1,0,7.1,0
	c29,0,58,0,87,0c4,0,7.1,3.1,7.1,7.1c0,28.9,0,57.8,0,86.7c0,3.4-2.9,7.3-7.6,7.2C79.3,100.9,64.9,101,50.6,101z M54,44.1
	c0-1.9-0.1-3.4,0-4.9c0.1-1.2-0.3-1.6-1.5-1.5c-3.7,0.1-7.4,0-11.2,0c-2.2,0-2.2,0-2.2,2.2c0,14.8,0,29.6,0,44.5c0,0.3,0,0.7,0,1
	c0,0.8,0.3,1.2,1.2,1.2c4.4,0,8.8,0,13.1,0c0.8,0,1.1-0.3,1.1-1.1c0-1.5,0-3,0-4.5c0.1-7.4,0.1-14.8,0.3-22.1
	c0.2-4.9,2.5-7.6,6.7-8.5c4.3-1,7.9,1,8.9,5.3c0.5,2,0.6,4.1,0.6,6.2c0.1,7.6,0,15.2,0,22.9c0,1.9,0,1.9,2,1.9c4,0,8.1,0,12.1,0
	c1.1,0,1.5-0.4,1.5-1.5c-0.2-11-0.2-21.9-0.6-32.9c-0.2-4.8-1.9-9.3-6.1-12.4c-4.4-3.3-9.6-3.7-14.8-3C60.5,37.4,56.8,39.8,54,44.1z
	 M14.8,62c0,7.7,0,15.3,0,23c0,1.1,0.3,1.4,1.4,1.4c4.1-0.1,8.3-0.1,12.4,0c1.2,0,1.5-0.4,1.5-1.5c0-15.2,0-30.5,0-45.7
	c0-1.1-0.3-1.6-1.5-1.6c-4.1,0.1-8.3,0.1-12.4,0c-1.2,0-1.5,0.4-1.5,1.5C14.8,46.8,14.8,54.4,14.8,62z M13.6,22.5
	c-0.4,4.4,3.6,8.9,8.7,8.9c5,0,9-3.9,9-8.9c0-4.9-4.1-9-9-9C16.9,13.6,13.2,18.4,13.6,22.5z"/>
</svg>
