<svg xmlns="http://www.w3.org/2000/svg" viewBox="0 0 87.96 15.37">
    <defs>
        <style>
            .cls-1{fill:#002d61}.cls-2{fill:#e01737}
        </style>
    </defs>
    <path class="cls-1" d="M25.24 15.18V2.76h2.72v10.1h4v2.32h-6.72zM59.21 15.18V2.76h7.54v2.15h-4.83v2.86h3.77v2.14h-3.77v3.06h4.83v2.21h-7.54zM72.6 4.78h-1.1v3.5h1.21c1.14 0 1.6-.74 1.6-1.81s-.56-1.69-1.71-1.69m1.94 10.41l-1.66-4.9H71.5v4.9h-2.67V2.76h3.84a6.33 6.33 0 0 1 2.14.24A3.44 3.44 0 0 1 77 6.52a4.19 4.19 0 0 1-.54 2.16 2.86 2.86 0 0 1-1.19 1.06l2.27 5.44zM19.54 10.49l-1.23-5-1.19 5zm1.14 4.69L20 12.63h-3.44l-.62 2.55h-2.51l3.73-12.42h2.76l3.54 12.42zM52.47 9.78h-1.34V13h1.34c1.15 0 1.86-.39 1.86-1.64s-.71-1.62-1.86-1.62m-.26-5h-1.08v3H52c1.13 0 2-.19 2-1.54 0-1.16-.74-1.45-1.79-1.45m3.54 9.83a5 5 0 0 1-3 .58H48.5V2.76h4.23a4.86 4.86 0 0 1 2.85.54A3.33 3.33 0 0 1 56.77 6a3 3 0 0 1-.58 1.9 2.41 2.41 0 0 1-1.19.8 2.41 2.41 0 0 1 1.27.75 3.27 3.27 0 0 1 .84 2.27 3.46 3.46 0 0 1-1.36 2.85M86.69 15.18L86.38 14a3.5 3.5 0 0 1-2.94 1.37c-3.48 0-4.6-3.33-4.6-6.27 0-3.15 1.13-6.52 4.84-6.52 2.85 0 3.93 1.6 4.28 4.26l-2.48.39c-.13-1-.39-2.44-1.75-2.44-2 0-2 2.87-2 4.23s.06 4.13 2.1 4.13c1.43 0 1.62-1.34 1.66-2.46h-1.85V8.55h4.24v6.63zM7.73 2.76l-1.96 7.6h-.03L4 2.76H0v12.42h2.22V5.23h.02l2.25 9.95h2.03l2.49-9.89h.04v9.89h2.62V2.76H7.73z"></path>
    <path class="cls-2" d="M43.37 0l-4 1v7.59L36 1.87l-4.2 1.06 3 12.27 2.36-.6-2.26-9.37L39.41 14l1.95-.49v-10s1.74 6.62 2 7.49c.36 1.43 1.09 1.79 2.3 1.48l.91-.23z"></path>
</svg>
