<?xml version="1.0" encoding="utf-8"?>
<!-- Generator: Adobe Illustrator 21.0.0, SVG Export Plug-In . SVG Version: 6.00 Build 0)  -->
<svg version="1.1" id="Layer_1" xmlns="http://www.w3.org/2000/svg" xmlns:xlink="http://www.w3.org/1999/xlink" x="0px" y="0px"
	 viewBox="0 0 112.1 95" style="enable-background:new 0 0 112.1 95;" xml:space="preserve">
<style type="text/css">
	.st0{fill:#FFFFFF;}
</style>
<path class="st0" d="M37.3,94.9c-2.8,0.3-5.2,0.1-7.7-1.2C20.8,89.2,12,84.8,3.1,80.4C0.9,79.3,0,77.8,0,75.3C0,51.3,0,27.2,0,3.1
	c0-2.9,0.6-3.3,3.2-2.1C14,6.5,24.8,11.9,35.6,17.2c1.2,0.6,1.8,1.3,1.8,2.8c0,24.3,0,48.7,0,73C37.4,93.6,37.3,94.2,37.3,94.9z"/>
<path class="st0" d="M76.7,75.6c-1.4-2.2-2.6-4.1-3.8-6.1c-6.5-10.6-13-21.1-19.5-31.6c-0.8-1.2-0.9-2.2-0.1-3.5
	c6.7-10.8,13.4-21.6,20-32.5c1.4-2.2,1.5-2.3,3.8-1.2c11,5.5,22,11,33.1,16.5c1.4,0.7,1.7,1.3,0.8,2.8C100,37.9,88.9,55.8,77.9,73.7
	C77.6,74.3,77.2,74.8,76.7,75.6z"/>
<path class="st0" d="M112.1,25.5c0,0.6,0,1.3,0,1.9c0,21.1,0,42.3,0,63.4c0,1.4-0.2,3.8-0.5,3.9c-1.8,0.2-4,0.4-5.6-0.4
	c-6.1-2.8-12.1-6-18.2-9c-3.3-1.6-6.5-3.3-10-5c11.3-18.4,22.6-36.7,33.8-55C111.8,25.4,112,25.5,112.1,25.5z"/>
<path class="st0" d="M41,24c11.3,18.4,22.3,36.2,33.5,54.5c-0.9-0.3-1.4-0.5-1.9-0.7c-10.1-5-20.2-10.1-30.3-15.1
	c-1.1-0.6-1.6-1.2-1.6-2.5c0.1-11.4,0-22.7,0-34.1C40.8,25.6,40.9,25.1,41,24z"/>
</svg>
