<?xml version="1.0" encoding="utf-8"?>
<!-- Generator: Adobe Illustrator 21.0.0, SVG Export Plug-In . SVG Version: 6.00 Build 0)  -->
<svg version="1.1" id="Layer_1" xmlns="http://www.w3.org/2000/svg" xmlns:xlink="http://www.w3.org/1999/xlink" x="0px" y="0px"
	 viewBox="0 0 171.6 91.6" style="enable-background:new 0 0 171.6 91.6;" xml:space="preserve">
<style type="text/css">
	.st0{fill:#FFFFFF;}
</style>
<g>
	<path class="st0" d="M171.6,81.2c0,2.6,0,5.3,0,7.9c0,0.4,0,0.4-0.3,0.4c-1,0-2,0-3,0c-0.3,0-0.3,0-0.3-0.4c0-0.1,0-0.2,0-0.3
		c0,0-0.1-0.1-0.2-0.1c-0.2,0.1-0.4,0.2-0.5,0.3c-0.4,0.4-0.9,0.4-1.4,0.6c-0.6,0.2-1.2,0.1-1.9,0.1c-0.8,0-1.4-0.2-2.3-0.7
		c-0.6-0.1-0.9-0.7-1.4-1c-0.3-0.2-0.5-0.7-0.8-1.1c-0.4-0.5-0.4-1-0.6-1.5c-0.2-0.6-0.4-1.3-0.3-2c0.1-0.9,0.3-1.9,0.7-2.7
		c0.7-1.5,1.9-2.5,3.4-3c0.4-0.1,0.8-0.3,1.2-0.2c0.6,0.1,1.2-0.1,1.8,0.2c0.1,0.1,0.3,0.1,0.5,0.1c0.4,0.1,0.7,0.4,1.1,0.5
		c0.2,0,0.2,0.4,0.4,0.2c0.1-0.1,0.1-0.4,0.1-0.6c0-1.6,0-3.1,0-4.7c0-0.2,0-0.3,0.3-0.3c1,0,2.1,0,3.1,0c0.2,0,0.3,0,0.3,0.3
		c0,1.6,0,3.2,0,4.8C171.6,79,171.6,80.1,171.6,81.2z M165,80.7c-0.5-0.2-0.9,0.2-1.4,0.3c-0.3,0.4-0.7,0.6-0.9,1.1
		c-0.2,0.5-0.2,0.9-0.4,1.4c-0.1,0.1,0.1,0.4,0.1,0.6c0,0.9,0.4,1.5,1.1,2c0.4,0.3,0.9,0.5,1.5,0.5c0.5,0,1-0.1,1.4-0.4
		c0.3-0.2,0.7-0.4,0.9-0.8c0.2-0.3,0.5-0.6,0.4-1.1c0.4-0.7,0-1.3,0-2c-0.3-0.4-0.6-0.9-1.1-1.2C166.2,80.8,165.7,80.7,165,80.7z"/>
	<g>
		<path class="st0" d="M103-1.6c0,0-0.1-0.1-0.1-0.1c0,0,0.1,0,0.1,0C103.1-1.7,103.1-1.7,103-1.6C103.1-1.6,103.1-1.6,103-1.6z"/>
		<path class="st0" d="M86.9,37.6c0-2.4,0-4.8,0-7.2c0-0.4,0-0.4,0.4-0.4c2.8,0,5.7,0,8.5,0c0.5,0,0.9,0.2,1.3,0.3
			c0.2,0.1,0.4,0.3,0.7,0.3c0.1,0,0.3,0.1,0.4,0.2c0.3,0.2,0.6,0.4,0.9,0.7c0.3,0.4,0.6,0.7,0.8,1.2c0.3,0.8,0.6,1.6,0.6,2.4
			c0,0.6-0.2,1.1-0.3,1.6c-0.1,0.5-0.4,0.9-0.7,1.4c-0.3,0.5-0.9,0.7-1.2,1.1c-0.4,0.1-0.6,0.3-1,0.5c-0.2,0.1-0.5,0.2-0.8,0.2
			c0.2,0.2,0.4,0.3,0.5,0.6c0,0,0.1,0.1,0.1,0.1c0.6,0.6,1.2,1.2,1.7,1.9c0.4,0.5,0.9,1,1.3,1.6c0.2,0.3,0.6,0.6,0.8,0.8
			c0.1,0.1,0.1,0.2,0.1,0.3c0,0.1-0.1,0.2-0.1,0.2c-0.1,0-0.2,0-0.3,0c-1.2,0-2.4,0-3.6,0c-0.2,0-0.4,0-0.5-0.2
			c-0.4-0.4-0.8-0.8-1.1-1.2c-0.3-0.4-0.8-0.7-1-1.2c-0.1-0.2-0.3-0.3-0.5-0.5c-0.2-0.2-0.4-0.5-0.6-0.8c-0.2-0.2-0.4-0.4-0.6-0.7
			c-0.1-0.3-0.5-0.4-0.7-0.7c-0.2-0.2-0.4-0.2-0.6-0.1c-0.3,0-0.4,0.1-0.4,0.4c0,1,0,2,0,3c0,0.5,0,1.1,0,1.6c0,0.3-0.1,0.4-0.4,0.4
			c-1,0-1.9,0-2.9,0c-0.5,0-0.5-0.1-0.5-0.6C86.9,42.5,86.9,40,86.9,37.6z M92.9,36.9c0.5,0,1.1,0,1.6,0c0.6,0,1.1-0.2,1.5-0.6
			c0.6-0.6,0.7-1.2,0.4-1.9c-0.3-0.8-1-1.1-1.8-1.1c-1.2-0.1-2.4,0-3.5,0c-0.2,0-0.3,0-0.3,0.2c0,1.1,0,2.2,0,3.2
			c0,0.2,0.1,0.2,0.3,0.2C91.6,36.9,92.3,36.9,92.9,36.9z"/>
		<path class="st0" d="M86.9,81.7c0-2.5,0-4.9,0-7.4c0-0.4,0-0.4,0.3-0.4c1.1,0,2.1,0,3.2,0c0.3,0,0.3,0.1,0.3,0.3
			c0,1.6,0,3.2,0,4.9c0,0.1,0,0.3,0,0.4c0,0.2,0.1,0.3,0.3,0.3c1.6,0,3.3,0,4.9,0c0.3,0,0.6,0,0.9,0c0.2,0,0.2-0.1,0.2-0.3
			c0-1.6,0-3.3,0-4.9c0-0.2,0-0.3,0-0.5c0-0.2,0.1-0.2,0.2-0.2c1.2,0,2.4,0,3.5,0c0.1,0,0.2,0,0.2,0.2c0,0.1,0,0.3,0,0.4
			c0,4.7,0,9.5,0,14.2c0,0.1,0,0.2,0,0.4c0,0.3-0.1,0.3-0.3,0.3c-1.1,0-2.3,0-3.4,0c-0.2,0-0.3,0-0.3-0.3c0-1.3,0-2.5,0-3.8
			c0-0.6,0-1.2,0-1.8c0-0.2-0.1-0.2-0.2-0.2c-1.9,0-3.7,0-5.6,0c-0.4,0-0.5,0.1-0.5,0.5c0,1.7,0,3.4,0,5.2c0,0.4,0,0.4-0.3,0.4
			c-1,0-2.1,0-3.1,0c-0.4,0-0.4,0-0.4-0.4c0-1.8,0-3.5,0-5.3C86.9,83,86.9,82.3,86.9,81.7z"/>
		<path class="st0" d="M143.2,61.6c0,1.6,0,3.3,0,4.9c0,0.1,0,0.2,0,0.4c0,0.4-0.1,0.5-0.5,0.5c-0.9,0-1.9,0-2.8,0
			c-0.5,0-0.5,0-0.5-0.5c0-0.2-0.1-0.3-0.3-0.1c-0.5,0.5-1.2,0.6-1.9,0.8c-1,0.3-2,0.3-3.3-0.2c-1.4-0.5-2.4-1.4-3-2.7
			c-0.4-0.9-0.7-1.8-0.7-2.7c0-0.3,0-0.6,0-0.9c0-0.6,0.1-1.1,0.3-1.6c0.5-1.4,1.3-2.5,2.5-3.3c0.6-0.4,1.7-0.7,2.4-0.7
			c0.2,0,0.4-0.2,0.5-0.1c0.3,0.2,0.7,0,1,0.2c0.2,0.2,0.6,0,0.7,0.2c0.6,0,1.1,0.3,1.5,0.7c0.1,0.1,0.2,0,0.3-0.1
			c0-0.2,0-0.5,0.1-0.5c0.2-0.1,0.4-0.1,0.6-0.1c0.9,0,1.8,0,2.7,0c0.4,0,0.5,0.1,0.5,0.5C143.2,58.1,143.2,59.8,143.2,61.6z
			 M133.9,61.6c0,0.5-0.1,1,0.3,1.5c0.1,0.2,0.3,0.3,0.4,0.5c0.6,0.7,1.2,1,2.1,0.9c0.3,0,0.5,0,0.8-0.1c0.6-0.2,1-0.6,1.4-1
			c0,0,0-0.1,0.1-0.2c0.5-0.9,0.6-1.8,0.3-2.7c-0.2-0.7-0.6-1.3-1.3-1.6c-0.8-0.3-1.2-0.5-2-0.3c-0.7,0.2-1,0.4-1.4,1
			C134,60.2,133.8,60.8,133.9,61.6z"/>
		<path class="st0" d="M141.1,39.5c0,1.7,0,3.4,0,5.1c0,0.1,0,0.2,0,0.4c0,0.4-0.1,0.5-0.5,0.5c-1,0-2,0-2.9,0c-0.2,0-0.3,0-0.3-0.2
			c0-0.1,0-0.1,0-0.2c0-0.1,0-0.3-0.1-0.3c-0.1,0-0.3,0-0.4,0.1c-0.3,0.1-0.5,0.3-0.8,0.5c-0.4,0.2-0.8,0.3-1.3,0.4
			c-0.4,0-0.8,0.1-1.3,0.1c-0.3,0-0.5-0.1-0.8-0.2c-0.3,0-0.5,0-0.8-0.1c-0.2-0.1-0.5-0.2-0.7-0.3c-0.2-0.1-0.5-0.2-0.7-0.3
			c-0.2-0.1-0.4-0.4-0.6-0.5c-1-0.7-1.4-1.8-1.8-2.9c-0.1-0.4-0.2-0.8-0.2-1.2c0-0.4,0-0.8,0-1.2c0-0.4,0.3-1.6,0.5-2
			c0.3-1,0.9-1.7,1.7-2.4c0.2-0.1,0.3-0.3,0.5-0.4c0.3-0.2,0.7-0.4,1.1-0.6c0.2-0.2,0.6-0.2,0.9-0.2c0.3-0.1,0.6,0.1,0.9-0.1
			c0,0,0.1,0,0.1,0c0.8,0.3,1.6,0,2.4,0.5c0.3,0.2,0.6,0.3,0.9,0.4c0.4,0.2,0.4,0.1,0.4-0.3c0-0.2,0.1-0.2,0.3-0.2
			c1.1,0,2.1,0,3.2,0c0.3,0,0.3,0.1,0.3,0.3C141.1,35.9,141.1,37.7,141.1,39.5z M131.8,39.4c0,0.5,0,0.9,0.2,1.3
			c0.2,0.5,0.5,1,1,1.3c0.9,0.5,1.9,0.7,2.9,0.2c0.6-0.3,1-0.9,1.3-1.5c0.2-0.3,0.3-0.6,0.3-1c0-0.9-0.3-1.6-0.9-2.3
			c-0.4-0.5-1-0.7-1.6-0.9c-0.7-0.1-1.3,0.1-2,0.5c-0.2,0.1-0.4,0.2-0.5,0.4C132.2,38.2,131.6,38.7,131.8,39.4z"/>
		<path class="st0" d="M142.6,83.7c0,1.8,0,3.6,0,5.4c0,0.3,0,0.3-0.4,0.3c-1,0-2,0-3,0c-0.3,0-0.3-0.1-0.3-0.3c0-0.1,0-0.1,0-0.2
			c0-0.2-0.1-0.2-0.3-0.1c-0.3,0.2-0.7,0.3-1,0.5c-0.5,0.3-1.1,0.3-1.6,0.4c-0.4,0.1-0.9,0-1.3,0c-0.2,0-0.4,0-0.5,0
			c-0.5-0.2-1-0.2-1.5-0.5c-0.5-0.4-1.2-0.6-1.6-1.2c-0.4-0.5-0.9-1-1-1.7c-0.7-1.1-0.6-2.3-0.6-3.5c0-0.6,0.2-1.2,0.5-1.8
			c0.2-0.3,0.2-0.7,0.5-1c0.3-0.3,0.4-0.7,0.7-0.9c0.5-0.4,1-1,1.7-1.1c0.3-0.1,0.6-0.3,1-0.4c0.4-0.1,0.8-0.1,1.2-0.1
			c0.6-0.1,1.2,0.1,1.8,0.2c0.2,0,0.4,0.2,0.5,0.3c0.3,0.1,0.5,0.2,0.8,0.4c0.5,0.3,0.6,0.3,0.6-0.3c0-0.2,0.1-0.2,0.2-0.2
			c1,0,2,0,3,0c0.4,0,0.5,0.1,0.5,0.5c0,0.8,0,1.7,0,2.5C142.6,81.7,142.6,82.7,142.6,83.7z M136,86.6C136,86.6,136,86.6,136,86.6
			c0.2,0,0.4,0.1,0.6,0c0.4-0.2,0.8-0.4,1.2-0.6c0.2-0.2,0.4-0.4,0.6-0.7c0.2-0.4,0.4-0.8,0.5-1.3c0.1-0.5,0-1-0.2-1.5
			c-0.2-0.5-0.6-0.9-1-1.3c-0.3-0.3-0.6-0.4-0.9-0.4c-0.3-0.1-0.7-0.1-1.1-0.1c-1.4,0.2-2,0.9-2.4,2.2c-0.1,0.5-0.1,1,0,1.5
			c0.1,0.3,0.3,0.7,0.4,1c0.1,0.2,0.3,0.4,0.4,0.5c0.4,0.3,0.8,0.5,1.2,0.7C135.6,86.7,135.8,86.6,136,86.6z"/>
		<path class="st0" d="M86.9,59.6c0-2.4,0-4.9,0-7.3c0-0.4,0-0.4,0.3-0.4c3.8,0,7.5,0,11.3,0c0.2,0,0.4,0,0.3,0.3c0,1,0,1.9,0,2.9
			c0,0.1,0,0.2-0.2,0.2c-0.2,0-0.3,0-0.5,0c-2.2,0-4.4,0-6.6,0c-0.1,0-0.3,0-0.4,0c-0.3,0-0.4,0.1-0.4,0.4c0,0.8,0,1.6,0,2.4
			c0,0.2,0.1,0.4,0.4,0.4c0.1,0,0.3,0,0.4,0c1.8,0,3.7,0,5.5,0c0.1,0,0.3,0,0.4,0c0.3,0,0.4,0.1,0.4,0.4c0,0.9,0,1.8,0,2.7
			c0,0.3-0.1,0.4-0.4,0.4c-0.3,0-0.6,0-0.9,0c-1.9,0-3.7,0-5.6,0c-0.3,0-0.3,0-0.3,0.4c0,1.4,0,2.8,0,4.2c0,0.1,0,0.2,0,0.4
			c0,0.4-0.1,0.5-0.5,0.5c-1,0-2.1,0-3.1,0c-0.3,0-0.3-0.1-0.3-0.3c0-1.6,0-3.3,0-4.9C86.9,61.3,86.9,60.5,86.9,59.6z"/>
		<path class="st0" d="M119.3,49.3c-0.6,0-1.2,0-1.8,0c-0.2,0-0.2-0.1-0.1-0.2c0.5-0.8,0.7-1.8,1.2-2.6c0.2-0.4,0.3-0.8,0.5-1.1
			c0.1-0.3,0.1-0.5,0-0.7c-0.4-0.9-0.8-1.8-1.2-2.8c-0.4-0.9-0.7-1.8-1.1-2.6c-0.4-0.8-0.7-1.7-1.1-2.5c-0.3-0.8-0.6-1.6-1-2.3
			c-0.1-0.1-0.1-0.3-0.1-0.5c0-0.2,0-0.3,0.2-0.3c1.1,0,2.2,0,3.3,0c0.2,0,0.4,0.1,0.4,0.3c0.3,0.7,0.6,1.4,0.9,2.1
			c0.1,0.1,0.1,0.3,0.2,0.4c0.4,0.6,0.4,1.2,0.7,1.8c0.3,0.5,0.5,1.1,0.6,1.7c0,0.1,0.2,0.1,0.3,0.2c0.1-0.1,0.1-0.2,0.2-0.3
			c0.2-0.4,0.4-0.8,0.5-1.3c0.1-0.4,0.4-0.8,0.5-1.2c0.2-0.5,0.5-0.9,0.6-1.4c0.2-0.7,0.6-1.3,0.8-1.9c0.1-0.2,0.3-0.4,0.6-0.4
			c1.1,0,2.2,0,3.3,0c0.2,0,0.2,0.1,0.2,0.2c0,0.2-0.1,0.4-0.2,0.5c-0.4,0.5-0.5,1.2-0.7,1.8c-0.3,0.6-0.5,1.2-0.8,1.7
			c-0.3,0.6-0.4,1.2-0.7,1.7c-0.2,0.5-0.5,0.9-0.6,1.5c0,0,0,0.1-0.1,0.1c-0.5,0.6-0.6,1.4-1,2.1c-0.2,0.3-0.3,0.7-0.4,1.1
			c0,0.2-0.1,0.4-0.2,0.4c-0.3,0.3-0.3,0.6-0.4,0.9c-0.1,0.3-0.1,0.6-0.4,0.8c-0.1,0.1-0.1,0.2-0.2,0.3c-0.2,0.7-0.5,1.4-0.9,2.1
			c0,0.1,0,0.1,0,0.2c0,0.2-0.1,0.2-0.2,0.2C120.6,49.3,120,49.3,119.3,49.3z"/>
		<path class="st0" d="M109.4,89.7c-0.6-0.1-1.3-0.1-1.9-0.2c-0.6-0.2-1.2-0.5-1.8-0.8c-0.8-0.5-1.4-1.2-2-2
			c-0.2-0.2-0.2-0.5-0.3-0.7c-0.4-0.9-0.6-2-0.5-3c0.1-0.6,0.3-1.2,0.5-1.8c0.3-0.7,0.7-1.4,1.2-1.9c0.6-0.6,1.3-1,2.1-1.3
			c1.7-0.5,1.7-0.5,2.8-0.6c0.4,0,0.8,0.2,1.2,0.2c0.4-0.1,0.7,0.2,1.1,0.4c1.2,0.4,2,1.1,2.7,2.1c0.4,0.5,0.6,1.2,0.9,1.8
			c0.2,0.3,0.2,0.7,0.2,1.1c0,0.5,0.1,0.9,0,1.4c-0.1,0.5-0.1,1.1-0.4,1.5c-0.1,0.1-0.1,0.3-0.2,0.4c-0.1,0.4-0.3,0.7-0.6,1
			c-0.2,0.2-0.3,0.4-0.4,0.6c-0.2,0.2-0.4,0.3-0.6,0.4c-0.6,0.6-1.4,0.9-2.1,1.2c-0.1,0-0.3,0.1-0.4,0.1
			C110.5,89.6,110,89.9,109.4,89.7z M109.3,80.7c-0.3,0-0.6,0-0.9,0.1c-0.5,0.2-0.9,0.4-1.2,0.8c-0.2,0.3-0.3,0.6-0.5,0.8
			c-0.1,0.3-0.2,1.1-0.2,1.4c0,0.8,0.4,1.4,1,2c0.5,0.5,1.2,0.8,1.9,0.7c0.7,0,1.3-0.4,1.8-0.8c0.6-0.5,0.9-1.3,0.9-2.1
			c0-0.6-0.2-1.2-0.6-1.8C110.9,81,110.5,80.7,109.3,80.7z"/>
		<path class="st0" d="M114.4,39.5c0.1,0.6,0,1.2-0.2,1.8c-0.2,0.6-0.5,1.3-0.8,1.9c-0.3,0.4-0.7,0.8-1.1,1.1
			c-0.2,0.1-0.4,0.3-0.5,0.4c-0.2,0.2-1.9,0.9-2.1,0.9c-0.1,0-0.1,0-0.2,0c-0.3,0-0.7-0.1-1,0.1c-0.1,0.1-0.2,0-0.4,0
			c-0.4,0-0.7-0.2-1-0.2c-0.3,0-0.7,0-1-0.1c-0.6-0.2-1.1-0.5-1.7-0.7c-0.2-0.4-0.8-0.5-1-1c-0.5-0.2-0.7-0.8-1-1.2
			c-0.3-0.3-0.3-0.8-0.5-1.3c-0.2-0.6-0.4-1.3-0.3-1.9c0.1-0.5,0.2-0.9,0.3-1.4c0.2-0.7,0.4-1.3,0.9-1.9c0.3-0.5,0.7-0.9,1.2-1.2
			c0.3-0.2,0.6-0.6,1-0.7c0.4-0.1,0.7-0.3,1.1-0.4c0.4-0.1,0.8-0.2,1.2-0.2c0.6,0,1.2-0.1,1.8,0c0.5,0.1,1.1,0.1,1.6,0.4
			c0.8,0.1,1.3,0.7,1.9,1.1c0.1,0.1,0.2,0.2,0.3,0.3c0.7,0.8,1.2,1.6,1.5,2.5C114.3,38.4,114.5,38.9,114.4,39.5z M105.2,39.5
			c0.1,0.3,0.1,0.7,0.2,1c0.2,0.7,0.7,1.1,1.2,1.6c0.5,0.1,1,0.4,1.6,0.3c0.6-0.1,1.2-0.3,1.6-0.7c0.8-0.7,1.3-2.1,0.8-3.4
			c0.1-0.4-0.3-0.5-0.5-0.8c-0.4-0.8-1.9-1.2-2.6-1C106,37.1,105.2,38.1,105.2,39.5z"/>
		<path class="st0" d="M145.2,83.6c0-1.8,0-3.6,0-5.4c0-0.4,0-0.4,0.4-0.4c1,0,2,0,3,0c0.1,0,0.2,0,0.2,0.2c0,0,0,0,0,0.1
			c0,0.2,0,0.5,0,0.7c0.2-0.1,0.3-0.3,0.5-0.4c0.5-0.3,1-0.5,1.6-0.7c0.7-0.2,1.5-0.2,2.2-0.1c0.2,0,0.3,0.1,0.5,0.1
			c1.5,0.5,2.4,1.5,3,2.9c0.1,0.3,0.2,0.6,0.2,1c0,2.5,0,5.1,0,7.6c0,0.4,0,0.4-0.4,0.4c-1,0-2,0-3,0c-0.3,0-0.3-0.1-0.3-0.3
			c0-2,0-4,0-6c0-0.7-0.3-1.3-0.7-1.8c-0.2-0.3-0.7-0.4-1.1-0.5c-1-0.1-1.9,0.3-2.4,1.5c-0.2,0.4-0.2,0.8-0.2,1.2c0,1.8,0,3.6,0,5.5
			c0,0.3,0,0.3-0.4,0.3c-1,0-2,0-3,0c-0.3,0-0.3-0.1-0.3-0.3C145.2,87.2,145.2,85.4,145.2,83.6z"/>
		<path class="st0" d="M118.8,61.6c0.1,0.6-0.1,1.2-0.1,1.9c0,0.2-0.1,0.4-0.2,0.6c-0.4,0.6-0.7,1.3-1.2,1.8
			c-0.8,0.8-1.7,1.3-2.8,1.6c-0.9,0.3-1.8,0.4-2.7,0.3c-0.8-0.1-1.6-0.3-2.3-0.7c-1-0.5-2-1.2-2.5-2.3c-0.4-0.4-0.4-1-0.7-1.5
			c0-0.9-0.3-1.8-0.1-2.7c0.2-0.5,0.2-1.1,0.5-1.6c0.4-0.7,1.2-1.8,1.9-2.2c0.5-0.3,1.1-0.7,1.8-0.9c0.9-0.2,1.7-0.4,2.6-0.3
			c0.8,0.1,1.5,0.2,2.2,0.5c0.9,0.4,1.9,1,2.5,1.9c0.4,0.6,0.9,1.3,1,2.2C118.8,60.5,118.8,61.1,118.8,61.6z M112.4,64.5
			c0.1,0,0.1,0,0.2,0c1.1,0,1.8-0.5,2.3-1.5c0.3-0.5,0.3-1.1,0.3-1.7c0-0.7-0.3-1.3-0.7-1.8c-0.4-0.4-0.9-0.9-1.6-0.8
			c-0.4-0.2-0.7-0.1-1.1,0c-0.4,0.1-0.7,0.3-1,0.5c-0.2,0.1-0.3,0.3-0.4,0.4c-0.6,0.5-0.6,1.3-0.8,2c0,0.1,0.1,0.3,0.1,0.5
			c0,0.3,0.1,0.6,0.3,0.8C110.6,63.9,111.3,64.6,112.4,64.5z"/>
		<path class="st0" d="M117.6,81.2c0-2.6,0-5.2,0-7.8c0-0.4,0-0.4,0.5-0.5c1,0,2,0,3,0c0.3,0,0.3,0,0.3,0.4c0,3.4,0,6.7,0,10.1
			c0,1.7,0,3.4,0,5.2c0,0.1,0,0.3,0,0.4c0,0.4-0.1,0.5-0.5,0.5c-1,0-2.1,0-3.1,0c-0.3,0-0.3-0.1-0.3-0.3c0-1.4,0-2.9,0-4.3
			C117.6,83.6,117.6,82.4,117.6,81.2z"/>
		<path class="st0" d="M127.7,81.1c0,2.6,0,5.3,0,7.9c0,0.5,0,0.4-0.4,0.4c-1,0-1.9,0-2.9,0c-0.5,0-0.6-0.1-0.6-0.6
			c0-3.5,0-7,0-10.5c0-1.7,0-3.3,0-5c0-0.4,0-0.4,0.4-0.4c1,0,2.1,0,3.1,0c0.3,0,0.3,0,0.3,0.4C127.7,75.9,127.7,78.5,127.7,81.1z"
			/>
		<path class="st0" d="M120.7,61.6c0-1.7,0-3.3,0-5c0-0.1,0-0.3,0-0.4c0-0.2,0.1-0.4,0.3-0.4c1,0,2.1,0,3.1,0c0.3,0,0.4,0.1,0.4,0.4
			c0,0,0,0,0,0.1c0,0.4,0.1,0.9,0.1,1.3c0.3-0.3,0.6-0.6,0.9-0.9c0.4-0.3,0.8-0.7,1.4-0.8c0,0,0.1-0.1,0.1-0.1
			c0.6,0.1,1.2-0.2,1.9-0.2c0.3,0,0.4,0.1,0.4,0.4c0,0.8,0,1.7,0,2.5c0,0.3-0.1,0.5-0.1,0.7c0,0.1-0.1,0.1-0.2,0.1
			c-0.2,0-0.5,0-0.7,0c-0.6-0.1-1.2,0.1-1.7,0.4c-0.7,0.3-1.4,0.7-1.5,1.6c-0.5,0.6-0.5,1.4-0.4,2.1c0,1.1,0,2.2,0,3.3
			c0,0.5-0.1,0.5-0.5,0.6c-0.9,0-1.9,0-2.8,0c-0.4,0-0.5-0.1-0.5-0.5C120.7,65.1,120.7,63.4,120.7,61.6z"/>
		<path class="st0" d="M143.7,37.1c0-2.6,0-5.3,0-7.9c0-0.4,0-0.5,0.5-0.5c1,0,1.9,0,2.9,0c0.3,0,0.3,0,0.3,0.4c0,3.1,0,6.1,0,9.2
			c0,2.1,0,4.1,0,6.2c0,0.1,0,0.3,0,0.4c0,0.4-0.1,0.5-0.5,0.5c-1,0-2,0-2.9,0c-0.3,0-0.3-0.1-0.3-0.3c0-1.4,0-2.9,0-4.3
			C143.7,39.6,143.7,38.4,143.7,37.1z"/>
		<path class="st0" d="M104.2,59c0,2.6,0,5.2,0,7.7c0,0.5,0,0.5-0.6,0.5c-0.9,0-1.9,0-2.8,0c-0.3,0-0.3,0-0.3-0.4
			c0-3.5,0-6.9,0-10.4c0-1.8,0-3.5,0-5.3c0-0.4,0-0.4,0.5-0.5c1,0,1.9,0,2.9,0c0.3,0,0.3,0,0.3,0.4C104.2,53.8,104.2,56.4,104.2,59z
			"/>
		<g>
			<path class="st0" d="M54.8,21.7c0.7,0.4,1.4,0.9,2.1,1.3c0.3,0.2,0.8,0.4,1.1,0.6c0.4,0.3,0.8,0.4,1.2,0.7c0,0,0.2,0,0.2-0.1
				c0.4-0.7,0.9-1.3,1.3-2c0.4-0.6,0.8-1.3,1.2-1.9c0.4-0.7,0.8-1.4,1.3-2.1c0.1-0.1,0.1-0.2,0.2-0.3c0.3-0.5,0.6-1,1-1.5
				c0.3-0.4,0.5-0.9,0.8-1.3c0.1-0.1,0.2-0.3,0.2-0.4c0-0.2-0.1-0.3-0.4-0.3c-0.1,0-0.1-0.1-0.2-0.2c-0.4-0.2-0.8-0.6-1.3-0.7
				c0-0.1,0-0.2-0.1-0.3c-0.8-0.5-1.7-1-2.5-1.5c-0.2-0.1-0.3-0.1-0.4,0c-0.3,0.5-0.7,1-1,1.5c-0.1,0.2-0.2,0.4-0.1,0.6
				c0,0-0.1,0.1-0.1,0.1c-0.2,0-0.3,0.1-0.3,0.3c-0.2,0.3-0.4,0.7-0.6,1c-0.3,0.5-0.7,1.1-1,1.6c-0.4,0.6-0.8,1.2-1.1,1.8
				c-0.3,0.5-0.7,1-0.9,1.5c0,0.1-0.2,0.2-0.3,0.3c-0.1,0.1-0.1,0.2-0.2,0.4C54.4,21.3,54.4,21.5,54.8,21.7z"/>
			<path class="st0" d="M20.9,8.2c0.2,1,0.5,2,0.9,3c0.1,0.2,0.1,0.4,0.1,0.5c0.1,0.6,0.3,1.1,0.5,1.6c0.2,0.8,0.3,1.7,0.7,2.4
				c0.1,0.1,0,0.2,0,0.4c0.1,0.3,0.1,0.6,0.2,0.8c0,0,0.1,0,0.1,0c0,0,0,0.1,0,0.1c0.3,0.3,0.2,0.6,0.3,1c0.1,0.3,0,0.6,0.3,0.9
				c0.1,0.1,0,0.3,0.1,0.3c0.1,0.1,0.3,0.1,0.4,0c0.3-0.2,0.7-0.3,1-0.4c0.4,0,0.7-0.2,1.1-0.2c0.4-0.1,0.8-0.3,1.3-0.4
				c0.5-0.1,1-0.3,1.5-0.4c0.2-0.1,0.4-0.2,0.3-0.3c-0.3-0.2-0.1-0.5-0.2-0.7c-0.2-0.4-0.4-0.8-0.4-1.3c-0.3-0.2,0-0.6-0.3-0.7
				c0-0.1,0-0.2,0-0.3c0-0.2-0.1-0.3-0.3-0.3c0.1-0.4,0-0.8-0.2-1.1c-0.2-0.6-0.2-1.2-0.5-1.8c-0.1-0.2-0.1-0.4-0.2-0.7
				c0-0.2,0-0.4-0.1-0.5c-0.1-0.1,0.1-0.4-0.2-0.6c-0.1-0.5-0.4-0.9-0.4-1.4c-0.1-0.7-0.4-1.4-0.6-2c-0.1-0.3-0.1-0.5-0.1-0.8
				c0-0.2-0.1-0.5-0.2-0.7c0-0.1-0.1-0.3-0.2-0.4c-0.1-0.2-0.3-0.3-0.6-0.1c-0.2,0.1-0.5,0.2-0.7,0.3c-0.5,0.1-1,0.2-1.5,0.4
				c-0.6,0.2-1.2,0.5-1.9,0.5c0,0,0,0.1-0.1,0.1c-0.1,0-0.2,0-0.3,0c-0.1,0-0.3-0.1-0.3,0.1c-0.1,0-0.3-0.1-0.3,0.1
				c0,0.3,0.2,0.6,0.2,0.9C20.6,7.2,20.8,7.7,20.9,8.2z"/>
			<path class="st0" d="M44.7,17.9c0.2,0.1,0.4,0.2,0.6,0.2c0.4,0.1,0.9,0.2,1.3,0.3c0.3,0.1,0.5,0.2,0.8,0.3
				c0.8,0.2,1.6,0.3,2.3,0.6c0.2,0.1,0.3,0,0.4-0.1c0.2-0.3,0.2-0.7,0.2-1c0,0,0-0.1,0-0.1c0.2,0,0.3-0.1,0.3-0.3
				c0-0.5,0.2-1,0.4-1.5c0.1-0.1,0.2-0.3,0.2-0.4c0.2-1.1,0.6-2.1,0.8-3.1c0.1-0.4,0.3-0.7,0.2-1.2c0,0,0.1-0.1,0.1-0.1
				C52.7,10.7,53,9.9,53,9c0.1-0.1,0.2-0.2,0.3-0.3c0.1-0.4,0.2-0.8,0.3-1.1c0.1-0.2,0.1-0.4,0.1-0.7c0-0.3,0.1-0.5,0.1-0.8
				c0-0.1,0.2-0.4-0.1-0.4c0-0.2-0.1-0.3-0.3-0.3c-0.1,0-0.2,0-0.3,0c0,0,0-0.1,0-0.1c-0.4-0.1-0.9-0.2-1.3-0.2
				c-0.1-0.1-0.1-0.2-0.2-0.3c-0.3-0.1-0.7-0.1-1-0.2c-0.1,0-0.1-0.1-0.2-0.1c-0.5-0.1-1.1-0.2-1.6-0.5c-0.1-0.1-0.4,0.1-0.5,0.2
				C48.3,4.9,48.1,5.4,48,6c-0.1,0.5-0.2,0.9-0.4,1.4c-0.3,0.9-0.5,1.9-0.8,2.8c0,0.1-0.1,0.2-0.1,0.3c-0.1,0.6-0.3,1.2-0.5,1.8
				c-0.1,0.3-0.1,0.6-0.3,0.8c-0.2,0.3-0.1,0.6-0.2,0.9c-0.2,0.6-0.4,1.2-0.5,1.8c-0.2,0.6-0.3,1.2-0.5,1.8
				C44.6,17.7,44.6,17.8,44.7,17.9z"/>
			<path class="st0" d="M9.6,15.5c-0.1,0.4,0.1,0.6,0.4,0.7c0,0.3,0.1,0.4,0.3,0.6c0.3,0.4,0.5,0.8,0.8,1.2c0.2,0.4,0.6,0.8,0.8,1.3
				c0,0.2,0.2,0.1,0.3,0.1c0,0.1,0,0.2,0.1,0.3c0.3,0.6,0.6,1.1,1,1.6c0.3,0.5,0.7,0.9,0.9,1.4c0.2,0.5,0.7,0.9,0.9,1.4
				c0,0.1,0.2,0.2,0.4,0.1c0.7-0.3,1.3-0.9,2-1.2c0,0,0.1-0.1,0.1-0.1c0.6-0.4,1.2-0.8,1.9-1.2c0.2-0.1,0.4-0.2,0.6-0.4
				c0.1-0.1-0.1-0.7-0.3-0.8c-0.1-0.1-0.1-0.1-0.2-0.2c-0.2-0.3-0.4-0.6-0.6-1c-0.2-0.4-0.6-0.6-0.7-1.1c0-0.2-0.3-0.4-0.5-0.6
				c0,0-0.1,0-0.2,0c-0.1-0.6-0.5-1.1-0.8-1.6c0,0-0.1,0-0.1-0.1c0-0.1,0-0.2,0-0.2c-0.3-0.3-0.5-0.7-0.7-1.1c0-0.1-0.1-0.1-0.2-0.2
				c0-0.1,0-0.2,0-0.2c-0.5-0.7-1-1.5-1.4-2.2c-0.1-0.2-0.1-0.4-0.4-0.4c-0.2,0-0.4,0-0.6,0.2c-0.3,0.3-0.7,0.5-1,0.7
				c-0.3,0.2-0.6,0.4-1,0.5c-0.3,0.2-0.6,0.3-0.9,0.6c-0.3,0.3-0.7,0.3-0.9,0.6C9.3,14.5,9,14.5,9,14.7c0,0.2,0.2,0.4,0.3,0.5
				C9.4,15.4,9.5,15.4,9.6,15.5z"/>
			<path class="st0" d="M74.4,55.8c0-0.8-0.2-1.7-0.2-2.5c0-0.5,0-1,0-1.5c0-0.1-0.1-0.1-0.1-0.2c-0.1-0.5,0.1-1.1-0.1-1.6
				c0.1-0.7-0.2-1.4-0.1-2.1c0-0.1,0.1-0.3-0.1-0.3c0-0.2,0-0.4,0-0.6c0-0.1,0.1-0.3-0.1-0.3c-0.1-0.5-0.4-1-0.3-1.6
				c0,0-0.1,0-0.1,0c0-0.7-0.4-1.4-0.5-2.1c-0.1-0.5-0.3-1-0.5-1.5c-0.4-0.8-0.6-1.7-1.1-2.5c0-0.4-0.3-0.6-0.4-0.9
				c-0.1-0.3-0.2-0.4-0.5-0.6c0-0.2,0.1-0.6-0.3-0.6c0-0.3,0-0.5-0.3-0.7c0-0.1,0-0.2,0-0.2c-0.3-0.5-0.6-1-0.9-1.5
				c-0.2-0.3-0.5-0.5-0.5-0.7c0-0.4-0.3-0.3-0.5-0.5c0-0.1,0.1-0.3-0.1-0.3c0,0,0-0.1,0-0.1c-0.3-0.6-0.9-1-1.1-1.6c0,0-0.1,0-0.1,0
				c-0.1-0.1-0.3-0.2-0.3-0.4c0-0.1-0.1-0.3-0.2-0.3c-0.4,0-0.4-0.5-0.7-0.7c-0.3-0.2-0.6-0.4-0.7-0.8c-0.1-0.2-0.2-0.2-0.4-0.2
				c-0.2-0.5-0.5-0.8-0.9-1.1c-0.1-0.1-0.3-0.1-0.4-0.1c-0.6,0-1.2,0-1.8,0c-0.8,0-1.5,0.3-2.3,0.1c-0.3,0.2-0.7,0-1,0.2
				c-0.3,0.1-0.6,0-0.8,0.1c-0.3,0.2-0.6,0.1-0.9,0.1c-0.1,0-0.3-0.1-0.3,0.1c-0.1,0-0.3,0-0.4,0c-0.1,0-0.3-0.1-0.3,0.1
				c-0.1,0.1-0.4-0.1-0.4,0.1c-0.2,0-0.4,0.1-0.6,0.1c-1.2,0.2-2.3,0.7-3.4,1c-1.2,0.4-2.4,0.9-3.5,1.5c-0.9,0.4-1.8,0.8-2.6,1.4
				c-0.4,0.3-0.9,0.6-1.4,0.9c-0.1,0-0.2,0-0.3,0.1c-0.4,0.3-0.7,0.6-1.1,0.8c-0.2,0.1-0.4,0.4-0.6,0.4c-0.3,0-0.3,0.4-0.6,0.5
				c-0.4,0.2-0.8,0.5-1,0.9c-0.2,0-0.3,0-0.4,0.2c-0.2,0.3-0.4,0.6-0.7,0.7c-0.3,0.2-0.6,0.5-0.8,0.8c-0.1,0-0.3-0.1-0.3,0.1
				c-0.4,0-0.5-0.3-0.8-0.5c-0.1-0.5-0.6-0.6-0.9-0.9c0-0.2-0.1-0.3-0.3-0.3c-0.2-0.1-0.4-0.3-0.6-0.4c0-0.2-0.1-0.3-0.3-0.3
				c-0.2-0.1-0.4-0.4-0.5-0.4c-0.4,0-0.3-0.4-0.5-0.5c-0.5-0.2-0.8-0.7-1.3-0.8c-0.8-0.8-1.9-1.2-2.9-1.8c-0.5-0.3-1-0.5-1.6-0.6
				c0-0.1,0-0.3-0.1-0.3c-0.9-0.1-1.6-0.8-2.5-0.9c-1-0.6-2.1-0.8-3.2-1.2c-0.4-0.1-0.7-0.1-1.1-0.3c-0.2-0.1-0.5-0.2-0.8-0.3
				c-0.1,0-0.3,0-0.4,0c0-0.2-0.2-0.1-0.3-0.1c-0.3,0.1-0.6-0.1-0.9-0.1c-0.3,0-0.7,0-1,0c-0.5-0.3-1.1-0.3-1.6-0.4
				c-0.4,0-0.9,0-1.3,0c-0.1,0-0.1-0.1-0.2-0.1c-0.1,0-0.3,0-0.4,0c-0.7,0-1.4,0-2.2,0c-0.4,0-0.5,0.1-0.6,0.6
				c-0.3-0.1-0.4,0.1-0.5,0.3c-0.1,0.1-0.1,0.3-0.1,0.4C10,29,9.7,29.2,9.6,29.3c-0.4,0.6-0.9,1.2-1.4,1.7c-0.3,0.3-0.5,0.7-0.7,1
				c-0.5,0.6-0.9,1.2-1.3,1.8c-0.2,0.3-0.5,0.7-0.6,1.1c0,0-0.1,0-0.1,0.1c-0.4,0.5-0.6,1.2-1.1,1.7c0.1,0.4-0.3,0.6-0.5,1
				c-0.1,0.3-0.3,0.7-0.4,1c-0.2,0.3-0.3,0.6-0.4,0.9c-0.2,0.4-0.2,0.9-0.4,1.3c-0.4,0.4-0.5,0.8-0.4,1.3c-0.1,0.1-0.2,0.2-0.3,0.3
				c-0.1,0.3-0.1,0.8-0.3,1c-0.2,0.3-0.1,0.6-0.2,0.9c-0.2,0.6-0.5,1.3-0.5,2c-0.3,0.3-0.1,0.7-0.2,1c-0.1,0.4-0.3,0.9-0.3,1.4
				c-0.2,0-0.1,0.2-0.1,0.3c0,0.2,0,0.5,0,0.7c0,0.2-0.1,0.4-0.1,0.5c0,1-0.2,2-0.2,3c0.1,0.9,0,1.9,0,2.8c0,0.4,0.2,0.8,0.2,1.3
				c0,0.5,0,0.9,0,1.4c0,0.1-0.1,0.3,0.1,0.3c0,0.2,0,0.5,0,0.7c0,0.1-0.1,0.3,0.1,0.3c0,0.1,0,0.2,0,0.3c0.1,0.5,0.2,1,0.3,1.5
				c0,0.2,0.1,0.4,0.1,0.6c0,0.4,0.1,0.8,0.3,1.2c0.2,0.5,0.3,1.1,0.5,1.6c0.2,0.8,0.5,1.7,0.9,2.4c0,0.1,0.1,0.2,0.1,0.3
				c0.2,0.7,0.3,1.4,0.8,2c0.1,0.1,0.1,0.2,0.1,0.3c0.2,0.8,0.7,1.5,1.1,2.3c0.4,0.8,0.9,1.5,1.3,2.2c0.1,0.1,0.2,0.3,0.3,0.4
				c0.2,0.2,0.4,0.5,0.5,0.7c0.2,0.3,0.4,0.7,0.7,0.9c0.3,0.6,0.6,1.1,1.2,1.5c0.1,0.3,0.3,0.5,0.5,0.7c0.1,0.1,0.3,0.3,0.4,0.5
				c0,0.2,0.4,0.2,0.5,0.4c0.4,0.7,1.1,1.2,1.6,1.7c0.2,0.2,0.4,0.3,0.7,0.3c0.1,0.2,0.2,0.4,0.4,0.6c0.4-0.1,0.3,0.3,0.5,0.5
				c0.5,0.3,1,0.8,1.5,1.1c0.5,0.3,0.9,0.7,1.4,1c0.4,0.3,0.8,0.5,1.2,0.7c0.4,0.2,0.9,0.4,1.2,0.8c0.1,0.1,0.2,0.1,0.2,0.1
				c0.6,0.2,1.1,0.6,1.7,0.8c0.2,0.1,0.3,0.2,0.5,0.3c0.1,0,0.2,0,0.3,0.1c0,0,0,0.1,0.1,0.1c0.5,0.1,0.9,0.3,1.3,0.5
				c0.2,0.1,0.5,0.3,0.9,0.2c0.2,0.2,0.4,0.2,0.6,0.3c0.2,0.1,0.4,0.2,0.7,0.3c0.3,0.1,0.5,0.1,0.8,0.1c0,0.3,0.3,0.1,0.4,0.2
				c0.4,0.1,0.8,0.4,1.3,0.5c0.4,0.1,0.9,0.2,1.3,0.3c1.1,0.3,2.2,0.6,3.3,0.6c0,0.1-0.1,0.3,0.1,0.3c0.1,0,0.1-0.1,0.2-0.1
				c0.2,0,0.4,0,0.6,0c0,0,0.1,0,0.1,0c0,0.1,0,0.2,0,0.2c0.2,0.1,0.6,0.1,0.9-0.1c0.2,0,0.5,0,0.7,0c0,0.2,0,0.3,0.3,0.3
				c1.2,0,2.5,0,3.7,0c0.1,0,0.2,0,0.4,0c0.2,0,0.1-0.2,0.1-0.3c0.4,0,0.9,0,1.3,0c0,0.2,0.2,0.2,0.3,0.1c0.4-0.1,0.8-0.1,1.1-0.2
				c0.7-0.2,1.3-0.3,2-0.3c0.1,0,0.1-0.1,0.2-0.1c0.4-0.1,0.8-0.1,1.2-0.2c0,0,0,0,0-0.1c0.4,0,0.8-0.1,1.3-0.2
				c0.4-0.1,0.9-0.1,1.3-0.3c0.4-0.2,0.9-0.3,1.3-0.4c0.7-0.2,1.4-0.5,2.1-0.8c0.5-0.2,0.9-0.3,1.3-0.6c0,0,0.1-0.1,0.1-0.1
				c0.2,0,0.4,0,0.6-0.1c0.2-0.1,0.4-0.3,0.6-0.4c0.2-0.1,0.5-0.1,0.6-0.3c0,0,0.1,0,0.1,0c0.5-0.3,0.9-0.6,1.4-0.8
				c0,0,0-0.2,0.1-0.3c0.4,0,0.7-0.1,0.9-0.4c0.4-0.1,0.6-0.2,0.6-0.4c0.3-0.1,0.8-0.3,1-0.5c0.5-0.4,1-0.7,1.5-1.1
				c0.7-0.6,1.5-1.1,2.1-1.7c0.9-0.9,1.8-1.8,2.7-2.7c0.4-0.4,0.8-0.8,1-1.4c0.1,0,0.3,0,0.3-0.1c0.4-0.5,0.8-1.1,1.2-1.5
				c0-0.3,0.4-0.4,0.4-0.7c0.1-0.1,0.1-0.3,0.2-0.3c0.4-0.1,0.3-0.4,0.4-0.6c0.3-0.2,0.5-0.5,0.6-0.9c0.1-0.2,0.2-0.3,0.3-0.5
				c0.2-0.3,0.4-0.5,0.5-0.8c0.2-0.7,0.8-1.2,1-2c0-0.2,0.3-0.4,0.4-0.6c0.2-0.6,0.3-1.2,0.8-1.7c0.1-0.1,0-0.2,0-0.4
				c0,0,0-0.1,0-0.1c0,0,0.1-0.1,0.1-0.1c0.3-0.8,0.6-1.6,0.9-2.5c0.3-0.8,0.6-1.6,0.6-2.5c0-0.1,0.1-0.1,0.1-0.2
				c0.1-0.2,0.2-0.4,0.2-0.6c0-0.5,0.2-1,0.3-1.6c0-0.5,0.1-1.1,0.1-1.6c0-0.3,0-0.6,0-0.9c0.1,0,0.3,0.1,0.3-0.1
				c0-0.1,0.1-0.3-0.1-0.3c0-0.5,0.3-1,0.1-1.5C74.4,56.1,74.4,55.9,74.4,55.8z M36.4,50c0.1-0.1,0.1-0.2,0.1-0.3
				c0.3,0,0.4-0.1,0.5-0.3c0.1-0.3,0.2-0.3,0.4,0c0.1,0.1,0.2,0.3,0.3,0.5c0.2,0.3,0.3,0.7,0.5,1c0.2,0.2,0.3,0.6,0.4,0.9
				c0.1,0.2,0.2,0.1,0.3,0.1c0,0.3-0.1,0.7,0.3,0.9c0,0.2,0.2,0.4,0.1,0.6c-0.1,0.4,0.3,0.2,0.3,0.4c0.1,0.5,0.3,1.1,0.4,1.6
				c0,0.2,0.1,0.3,0.3,0.3c0,0,0,0.1,0,0.1c0,0.2,0.1,0.5,0.1,0.7c0,0.2,0.1,0.5,0.1,0.7c0.1,0.1-0.1,0.4,0.1,0.4c0,0.1,0,0.2,0,0.3
				c0,0.1-0.1,0.3,0.1,0.3c0,0.1,0,0.3,0,0.4c0,0.2,0.1,0.3,0.3,0.3c-0.1,0.8,0.2,1.6,0.1,2.4c0.1,0.1-0.1,0.4,0.1,0.4
				c-0.1,0.6,0.2,1.2,0.1,1.8c-0.2,0-0.1,0.2-0.1,0.3c0,1,0,2.1,0,3.1c0,0.1,0,0.3,0,0.4c0,0.2,0,0.4,0,0.6c0,0.1-0.1,0.1-0.1,0.2
				c0,0.5,0,1,0,1.4c-0.2,0-0.1,0.2-0.1,0.3c0,0.3,0,0.5-0.1,0.8c-0.2,0.4-0.2,0.8-0.3,1.2c-0.1,0.2-0.1,0.4-0.1,0.7
				c-0.1,0.3,0,0.7-0.2,1c-0.4,0.6-0.4,1.3-0.7,1.9c0.1,0.4-0.4,0.5-0.3,0.9c-0.2,0.5-0.5,1-0.7,1.5c-0.3,0.6-0.6,1.3-0.9,1.9
				c-0.1,0.2-0.3,0.4-0.4,0.6c-0.2,0.3-0.3,0.2-0.4,0c-0.3-0.5-0.5-1-0.9-1.4c0-0.1-0.1-0.2-0.1-0.3c-0.1-0.3-0.4-0.5-0.4-0.9
				c-0.1-0.3-0.2-0.6-0.4-0.9c-0.2-0.6-0.5-1.2-0.7-1.8c-0.2-0.4-0.2-0.8-0.4-1.2c-0.1-0.2,0-0.4-0.1-0.6c-0.2-0.3-0.2-0.7-0.3-1.1
				c-0.1-0.4-0.3-0.8-0.3-1.2c0-0.4-0.2-0.8-0.2-1.2c0-0.1,0-0.3,0-0.4c0-0.2,0-0.3-0.1-0.5c-0.1-0.1-0.2-0.3-0.2-0.5
				c0-0.9-0.2-1.8-0.2-2.7c0.1-0.6,0-1.3,0-1.9c0-0.4,0-0.8,0.1-1.3c0.1-0.5,0-1,0-1.5c0.2-0.2,0.2-0.6,0.3-0.9
				c0.1-0.2,0-0.5,0.1-0.8c0.1-0.2,0-0.4,0.1-0.7c0.1-0.2,0-0.5,0-0.8c0,0,0.1,0,0.1,0c0.1-0.4,0.3-0.8,0.2-1.2
				c0.1-0.1,0.3-0.2,0.3-0.3c0.1-0.7,0.3-1.4,0.7-2.1c0-0.1,0.1-0.1,0.1-0.2c0.2-0.8,0.5-1.6,1-2.3c0.2-0.4,0.4-0.8,0.5-1.2
				C36.2,50.4,36.1,50.2,36.4,50z M29.7,83.8c-0.1,0-0.3,0-0.4,0c-0.1,0-0.1-0.1-0.2-0.1c-0.1,0-0.3,0-0.4,0c0-0.2-0.1-0.3-0.3-0.3
				c-0.2,0-0.3,0-0.5-0.1c-0.6-0.2-1.2-0.4-1.9-0.5c0-0.1,0-0.2-0.1-0.3c-0.3-0.1-0.7-0.1-1-0.4c-0.3-0.2-0.7-0.3-1-0.5
				c-0.3-0.1-0.5-0.3-0.9-0.2c0-0.1,0.1-0.2-0.1-0.3c-0.4-0.2-0.8-0.3-1.1-0.7c-0.1-0.1-0.3,0-0.4-0.1c-0.4-0.3-0.8-0.6-1.2-0.9
				c-0.6-0.5-1.3-0.9-1.9-1.4c-0.6-0.6-1.3-1-1.9-1.6c-0.4-0.4-0.9-0.8-1.3-1.2c-0.1-0.1-0.3-0.2-0.4-0.3c-0.4-0.7-1.1-1.3-1.5-2
				c-0.3-0.4-0.8-0.7-0.9-1.3c0,0-0.2,0-0.3-0.1c-0.1-0.3-0.1-0.6-0.4-0.7c0-0.1,0-0.3,0-0.4c-0.4-0.2-0.4-0.7-0.7-1
				c-0.1-0.1-0.2-0.2-0.4-0.2c0-0.2,0-0.4-0.1-0.6c-0.6-1.2-1.2-2.4-1.7-3.7c-0.1-0.3-0.1-0.6-0.2-0.8c0,0-0.2,0-0.3,0
				c0.1-0.3-0.1-0.4-0.2-0.7c-0.1-0.7-0.3-1.3-0.5-2c-0.1-0.3-0.2-0.6-0.2-0.9c0-0.5-0.3-0.9-0.2-1.4C7,58.4,7,57.6,6.8,56.9
				c-0.2-0.8-0.1-1.7-0.2-2.6c0-0.1,0-0.2,0-0.3c0-0.3,0-0.7,0-1c0-0.1,0.1-0.1,0.1-0.2c0-0.2,0-0.4,0-0.6c-0.1-0.3,0.1-0.6,0.2-1
				c0-0.3-0.2-0.6,0.1-0.9c0,0,0-0.1,0-0.1c0-0.3,0-0.6,0.1-1c0.1-0.3,0-0.6,0.2-0.9c-0.1-0.4,0.2-0.8,0.1-1.2c0-0.1,0-0.2,0-0.3
				c0.2,0,0.3-0.1,0.3-0.3c-0.1-0.4,0.1-0.7,0.2-1c0.1-0.2,0.1-0.3,0.1-0.5c0.1-0.4,0.3-0.8,0.4-1.2c0.1-0.3,0.2-0.6,0.3-0.9
				c0.4-0.9,0.9-1.9,1.3-2.8c0.4-0.7,0.7-1.6,1.3-2.2c0,0,0-0.1,0-0.2c0.4-0.5,0.7-1,1.1-1.5c0.3-0.4,0.7-0.9,1.1-1.3
				c0.4-0.5,0.8-0.5,1.3-0.3c0.1,0,0.1,0.1,0.2,0.1c0.6,0.1,1.2,0.1,1.8,0.1c0.3,0,0.6,0.1,0.8,0.2c0.2,0.1,0.3,0.1,0.5,0.1
				c0.1,0,0.1,0.1,0.2,0.1c0.4,0.1,0.7,0.1,1.1,0.2c0.6,0.2,1.2,0.5,1.8,0.6c0.4,0.1,0.8,0.4,1.3,0.4c0,0,0.1,0,0.1,0
				c0,0.2,0.1,0.3,0.3,0.3c0.4,0.2,0.8,0.3,1.2,0.6c0,0,0.1,0,0.1,0c1.1,0.4,2,1.1,3,1.6c0.6,0.4,1.3,0.7,1.8,1.3
				c0.1,0.1,0.2,0.1,0.4,0.2c0.1,0.1,0.3,0.1,0.4,0.2c0.5,0.4,0.9,0.8,1.4,1.2c0.4,0.4,0.8,0.7,1.2,1c0.3,0.3,0.2,0.4,0,0.7
				c-0.3,0.4-0.6,0.9-0.9,1.3c-0.4,0.7-0.9,1.4-1.2,2.1c-0.1,0.2-0.1,0.3-0.1,0.5c-0.1,0.1-0.4,0.3-0.4,0.4
				c-0.1,0.5-0.4,0.8-0.6,1.2c-0.1,0.2-0.1,0.4-0.2,0.6c-0.3,0.1-0.1,0.4-0.3,0.6c-0.2,0.2-0.2,0.4-0.3,0.7
				c-0.2,0.6-0.4,1.1-0.6,1.6c0,0.1-0.1,0.2-0.1,0.3c-0.1,0.5-0.3,0.9-0.4,1.4c-0.1,0.4-0.2,0.8-0.4,1.2c0,0.1,0,0.3,0,0.4
				c-0.3,0.2-0.1,0.5-0.2,0.7c-0.1,0.2-0.1,0.6-0.1,0.8c-0.1,0-0.3-0.1-0.3,0.1c0,0.1,0.1,0.1,0.1,0.2c0,0.1,0,0.2,0,0.3
				c0,0.1-0.1,0.2-0.1,0.3c-0.2,0-0.1,0.2-0.1,0.3c0,0.3,0,0.6,0,0.9c-0.3,0.1-0.1,0.3-0.1,0.4c0.1,0.9-0.2,1.8-0.2,2.7
				c0,1.3,0,2.5,0,3.8c0,0.3,0,0.6,0,1c0,0.3,0.1,0.6,0.1,1c0,0.4,0,0.7,0,1.1c0,0.3,0.1,0.7,0.1,1c0.1,0.6,0.2,1.1,0.3,1.6
				c0.1,0.2,0.1,0.4,0.2,0.7c0.1,0.5,0.1,1,0.4,1.4c0.1,0.7,0.4,1.3,0.5,1.9c0,0.1,0.2,0.2,0.3,0.3c0,0.6,0.2,1.1,0.4,1.6
				c0,0,0,0.1,0,0.1c0.3,0.6,0.7,1.2,0.8,1.9c0,0,0.2,0,0.3,0.1c0,0.5,0.3,1,0.5,1.5c0.1,0.3,0.2,0.6,0.5,0.8c0.1,0.4,0.2,0.7,0.5,1
				C31,83.6,31,83.8,31,84c-0.1,0-0.2,0-0.3,0c-0.2,0-0.5,0-0.7,0C30,83.7,29.8,83.8,29.7,83.8z M60,74.4c-0.6,0.2-0.6,0.9-1.1,1.1
				c-0.2,0.1-0.3,0.3-0.4,0.5c-0.2,0.1-0.3,0.3-0.5,0.5c-0.1,0.2-0.4,0.4-0.6,0.5c-0.7,0.5-1.3,1.2-2.1,1.7
				c-0.2,0.1-0.3,0.3-0.5,0.4c-0.2,0-0.3,0.1-0.3,0.3c-0.7,0.2-1.1,0.8-1.8,1c-0.4,0.1-0.6,0.2-0.6,0.4c0,0-0.1,0.1-0.1,0.1
				c-0.2,0-0.3,0-0.5,0.1c-0.5,0.3-1,0.6-1.6,0.8c-0.2,0-0.3,0.1-0.3,0.3c-0.3,0.1-0.7,0.1-1,0.3c-0.8,0.3-1.6,0.7-2.4,0.9
				c-0.2,0-0.4,0.1-0.6,0.2c-0.6,0.3-1.2,0.4-1.9,0.4c0,0-0.1,0.1-0.1,0.1c-0.1,0-0.3,0.1-0.3-0.2c0-0.1,0-0.2,0.1-0.3
				c0.2-0.5,0.5-0.9,0.8-1.4c0.5-1,1-2,1.4-3c0.2-0.6,0.5-1.2,0.7-1.8c0.2-0.5,0.2-1.1,0.5-1.5c0.1-0.8,0.5-1.5,0.5-2.3
				c0.2,0,0.1-0.2,0.1-0.3c0,0,0.1-0.1,0.1-0.1c0-0.2,0-0.4,0-0.5c0.3-0.8,0.3-1.7,0.4-2.6c0-0.1,0-0.2,0-0.2
				c0.2-0.2,0.1-0.5,0.1-0.8c0-0.3,0.1-0.5,0.1-0.8c0-0.2,0-0.4,0-0.6c0-0.1,0.1-0.1,0.1-0.2c0-0.1,0-0.3,0-0.4c0-0.1,0-0.2,0-0.3
				c0-1,0-2.1,0-3.1c0-0.3,0-0.7,0-1c0-0.1-0.1-0.1-0.1-0.2c0-0.1,0-0.3,0-0.4c0-0.4,0.1-0.8,0-1.1c-0.1-0.2-0.1-0.4-0.1-0.6
				c0-0.2-0.1-0.4-0.1-0.6c0-0.4-0.1-0.7-0.1-1c-0.1-0.4-0.1-0.7-0.1-1.1c-0.1-1-0.6-1.9-0.6-2.8c-0.3-0.3-0.2-0.8-0.4-1.2
				c-0.2-0.4-0.3-0.8-0.4-1.2c-0.2-0.4-0.3-0.9-0.5-1.3c-0.2-0.4-0.4-0.9-0.6-1.3c-0.3-0.7-0.6-1.3-0.9-1.9c-0.3-0.7-0.8-1.2-1-1.9
				c-0.1-0.3-0.4-0.5-0.6-0.8c0.1-0.3-0.3-0.4-0.4-0.7c0-0.1-0.1-0.3-0.3-0.4c-0.2-0.2-0.3-0.4-0.3-0.6c0.1-0.3,0.2-0.5,0.5-0.7
				c0.2-0.1,0.3-0.3,0.5-0.5c0.3-0.4,0.8-0.6,1.1-0.9c0.5-0.4,1.1-0.7,1.5-1.1c0.3-0.3,0.7-0.5,1.1-0.7c0.7-0.5,1.5-0.9,2.2-1.3
				c0.2-0.1,0.4-0.2,0.6-0.3c0.4-0.1,0.6-0.2,0.6-0.4c0.1,0,0.3,0.1,0.3-0.1c0.5,0,0.8-0.3,1.3-0.3c0,0,0-0.2,0-0.3
				c0.5,0,1-0.2,1.5-0.4c0.1,0,0.2,0,0.3-0.1c0.2-0.1,0.5-0.1,0.7-0.2c0,0,0-0.2,0-0.3c0.1,0,0.2,0,0.3,0c0.3,0,0.6-0.1,0.9-0.1
				c0.4-0.1,0.9-0.3,1.3-0.4c0.4-0.1,0.7-0.2,1.1-0.2c0.6-0.1,1.1-0.1,1.7-0.1c0.1,0,0.2-0.1,0.3-0.1c0.5,0,0.9,0.1,1.1,0.6
				c0.2,0.4,0.6,0.8,0.9,1.2c0.1,0.2,0.3,0.3,0.4,0.5c0.2,0.4,0.5,0.8,0.7,1.2c0.4,0.5,0.6,1.1,1,1.6c0,0.1,0,0.2,0,0.2
				c0.3,0.4,0.5,0.6,0.6,1.1c0.3,0.7,0.7,1.4,0.9,2.1c0.1,0.2,0.2,0.6,0.4,0.7c0,0.6,0.2,1.1,0.4,1.6c0.2,0.5,0.3,0.9,0.4,1.4
				c0.1,0.5,0.2,1,0.4,1.4c0,0.3,0.1,0.6,0.1,0.9c0,0.3,0.1,0.6,0.1,0.9c0.1,0.4,0,0.9,0,1.3c0,0.1-0.1,0.3,0.1,0.3
				c0,0.7,0,1.5,0,2.2c0,0.2,0,0.5,0,0.7c0,0.1,0,0.3,0,0.4c0,0.5,0,1.1,0,1.6c-0.2,0-0.2,0.2-0.1,0.3c0.1,0.9-0.2,1.7-0.3,2.6
				c0,0.2-0.1,0.4-0.2,0.7c-0.1,0.3-0.1,0.7-0.1,1c-0.3,0.2-0.1,0.5-0.3,0.8c-0.1,0.2,0,0.6,0,0.9C66.1,63,66,63.4,66,63.5
				c-0.1,1-0.7,1.8-0.9,2.8c-0.1,0.4-0.4,0.8-0.6,1.2c-0.6,1.2-1.3,2.4-2.1,3.5c-0.4,0.5-0.7,1-1,1.6c-0.2,0.4-0.7,0.6-0.7,1
				C60.4,73.9,60.1,74,60,74.4z"/>
			<path class="st0" d="M34.3,15.2c0,0.4,0,0.8,0,1.2c0,0.3,0,0.5,0.3,0.7c1.3,0,2.6,0,3.8,0c0.4,0,0.9,0,1.3,0
				c0.3,0,0.3-0.1,0.3-0.3c0-1.5,0-2.9,0-4.4c0-1.8,0-3.6,0-5.5c0-2,0-4.1,0-6.1c0-0.2,0-0.3,0-0.5c0-0.1-0.1-0.2-0.2-0.2
				c-0.4,0-0.8,0-1.2,0c-0.4,0-0.8-0.1-1.2-0.1c-1,0-2,0.2-3,0.1c-0.2,0-0.2,0.1-0.2,0.2c0,1,0,2,0,3c0,0.2,0.1,0.3,0.1,0.5
				c0,0.2,0.1,0.4,0,0.6c-0.2,0.4-0.1,0.7,0,1.1c0,0.9-0.1,1.8-0.1,2.7C34.2,10.5,34.3,12.8,34.3,15.2z"/>
		</g>
	</g>
</g>
</svg>
