<?xml version="1.0" encoding="utf-8"?>

<svg version="1.1" id="Layer_1" xmlns="http://www.w3.org/2000/svg" x="0px" y="0px"
     viewBox="0 0 171.6 91.6" style="enable-background:new 0 0 171.6 91.6;" xml:space="preserve">
<style type="text/css">
	.st0{fill:#fff;}
</style>
    <g id="icon" class="">
        <path class="st0"
              d="M54.8,21.69999533891696 c0.7000000000000001,0.4 1.4,0.9 2.1,1.3 c0.30000000000000004,0.2 0.8,0.4 1.1,0.6000000000000001 c0.4,0.30000000000000004 0.8,0.4 1.2,0.7000000000000001 c0,0 0.2,0 0.2,-0.1 c0.4,-0.7000000000000001 0.9,-1.3 1.3,-2 c0.4,-0.6000000000000001 0.8,-1.3 1.2,-1.9 c0.4,-0.7000000000000001 0.8,-1.4 1.3,-2.1 c0.1,-0.1 0.1,-0.2 0.2,-0.30000000000000004 c0.30000000000000004,-0.5 0.6000000000000001,-1 1,-1.5 c0.30000000000000004,-0.4 0.5,-0.9 0.8,-1.3 c0.1,-0.1 0.2,-0.30000000000000004 0.2,-0.4 c0,-0.2 -0.1,-0.30000000000000004 -0.4,-0.30000000000000004 c-0.1,0 -0.1,-0.1 -0.2,-0.2 c-0.4,-0.2 -0.8,-0.6000000000000001 -1.3,-0.7000000000000001 c0,-0.1 0,-0.2 -0.1,-0.30000000000000004 c-0.8,-0.5 -1.7000000000000002,-1 -2.5,-1.5 c-0.2,-0.1 -0.30000000000000004,-0.1 -0.4,0 c-0.30000000000000004,0.5 -0.7000000000000001,1 -1,1.5 c-0.1,0.2 -0.2,0.4 -0.1,0.6000000000000001 c0,0 -0.1,0.1 -0.1,0.1 c-0.2,0 -0.30000000000000004,0.1 -0.30000000000000004,0.30000000000000004 c-0.2,0.30000000000000004 -0.4,0.7000000000000001 -0.6000000000000001,1 c-0.30000000000000004,0.5 -0.7000000000000001,1.1 -1,1.6 c-0.4,0.6000000000000001 -0.8,1.2 -1.1,1.8 c-0.30000000000000004,0.5 -0.7000000000000001,1 -0.9,1.5 c0,0.1 -0.2,0.2 -0.30000000000000004,0.30000000000000004 c-0.1,0.1 -0.1,0.2 -0.2,0.4 C54.4,21.29999533891696 54.4,21.49999533891696 54.8,21.69999533891696 z"
              id="svg_22"/>
        <path class="st0"
              d="M20.9,8.19999533891696 c0.2,1 0.5,2 0.9,3 c0.1,0.2 0.1,0.4 0.1,0.5 c0.1,0.6000000000000001 0.30000000000000004,1.1 0.5,1.6 c0.2,0.8 0.30000000000000004,1.7000000000000002 0.7000000000000001,2.4 c0.1,0.1 0,0.2 0,0.4 c0.1,0.30000000000000004 0.1,0.6000000000000001 0.2,0.8 c0,0 0.1,0 0.1,0 c0,0 0,0.1 0,0.1 c0.30000000000000004,0.30000000000000004 0.2,0.6000000000000001 0.30000000000000004,1 c0.1,0.30000000000000004 0,0.6000000000000001 0.30000000000000004,0.9 c0.1,0.1 0,0.30000000000000004 0.1,0.30000000000000004 c0.1,0.1 0.30000000000000004,0.1 0.4,0 c0.30000000000000004,-0.2 0.7000000000000001,-0.30000000000000004 1,-0.4 c0.4,0 0.7000000000000001,-0.2 1.1,-0.2 c0.4,-0.1 0.8,-0.30000000000000004 1.3,-0.4 c0.5,-0.1 1,-0.30000000000000004 1.5,-0.4 c0.2,-0.1 0.4,-0.2 0.30000000000000004,-0.30000000000000004 c-0.30000000000000004,-0.2 -0.1,-0.5 -0.2,-0.7000000000000001 c-0.2,-0.4 -0.4,-0.8 -0.4,-1.3 c-0.30000000000000004,-0.2 0,-0.6000000000000001 -0.30000000000000004,-0.7000000000000001 c0,-0.1 0,-0.2 0,-0.30000000000000004 c0,-0.2 -0.1,-0.30000000000000004 -0.30000000000000004,-0.30000000000000004 c0.1,-0.4 0,-0.8 -0.2,-1.1 c-0.2,-0.6000000000000001 -0.2,-1.2 -0.5,-1.8 c-0.1,-0.2 -0.1,-0.4 -0.2,-0.7000000000000001 c0,-0.2 0,-0.4 -0.1,-0.5 c-0.1,-0.1 0.1,-0.4 -0.2,-0.6000000000000001 c-0.1,-0.5 -0.4,-0.9 -0.4,-1.4 c-0.1,-0.7000000000000001 -0.4,-1.4 -0.6000000000000001,-2 c-0.1,-0.30000000000000004 -0.1,-0.5 -0.1,-0.8 c0,-0.2 -0.1,-0.5 -0.2,-0.7000000000000001 c0,-0.1 -0.1,-0.30000000000000004 -0.2,-0.4 c-0.1,-0.2 -0.30000000000000004,-0.30000000000000004 -0.6000000000000001,-0.1 c-0.2,0.1 -0.5,0.2 -0.7000000000000001,0.30000000000000004 c-0.5,0.1 -1,0.2 -1.5,0.4 c-0.6000000000000001,0.2 -1.2,0.5 -1.9,0.5 c0,0 0,0.1 -0.1,0.1 c-0.1,0 -0.2,0 -0.30000000000000004,0 c-0.1,0 -0.30000000000000004,-0.1 -0.30000000000000004,0.1 c-0.1,0 -0.30000000000000004,-0.1 -0.30000000000000004,0.1 c0,0.30000000000000004 0.2,0.6000000000000001 0.2,0.9 C20.6,7.199995338916961 20.8,7.699995338916961 20.9,8.19999533891696 z"
              id="svg_23"/>
        <path class="st0"
              d="M44.7,17.89999533891696 c0.2,0.1 0.4,0.2 0.6000000000000001,0.2 c0.4,0.1 0.9,0.2 1.3,0.30000000000000004 c0.30000000000000004,0.1 0.5,0.2 0.8,0.30000000000000004 c0.8,0.2 1.6,0.30000000000000004 2.3,0.6000000000000001 c0.2,0.1 0.30000000000000004,0 0.4,-0.1 c0.2,-0.30000000000000004 0.2,-0.7000000000000001 0.2,-1 c0,0 0,-0.1 0,-0.1 c0.2,0 0.30000000000000004,-0.1 0.30000000000000004,-0.30000000000000004 c0,-0.5 0.2,-1 0.4,-1.5 c0.1,-0.1 0.2,-0.30000000000000004 0.2,-0.4 c0.2,-1.1 0.6000000000000001,-2.1 0.8,-3.1 c0.1,-0.4 0.30000000000000004,-0.7000000000000001 0.2,-1.2 c0,0 0.1,-0.1 0.1,-0.1 C52.7,10.69999533891696 53,9.89999533891696 53,8.99999533891696 c0.1,-0.1 0.2,-0.2 0.30000000000000004,-0.30000000000000004 c0.1,-0.4 0.2,-0.8 0.30000000000000004,-1.1 c0.1,-0.2 0.1,-0.4 0.1,-0.7000000000000001 c0,-0.30000000000000004 0.1,-0.5 0.1,-0.8 c0,-0.1 0.2,-0.4 -0.1,-0.4 c0,-0.2 -0.1,-0.30000000000000004 -0.30000000000000004,-0.30000000000000004 c-0.1,0 -0.2,0 -0.30000000000000004,0 c0,0 0,-0.1 0,-0.1 c-0.4,-0.1 -0.9,-0.2 -1.3,-0.2 c-0.1,-0.1 -0.1,-0.2 -0.2,-0.30000000000000004 c-0.30000000000000004,-0.1 -0.7000000000000001,-0.1 -1,-0.2 c-0.1,0 -0.1,-0.1 -0.2,-0.1 c-0.5,-0.1 -1.1,-0.2 -1.6,-0.5 c-0.1,-0.1 -0.4,0.1 -0.5,0.2 C48.3,4.899995338916961 48.1,5.399995338916961 48,5.9999953389169605 c-0.1,0.5 -0.2,0.9 -0.4,1.4 c-0.30000000000000004,0.9 -0.5,1.9 -0.8,2.8 c0,0.1 -0.1,0.2 -0.1,0.30000000000000004 c-0.1,0.6000000000000001 -0.30000000000000004,1.2 -0.5,1.8 c-0.1,0.30000000000000004 -0.1,0.6000000000000001 -0.30000000000000004,0.8 c-0.2,0.30000000000000004 -0.1,0.6000000000000001 -0.2,0.9 c-0.2,0.6000000000000001 -0.4,1.2 -0.5,1.8 c-0.2,0.6000000000000001 -0.30000000000000004,1.2 -0.5,1.8 C44.6,17.69999533891696 44.6,17.79999533891696 44.7,17.89999533891696 z"
              id="svg_24"/>
        <path class="st0"
              d="M9.6,15.49999533891696 c-0.1,0.4 0.1,0.6000000000000001 0.4,0.7000000000000001 c0,0.30000000000000004 0.1,0.4 0.30000000000000004,0.6000000000000001 c0.30000000000000004,0.4 0.5,0.8 0.8,1.2 c0.2,0.4 0.6000000000000001,0.8 0.8,1.3 c0,0.2 0.2,0.1 0.30000000000000004,0.1 c0,0.1 0,0.2 0.1,0.30000000000000004 c0.30000000000000004,0.6000000000000001 0.6000000000000001,1.1 1,1.6 c0.30000000000000004,0.5 0.7000000000000001,0.9 0.9,1.4 c0.2,0.5 0.7000000000000001,0.9 0.9,1.4 c0,0.1 0.2,0.2 0.4,0.1 c0.7000000000000001,-0.30000000000000004 1.3,-0.9 2,-1.2 c0,0 0.1,-0.1 0.1,-0.1 c0.6000000000000001,-0.4 1.2,-0.8 1.9,-1.2 c0.2,-0.1 0.4,-0.2 0.6000000000000001,-0.4 c0.1,-0.1 -0.1,-0.7000000000000001 -0.30000000000000004,-0.8 c-0.1,-0.1 -0.1,-0.1 -0.2,-0.2 c-0.2,-0.30000000000000004 -0.4,-0.6000000000000001 -0.6000000000000001,-1 c-0.2,-0.4 -0.6000000000000001,-0.6000000000000001 -0.7000000000000001,-1.1 c0,-0.2 -0.30000000000000004,-0.4 -0.5,-0.6000000000000001 c0,0 -0.1,0 -0.2,0 c-0.1,-0.6000000000000001 -0.5,-1.1 -0.8,-1.6 c0,0 -0.1,0 -0.1,-0.1 c0,-0.1 0,-0.2 0,-0.2 c-0.30000000000000004,-0.30000000000000004 -0.5,-0.7000000000000001 -0.7000000000000001,-1.1 c0,-0.1 -0.1,-0.1 -0.2,-0.2 c0,-0.1 0,-0.2 0,-0.2 c-0.5,-0.7000000000000001 -1,-1.5 -1.4,-2.2 c-0.1,-0.2 -0.1,-0.4 -0.4,-0.4 c-0.2,0 -0.4,0 -0.6000000000000001,0.2 c-0.30000000000000004,0.30000000000000004 -0.7000000000000001,0.5 -1,0.7000000000000001 c-0.30000000000000004,0.2 -0.6000000000000001,0.4 -1,0.5 c-0.30000000000000004,0.2 -0.6000000000000001,0.30000000000000004 -0.9,0.6000000000000001 c-0.30000000000000004,0.30000000000000004 -0.7000000000000001,0.30000000000000004 -0.9,0.6000000000000001 C9.3,14.49999533891696 9,14.49999533891696 9,14.69999533891696 c0,0.2 0.2,0.4 0.30000000000000004,0.5 C9.4,15.39999533891696 9.5,15.39999533891696 9.6,15.49999533891696 z"
              id="svg_25"/>
        <path class="st0"
              d="M74.4,55.79999533891696 c0,-0.8 -0.2,-1.7000000000000002 -0.2,-2.5 c0,-0.5 0,-1 0,-1.5 c0,-0.1 -0.1,-0.1 -0.1,-0.2 c-0.1,-0.5 0.1,-1.1 -0.1,-1.6 c0.1,-0.7000000000000001 -0.2,-1.4 -0.1,-2.1 c0,-0.1 0.1,-0.30000000000000004 -0.1,-0.30000000000000004 c0,-0.2 0,-0.4 0,-0.6000000000000001 c0,-0.1 0.1,-0.30000000000000004 -0.1,-0.30000000000000004 c-0.1,-0.5 -0.4,-1 -0.30000000000000004,-1.6 c0,0 -0.1,0 -0.1,0 c0,-0.7000000000000001 -0.4,-1.4 -0.5,-2.1 c-0.1,-0.5 -0.30000000000000004,-1 -0.5,-1.5 c-0.4,-0.8 -0.6000000000000001,-1.7000000000000002 -1.1,-2.5 c0,-0.4 -0.30000000000000004,-0.6000000000000001 -0.4,-0.9 c-0.1,-0.30000000000000004 -0.2,-0.4 -0.5,-0.6000000000000001 c0,-0.2 0.1,-0.6000000000000001 -0.30000000000000004,-0.6000000000000001 c0,-0.30000000000000004 0,-0.5 -0.30000000000000004,-0.7000000000000001 c0,-0.1 0,-0.2 0,-0.2 c-0.30000000000000004,-0.5 -0.6000000000000001,-1 -0.9,-1.5 c-0.2,-0.30000000000000004 -0.5,-0.5 -0.5,-0.7000000000000001 c0,-0.4 -0.30000000000000004,-0.30000000000000004 -0.5,-0.5 c0,-0.1 0.1,-0.30000000000000004 -0.1,-0.30000000000000004 c0,0 0,-0.1 0,-0.1 c-0.30000000000000004,-0.6000000000000001 -0.9,-1 -1.1,-1.6 c0,0 -0.1,0 -0.1,0 c-0.1,-0.1 -0.30000000000000004,-0.2 -0.30000000000000004,-0.4 c0,-0.1 -0.1,-0.30000000000000004 -0.2,-0.30000000000000004 c-0.4,0 -0.4,-0.5 -0.7000000000000001,-0.7000000000000001 c-0.30000000000000004,-0.2 -0.6000000000000001,-0.4 -0.7000000000000001,-0.8 c-0.1,-0.2 -0.2,-0.2 -0.4,-0.2 c-0.2,-0.5 -0.5,-0.8 -0.9,-1.1 c-0.1,-0.1 -0.30000000000000004,-0.1 -0.4,-0.1 c-0.6000000000000001,0 -1.2,0 -1.8,0 c-0.8,0 -1.5,0.30000000000000004 -2.3,0.1 c-0.30000000000000004,0.2 -0.7000000000000001,0 -1,0.2 c-0.30000000000000004,0.1 -0.6000000000000001,0 -0.8,0.1 c-0.30000000000000004,0.2 -0.6000000000000001,0.1 -0.9,0.1 c-0.1,0 -0.30000000000000004,-0.1 -0.30000000000000004,0.1 c-0.1,0 -0.30000000000000004,0 -0.4,0 c-0.1,0 -0.30000000000000004,-0.1 -0.30000000000000004,0.1 c-0.1,0.1 -0.4,-0.1 -0.4,0.1 c-0.2,0 -0.4,0.1 -0.6000000000000001,0.1 c-1.2,0.2 -2.3,0.7000000000000001 -3.4,1 c-1.2,0.4 -2.4,0.9 -3.5,1.5 c-0.9,0.4 -1.8,0.8 -2.6,1.4 c-0.4,0.30000000000000004 -0.9,0.6000000000000001 -1.4,0.9 c-0.1,0 -0.2,0 -0.30000000000000004,0.1 c-0.4,0.30000000000000004 -0.7000000000000001,0.6000000000000001 -1.1,0.8 c-0.2,0.1 -0.4,0.4 -0.6000000000000001,0.4 c-0.30000000000000004,0 -0.30000000000000004,0.4 -0.6000000000000001,0.5 c-0.4,0.2 -0.8,0.5 -1,0.9 c-0.2,0 -0.30000000000000004,0 -0.4,0.2 c-0.2,0.30000000000000004 -0.4,0.6000000000000001 -0.7000000000000001,0.7000000000000001 c-0.30000000000000004,0.2 -0.6000000000000001,0.5 -0.8,0.8 c-0.1,0 -0.30000000000000004,-0.1 -0.30000000000000004,0.1 c-0.4,0 -0.5,-0.30000000000000004 -0.8,-0.5 c-0.1,-0.5 -0.6000000000000001,-0.6000000000000001 -0.9,-0.9 c0,-0.2 -0.1,-0.30000000000000004 -0.30000000000000004,-0.30000000000000004 c-0.2,-0.1 -0.4,-0.30000000000000004 -0.6000000000000001,-0.4 c0,-0.2 -0.1,-0.30000000000000004 -0.30000000000000004,-0.30000000000000004 c-0.2,-0.1 -0.4,-0.4 -0.5,-0.4 c-0.4,0 -0.30000000000000004,-0.4 -0.5,-0.5 c-0.5,-0.2 -0.8,-0.7000000000000001 -1.3,-0.8 c-0.8,-0.8 -1.9,-1.2 -2.9,-1.8 c-0.5,-0.30000000000000004 -1,-0.5 -1.6,-0.6000000000000001 c0,-0.1 0,-0.30000000000000004 -0.1,-0.30000000000000004 c-0.9,-0.1 -1.6,-0.8 -2.5,-0.9 c-1,-0.6000000000000001 -2.1,-0.8 -3.2,-1.2 c-0.4,-0.1 -0.7000000000000001,-0.1 -1.1,-0.30000000000000004 c-0.2,-0.1 -0.5,-0.2 -0.8,-0.30000000000000004 c-0.1,0 -0.30000000000000004,0 -0.4,0 c0,-0.2 -0.2,-0.1 -0.30000000000000004,-0.1 c-0.30000000000000004,0.1 -0.6000000000000001,-0.1 -0.9,-0.1 c-0.30000000000000004,0 -0.7000000000000001,0 -1,0 c-0.5,-0.30000000000000004 -1.1,-0.30000000000000004 -1.6,-0.4 c-0.4,0 -0.9,0 -1.3,0 c-0.1,0 -0.1,-0.1 -0.2,-0.1 c-0.1,0 -0.30000000000000004,0 -0.4,0 c-0.7000000000000001,0 -1.4,0 -2.2,0 c-0.4,0 -0.5,0.1 -0.6000000000000001,0.6000000000000001 c-0.30000000000000004,-0.1 -0.4,0.1 -0.5,0.30000000000000004 c-0.1,0.1 -0.1,0.30000000000000004 -0.1,0.4 C10,28.99999533891696 9.7,29.19999533891696 9.6,29.29999533891696 c-0.4,0.6000000000000001 -0.9,1.2 -1.4,1.7000000000000002 c-0.30000000000000004,0.30000000000000004 -0.5,0.7000000000000001 -0.7000000000000001,1 c-0.5,0.6000000000000001 -0.9,1.2 -1.3,1.8 c-0.2,0.30000000000000004 -0.5,0.7000000000000001 -0.6000000000000001,1.1 c0,0 -0.1,0 -0.1,0.1 c-0.4,0.5 -0.6000000000000001,1.2 -1.1,1.7000000000000002 c0.1,0.4 -0.30000000000000004,0.6000000000000001 -0.5,1 c-0.1,0.30000000000000004 -0.30000000000000004,0.7000000000000001 -0.4,1 c-0.2,0.30000000000000004 -0.30000000000000004,0.6000000000000001 -0.4,0.9 c-0.2,0.4 -0.2,0.9 -0.4,1.3 c-0.4,0.4 -0.5,0.8 -0.4,1.3 c-0.1,0.1 -0.2,0.2 -0.30000000000000004,0.30000000000000004 c-0.1,0.30000000000000004 -0.1,0.8 -0.30000000000000004,1 c-0.2,0.30000000000000004 -0.1,0.6000000000000001 -0.2,0.9 c-0.2,0.6000000000000001 -0.5,1.3 -0.5,2 c-0.30000000000000004,0.30000000000000004 -0.1,0.7000000000000001 -0.2,1 c-0.1,0.4 -0.30000000000000004,0.9 -0.30000000000000004,1.4 c-0.2,0 -0.1,0.2 -0.1,0.30000000000000004 c0,0.2 0,0.5 0,0.7000000000000001 c0,0.2 -0.1,0.4 -0.1,0.5 c0,1 -0.2,2 -0.2,3 c0.1,0.9 0,1.9 0,2.8 c0,0.4 0.2,0.8 0.2,1.3 c0,0.5 0,0.9 0,1.4 c0,0.1 -0.1,0.30000000000000004 0.1,0.30000000000000004 c0,0.2 0,0.5 0,0.7000000000000001 c0,0.1 -0.1,0.30000000000000004 0.1,0.30000000000000004 c0,0.1 0,0.2 0,0.30000000000000004 c0.1,0.5 0.2,1 0.30000000000000004,1.5 c0,0.2 0.1,0.4 0.1,0.6000000000000001 c0,0.4 0.1,0.8 0.30000000000000004,1.2 c0.2,0.5 0.30000000000000004,1.1 0.5,1.6 c0.2,0.8 0.5,1.7000000000000002 0.9,2.4 c0,0.1 0.1,0.2 0.1,0.30000000000000004 c0.2,0.7000000000000001 0.30000000000000004,1.4 0.8,2 c0.1,0.1 0.1,0.2 0.1,0.30000000000000004 c0.2,0.8 0.7000000000000001,1.5 1.1,2.3 c0.4,0.8 0.9,1.5 1.3,2.2 c0.1,0.1 0.2,0.30000000000000004 0.30000000000000004,0.4 c0.2,0.2 0.4,0.5 0.5,0.7000000000000001 c0.2,0.30000000000000004 0.4,0.7000000000000001 0.7000000000000001,0.9 c0.30000000000000004,0.6000000000000001 0.6000000000000001,1.1 1.2,1.5 c0.1,0.30000000000000004 0.30000000000000004,0.5 0.5,0.7000000000000001 c0.1,0.1 0.30000000000000004,0.30000000000000004 0.4,0.5 c0,0.2 0.4,0.2 0.5,0.4 c0.4,0.7000000000000001 1.1,1.2 1.6,1.7000000000000002 c0.2,0.2 0.4,0.30000000000000004 0.7000000000000001,0.30000000000000004 c0.1,0.2 0.2,0.4 0.4,0.6000000000000001 c0.4,-0.1 0.30000000000000004,0.30000000000000004 0.5,0.5 c0.5,0.30000000000000004 1,0.8 1.5,1.1 c0.5,0.30000000000000004 0.9,0.7000000000000001 1.4,1 c0.4,0.30000000000000004 0.8,0.5 1.2,0.7000000000000001 c0.4,0.2 0.9,0.4 1.2,0.8 c0.1,0.1 0.2,0.1 0.2,0.1 c0.6000000000000001,0.2 1.1,0.6000000000000001 1.7000000000000002,0.8 c0.2,0.1 0.30000000000000004,0.2 0.5,0.30000000000000004 c0.1,0 0.2,0 0.30000000000000004,0.1 c0,0 0,0.1 0.1,0.1 c0.5,0.1 0.9,0.30000000000000004 1.3,0.5 c0.2,0.1 0.5,0.30000000000000004 0.9,0.2 c0.2,0.2 0.4,0.2 0.6000000000000001,0.30000000000000004 c0.2,0.1 0.4,0.2 0.7000000000000001,0.30000000000000004 c0.30000000000000004,0.1 0.5,0.1 0.8,0.1 c0,0.30000000000000004 0.30000000000000004,0.1 0.4,0.2 c0.4,0.1 0.8,0.4 1.3,0.5 c0.4,0.1 0.9,0.2 1.3,0.30000000000000004 c1.1,0.30000000000000004 2.2,0.6000000000000001 3.3,0.6000000000000001 c0,0.1 -0.1,0.30000000000000004 0.1,0.30000000000000004 c0.1,0 0.1,-0.1 0.2,-0.1 c0.2,0 0.4,0 0.6000000000000001,0 c0,0 0.1,0 0.1,0 c0,0.1 0,0.2 0,0.2 c0.2,0.1 0.6000000000000001,0.1 0.9,-0.1 c0.2,0 0.5,0 0.7000000000000001,0 c0,0.2 0,0.30000000000000004 0.30000000000000004,0.30000000000000004 c1.2,0 2.5,0 3.7,0 c0.1,0 0.2,0 0.4,0 c0.2,0 0.1,-0.2 0.1,-0.30000000000000004 c0.4,0 0.9,0 1.3,0 c0,0.2 0.2,0.2 0.30000000000000004,0.1 c0.4,-0.1 0.8,-0.1 1.1,-0.2 c0.7000000000000001,-0.2 1.3,-0.30000000000000004 2,-0.30000000000000004 c0.1,0 0.1,-0.1 0.2,-0.1 c0.4,-0.1 0.8,-0.1 1.2,-0.2 c0,0 0,0 0,-0.1 c0.4,0 0.8,-0.1 1.3,-0.2 c0.4,-0.1 0.9,-0.1 1.3,-0.30000000000000004 c0.4,-0.2 0.9,-0.30000000000000004 1.3,-0.4 c0.7000000000000001,-0.2 1.4,-0.5 2.1,-0.8 c0.5,-0.2 0.9,-0.30000000000000004 1.3,-0.6000000000000001 c0,0 0.1,-0.1 0.1,-0.1 c0.2,0 0.4,0 0.6000000000000001,-0.1 c0.2,-0.1 0.4,-0.30000000000000004 0.6000000000000001,-0.4 c0.2,-0.1 0.5,-0.1 0.6000000000000001,-0.30000000000000004 c0,0 0.1,0 0.1,0 c0.5,-0.30000000000000004 0.9,-0.6000000000000001 1.4,-0.8 c0,0 0,-0.2 0.1,-0.30000000000000004 c0.4,0 0.7000000000000001,-0.1 0.9,-0.4 c0.4,-0.1 0.6000000000000001,-0.2 0.6000000000000001,-0.4 c0.30000000000000004,-0.1 0.8,-0.30000000000000004 1,-0.5 c0.5,-0.4 1,-0.7000000000000001 1.5,-1.1 c0.7000000000000001,-0.6000000000000001 1.5,-1.1 2.1,-1.7000000000000002 c0.9,-0.9 1.8,-1.8 2.7,-2.7 c0.4,-0.4 0.8,-0.8 1,-1.4 c0.1,0 0.30000000000000004,0 0.30000000000000004,-0.1 c0.4,-0.5 0.8,-1.1 1.2,-1.5 c0,-0.30000000000000004 0.4,-0.4 0.4,-0.7000000000000001 c0.1,-0.1 0.1,-0.30000000000000004 0.2,-0.30000000000000004 c0.4,-0.1 0.30000000000000004,-0.4 0.4,-0.6000000000000001 c0.30000000000000004,-0.2 0.5,-0.5 0.6000000000000001,-0.9 c0.1,-0.2 0.2,-0.30000000000000004 0.30000000000000004,-0.5 c0.2,-0.30000000000000004 0.4,-0.5 0.5,-0.8 c0.2,-0.7000000000000001 0.8,-1.2 1,-2 c0,-0.2 0.30000000000000004,-0.4 0.4,-0.6000000000000001 c0.2,-0.6000000000000001 0.30000000000000004,-1.2 0.8,-1.7000000000000002 c0.1,-0.1 0,-0.2 0,-0.4 c0,0 0,-0.1 0,-0.1 c0,0 0.1,-0.1 0.1,-0.1 c0.30000000000000004,-0.8 0.6000000000000001,-1.6 0.9,-2.5 c0.30000000000000004,-0.8 0.6000000000000001,-1.6 0.6000000000000001,-2.5 c0,-0.1 0.1,-0.1 0.1,-0.2 c0.1,-0.2 0.2,-0.4 0.2,-0.6000000000000001 c0,-0.5 0.2,-1 0.30000000000000004,-1.6 c0,-0.5 0.1,-1.1 0.1,-1.6 c0,-0.30000000000000004 0,-0.6000000000000001 0,-0.9 c0.1,0 0.30000000000000004,0.1 0.30000000000000004,-0.1 c0,-0.1 0.1,-0.30000000000000004 -0.1,-0.30000000000000004 c0,-0.5 0.30000000000000004,-1 0.1,-1.5 C74.4,56.09999533891696 74.4,55.89999533891696 74.4,55.79999533891696 zM36.4,49.99999533891696 c0.1,-0.1 0.1,-0.2 0.1,-0.30000000000000004 c0.30000000000000004,0 0.4,-0.1 0.5,-0.30000000000000004 c0.1,-0.30000000000000004 0.2,-0.30000000000000004 0.4,0 c0.1,0.1 0.2,0.30000000000000004 0.30000000000000004,0.5 c0.2,0.30000000000000004 0.30000000000000004,0.7000000000000001 0.5,1 c0.2,0.2 0.30000000000000004,0.6000000000000001 0.4,0.9 c0.1,0.2 0.2,0.1 0.30000000000000004,0.1 c0,0.30000000000000004 -0.1,0.7000000000000001 0.30000000000000004,0.9 c0,0.2 0.2,0.4 0.1,0.6000000000000001 c-0.1,0.4 0.30000000000000004,0.2 0.30000000000000004,0.4 c0.1,0.5 0.30000000000000004,1.1 0.4,1.6 c0,0.2 0.1,0.30000000000000004 0.30000000000000004,0.30000000000000004 c0,0 0,0.1 0,0.1 c0,0.2 0.1,0.5 0.1,0.7000000000000001 c0,0.2 0.1,0.5 0.1,0.7000000000000001 c0.1,0.1 -0.1,0.4 0.1,0.4 c0,0.1 0,0.2 0,0.30000000000000004 c0,0.1 -0.1,0.30000000000000004 0.1,0.30000000000000004 c0,0.1 0,0.30000000000000004 0,0.4 c0,0.2 0.1,0.30000000000000004 0.30000000000000004,0.30000000000000004 c-0.1,0.8 0.2,1.6 0.1,2.4 c0.1,0.1 -0.1,0.4 0.1,0.4 c-0.1,0.6000000000000001 0.2,1.2 0.1,1.8 c-0.2,0 -0.1,0.2 -0.1,0.30000000000000004 c0,1 0,2.1 0,3.1 c0,0.1 0,0.30000000000000004 0,0.4 c0,0.2 0,0.4 0,0.6000000000000001 c0,0.1 -0.1,0.1 -0.1,0.2 c0,0.5 0,1 0,1.4 c-0.2,0 -0.1,0.2 -0.1,0.30000000000000004 c0,0.30000000000000004 0,0.5 -0.1,0.8 c-0.2,0.4 -0.2,0.8 -0.30000000000000004,1.2 c-0.1,0.2 -0.1,0.4 -0.1,0.7000000000000001 c-0.1,0.30000000000000004 0,0.7000000000000001 -0.2,1 c-0.4,0.6000000000000001 -0.4,1.3 -0.7000000000000001,1.9 c0.1,0.4 -0.4,0.5 -0.30000000000000004,0.9 c-0.2,0.5 -0.5,1 -0.7000000000000001,1.5 c-0.30000000000000004,0.6000000000000001 -0.6000000000000001,1.3 -0.9,1.9 c-0.1,0.2 -0.30000000000000004,0.4 -0.4,0.6000000000000001 c-0.2,0.30000000000000004 -0.30000000000000004,0.2 -0.4,0 c-0.30000000000000004,-0.5 -0.5,-1 -0.9,-1.4 c0,-0.1 -0.1,-0.2 -0.1,-0.30000000000000004 c-0.1,-0.30000000000000004 -0.4,-0.5 -0.4,-0.9 c-0.1,-0.30000000000000004 -0.2,-0.6000000000000001 -0.4,-0.9 c-0.2,-0.6000000000000001 -0.5,-1.2 -0.7000000000000001,-1.8 c-0.2,-0.4 -0.2,-0.8 -0.4,-1.2 c-0.1,-0.2 0,-0.4 -0.1,-0.6000000000000001 c-0.2,-0.30000000000000004 -0.2,-0.7000000000000001 -0.30000000000000004,-1.1 c-0.1,-0.4 -0.30000000000000004,-0.8 -0.30000000000000004,-1.2 c0,-0.4 -0.2,-0.8 -0.2,-1.2 c0,-0.1 0,-0.30000000000000004 0,-0.4 c0,-0.2 0,-0.30000000000000004 -0.1,-0.5 c-0.1,-0.1 -0.2,-0.30000000000000004 -0.2,-0.5 c0,-0.9 -0.2,-1.8 -0.2,-2.7 c0.1,-0.6000000000000001 0,-1.3 0,-1.9 c0,-0.4 0,-0.8 0.1,-1.3 c0.1,-0.5 0,-1 0,-1.5 c0.2,-0.2 0.2,-0.6000000000000001 0.30000000000000004,-0.9 c0.1,-0.2 0,-0.5 0.1,-0.8 c0.1,-0.2 0,-0.4 0.1,-0.7000000000000001 c0.1,-0.2 0,-0.5 0,-0.8 c0,0 0.1,0 0.1,0 c0.1,-0.4 0.30000000000000004,-0.8 0.2,-1.2 c0.1,-0.1 0.30000000000000004,-0.2 0.30000000000000004,-0.30000000000000004 c0.1,-0.7000000000000001 0.30000000000000004,-1.4 0.7000000000000001,-2.1 c0,-0.1 0.1,-0.1 0.1,-0.2 c0.2,-0.8 0.5,-1.6 1,-2.3 c0.2,-0.4 0.4,-0.8 0.5,-1.2 C36.2,50.39999533891696 36.1,50.19999533891696 36.4,49.99999533891696 zM29.7,83.79999533891696 c-0.1,0 -0.30000000000000004,0 -0.4,0 c-0.1,0 -0.1,-0.1 -0.2,-0.1 c-0.1,0 -0.30000000000000004,0 -0.4,0 c0,-0.2 -0.1,-0.30000000000000004 -0.30000000000000004,-0.30000000000000004 c-0.2,0 -0.30000000000000004,0 -0.5,-0.1 c-0.6000000000000001,-0.2 -1.2,-0.4 -1.9,-0.5 c0,-0.1 0,-0.2 -0.1,-0.30000000000000004 c-0.30000000000000004,-0.1 -0.7000000000000001,-0.1 -1,-0.4 c-0.30000000000000004,-0.2 -0.7000000000000001,-0.30000000000000004 -1,-0.5 c-0.30000000000000004,-0.1 -0.5,-0.30000000000000004 -0.9,-0.2 c0,-0.1 0.1,-0.2 -0.1,-0.30000000000000004 c-0.4,-0.2 -0.8,-0.30000000000000004 -1.1,-0.7000000000000001 c-0.1,-0.1 -0.30000000000000004,0 -0.4,-0.1 c-0.4,-0.30000000000000004 -0.8,-0.6000000000000001 -1.2,-0.9 c-0.6000000000000001,-0.5 -1.3,-0.9 -1.9,-1.4 c-0.6000000000000001,-0.6000000000000001 -1.3,-1 -1.9,-1.6 c-0.4,-0.4 -0.9,-0.8 -1.3,-1.2 c-0.1,-0.1 -0.30000000000000004,-0.2 -0.4,-0.30000000000000004 c-0.4,-0.7000000000000001 -1.1,-1.3 -1.5,-2 c-0.30000000000000004,-0.4 -0.8,-0.7000000000000001 -0.9,-1.3 c0,0 -0.2,0 -0.30000000000000004,-0.1 c-0.1,-0.30000000000000004 -0.1,-0.6000000000000001 -0.4,-0.7000000000000001 c0,-0.1 0,-0.30000000000000004 0,-0.4 c-0.4,-0.2 -0.4,-0.7000000000000001 -0.7000000000000001,-1 c-0.1,-0.1 -0.2,-0.2 -0.4,-0.2 c0,-0.2 0,-0.4 -0.1,-0.6000000000000001 c-0.6000000000000001,-1.2 -1.2,-2.4 -1.7000000000000002,-3.7 c-0.1,-0.30000000000000004 -0.1,-0.6000000000000001 -0.2,-0.8 c0,0 -0.2,0 -0.30000000000000004,0 c0.1,-0.30000000000000004 -0.1,-0.4 -0.2,-0.7000000000000001 c-0.1,-0.7000000000000001 -0.30000000000000004,-1.3 -0.5,-2 c-0.1,-0.30000000000000004 -0.2,-0.6000000000000001 -0.2,-0.9 c0,-0.5 -0.30000000000000004,-0.9 -0.2,-1.4 C7,58.39999533891696 7,57.59999533891696 6.8,56.89999533891696 c-0.2,-0.8 -0.1,-1.7000000000000002 -0.2,-2.6 c0,-0.1 0,-0.2 0,-0.30000000000000004 c0,-0.30000000000000004 0,-0.7000000000000001 0,-1 c0,-0.1 0.1,-0.1 0.1,-0.2 c0,-0.2 0,-0.4 0,-0.6000000000000001 c-0.1,-0.30000000000000004 0.1,-0.6000000000000001 0.2,-1 c0,-0.30000000000000004 -0.2,-0.6000000000000001 0.1,-0.9 c0,0 0,-0.1 0,-0.1 c0,-0.30000000000000004 0,-0.6000000000000001 0.1,-1 c0.1,-0.30000000000000004 0,-0.6000000000000001 0.2,-0.9 c-0.1,-0.4 0.2,-0.8 0.1,-1.2 c0,-0.1 0,-0.2 0,-0.30000000000000004 c0.2,0 0.30000000000000004,-0.1 0.30000000000000004,-0.30000000000000004 c-0.1,-0.4 0.1,-0.7000000000000001 0.2,-1 c0.1,-0.2 0.1,-0.30000000000000004 0.1,-0.5 c0.1,-0.4 0.30000000000000004,-0.8 0.4,-1.2 c0.1,-0.30000000000000004 0.2,-0.6000000000000001 0.30000000000000004,-0.9 c0.4,-0.9 0.9,-1.9 1.3,-2.8 c0.4,-0.7000000000000001 0.7000000000000001,-1.6 1.3,-2.2 c0,0 0,-0.1 0,-0.2 c0.4,-0.5 0.7000000000000001,-1 1.1,-1.5 c0.30000000000000004,-0.4 0.7000000000000001,-0.9 1.1,-1.3 c0.4,-0.5 0.8,-0.5 1.3,-0.30000000000000004 c0.1,0 0.1,0.1 0.2,0.1 c0.6000000000000001,0.1 1.2,0.1 1.8,0.1 c0.30000000000000004,0 0.6000000000000001,0.1 0.8,0.2 c0.2,0.1 0.30000000000000004,0.1 0.5,0.1 c0.1,0 0.1,0.1 0.2,0.1 c0.4,0.1 0.7000000000000001,0.1 1.1,0.2 c0.6000000000000001,0.2 1.2,0.5 1.8,0.6000000000000001 c0.4,0.1 0.8,0.4 1.3,0.4 c0,0 0.1,0 0.1,0 c0,0.2 0.1,0.30000000000000004 0.30000000000000004,0.30000000000000004 c0.4,0.2 0.8,0.30000000000000004 1.2,0.6000000000000001 c0,0 0.1,0 0.1,0 c1.1,0.4 2,1.1 3,1.6 c0.6000000000000001,0.4 1.3,0.7000000000000001 1.8,1.3 c0.1,0.1 0.2,0.1 0.4,0.2 c0.1,0.1 0.30000000000000004,0.1 0.4,0.2 c0.5,0.4 0.9,0.8 1.4,1.2 c0.4,0.4 0.8,0.7000000000000001 1.2,1 c0.30000000000000004,0.30000000000000004 0.2,0.4 0,0.7000000000000001 c-0.30000000000000004,0.4 -0.6000000000000001,0.9 -0.9,1.3 c-0.4,0.7000000000000001 -0.9,1.4 -1.2,2.1 c-0.1,0.2 -0.1,0.30000000000000004 -0.1,0.5 c-0.1,0.1 -0.4,0.30000000000000004 -0.4,0.4 c-0.1,0.5 -0.4,0.8 -0.6000000000000001,1.2 c-0.1,0.2 -0.1,0.4 -0.2,0.6000000000000001 c-0.30000000000000004,0.1 -0.1,0.4 -0.30000000000000004,0.6000000000000001 c-0.2,0.2 -0.2,0.4 -0.30000000000000004,0.7000000000000001 c-0.2,0.6000000000000001 -0.4,1.1 -0.6000000000000001,1.6 c0,0.1 -0.1,0.2 -0.1,0.30000000000000004 c-0.1,0.5 -0.30000000000000004,0.9 -0.4,1.4 c-0.1,0.4 -0.2,0.8 -0.4,1.2 c0,0.1 0,0.30000000000000004 0,0.4 c-0.30000000000000004,0.2 -0.1,0.5 -0.2,0.7000000000000001 c-0.1,0.2 -0.1,0.6000000000000001 -0.1,0.8 c-0.1,0 -0.30000000000000004,-0.1 -0.30000000000000004,0.1 c0,0.1 0.1,0.1 0.1,0.2 c0,0.1 0,0.2 0,0.30000000000000004 c0,0.1 -0.1,0.2 -0.1,0.30000000000000004 c-0.2,0 -0.1,0.2 -0.1,0.30000000000000004 c0,0.30000000000000004 0,0.6000000000000001 0,0.9 c-0.30000000000000004,0.1 -0.1,0.30000000000000004 -0.1,0.4 c0.1,0.9 -0.2,1.8 -0.2,2.7 c0,1.3 0,2.5 0,3.8 c0,0.30000000000000004 0,0.6000000000000001 0,1 c0,0.30000000000000004 0.1,0.6000000000000001 0.1,1 c0,0.4 0,0.7000000000000001 0,1.1 c0,0.30000000000000004 0.1,0.7000000000000001 0.1,1 c0.1,0.6000000000000001 0.2,1.1 0.30000000000000004,1.6 c0.1,0.2 0.1,0.4 0.2,0.7000000000000001 c0.1,0.5 0.1,1 0.4,1.4 c0.1,0.7000000000000001 0.4,1.3 0.5,1.9 c0,0.1 0.2,0.2 0.30000000000000004,0.30000000000000004 c0,0.6000000000000001 0.2,1.1 0.4,1.6 c0,0 0,0.1 0,0.1 c0.30000000000000004,0.6000000000000001 0.7000000000000001,1.2 0.8,1.9 c0,0 0.2,0 0.30000000000000004,0.1 c0,0.5 0.30000000000000004,1 0.5,1.5 c0.1,0.30000000000000004 0.2,0.6000000000000001 0.5,0.8 c0.1,0.4 0.2,0.7000000000000001 0.5,1 C31,83.59999533891695 31,83.79999533891696 31,83.99999533891696 c-0.1,0 -0.2,0 -0.30000000000000004,0 c-0.2,0 -0.5,0 -0.7000000000000001,0 C30,83.69999533891696 29.8,83.79999533891696 29.7,83.79999533891696 zM60,74.39999533891697 c-0.6000000000000001,0.2 -0.6000000000000001,0.9 -1.1,1.1 c-0.2,0.1 -0.30000000000000004,0.30000000000000004 -0.4,0.5 c-0.2,0.1 -0.30000000000000004,0.30000000000000004 -0.5,0.5 c-0.1,0.2 -0.4,0.4 -0.6000000000000001,0.5 c-0.7000000000000001,0.5 -1.3,1.2 -2.1,1.7000000000000002 c-0.2,0.1 -0.30000000000000004,0.30000000000000004 -0.5,0.4 c-0.2,0 -0.30000000000000004,0.1 -0.30000000000000004,0.30000000000000004 c-0.7000000000000001,0.2 -1.1,0.8 -1.8,1 c-0.4,0.1 -0.6000000000000001,0.2 -0.6000000000000001,0.4 c0,0 -0.1,0.1 -0.1,0.1 c-0.2,0 -0.30000000000000004,0 -0.5,0.1 c-0.5,0.30000000000000004 -1,0.6000000000000001 -1.6,0.8 c-0.2,0 -0.30000000000000004,0.1 -0.30000000000000004,0.30000000000000004 c-0.30000000000000004,0.1 -0.7000000000000001,0.1 -1,0.30000000000000004 c-0.8,0.30000000000000004 -1.6,0.7000000000000001 -2.4,0.9 c-0.2,0 -0.4,0.1 -0.6000000000000001,0.2 c-0.6000000000000001,0.30000000000000004 -1.2,0.4 -1.9,0.4 c0,0 -0.1,0.1 -0.1,0.1 c-0.1,0 -0.30000000000000004,0.1 -0.30000000000000004,-0.2 c0,-0.1 0,-0.2 0.1,-0.30000000000000004 c0.2,-0.5 0.5,-0.9 0.8,-1.4 c0.5,-1 1,-2 1.4,-3 c0.2,-0.6000000000000001 0.5,-1.2 0.7000000000000001,-1.8 c0.2,-0.5 0.2,-1.1 0.5,-1.5 c0.1,-0.8 0.5,-1.5 0.5,-2.3 c0.2,0 0.1,-0.2 0.1,-0.30000000000000004 c0,0 0.1,-0.1 0.1,-0.1 c0,-0.2 0,-0.4 0,-0.5 c0.30000000000000004,-0.8 0.30000000000000004,-1.7000000000000002 0.4,-2.6 c0,-0.1 0,-0.2 0,-0.2 c0.2,-0.2 0.1,-0.5 0.1,-0.8 c0,-0.30000000000000004 0.1,-0.5 0.1,-0.8 c0,-0.2 0,-0.4 0,-0.6000000000000001 c0,-0.1 0.1,-0.1 0.1,-0.2 c0,-0.1 0,-0.30000000000000004 0,-0.4 c0,-0.1 0,-0.2 0,-0.30000000000000004 c0,-1 0,-2.1 0,-3.1 c0,-0.30000000000000004 0,-0.7000000000000001 0,-1 c0,-0.1 -0.1,-0.1 -0.1,-0.2 c0,-0.1 0,-0.30000000000000004 0,-0.4 c0,-0.4 0.1,-0.8 0,-1.1 c-0.1,-0.2 -0.1,-0.4 -0.1,-0.6000000000000001 c0,-0.2 -0.1,-0.4 -0.1,-0.6000000000000001 c0,-0.4 -0.1,-0.7000000000000001 -0.1,-1 c-0.1,-0.4 -0.1,-0.7000000000000001 -0.1,-1.1 c-0.1,-1 -0.6000000000000001,-1.9 -0.6000000000000001,-2.8 c-0.30000000000000004,-0.30000000000000004 -0.2,-0.8 -0.4,-1.2 c-0.2,-0.4 -0.30000000000000004,-0.8 -0.4,-1.2 c-0.2,-0.4 -0.30000000000000004,-0.9 -0.5,-1.3 c-0.2,-0.4 -0.4,-0.9 -0.6000000000000001,-1.3 c-0.30000000000000004,-0.7000000000000001 -0.6000000000000001,-1.3 -0.9,-1.9 c-0.30000000000000004,-0.7000000000000001 -0.8,-1.2 -1,-1.9 c-0.1,-0.30000000000000004 -0.4,-0.5 -0.6000000000000001,-0.8 c0.1,-0.30000000000000004 -0.30000000000000004,-0.4 -0.4,-0.7000000000000001 c0,-0.1 -0.1,-0.30000000000000004 -0.30000000000000004,-0.4 c-0.2,-0.2 -0.30000000000000004,-0.4 -0.30000000000000004,-0.6000000000000001 c0.1,-0.30000000000000004 0.2,-0.5 0.5,-0.7000000000000001 c0.2,-0.1 0.30000000000000004,-0.30000000000000004 0.5,-0.5 c0.30000000000000004,-0.4 0.8,-0.6000000000000001 1.1,-0.9 c0.5,-0.4 1.1,-0.7000000000000001 1.5,-1.1 c0.30000000000000004,-0.30000000000000004 0.7000000000000001,-0.5 1.1,-0.7000000000000001 c0.7000000000000001,-0.5 1.5,-0.9 2.2,-1.3 c0.2,-0.1 0.4,-0.2 0.6000000000000001,-0.30000000000000004 c0.4,-0.1 0.6000000000000001,-0.2 0.6000000000000001,-0.4 c0.1,0 0.30000000000000004,0.1 0.30000000000000004,-0.1 c0.5,0 0.8,-0.30000000000000004 1.3,-0.30000000000000004 c0,0 0,-0.2 0,-0.30000000000000004 c0.5,0 1,-0.2 1.5,-0.4 c0.1,0 0.2,0 0.30000000000000004,-0.1 c0.2,-0.1 0.5,-0.1 0.7000000000000001,-0.2 c0,0 0,-0.2 0,-0.30000000000000004 c0.1,0 0.2,0 0.30000000000000004,0 c0.30000000000000004,0 0.6000000000000001,-0.1 0.9,-0.1 c0.4,-0.1 0.9,-0.30000000000000004 1.3,-0.4 c0.4,-0.1 0.7000000000000001,-0.2 1.1,-0.2 c0.6000000000000001,-0.1 1.1,-0.1 1.7000000000000002,-0.1 c0.1,0 0.2,-0.1 0.30000000000000004,-0.1 c0.5,0 0.9,0.1 1.1,0.6000000000000001 c0.2,0.4 0.6000000000000001,0.8 0.9,1.2 c0.1,0.2 0.30000000000000004,0.30000000000000004 0.4,0.5 c0.2,0.4 0.5,0.8 0.7000000000000001,1.2 c0.4,0.5 0.6000000000000001,1.1 1,1.6 c0,0.1 0,0.2 0,0.2 c0.30000000000000004,0.4 0.5,0.6000000000000001 0.6000000000000001,1.1 c0.30000000000000004,0.7000000000000001 0.7000000000000001,1.4 0.9,2.1 c0.1,0.2 0.2,0.6000000000000001 0.4,0.7000000000000001 c0,0.6000000000000001 0.2,1.1 0.4,1.6 c0.2,0.5 0.30000000000000004,0.9 0.4,1.4 c0.1,0.5 0.2,1 0.4,1.4 c0,0.30000000000000004 0.1,0.6000000000000001 0.1,0.9 c0,0.30000000000000004 0.1,0.6000000000000001 0.1,0.9 c0.1,0.4 0,0.9 0,1.3 c0,0.1 -0.1,0.30000000000000004 0.1,0.30000000000000004 c0,0.7000000000000001 0,1.5 0,2.2 c0,0.2 0,0.5 0,0.7000000000000001 c0,0.1 0,0.30000000000000004 0,0.4 c0,0.5 0,1.1 0,1.6 c-0.2,0 -0.2,0.2 -0.1,0.30000000000000004 c0.1,0.9 -0.2,1.7000000000000002 -0.30000000000000004,2.6 c0,0.2 -0.1,0.4 -0.2,0.7000000000000001 c-0.1,0.30000000000000004 -0.1,0.7000000000000001 -0.1,1 c-0.30000000000000004,0.2 -0.1,0.5 -0.30000000000000004,0.8 c-0.1,0.2 0,0.6000000000000001 0,0.9 C66.1,62.99999533891696 66,63.39999533891696 66,63.49999533891696 c-0.1,1 -0.7000000000000001,1.8 -0.9,2.8 c-0.1,0.4 -0.4,0.8 -0.6000000000000001,1.2 c-0.6000000000000001,1.2 -1.3,2.4 -2.1,3.5 c-0.4,0.5 -0.7000000000000001,1 -1,1.6 c-0.2,0.4 -0.7000000000000001,0.6000000000000001 -0.7000000000000001,1 C60.4,73.89999533891697 60.1,73.99999533891696 60,74.39999533891697 z"
              id="svg_26"/>
        <path class="st0"
              d="M34.3,15.19999533891696 c0,0.4 0,0.8 0,1.2 c0,0.30000000000000004 0,0.5 0.30000000000000004,0.7000000000000001 c1.3,0 2.6,0 3.8,0 c0.4,0 0.9,0 1.3,0 c0.30000000000000004,0 0.30000000000000004,-0.1 0.30000000000000004,-0.30000000000000004 c0,-1.5 0,-2.9 0,-4.4 c0,-1.8 0,-3.6 0,-5.5 c0,-2 0,-4.1 0,-6.1 c0,-0.2 0,-0.30000000000000004 0,-0.5 c0,-0.1 -0.1,-0.2 -0.2,-0.2 c-0.4,0 -0.8,0 -1.2,0 c-0.4,0 -0.8,-0.1 -1.2,-0.1 c-1,0 -2,0.2 -3,0.1 c-0.2,0 -0.2,0.1 -0.2,0.2 c0,1 0,2 0,3 c0,0.2 0.1,0.30000000000000004 0.1,0.5 c0,0.2 0.1,0.4 0,0.6000000000000001 c-0.2,0.4 -0.1,0.7000000000000001 0,1.1 c0,0.9 -0.1,1.8 -0.1,2.7 C34.2,10.49999533891696 34.3,12.799995338916961 34.3,15.19999533891696 z"
              id="svg_27"/>
		</g>
    <g id="text">
            <path class="st0"
                  d="M171.6,67.7656270980835 c0,2.6 0,5.3 0,7.9 c0,0.4 0,0.4 -0.30000000000000004,0.4 c-1,0 -2,0 -3,0 c-0.30000000000000004,0 -0.30000000000000004,0 -0.30000000000000004,-0.4 c0,-0.1 0,-0.2 0,-0.30000000000000004 c0,0 -0.1,-0.1 -0.2,-0.1 c-0.2,0.1 -0.4,0.2 -0.5,0.30000000000000004 c-0.4,0.4 -0.9,0.4 -1.4,0.6000000000000001 c-0.6000000000000001,0.2 -1.2,0.1 -1.9,0.1 c-0.8,0 -1.4,-0.2 -2.3,-0.7000000000000001 c-0.6000000000000001,-0.1 -0.9,-0.7000000000000001 -1.4,-1 c-0.30000000000000004,-0.2 -0.5,-0.7000000000000001 -0.8,-1.1 c-0.4,-0.5 -0.4,-1 -0.6000000000000001,-1.5 c-0.2,-0.6000000000000001 -0.4,-1.3 -0.30000000000000004,-2 c0.1,-0.9 0.30000000000000004,-1.9 0.7000000000000001,-2.7 c0.7000000000000001,-1.5 1.9,-2.5 3.4,-3 c0.4,-0.1 0.8,-0.30000000000000004 1.2,-0.2 c0.6000000000000001,0.1 1.2,-0.1 1.8,0.2 c0.1,0.1 0.30000000000000004,0.1 0.5,0.1 c0.4,0.1 0.7000000000000001,0.4 1.1,0.5 c0.2,0 0.2,0.4 0.4,0.2 c0.1,-0.1 0.1,-0.4 0.1,-0.6000000000000001 c0,-1.6 0,-3.1 0,-4.7 c0,-0.2 0,-0.30000000000000004 0.30000000000000004,-0.30000000000000004 c1,0 2.1,0 3.1,0 c0.2,0 0.30000000000000004,0 0.30000000000000004,0.30000000000000004 c0,1.6 0,3.2 0,4.8 C171.6,65.5656270980835 171.6,66.66562709808349 171.6,67.7656270980835 zM165,67.2656270980835 c-0.5,-0.2 -0.9,0.2 -1.4,0.30000000000000004 c-0.30000000000000004,0.4 -0.7000000000000001,0.6000000000000001 -0.9,1.1 c-0.2,0.5 -0.2,0.9 -0.4,1.4 c-0.1,0.1 0.1,0.4 0.1,0.6000000000000001 c0,0.9 0.4,1.5 1.1,2 c0.4,0.30000000000000004 0.9,0.5 1.5,0.5 c0.5,0 1,-0.1 1.4,-0.4 c0.30000000000000004,-0.2 0.7000000000000001,-0.4 0.9,-0.8 c0.2,-0.30000000000000004 0.5,-0.6000000000000001 0.4,-1.1 c0.4,-0.7000000000000001 0,-1.3 0,-2 c-0.30000000000000004,-0.4 -0.6000000000000001,-0.9 -1.1,-1.2 C166.2,67.3656270980835 165.7,67.2656270980835 165,67.2656270980835 z"
                  id="svg_2"/>
        <path class="st0"
              d="M86.9,24.165627098083498 c0,-2.4 0,-4.8 0,-7.2 c0,-0.4 0,-0.4 0.4,-0.4 c2.8,0 5.7,0 8.5,0 c0.5,0 0.9,0.2 1.3,0.30000000000000004 c0.2,0.1 0.4,0.30000000000000004 0.7000000000000001,0.30000000000000004 c0.1,0 0.30000000000000004,0.1 0.4,0.2 c0.30000000000000004,0.2 0.6000000000000001,0.4 0.9,0.7000000000000001 c0.30000000000000004,0.4 0.6000000000000001,0.7000000000000001 0.8,1.2 c0.30000000000000004,0.8 0.6000000000000001,1.6 0.6000000000000001,2.4 c0,0.6000000000000001 -0.2,1.1 -0.30000000000000004,1.6 c-0.1,0.5 -0.4,0.9 -0.7000000000000001,1.4 c-0.30000000000000004,0.5 -0.9,0.7000000000000001 -1.2,1.1 c-0.4,0.1 -0.6000000000000001,0.30000000000000004 -1,0.5 c-0.2,0.1 -0.5,0.2 -0.8,0.2 c0.2,0.2 0.4,0.30000000000000004 0.5,0.6000000000000001 c0,0 0.1,0.1 0.1,0.1 c0.6000000000000001,0.6000000000000001 1.2,1.2 1.7000000000000002,1.9 c0.4,0.5 0.9,1 1.3,1.6 c0.2,0.30000000000000004 0.6000000000000001,0.6000000000000001 0.8,0.8 c0.1,0.1 0.1,0.2 0.1,0.30000000000000004 c0,0.1 -0.1,0.2 -0.1,0.2 c-0.1,0 -0.2,0 -0.30000000000000004,0 c-1.2,0 -2.4,0 -3.6,0 c-0.2,0 -0.4,0 -0.5,-0.2 c-0.4,-0.4 -0.8,-0.8 -1.1,-1.2 c-0.30000000000000004,-0.4 -0.8,-0.7000000000000001 -1,-1.2 c-0.1,-0.2 -0.30000000000000004,-0.30000000000000004 -0.5,-0.5 c-0.2,-0.2 -0.4,-0.5 -0.6000000000000001,-0.8 c-0.2,-0.2 -0.4,-0.4 -0.6000000000000001,-0.7000000000000001 c-0.1,-0.30000000000000004 -0.5,-0.4 -0.7000000000000001,-0.7000000000000001 c-0.2,-0.2 -0.4,-0.2 -0.6000000000000001,-0.1 c-0.30000000000000004,0 -0.4,0.1 -0.4,0.4 c0,1 0,2 0,3 c0,0.5 0,1.1 0,1.6 c0,0.30000000000000004 -0.1,0.4 -0.4,0.4 c-1,0 -1.9,0 -2.9,0 c-0.5,0 -0.5,-0.1 -0.5,-0.6000000000000001 C86.9,29.065627098083496 86.9,26.565627098083496 86.9,24.165627098083498 zM92.9,23.465627098083495 c0.5,0 1.1,0 1.6,0 c0.6000000000000001,0 1.1,-0.2 1.5,-0.6000000000000001 c0.6000000000000001,-0.6000000000000001 0.7000000000000001,-1.2 0.4,-1.9 c-0.30000000000000004,-0.8 -1,-1.1 -1.8,-1.1 c-1.2,-0.1 -2.4,0 -3.5,0 c-0.2,0 -0.30000000000000004,0 -0.30000000000000004,0.2 c0,1.1 0,2.2 0,3.2 c0,0.2 0.1,0.2 0.30000000000000004,0.2 C91.6,23.465627098083495 92.3,23.465627098083495 92.9,23.465627098083495 z"
              id="svg_5"/>
        <path class="st0"
              d="M86.9,68.2656270980835 c0,-2.5 0,-4.9 0,-7.4 c0,-0.4 0,-0.4 0.30000000000000004,-0.4 c1.1,0 2.1,0 3.2,0 c0.30000000000000004,0 0.30000000000000004,0.1 0.30000000000000004,0.30000000000000004 c0,1.6 0,3.2 0,4.9 c0,0.1 0,0.30000000000000004 0,0.4 c0,0.2 0.1,0.30000000000000004 0.30000000000000004,0.30000000000000004 c1.6,0 3.3,0 4.9,0 c0.30000000000000004,0 0.6000000000000001,0 0.9,0 c0.2,0 0.2,-0.1 0.2,-0.30000000000000004 c0,-1.6 0,-3.3 0,-4.9 c0,-0.2 0,-0.30000000000000004 0,-0.5 c0,-0.2 0.1,-0.2 0.2,-0.2 c1.2,0 2.4,0 3.5,0 c0.1,0 0.2,0 0.2,0.2 c0,0.1 0,0.30000000000000004 0,0.4 c0,4.7 0,9.5 0,14.2 c0,0.1 0,0.2 0,0.4 c0,0.30000000000000004 -0.1,0.30000000000000004 -0.30000000000000004,0.30000000000000004 c-1.1,0 -2.3,0 -3.4,0 c-0.2,0 -0.30000000000000004,0 -0.30000000000000004,-0.30000000000000004 c0,-1.3 0,-2.5 0,-3.8 c0,-0.6000000000000001 0,-1.2 0,-1.8 c0,-0.2 -0.1,-0.2 -0.2,-0.2 c-1.9,0 -3.7,0 -5.6,0 c-0.4,0 -0.5,0.1 -0.5,0.5 c0,1.7000000000000002 0,3.4 0,5.2 c0,0.4 0,0.4 -0.30000000000000004,0.4 c-1,0 -2.1,0 -3.1,0 c-0.4,0 -0.4,0 -0.4,-0.4 c0,-1.8 0,-3.5 0,-5.3 C86.9,69.5656270980835 86.9,68.8656270980835 86.9,68.2656270980835 z"
              id="svg_6"/>
        <path class="st0"
              d="M143.2,48.1656270980835 c0,1.6 0,3.3 0,4.9 c0,0.1 0,0.2 0,0.4 c0,0.4 -0.1,0.5 -0.5,0.5 c-0.9,0 -1.9,0 -2.8,0 c-0.5,0 -0.5,0 -0.5,-0.5 c0,-0.2 -0.1,-0.30000000000000004 -0.30000000000000004,-0.1 c-0.5,0.5 -1.2,0.6000000000000001 -1.9,0.8 c-1,0.30000000000000004 -2,0.30000000000000004 -3.3,-0.2 c-1.4,-0.5 -2.4,-1.4 -3,-2.7 c-0.4,-0.9 -0.7000000000000001,-1.8 -0.7000000000000001,-2.7 c0,-0.30000000000000004 0,-0.6000000000000001 0,-0.9 c0,-0.6000000000000001 0.1,-1.1 0.30000000000000004,-1.6 c0.5,-1.4 1.3,-2.5 2.5,-3.3 c0.6000000000000001,-0.4 1.7000000000000002,-0.7000000000000001 2.4,-0.7000000000000001 c0.2,0 0.4,-0.2 0.5,-0.1 c0.30000000000000004,0.2 0.7000000000000001,0 1,0.2 c0.2,0.2 0.6000000000000001,0 0.7000000000000001,0.2 c0.6000000000000001,0 1.1,0.30000000000000004 1.5,0.7000000000000001 c0.1,0.1 0.2,0 0.30000000000000004,-0.1 c0,-0.2 0,-0.5 0.1,-0.5 c0.2,-0.1 0.4,-0.1 0.6000000000000001,-0.1 c0.9,0 1.8,0 2.7,0 c0.4,0 0.5,0.1 0.5,0.5 C143.2,44.6656270980835 143.2,46.36562709808349 143.2,48.1656270980835 zM133.9,48.1656270980835 c0,0.5 -0.1,1 0.30000000000000004,1.5 c0.1,0.2 0.30000000000000004,0.30000000000000004 0.4,0.5 c0.6000000000000001,0.7000000000000001 1.2,1 2.1,0.9 c0.30000000000000004,0 0.5,0 0.8,-0.1 c0.6000000000000001,-0.2 1,-0.6000000000000001 1.4,-1 c0,0 0,-0.1 0.1,-0.2 c0.5,-0.9 0.6000000000000001,-1.8 0.30000000000000004,-2.7 c-0.2,-0.7000000000000001 -0.6000000000000001,-1.3 -1.3,-1.6 c-0.8,-0.30000000000000004 -1.2,-0.5 -2,-0.30000000000000004 c-0.7000000000000001,0.2 -1,0.4 -1.4,1 C134,46.7656270980835 133.8,47.36562709808349 133.9,48.1656270980835 z"
              id="svg_7"/>
        <path class="st0"
              d="M141.1,26.065627098083496 c0,1.7000000000000002 0,3.4 0,5.1 c0,0.1 0,0.2 0,0.4 c0,0.4 -0.1,0.5 -0.5,0.5 c-1,0 -2,0 -2.9,0 c-0.2,0 -0.30000000000000004,0 -0.30000000000000004,-0.2 c0,-0.1 0,-0.1 0,-0.2 c0,-0.1 0,-0.30000000000000004 -0.1,-0.30000000000000004 c-0.1,0 -0.30000000000000004,0 -0.4,0.1 c-0.30000000000000004,0.1 -0.5,0.30000000000000004 -0.8,0.5 c-0.4,0.2 -0.8,0.30000000000000004 -1.3,0.4 c-0.4,0 -0.8,0.1 -1.3,0.1 c-0.30000000000000004,0 -0.5,-0.1 -0.8,-0.2 c-0.30000000000000004,0 -0.5,0 -0.8,-0.1 c-0.2,-0.1 -0.5,-0.2 -0.7000000000000001,-0.30000000000000004 c-0.2,-0.1 -0.5,-0.2 -0.7000000000000001,-0.30000000000000004 c-0.2,-0.1 -0.4,-0.4 -0.6000000000000001,-0.5 c-1,-0.7000000000000001 -1.4,-1.8 -1.8,-2.9 c-0.1,-0.4 -0.2,-0.8 -0.2,-1.2 c0,-0.4 0,-0.8 0,-1.2 c0,-0.4 0.30000000000000004,-1.6 0.5,-2 c0.30000000000000004,-1 0.9,-1.7000000000000002 1.7000000000000002,-2.4 c0.2,-0.1 0.30000000000000004,-0.30000000000000004 0.5,-0.4 c0.30000000000000004,-0.2 0.7000000000000001,-0.4 1.1,-0.6000000000000001 c0.2,-0.2 0.6000000000000001,-0.2 0.9,-0.2 c0.30000000000000004,-0.1 0.6000000000000001,0.1 0.9,-0.1 c0,0 0.1,0 0.1,0 c0.8,0.30000000000000004 1.6,0 2.4,0.5 c0.30000000000000004,0.2 0.6000000000000001,0.30000000000000004 0.9,0.4 c0.4,0.2 0.4,0.1 0.4,-0.30000000000000004 c0,-0.2 0.1,-0.2 0.30000000000000004,-0.2 c1.1,0 2.1,0 3.2,0 c0.30000000000000004,0 0.30000000000000004,0.1 0.30000000000000004,0.30000000000000004 C141.1,22.465627098083495 141.1,24.2656270980835 141.1,26.065627098083496 zM131.8,25.965627098083495 c0,0.5 0,0.9 0.2,1.3 c0.2,0.5 0.5,1 1,1.3 c0.9,0.5 1.9,0.7000000000000001 2.9,0.2 c0.6000000000000001,-0.30000000000000004 1,-0.9 1.3,-1.5 c0.2,-0.30000000000000004 0.30000000000000004,-0.6000000000000001 0.30000000000000004,-1 c0,-0.9 -0.30000000000000004,-1.6 -0.9,-2.3 c-0.4,-0.5 -1,-0.7000000000000001 -1.6,-0.9 c-0.7000000000000001,-0.1 -1.3,0.1 -2,0.5 c-0.2,0.1 -0.4,0.2 -0.5,0.4 C132.2,24.7656270980835 131.6,25.2656270980835 131.8,25.965627098083495 z"
              id="svg_8"/>
        <path class="st0"
              d="M142.6,70.2656270980835 c0,1.8 0,3.6 0,5.4 c0,0.30000000000000004 0,0.30000000000000004 -0.4,0.30000000000000004 c-1,0 -2,0 -3,0 c-0.30000000000000004,0 -0.30000000000000004,-0.1 -0.30000000000000004,-0.30000000000000004 c0,-0.1 0,-0.1 0,-0.2 c0,-0.2 -0.1,-0.2 -0.30000000000000004,-0.1 c-0.30000000000000004,0.2 -0.7000000000000001,0.30000000000000004 -1,0.5 c-0.5,0.30000000000000004 -1.1,0.30000000000000004 -1.6,0.4 c-0.4,0.1 -0.9,0 -1.3,0 c-0.2,0 -0.4,0 -0.5,0 c-0.5,-0.2 -1,-0.2 -1.5,-0.5 c-0.5,-0.4 -1.2,-0.6000000000000001 -1.6,-1.2 c-0.4,-0.5 -0.9,-1 -1,-1.7000000000000002 c-0.7000000000000001,-1.1 -0.6000000000000001,-2.3 -0.6000000000000001,-3.5 c0,-0.6000000000000001 0.2,-1.2 0.5,-1.8 c0.2,-0.30000000000000004 0.2,-0.7000000000000001 0.5,-1 c0.30000000000000004,-0.30000000000000004 0.4,-0.7000000000000001 0.7000000000000001,-0.9 c0.5,-0.4 1,-1 1.7000000000000002,-1.1 c0.30000000000000004,-0.1 0.6000000000000001,-0.30000000000000004 1,-0.4 c0.4,-0.1 0.8,-0.1 1.2,-0.1 c0.6000000000000001,-0.1 1.2,0.1 1.8,0.2 c0.2,0 0.4,0.2 0.5,0.30000000000000004 c0.30000000000000004,0.1 0.5,0.2 0.8,0.4 c0.5,0.30000000000000004 0.6000000000000001,0.30000000000000004 0.6000000000000001,-0.30000000000000004 c0,-0.2 0.1,-0.2 0.2,-0.2 c1,0 2,0 3,0 c0.4,0 0.5,0.1 0.5,0.5 c0,0.8 0,1.7000000000000002 0,2.5 C142.6,68.2656270980835 142.6,69.2656270980835 142.6,70.2656270980835 zM136,73.16562709808349 C136,73.16562709808349 136,73.16562709808349 136,73.16562709808349 c0.2,0 0.4,0.1 0.6000000000000001,0 c0.4,-0.2 0.8,-0.4 1.2,-0.6000000000000001 c0.2,-0.2 0.4,-0.4 0.6000000000000001,-0.7000000000000001 c0.2,-0.4 0.4,-0.8 0.5,-1.3 c0.1,-0.5 0,-1 -0.2,-1.5 c-0.2,-0.5 -0.6000000000000001,-0.9 -1,-1.3 c-0.30000000000000004,-0.30000000000000004 -0.6000000000000001,-0.4 -0.9,-0.4 c-0.30000000000000004,-0.1 -0.7000000000000001,-0.1 -1.1,-0.1 c-1.4,0.2 -2,0.9 -2.4,2.2 c-0.1,0.5 -0.1,1 0,1.5 c0.1,0.30000000000000004 0.30000000000000004,0.7000000000000001 0.4,1 c0.1,0.2 0.30000000000000004,0.4 0.4,0.5 c0.4,0.30000000000000004 0.8,0.5 1.2,0.7000000000000001 C135.6,73.2656270980835 135.8,73.16562709808349 136,73.16562709808349 z"
              id="svg_9"/>
        <path class="st0"
              d="M86.9,46.1656270980835 c0,-2.4 0,-4.9 0,-7.3 c0,-0.4 0,-0.4 0.30000000000000004,-0.4 c3.8,0 7.5,0 11.3,0 c0.2,0 0.4,0 0.30000000000000004,0.30000000000000004 c0,1 0,1.9 0,2.9 c0,0.1 0,0.2 -0.2,0.2 c-0.2,0 -0.30000000000000004,0 -0.5,0 c-2.2,0 -4.4,0 -6.6,0 c-0.1,0 -0.30000000000000004,0 -0.4,0 c-0.30000000000000004,0 -0.4,0.1 -0.4,0.4 c0,0.8 0,1.6 0,2.4 c0,0.2 0.1,0.4 0.4,0.4 c0.1,0 0.30000000000000004,0 0.4,0 c1.8,0 3.7,0 5.5,0 c0.1,0 0.30000000000000004,0 0.4,0 c0.30000000000000004,0 0.4,0.1 0.4,0.4 c0,0.9 0,1.8 0,2.7 c0,0.30000000000000004 -0.1,0.4 -0.4,0.4 c-0.30000000000000004,0 -0.6000000000000001,0 -0.9,0 c-1.9,0 -3.7,0 -5.6,0 c-0.30000000000000004,0 -0.30000000000000004,0 -0.30000000000000004,0.4 c0,1.4 0,2.8 0,4.2 c0,0.1 0,0.2 0,0.4 c0,0.4 -0.1,0.5 -0.5,0.5 c-1,0 -2.1,0 -3.1,0 c-0.30000000000000004,0 -0.30000000000000004,-0.1 -0.30000000000000004,-0.30000000000000004 c0,-1.6 0,-3.3 0,-4.9 C86.9,47.86562709808349 86.9,47.065627098083496 86.9,46.1656270980835 z"
              id="svg_10"/>
        <path class="st0"
              d="M119.3,35.86562709808349 c-0.6000000000000001,0 -1.2,0 -1.8,0 c-0.2,0 -0.2,-0.1 -0.1,-0.2 c0.5,-0.8 0.7000000000000001,-1.8 1.2,-2.6 c0.2,-0.4 0.30000000000000004,-0.8 0.5,-1.1 c0.1,-0.30000000000000004 0.1,-0.5 0,-0.7000000000000001 c-0.4,-0.9 -0.8,-1.8 -1.2,-2.8 c-0.4,-0.9 -0.7000000000000001,-1.8 -1.1,-2.6 c-0.4,-0.8 -0.7000000000000001,-1.7000000000000002 -1.1,-2.5 c-0.30000000000000004,-0.8 -0.6000000000000001,-1.6 -1,-2.3 c-0.1,-0.1 -0.1,-0.30000000000000004 -0.1,-0.5 c0,-0.2 0,-0.30000000000000004 0.2,-0.30000000000000004 c1.1,0 2.2,0 3.3,0 c0.2,0 0.4,0.1 0.4,0.30000000000000004 c0.30000000000000004,0.7000000000000001 0.6000000000000001,1.4 0.9,2.1 c0.1,0.1 0.1,0.30000000000000004 0.2,0.4 c0.4,0.6000000000000001 0.4,1.2 0.7000000000000001,1.8 c0.30000000000000004,0.5 0.5,1.1 0.6000000000000001,1.7000000000000002 c0,0.1 0.2,0.1 0.30000000000000004,0.2 c0.1,-0.1 0.1,-0.2 0.2,-0.30000000000000004 c0.2,-0.4 0.4,-0.8 0.5,-1.3 c0.1,-0.4 0.4,-0.8 0.5,-1.2 c0.2,-0.5 0.5,-0.9 0.6000000000000001,-1.4 c0.2,-0.7000000000000001 0.6000000000000001,-1.3 0.8,-1.9 c0.1,-0.2 0.30000000000000004,-0.4 0.6000000000000001,-0.4 c1.1,0 2.2,0 3.3,0 c0.2,0 0.2,0.1 0.2,0.2 c0,0.2 -0.1,0.4 -0.2,0.5 c-0.4,0.5 -0.5,1.2 -0.7000000000000001,1.8 c-0.30000000000000004,0.6000000000000001 -0.5,1.2 -0.8,1.7000000000000002 c-0.30000000000000004,0.6000000000000001 -0.4,1.2 -0.7000000000000001,1.7000000000000002 c-0.2,0.5 -0.5,0.9 -0.6000000000000001,1.5 c0,0 0,0.1 -0.1,0.1 c-0.5,0.6000000000000001 -0.6000000000000001,1.4 -1,2.1 c-0.2,0.30000000000000004 -0.30000000000000004,0.7000000000000001 -0.4,1.1 c0,0.2 -0.1,0.4 -0.2,0.4 c-0.30000000000000004,0.30000000000000004 -0.30000000000000004,0.6000000000000001 -0.4,0.9 c-0.1,0.30000000000000004 -0.1,0.6000000000000001 -0.4,0.8 c-0.1,0.1 -0.1,0.2 -0.2,0.30000000000000004 c-0.2,0.7000000000000001 -0.5,1.4 -0.9,2.1 c0,0.1 0,0.1 0,0.2 c0,0.2 -0.1,0.2 -0.2,0.2 C120.6,35.86562709808349 120,35.86562709808349 119.3,35.86562709808349 z"
              id="svg_11"/>
        <path class="st0"
              d="M109.4,76.2656270980835 c-0.6000000000000001,-0.1 -1.3,-0.1 -1.9,-0.2 c-0.6000000000000001,-0.2 -1.2,-0.5 -1.8,-0.8 c-0.8,-0.5 -1.4,-1.2 -2,-2 c-0.2,-0.2 -0.2,-0.5 -0.30000000000000004,-0.7000000000000001 c-0.4,-0.9 -0.6000000000000001,-2 -0.5,-3 c0.1,-0.6000000000000001 0.30000000000000004,-1.2 0.5,-1.8 c0.30000000000000004,-0.7000000000000001 0.7000000000000001,-1.4 1.2,-1.9 c0.6000000000000001,-0.6000000000000001 1.3,-1 2.1,-1.3 c1.7000000000000002,-0.5 1.7000000000000002,-0.5 2.8,-0.6000000000000001 c0.4,0 0.8,0.2 1.2,0.2 c0.4,-0.1 0.7000000000000001,0.2 1.1,0.4 c1.2,0.4 2,1.1 2.7,2.1 c0.4,0.5 0.6000000000000001,1.2 0.9,1.8 c0.2,0.30000000000000004 0.2,0.7000000000000001 0.2,1.1 c0,0.5 0.1,0.9 0,1.4 c-0.1,0.5 -0.1,1.1 -0.4,1.5 c-0.1,0.1 -0.1,0.30000000000000004 -0.2,0.4 c-0.1,0.4 -0.30000000000000004,0.7000000000000001 -0.6000000000000001,1 c-0.2,0.2 -0.30000000000000004,0.4 -0.4,0.6000000000000001 c-0.2,0.2 -0.4,0.30000000000000004 -0.6000000000000001,0.4 c-0.6000000000000001,0.6000000000000001 -1.4,0.9 -2.1,1.2 c-0.1,0 -0.30000000000000004,0.1 -0.4,0.1 C110.5,76.16562709808349 110,76.4656270980835 109.4,76.2656270980835 zM109.3,67.2656270980835 c-0.30000000000000004,0 -0.6000000000000001,0 -0.9,0.1 c-0.5,0.2 -0.9,0.4 -1.2,0.8 c-0.2,0.30000000000000004 -0.30000000000000004,0.6000000000000001 -0.5,0.8 c-0.1,0.30000000000000004 -0.2,1.1 -0.2,1.4 c0,0.8 0.4,1.4 1,2 c0.5,0.5 1.2,0.8 1.9,0.7000000000000001 c0.7000000000000001,0 1.3,-0.4 1.8,-0.8 c0.6000000000000001,-0.5 0.9,-1.3 0.9,-2.1 c0,-0.6000000000000001 -0.2,-1.2 -0.6000000000000001,-1.8 C110.9,67.5656270980835 110.5,67.2656270980835 109.3,67.2656270980835 z"
              id="svg_12"/>
        <path class="st0"
              d="M114.4,26.065627098083496 c0.1,0.6000000000000001 0,1.2 -0.2,1.8 c-0.2,0.6000000000000001 -0.5,1.3 -0.8,1.9 c-0.30000000000000004,0.4 -0.7000000000000001,0.8 -1.1,1.1 c-0.2,0.1 -0.4,0.30000000000000004 -0.5,0.4 c-0.2,0.2 -1.9,0.9 -2.1,0.9 c-0.1,0 -0.1,0 -0.2,0 c-0.30000000000000004,0 -0.7000000000000001,-0.1 -1,0.1 c-0.1,0.1 -0.2,0 -0.4,0 c-0.4,0 -0.7000000000000001,-0.2 -1,-0.2 c-0.30000000000000004,0 -0.7000000000000001,0 -1,-0.1 c-0.6000000000000001,-0.2 -1.1,-0.5 -1.7000000000000002,-0.7000000000000001 c-0.2,-0.4 -0.8,-0.5 -1,-1 c-0.5,-0.2 -0.7000000000000001,-0.8 -1,-1.2 c-0.30000000000000004,-0.30000000000000004 -0.30000000000000004,-0.8 -0.5,-1.3 c-0.2,-0.6000000000000001 -0.4,-1.3 -0.30000000000000004,-1.9 c0.1,-0.5 0.2,-0.9 0.30000000000000004,-1.4 c0.2,-0.7000000000000001 0.4,-1.3 0.9,-1.9 c0.30000000000000004,-0.5 0.7000000000000001,-0.9 1.2,-1.2 c0.30000000000000004,-0.2 0.6000000000000001,-0.6000000000000001 1,-0.7000000000000001 c0.4,-0.1 0.7000000000000001,-0.30000000000000004 1.1,-0.4 c0.4,-0.1 0.8,-0.2 1.2,-0.2 c0.6000000000000001,0 1.2,-0.1 1.8,0 c0.5,0.1 1.1,0.1 1.6,0.4 c0.8,0.1 1.3,0.7000000000000001 1.9,1.1 c0.1,0.1 0.2,0.2 0.30000000000000004,0.30000000000000004 c0.7000000000000001,0.8 1.2,1.6 1.5,2.5 C114.3,24.965627098083495 114.5,25.465627098083495 114.4,26.065627098083496 zM105.2,26.065627098083496 c0.1,0.30000000000000004 0.1,0.7000000000000001 0.2,1 c0.2,0.7000000000000001 0.7000000000000001,1.1 1.2,1.6 c0.5,0.1 1,0.4 1.6,0.30000000000000004 c0.6000000000000001,-0.1 1.2,-0.30000000000000004 1.6,-0.7000000000000001 c0.8,-0.7000000000000001 1.3,-2.1 0.8,-3.4 c0.1,-0.4 -0.30000000000000004,-0.5 -0.5,-0.8 c-0.4,-0.8 -1.9,-1.2 -2.6,-1 C106,23.665627098083498 105.2,24.665627098083498 105.2,26.065627098083496 z"
              id="svg_13"/>
        <path class="st0"
              d="M145.2,70.16562709808349 c0,-1.8 0,-3.6 0,-5.4 c0,-0.4 0,-0.4 0.4,-0.4 c1,0 2,0 3,0 c0.1,0 0.2,0 0.2,0.2 c0,0 0,0 0,0.1 c0,0.2 0,0.5 0,0.7000000000000001 c0.2,-0.1 0.30000000000000004,-0.30000000000000004 0.5,-0.4 c0.5,-0.30000000000000004 1,-0.5 1.6,-0.7000000000000001 c0.7000000000000001,-0.2 1.5,-0.2 2.2,-0.1 c0.2,0 0.30000000000000004,0.1 0.5,0.1 c1.5,0.5 2.4,1.5 3,2.9 c0.1,0.30000000000000004 0.2,0.6000000000000001 0.2,1 c0,2.5 0,5.1 0,7.6 c0,0.4 0,0.4 -0.4,0.4 c-1,0 -2,0 -3,0 c-0.30000000000000004,0 -0.30000000000000004,-0.1 -0.30000000000000004,-0.30000000000000004 c0,-2 0,-4 0,-6 c0,-0.7000000000000001 -0.30000000000000004,-1.3 -0.7000000000000001,-1.8 c-0.2,-0.30000000000000004 -0.7000000000000001,-0.4 -1.1,-0.5 c-1,-0.1 -1.9,0.30000000000000004 -2.4,1.5 c-0.2,0.4 -0.2,0.8 -0.2,1.2 c0,1.8 0,3.6 0,5.5 c0,0.30000000000000004 0,0.30000000000000004 -0.4,0.30000000000000004 c-1,0 -2,0 -3,0 c-0.30000000000000004,0 -0.30000000000000004,-0.1 -0.30000000000000004,-0.30000000000000004 C145.2,73.7656270980835 145.2,71.9656270980835 145.2,70.16562709808349 z"
              id="svg_14"/>
        <path class="st0"
              d="M118.8,48.1656270980835 c0.1,0.6000000000000001 -0.1,1.2 -0.1,1.9 c0,0.2 -0.1,0.4 -0.2,0.6000000000000001 c-0.4,0.6000000000000001 -0.7000000000000001,1.3 -1.2,1.8 c-0.8,0.8 -1.7000000000000002,1.3 -2.8,1.6 c-0.9,0.30000000000000004 -1.8,0.4 -2.7,0.30000000000000004 c-0.8,-0.1 -1.6,-0.30000000000000004 -2.3,-0.7000000000000001 c-1,-0.5 -2,-1.2 -2.5,-2.3 c-0.4,-0.4 -0.4,-1 -0.7000000000000001,-1.5 c0,-0.9 -0.30000000000000004,-1.8 -0.1,-2.7 c0.2,-0.5 0.2,-1.1 0.5,-1.6 c0.4,-0.7000000000000001 1.2,-1.8 1.9,-2.2 c0.5,-0.30000000000000004 1.1,-0.7000000000000001 1.8,-0.9 c0.9,-0.2 1.7000000000000002,-0.4 2.6,-0.30000000000000004 c0.8,0.1 1.5,0.2 2.2,0.5 c0.9,0.4 1.9,1 2.5,1.9 c0.4,0.6000000000000001 0.9,1.3 1,2.2 C118.8,47.065627098083496 118.8,47.6656270980835 118.8,48.1656270980835 zM112.4,51.065627098083496 c0.1,0 0.1,0 0.2,0 c1.1,0 1.8,-0.5 2.3,-1.5 c0.30000000000000004,-0.5 0.30000000000000004,-1.1 0.30000000000000004,-1.7000000000000002 c0,-0.7000000000000001 -0.30000000000000004,-1.3 -0.7000000000000001,-1.8 c-0.4,-0.4 -0.9,-0.9 -1.6,-0.8 c-0.4,-0.2 -0.7000000000000001,-0.1 -1.1,0 c-0.4,0.1 -0.7000000000000001,0.30000000000000004 -1,0.5 c-0.2,0.1 -0.30000000000000004,0.30000000000000004 -0.4,0.4 c-0.6000000000000001,0.5 -0.6000000000000001,1.3 -0.8,2 c0,0.1 0.1,0.30000000000000004 0.1,0.5 c0,0.30000000000000004 0.1,0.6000000000000001 0.30000000000000004,0.8 C110.6,50.465627098083495 111.3,51.16562709808349 112.4,51.065627098083496 z"
              id="svg_15"/>
        <path class="st0"
              d="M117.6,67.7656270980835 c0,-2.6 0,-5.2 0,-7.8 c0,-0.4 0,-0.4 0.5,-0.5 c1,0 2,0 3,0 c0.30000000000000004,0 0.30000000000000004,0 0.30000000000000004,0.4 c0,3.4 0,6.7 0,10.1 c0,1.7000000000000002 0,3.4 0,5.2 c0,0.1 0,0.30000000000000004 0,0.4 c0,0.4 -0.1,0.5 -0.5,0.5 c-1,0 -2.1,0 -3.1,0 c-0.30000000000000004,0 -0.30000000000000004,-0.1 -0.30000000000000004,-0.30000000000000004 c0,-1.4 0,-2.9 0,-4.3 C117.6,70.16562709808349 117.6,68.9656270980835 117.6,67.7656270980835 z"
              id="svg_16"/>
        <path class="st0"
              d="M127.7,67.66562709808349 c0,2.6 0,5.3 0,7.9 c0,0.5 0,0.4 -0.4,0.4 c-1,0 -1.9,0 -2.9,0 c-0.5,0 -0.6000000000000001,-0.1 -0.6000000000000001,-0.6000000000000001 c0,-3.5 0,-7 0,-10.5 c0,-1.7000000000000002 0,-3.3 0,-5 c0,-0.4 0,-0.4 0.4,-0.4 c1,0 2.1,0 3.1,0 c0.30000000000000004,0 0.30000000000000004,0 0.30000000000000004,0.4 C127.7,62.4656270980835 127.7,65.0656270980835 127.7,67.66562709808349 z"
              id="svg_17"/>
        <path class="st0"
              d="M120.7,48.1656270980835 c0,-1.7000000000000002 0,-3.3 0,-5 c0,-0.1 0,-0.30000000000000004 0,-0.4 c0,-0.2 0.1,-0.4 0.30000000000000004,-0.4 c1,0 2.1,0 3.1,0 c0.30000000000000004,0 0.4,0.1 0.4,0.4 c0,0 0,0 0,0.1 c0,0.4 0.1,0.9 0.1,1.3 c0.30000000000000004,-0.30000000000000004 0.6000000000000001,-0.6000000000000001 0.9,-0.9 c0.4,-0.30000000000000004 0.8,-0.7000000000000001 1.4,-0.8 c0,0 0.1,-0.1 0.1,-0.1 c0.6000000000000001,0.1 1.2,-0.2 1.9,-0.2 c0.30000000000000004,0 0.4,0.1 0.4,0.4 c0,0.8 0,1.7000000000000002 0,2.5 c0,0.30000000000000004 -0.1,0.5 -0.1,0.7000000000000001 c0,0.1 -0.1,0.1 -0.2,0.1 c-0.2,0 -0.5,0 -0.7000000000000001,0 c-0.6000000000000001,-0.1 -1.2,0.1 -1.7000000000000002,0.4 c-0.7000000000000001,0.30000000000000004 -1.4,0.7000000000000001 -1.5,1.6 c-0.5,0.6000000000000001 -0.5,1.4 -0.4,2.1 c0,1.1 0,2.2 0,3.3 c0,0.5 -0.1,0.5 -0.5,0.6000000000000001 c-0.9,0 -1.9,0 -2.8,0 c-0.4,0 -0.5,-0.1 -0.5,-0.5 C120.7,51.66562709808349 120.7,49.965627098083495 120.7,48.1656270980835 z"
              id="svg_18"/>
        <path class="st0"
              d="M143.7,23.665627098083498 c0,-2.6 0,-5.3 0,-7.9 c0,-0.4 0,-0.5 0.5,-0.5 c1,0 1.9,0 2.9,0 c0.30000000000000004,0 0.30000000000000004,0 0.30000000000000004,0.4 c0,3.1 0,6.1 0,9.2 c0,2.1 0,4.1 0,6.2 c0,0.1 0,0.30000000000000004 0,0.4 c0,0.4 -0.1,0.5 -0.5,0.5 c-1,0 -2,0 -2.9,0 c-0.30000000000000004,0 -0.30000000000000004,-0.1 -0.30000000000000004,-0.30000000000000004 c0,-1.4 0,-2.9 0,-4.3 C143.7,26.165627098083498 143.7,24.965627098083495 143.7,23.665627098083498 z"
              id="svg_19"/>
        <path class="st0"
              d="M104.2,45.565627098083496 c0,2.6 0,5.2 0,7.7 c0,0.5 0,0.5 -0.6000000000000001,0.5 c-0.9,0 -1.9,0 -2.8,0 c-0.30000000000000004,0 -0.30000000000000004,0 -0.30000000000000004,-0.4 c0,-3.5 0,-6.9 0,-10.4 c0,-1.8 0,-3.5 0,-5.3 c0,-0.4 0,-0.4 0.5,-0.5 c1,0 1.9,0 2.9,0 c0.30000000000000004,0 0.30000000000000004,0 0.30000000000000004,0.4 C104.2,40.36562709808349 104.2,42.965627098083495 104.2,45.565627098083496 z"
              id="svg_20"/></g>
</svg>
