<svg xmlns="http://www.w3.org/2000/svg" width="732px" height="200px" viewBox="0 0 732 200">
    <path d="M143.8,200 C146.1,200 78.4,103.7 75,100 C73.8,97.2 74.8,93.8 81.3,93.7 L118.8,93.7 C139.5,93.7 147.2,80.4 150.1,62.4 C147.3,47 139.7,37.9 118.8,37.4 L50,37.4 L50,200 L0,200 L0,0 L125,0 C176,0 195.9,18.5 193.8,62.5 C195.9,106.6 176.1,121.4 150,125 L206.3,200 L143.8,200 Z M462.5,200 L531.3,0 L481.3,0 L437.5,131.3 L393.8,0 L350,0 L306.2,131.3 L268.8,0 L212.5,0 L287.5,200 L325,200 L368.8,62.5 L418.8,200 L462.5,200 Z M606.3,162.5 L606.3,118.7 L687.6,118.7 L687.6,81.2 L606.3,81.2 L606.3,37.5 L725,37.5 L725,0 L556.3,0 L556.3,200 L731.3,200 L731.3,162.5 L606.3,162.5 Z" id="SVGID_1_" fill="#FFFFFF" fill-rule="nonzero"></path>
</svg>
