<?xml version="1.0" encoding="utf-8"?>
<!-- Generator: Adobe Illustrator 21.0.0, SVG Export Plug-In . SVG Version: 6.00 Build 0)  -->
<svg version="1.1" id="Layer_1" xmlns="http://www.w3.org/2000/svg" xmlns:xlink="http://www.w3.org/1999/xlink" x="0px" y="0px"
	 viewBox="0 0 327.5 89.5" style="enable-background:new 0 0 327.5 89.5;" xml:space="preserve">
<style type="text/css">
	.st0{fill:#FFFFFF;}
</style>
<path class="st0" d="M108,0c3.8,0,7.7,0,11.5,0c0.7,0,0.9,0.2,1.1,0.9c0.4,1.4,1.1,2.8,1.3,4.2c0.4,2.3,1.2,4.3,1.8,6.5
	c0.7,2.8,1.6,5.5,2.3,8.3c0.7,2.9,1.5,5.8,2.4,8.7c0.9,3,1.7,6,2.5,9c0.8,3,1.7,6,2.6,8.9c0.7,2.1,1.3,4.3,1.8,6.5
	c0.3,1.5,1.3,2.7,1.1,4.3c0,0.1,0.2,0.2,0.4,0.2c0.1,0,0.4,0,0.4-0.1c0.2-0.3,0.4-0.7,0.5-1c0.6-1.9,1.4-3.8,2-5.7
	c0.7-2.1,1.3-4.3,2-6.4c0.8-2.4,1.6-4.7,2.4-7c0.6-1.7,1.1-3.5,1.7-5.3c0.9-2.7,1.9-5.4,2.8-8.1c0.8-2.4,1.5-4.9,2.3-7.3
	c1.6-5.1,3.5-10.1,5-15.2c0.4-1.3,0.6-1.4,2.1-1.4c5.7,0,11.3,0,17,0c1.2,0,1.7,0.3,1.9,1.3c0.6,2.8,1.7,5.5,2.6,8.2
	c1.6,5.2,3.3,10.3,5.1,15.4c1.8,5.3,3.6,10.5,5.4,15.8c1.7,5.1,3.3,10.3,5,15.4c0.1,0.2,0.2,0.4,0.4,0.6c0.2,0.3,0.4,0.8,0.6,0.8
	c0.7,0.1,0.4-0.5,0.5-0.8c2-6.2,4-12.3,6.1-18.5c1.8-5.3,3.6-10.7,5.4-16c2.3-7,4.7-14.1,7-21.1c0.3-0.9,0.9-1,1.7-1
	c3.8,0,7.7,0,11.5,0c2.8,0,5.7,0,8.5,0c0.9,0,1,0.5,0.8,1.1c-0.2,0.8-0.4,1.6-0.7,2.4c-1,2.8-2.1,5.6-3,8.5
	c-2,6.3-4.2,12.6-6.3,18.9c-1.5,4.4-3,8.8-4.5,13.1c-0.9,2.5-1.8,4.9-2.6,7.4c-0.8,2.4-1.4,4.9-2.4,7.2c-1.9,4.5-3.1,9.2-4.9,13.7
	c-1.9,5-3.4,10.1-5.1,15.2c-0.6,1.7-0.9,1.9-2.8,1.9c-5.3,0-10.7,0-16,0c-1.6,0-1.5-0.1-2.2-1.7c-0.8-1.7-1.2-3.5-2-5.2
	c-0.7-1.6-1.4-3.3-2-4.9c-0.6-1.8-0.8-3.7-1.6-5.3c-1.7-3.5-2.5-7.3-4-10.8c-1.6-3.7-2.7-7.5-4.3-11.2c-1-2.4-1.7-5-2.7-7.4
	c-1.6-4-2.6-8.3-4.5-12.2c-0.3-0.6-0.3-1.6-1-1.7c-1.1-0.1-0.1,1.4-1,1.6c-0.7,4.2-2.4,8-3.6,12c-0.4,1.3-0.5,2.7-1.2,4
	c-0.7,1.2-0.8,2.7-1.2,4c-1,3.2-2.1,6.5-3.1,9.7c-1.3,4-2.6,7.9-3.9,11.9c-0.8,2.4-1.7,4.8-2.3,7.3c-0.7,3-2.2,5.6-2.7,8.6
	c-0.2,1.1-0.7,1.3-1.7,1.3c-4.8,0-9.7,0-14.5,0c-1.2,0-1.6-0.2-1.8-1.3c-0.4-1.8-1.3-3.5-1.9-5.2c-0.7-2.2-1.6-4.3-2.5-6.5
	c-1.9-4.9-3.6-9.8-5.6-14.7c-1-2.3-1.7-4.8-2.6-7.2c-1.3-3.4-2.6-6.8-3.8-10.2c-1.2-3.4-2.6-6.6-3.7-10c-0.6-1.7-1.2-3.4-1.8-5
	c-0.9-2.3-1.9-4.6-2.7-6.9c-0.9-2.6-1.9-5.1-2.8-7.6c-1-2.8-2.2-5.6-3.2-8.4c-0.5-1.4-1-2.9-1.5-4.4c-0.1-0.4-0.4-0.7-0.4-1.1
	c-0.2-1,0-1.1,1-1.1C100.3,0,104.2,0,108,0z"/>
<path class="st0" d="M0,44.6C0,30.6,0,16.5,0,2.4c0-0.6,0-1.2,0-1.7C0,0.1,0.2,0,0.7,0c0.5,0,1,0,1.5,0c19.7,0,39.3,0,59,0
	c1.5,0,3,0.4,4.5,0.5c1.5,0.1,2.9,0.8,4.3,1c1.5,0.2,2.9,0.7,4.2,1.2c4.8,2.1,8.5,5.5,10.5,10.4c0.5,1.4,1,2.9,1.3,4.5
	c0.4,2.3,0.6,4.6,0.9,6.9c0.2,2.3,0,4.7,0.1,7c0,1.9-0.5,3.8-0.6,5.8c-0.1,1.8-0.8,3.6-1.4,5.4c-0.7,2.1-1.7,4.2-3.2,5.9
	c-3.9,4.3-6.3,5.1-10.9,6.8c-0.9,0.3-1.8,0.1-2.8,0.5c-1,0.5-0.2,0.6-0.1,0.9c0.6,0.9,1.1,1.9,1.8,2.7c2.8,3.7,5.7,7.3,8.5,11
	c2.5,3.3,5,6.6,7.4,9.9c2,2.8,4,5.6,6.2,8.2c0.1,0.1,0.1,0.4,0,0.7c0,0.1-0.3,0.2-0.4,0.2c-0.5,0-1,0-1.5,0c-7.8,0-15.7,0-23.5,0
	c-1.4,0-2.3-0.3-3.1-1.7c-1.9-3.3-4.2-6.3-6.3-9.4c-1.8-2.7-3.7-5.5-5.6-8.2c-1.5-2.1-3-4.2-4.5-6.4c-1.3-1.9-2.9-3.6-4-5.6
	c-1-2-2.4-3.7-3.7-5.4c-1.6-2.3-3.1-4.7-5-6.7c-0.3-0.3-0.4-0.7-0.5-1c-0.9-1.9-0.2-3.1,1.9-3.1c5.9,0,11.8,0,17.7,0
	c4.5-0.1,8.2-2,10.9-5.6c1.2-1.6,1.7-3.6,2.2-5.6c0.2-0.7,0.5-1.4,0.5-2c0.1-3.5-2-8.3-5.6-10.1c-1.8-0.9-3.7-1.2-5.6-1.7
	c-2.1-0.5-4.2-0.4-6.3-0.4c-8.2-0.1-16.5,0-24.7,0c-2.3,0-2.3,0-2.3,2.4c0,7,0,14,0,21c0,15.7,0,31.3,0,47c0,0.7,0,1.3,0,2
	c0,0.6-0.3,0.7-0.8,0.7c-7,0-14,0-21,0c-0.5,0-0.8-0.1-0.8-0.6c0-0.6,0-1.2,0-1.7C0,73,0,58.8,0,44.6z"/>
<path class="st0" d="M249,44.6c0-14.1,0-28.2,0-42.2c0-0.6,0-1.2,0-1.7c0-0.6,0.3-0.7,0.8-0.6c0.4,0,0.8,0,1.2,0
	c23.8,0,47.7,0,71.5,0c0.4,0,0.8,0,1.2,0c0.5,0,0.8,0.1,0.8,0.6c0,5.1,0,10.2,0,15.2c0,0.6-0.3,0.6-0.8,0.6c-0.6,0-1.2,0-1.7,0
	c-15.8,0-31.7,0-47.5,0c-0.6,0-1.2,0-1.7,0c-0.8,0-1.2,0.5-1.2,1.2c0,0.4,0,0.8,0,1.2c0,5,0,10,0,15c0,2.5,0.3,2.6,2.7,2.6
	c10.4,0,20.8,0,31.2,0c0.6,0,1.2,0,1.7,0c0.6,0,0.9,0.1,0.9,0.8c0,5,0,10,0,15c0,0.5-0.1,0.8-0.7,0.7c-0.6,0-1.2,0-1.7,0
	c-10.9,0-21.8,0-32.7,0c-1.4,0-1.3-0.1-1.3,1.3c0,5.7,0,11.5,0,17.2c0,0.8,0.2,1,1,0.9c0.6-0.1,1.2,0,1.7,0c17.2,0,34.5,0,51.7,0
	c1.5,0,1.5,0,1.5,1.6c0,4.7,0,9.5,0,14.2c0,1.1,0,1.1-1.2,1.2c-0.4,0-0.8,0-1.2,0c-24.5,0-49,0-73.5,0c-0.5,0-1-0.1-1.5,0
	c-1,0.2-1.1-0.4-1-1.1c0-0.5,0-1,0-1.5C249,72.8,249,58.7,249,44.6z"/>
</svg>
