<?xml version="1.0" encoding="utf-8"?>
<!-- Generator: Adobe Illustrator 21.0.0, SVG Export Plug-In . SVG Version: 6.00 Build 0)  -->
<svg version="1.1" id="Layer_1" xmlns="http://www.w3.org/2000/svg" xmlns:xlink="http://www.w3.org/1999/xlink" x="0px" y="0px"
	 viewBox="0 0 97.8 106.1" style="enable-background:new 0 0 97.8 106.1;" xml:space="preserve">
<style type="text/css">
	.st0{fill:#FFFFFF;}
</style>
<g>
	<path class="st0" d="M58.3,105.6c-10.5-1.4-18.2-7.5-25.1-14.9C24,80.9,15,71,8.4,59.2c-4.6-8.3-7.6-17-8.3-26.4
		c-0.8-11,7.2-26,17-31.1C22-1,25.3-0.6,28.7,3.8c4.1,5.3,7.8,11,11.5,16.6c1.9,2.9,1.1,7.1-1.9,9.9c-3.1,2.9-6.6,5.6-9.9,8.4
		c-0.6,0.5-1.3,0.9-1.9,1.4c-4.3,3.4-4.8,5.5-1.3,9.8c5.8,7.1,11.9,14,18,20.8c3,3.3,6,6.7,9.2,9.7c3.8,3.6,6.1,3.5,10,0
		c3.2-2.9,6.3-5.9,9.5-8.8c4.4-3.8,8.5-4,13-0.4c3.4,2.7,6.6,5.8,9.5,9.1c1.5,1.6,2.3,3.8,3.4,5.8c0,0.8,0,1.6,0,2.4
		c-1.3,2.1-2.3,4.5-4.1,6.1c-2.5,2.2-5.3,4.3-8.3,5.6c-5.2,2.2-10.7,3.8-15.1,5.2C70.5,105.5,64.8,106.9,58.3,105.6z"/>
</g>
</svg>
