<?xml version="1.0" encoding="utf-8"?>
<!-- Generator: Adobe Illustrator 21.0.0, SVG Export Plug-In . SVG Version: 6.00 Build 0)  -->
<svg version="1.1" id="Layer_1" xmlns="http://www.w3.org/2000/svg" xmlns:xlink="http://www.w3.org/1999/xlink" x="0px" y="0px"
	 viewBox="0 0 174 73" style="enable-background:new 0 0 174 73;" xml:space="preserve">
<style type="text/css">
	.st0{fill:#FFFFFF;}
</style>
<g>
	<path class="st0" d="M53.3,0.2c12.4,0,24.8,0,37.2,0c0.6,0,1.1,0.1,1.6,0.3c0.5,0.2,1,0.3,1.5,0.4C95,1.2,96.7,2,98,2.8
		c1,0.6,1.9,1.3,2.8,2.1c1.9,1.7,3.6,3.9,4.6,6.4c0.6,1.3,0.9,2.7,1.1,4.2c0.1,0.7,0.2,1.5,0.2,2.2c0,0.3-0.1,0.4-0.4,0.4
		c-0.9,0-1.8,0-2.7,0c-0.7,0-0.9-0.2-0.8-0.9c0.1-1-0.1-1.9-0.3-2.8c-0.3-1.3-0.9-2.6-1.6-3.7c-0.7-1.2-1.6-2.3-2.7-3.2
		c-1.4-1.1-3.2-2.5-5.7-2.9c-0.5-0.1-1.1-0.3-1.7-0.4c-0.7-0.1-1.5,0-2.2,0c-23.9,0-47.9,0-71.8,0c-1.1,0-2.1,0.2-3.1,0.5
		c-1,0.3-2,0.7-2.9,1.2c-0.7,0.4-1.4,0.8-2,1.3c-0.4,0.4-1,0.7-1.4,1.1C6.3,9.7,5.2,11.3,4.6,13c-0.3,0.8-0.5,1.6-0.7,2.4
		c-0.3,1.4-0.2,2.8-0.2,4.2c0,12.1,0,24.1,0,36.2c0,1.6,0.3,3,0.9,4.4c0.9,2.5,2.4,4.5,4.5,6.1c1.5,1.1,3,1.9,4.8,2.5
		c0.6,0.2,1.2,0.3,1.8,0.4c6.1,0.5,12.1,0.2,18.2,0.2c6.1,0.1,12.1,0,18.2,0c6.1,0,12.2,0,18.3,0c6.1,0,12.1,0.1,18.2,0
		c1.5,0,3-0.2,4.5-0.7c2.6-0.8,3.1-1.2,5.2-2.7c1.4-1,2.3-2.4,3.1-3.7c0.5-0.8,0.9-1.8,1.2-2.8c0.4-1.2,0.5-2.4,0.5-3.6
		c0-0.4,0.2-0.7,0.6-0.7c0.9,0,1.8,0,2.7,0c0.3,0,0.6,0.2,0.6,0.6c0.1,1.1-0.1,2.1-0.4,3.1c-0.2,0.7-0.3,1.4-0.6,2.1
		c-0.4,0.9-0.6,1.8-1.2,2.6c-0.4,0.6-0.6,1.3-1.1,1.9c-1.1,1.3-2.1,2.7-3.5,3.7c-1,0.7-2,1.5-3.1,2c-1.4,0.7-2.9,1.3-4.4,1.5
		c-1.6,0.2-3.2,0.6-4.8,0.6c-23.1,0-46.2,0-69.4,0c-0.6,0-1.2,0-1.8,0c-0.4-0.6-1.1,0.1-1.5-0.5c-0.8,0.1-1.5-0.3-2.3-0.4
		c-0.7-0.1-1.3-0.4-1.9-0.7c-1.4-0.5-2.7-1.3-3.9-2.2c-1-0.8-1.8-1.8-2.7-2.7c-1.1-1.1-1.9-2.4-2.6-3.8c-0.3-0.6-0.4-1.2-0.7-1.8
		c-0.3-0.6-0.3-1.3-0.7-1.8c0.2-0.8-0.4-1.4-0.5-2.1c-0.1-0.7,0-1.5,0-2.2c0-12.4,0-24.9,0-37.3c0-1.3,0.3-2.6,0.6-3.8
		c0.4-1.5,0.9-2.9,1.6-4.2C2.8,8.5,3.5,7.1,4.6,6c1-1,2-2,3.3-2.8c1.3-0.8,2.7-1.5,4.2-2c0.7-0.2,1.3-0.6,2.1-0.5c0,0,0.1,0,0.1,0
		c0.9-0.8,2.1-0.5,3.1-0.5C29.4,0.2,41.4,0.2,53.3,0.2z"/>
	<path class="st0" d="M173.9,36.7c0,3.9,0,7.9,0,11.8c0,0.8,0,0.8-0.9,0.8c-2.6,0-5.2,0.1-7.9,0c-2.1-0.1-4.1-0.7-5.7-2.2
		c-0.7-0.7-1.1-1.4-1.1-2.5c0.1-3,0.1-6.1,0-9.1c0-1.4,0.6-2.4,1.7-3.1c1.2-0.8,2.5-1.2,3.9-1.5c1.5-0.3,3.1-0.1,4.6-0.2
		c0.2,0,0.4,0,0.6,0c0.4,0,0.6,0,0.6-0.5c0-1.7,0-3.4,0-5.2c0-0.8,0.1-1,1-1c0.9,0,1.8,0,2.7,0c0.5,0,0.5,0.2,0.5,0.6
		C173.8,28.6,173.9,32.7,173.9,36.7z M169.9,40c0-1.8,0-3.7,0-5.5c0-0.8-0.1-0.9-0.9-0.9c-1.2,0-2.4,0-3.6,0c-0.6,0-1.1,0.2-1.7,0.4
		c-1.2,0.4-1.6,1.4-1.7,2.6c-0.1,2.4,0,4.8,0,7.2c0,0.3,0.1,0.7,0.3,1c0.7,0.9,1.7,1.6,2.9,1.6c1.3,0,2.5,0,3.8,0
		c0.7,0,0.9-0.1,0.9-0.8C169.9,43.7,169.9,41.9,169.9,40z"/>
	<path class="st0" d="M140.7,40.1c0,1.7-0.1,3.4,0,5.2c0,0.9-0.3,1.4-0.8,2c-0.9,1-2.1,1.6-3.3,2c-1.7,0.6-3.4,0.6-5.2,0.5
		c-0.9-0.1-1.9-0.4-2.7-0.8c-0.7-0.3-1.4-0.8-2-1.3c-0.8-0.6-1.2-1.5-1.2-2.6c0-1.1,0-2.3,0-3.4c-0.1-1.4,0.6-2.4,1.7-3.1
		c1.7-1.2,3.6-1.7,5.7-1.7c1.3,0,2.5,0,3.8,0c0.3,0,0.3-0.1,0.3-0.4c0-0.5-0.3-1.8-0.5-2c-0.6-0.7-1.5-1-2.4-1.1
		c-1.1-0.1-2.2,0-3.3,0c-0.4,0-0.4-0.2-0.5-0.5c0-0.7,0.1-1.3-0.2-2c-0.2-0.3,0.2-0.7,0.6-0.7c1,0,2-0.1,2.9,0
		c0.4,0,0.9,0.2,1.4,0.2c0.5,0,1,0.1,1.3,0.3c0.4,0.2,0.9,0.3,1.3,0.5c1.1,0.5,2,1.3,2.7,2.3c0.2,0.3,0.3,0.7,0.3,1.1
		C140.7,36.4,140.7,38.3,140.7,40.1z M134.2,39.7c-1.1,0-2.4-0.1-3.7,0.5c-0.8,0.4-1.9,1.4-1.6,2.7c0.2,0.7,0.1,1.3,0.2,2
		c0,0.2,0.1,0.4,0.2,0.5c0.8,0.9,1.7,1.5,2.9,1.4c0.5,0,1,0,1.5,0c0.7,0.1,1.2-0.2,1.8-0.5c0.7-0.4,1.4-1,1.5-1.8c0.1-1.5,0-3,0-4.5
		c0-0.1-0.2-0.3-0.3-0.3C136,39.7,135.2,39.7,134.2,39.7z"/>
	<path class="st0" d="M63.4,40.1c0,1.7,0,3.4,0,5.2c0,0.8-0.6,1.8-1.3,2.3c-0.6,0.5-1.3,0.9-2.1,1.3c-1.1,0.5-2.3,0.8-3.5,0.9
		c-0.6,0-1.1,0-1.7,0c-0.5,0-1.1-0.1-1.6-0.2c-1.1-0.3-2.1-0.8-3-1.3c-0.6-0.4-1.3-0.8-1.7-1.6c-0.1-0.3-0.3-0.6-0.3-1
		c0-1.4,0.1-2.9,0-4.3c-0.1-0.9,0.3-1.4,0.8-2c0.9-1.1,2.1-1.7,3.4-2.1c1-0.3,2-0.5,3.1-0.5c1.3,0,2.5,0,3.8,0
		c0.3,0,0.4-0.1,0.4-0.4c0-0.7-0.1-1.4-0.6-2c-0.6-0.7-1.4-1-2.3-1c-1-0.1-2,0-3.1,0c-1,0-1-0.1-1-1.1c0-0.4,0-0.8,0-1.2
		c0-0.6,0.2-0.9,0.9-0.9c0.9,0,1.8-0.2,2.7,0.2c0.6,0.2,1.3,0.1,2,0.3c1.6,0.4,3,1.1,4.1,2.3c0.5,0.6,0.9,1.3,0.9,2.1
		C63.3,36.7,63.4,38.4,63.4,40.1z M59.4,42.6c0-0.8,0-1.6,0-2.4c0-0.3-0.1-0.4-0.4-0.4c-1.4,0-2.8,0-4.2,0c-0.5,0-1.1,0.1-1.6,0.4
		c-1,0.5-1.8,1.2-1.7,2.6c0,0.4,0,0.7,0,1.1c0,0.6,0.2,1.2,0.5,1.8c0.1,0.3,0.3,0.4,0.6,0.6c1.3,0.9,3.4,0.8,4.9,0.5
		c0.8-0.2,1.2-0.7,1.7-1.2c0.4-0.4,0.1-0.8,0.2-1.3C59.5,43.6,59.4,43.1,59.4,42.6z"/>
	<path class="st0" d="M84.7,39.8c0-1.6,0-3.1,0-4.7c0-1.4,0.7-2.3,1.7-3c0.6-0.4,1.3-0.6,1.9-1.1c0.6-0.4,1.4-0.2,1.9-0.7
		c0.2-0.1,0.5,0,0.7,0c0.4,0,0.9,0.2,1.3-0.2c0.1-0.1,0.4-0.1,0.5,0c0.6,0.5,1.4,0,2,0.5c0.7-0.1,1.4,0.3,2,0.5
		c1.2,0.5,2.2,1.3,3,2.4c0.2,0.2,0.3,0.5,0.3,0.9c0,1.3,0,2.5,0,3.8c0,0.8-0.3,1.5-0.9,2c-1.1,0.9-2.3,1.6-3.6,2
		c-0.6,0.2-1.2,0.1-1.7,0.3c-1.6,0.3-3.3,0.2-4.9,0.2c-0.4,0-0.4,0.2-0.4,0.4c0.1,0.6,0.3,1.1,0.3,1.7c0,0.1,0.1,0.3,0.2,0.4
		c0.7,0.7,1.4,1.2,2.5,1.1c1.1,0,2.1,0,3.2,0c0.5,0,0.7,0.2,0.7,0.7c0,0.6,0,1.2,0,1.8c0,0.3-0.1,0.4-0.4,0.4c-1.4,0-2.8,0.1-4.2,0
		c-1.4-0.1-2.7-0.6-3.8-1.4c-0.5-0.3-1-0.7-1.4-1.1c-0.5-0.6-0.8-1.2-0.8-2C84.8,43.1,84.7,41.5,84.7,39.8z M91.2,39.5
		C91.2,39.5,91.2,39.5,91.2,39.5c0.6,0,1.2-0.1,1.8,0c0.6,0.1,1.1-0.2,1.6-0.3c0.6-0.1,1-0.7,1.5-1.2c0.3-0.3,0.1-0.8,0.1-1.2
		c0-0.4,0-0.9,0-1.3c0-0.8-0.4-1.3-1.1-1.7c-0.8-0.5-1.7-0.5-2.5-0.7c-0.7-0.2-1.4,0.2-2.1,0.3c-0.6,0-1.2,0.6-1.7,1.2
		c-0.4,0.5-0.4,1-0.4,1.6c0,0.2,0,0.4,0,0.6c0,0.9,0,1.8,0,2.7C89.4,39.4,90.3,39.5,91.2,39.5z"/>
	<path class="st0" d="M67.4,30.7c0.6,0.1,1.4-0.3,1.9,0.2c0.4,0.4,0.5,1.1,0.7,1.6c0.3,0.7,0.8,1.3,0.9,2.1c0.1,0.8,0.9,1.3,0.8,2.1
		c0.6,0.9,0.9,1.8,1.3,2.8c0.2,0.5,0.5,0.9,0.6,1.4c0.2,0.5,0.6,0.8,0.5,1.4c0,0,0.2,0.1,0.3,0.2c0.1,0,0.2,0,0.2-0.1
		c0.2-0.5,0.5-0.9,0.7-1.4c0.6-1.7,1.4-3.3,2.1-5c0.6-1.5,1.4-2.9,1.9-4.5c0.2-0.5,0.5-0.8,1.1-0.8c0.8,0,1.6,0,2.3,0
		c0.5,0,0.7,0.2,0.5,0.7c-0.4,0.8-0.8,1.6-1.2,2.5c-0.8,1.8-1.6,3.5-2.4,5.3c-0.6,1.4-1.3,2.8-1.9,4.2c-0.4,1-1,2-1.4,3
		c-0.4,1-0.9,1.9-1.4,2.9c-0.1,0.2,0,0.5-0.4,0.5c-0.3,0-0.7,0-0.8-0.3c-0.2-0.4-0.5-0.7-0.5-1.1c0-0.5-0.4-0.8-0.5-1.3
		c-0.7-1.6-1.5-3.2-2.3-4.8c-1-2.1-2-4.3-3-6.4c-0.5-1.2-1.1-2.3-1.7-3.5c-0.1-0.3-0.2-0.6-0.3-1c-0.2-0.5-0.2-0.5,0.3-0.5
		C66.3,30.7,66.8,30.7,67.4,30.7z"/>
	<path class="st0" d="M25.8,33.7c0-2.7,0-5.5,0-8.2c0-0.2,0-0.5,0-0.7c0.1-0.4,0.4-0.7,0.8-0.7c0.8,0,1.6,0,2.3,0
		c0.6,0,0.8,0.2,0.8,0.8c0,1.6,0,3.1,0,4.7c0,0.3,0,0.6,0,0.9c0,0.3,0.1,0.3,0.4,0.3c0.4,0,0.7,0,1.1,0c0.6,0,1.3,0.1,1.9,0.1
		c0,0.6,0,1.3,0,1.9c0,0.1,0,0.2,0,0.4c0.1,0.4,0,0.6-0.5,0.6c-0.7-0.1-1.5,0-2.2,0c-0.5,0-0.7,0.2-0.7,0.7c0,3,0,6.1,0,9.1
		c0,0.8,0.3,1.7,0.8,2.4c0.2,0.3,0.6,0.5,0.9,0.7c0.3,0.2,0.5,0.3,0.8,0.4c0.4,0.2,0.8,0.4,0.7,1c-0.1,0.2,0,0.4,0,0.6
		c0,0.4-0.1,0.9-0.1,1.3c-0.4,0-0.9,0.1-1.3,0c-0.4-0.2-0.8-0.2-1.2-0.3c-2.1-0.6-3.3-2.1-4-4c-0.2-0.6-0.2-1.3-0.3-1.9
		c-0.3-1.6-0.2-3.3-0.2-4.9C25.8,37,25.8,35.4,25.8,33.7z"/>
	<path class="st0" d="M111.2,40c0-1.6,0-3.3,0-4.9c0-0.8,0.3-1.4,0.8-2c1.4-1.5,3.1-2.1,5-2.5c1-0.2,1.9-0.2,2.9-0.2
		c0.9,0,1.7,0.3,2.5,0.7c0.6,0.3,0.7,0.2,0.4,0.9c-0.2,0.4-0.3,0.8-0.5,1.1c-0.1,0.2-0.2,0.5-0.4,0.7c-0.1,0.1-0.4-0.2-0.6-0.2
		c-0.9,0-1.7-0.4-2.6-0.3c-1.1,0.2-2.3,0.3-3.2,1.2c-0.4,0.4-0.6,0.9-0.6,1.5c0,2.6,0,5.2,0,7.9c0,0.8,0.3,1.4,1,1.9
		c0.6,0.5,1.3,0.7,2.1,0.9c0.5,0.1,1.1,0.2,1.6,0.2c0.6-0.1,1.3-0.1,1.8-0.4c0.5-0.2,0.6,0,0.8,0.2c0.3,0.4,0.5,0.9,0.7,1.4
		c0.2,0.4,0,0.7-0.3,0.9c-0.4,0.2-0.8,0.3-1.2,0.4c-1.7,0.4-3.4,0.5-5,0c-0.7-0.2-1.3-0.4-1.9-0.7c-1.2-0.6-2.3-1.3-3-2.5
		c-0.2-0.4-0.3-0.9-0.3-1.3C111.3,43.3,111.2,41.7,111.2,40z"/>
	<path class="st0" d="M106.8,36.9c0,3.9,0,7.8,0,11.8c0,0.7,0,0.6-0.7,0.6c-0.9,0-1.7,0-2.6,0c-0.5,0-0.7-0.2-0.7-0.7
		c0-0.2,0-0.4,0-0.6c0-7.4,0-14.9,0-22.3c0-0.3,0-0.7,0-1c0-0.3,0.4-0.7,0.8-0.7c0.8,0,1.6,0,2.3,0c0.7,0,0.8,0.2,0.8,0.9
		c0,1.7,0,3.4,0,5.1C106.8,32.3,106.8,34.6,106.8,36.9z"/>
	<path class="st0" d="M145.1,41.8c0-2.2,0.1-4.3,0-6.5c0-1.4,0.7-2.4,1.6-3.1c1.3-1,3.2-1.6,4.8-1.7c0.4,0,0.8-0.3,1.2-0.2
		c1.4,0.2,2.9,0.3,4.2,0.7c0.4,0.1,0.7,0.3,0.6,0.6c-0.4,0.8-0.9,1.5-1.4,2.2c-0.1,0.1-0.3,0.1-0.4,0.1c-1.4-0.7-2.9-0.4-4.4-0.4
		c-0.7,0-1.2,0.4-1.7,0.9c-0.4,0.5-0.7,0.9-0.7,1.6c0,4.3,0,8.5,0,12.8c0,0.7,0,0.7-0.7,0.7c-0.8,0-1.6,0-2.3,0
		c-0.9,0-0.9,0-0.9-0.9C145.1,46.2,145.1,44,145.1,41.8z"/>
	<path class="st0" d="M36.8,41.6c0-2.3,0-4.6,0-6.9c0-0.7,0.2-1.2,0.7-1.7c0.4-0.4,0.7-0.8,1.1-1.1c0.7-0.5,2.1-1,3.2-1.3
		c0.6-0.2,1.2-0.3,1.9-0.2c0.2,0,0.4,0,0.5-0.1c0.4-0.4,0.7,0.1,1.1,0.1c0.8,0,1.6,0,2.4,0.3c0.2,0,0.3,0,0.5,0
		c1.2,0.3,1.3,0.6,0.6,1.6c-0.1,0.2-0.2,0.3-0.3,0.5c-0.4,0.8-0.7,1.1-1.6,0.8c-0.9-0.3-1.7-0.2-2.6-0.2c-0.6,0-1.2,0-1.9,0.2
		c-0.7,0.2-1,0.7-1.4,1.1c-0.3,0.3-0.4,0.7-0.4,1.2c0,4.1,0,8.3,0,12.4c0,0.2,0,0.5,0,0.7c0,0.3-0.1,0.4-0.3,0.4c-1,0-2,0-2.9,0
		c-0.3,0-0.4-0.1-0.4-0.4c0-0.6,0-1.1,0-1.7C36.8,45.3,36.8,43.4,36.8,41.6z"/>
</g>
</svg>
