<?xml version="1.0" encoding="utf-8"?>
<!-- Generator: Adobe Illustrator 21.0.0, SVG Export Plug-In . SVG Version: 6.00 Build 0)  -->
<!DOCTYPE svg PUBLIC "-//W3C//DTD SVG 1.1//EN" "http://www.w3.org/Graphics/SVG/1.1/DTD/svg11.dtd">
<svg version="1.1" id="Laag_1" xmlns="http://www.w3.org/2000/svg" xmlns:xlink="http://www.w3.org/1999/xlink" x="0px" y="0px"
	 viewBox="0 0 283.5 157.6" style="enable-background:new 0 0 283.5 157.6;" xml:space="preserve">
<style type="text/css">
	.st0{fill:#95C11F;}
	.st1{fill:#7C7C7B;}
</style>
<g>
	<path class="st0" d="M28.7,0C12.9,0,0,12.9,0,28.7v60.9c0,15.8,12.9,28.7,28.7,28.7h116.9c15.8,0,28.7-12.9,28.7-28.7h-6
		c0,12.6-10.2,22.8-22.8,22.8H28.7C16.2,112.4,6,102.2,6,89.6V28.7C6,16.2,16.2,6,28.7,6h116.9c12.5,0,22.8,10.2,22.8,22.8h6
		c0-15.8-12.9-28.7-28.7-28.7H28.7z"/>
	<path class="st0" d="M181.7,72.7V56.2c0-3.9,6.6-7.3,12.6-7.3c2.8,0,5.7,1,6.8,1.7l-1.9,3.7c-2.2-0.3-2.5-0.7-4.6-0.7
		c-5.4,0.2-6.9,2.7-6.9,4.5l0.1,13.3c0,1.7,2.2,4.1,6.9,4.1c1.4,0,3.1-0.1,4.6-0.7l2,3.8c-1.2,0.7-3.5,1.7-6.8,1.7
		C189.2,80.4,181.7,77.5,181.7,72.7"/>
	<path class="st0" d="M223.6,64h-6.3c-3.5,0-6.5,1.5-6.6,4.1c0,0.7,0.1,3.2,0.1,3.5c0,3.2,3.7,4.1,6.5,4.1c3.1,0,6.3-1.1,6.3-4.3V64
		 M229.8,73.6c-0.2,3.6-6.4,6.9-12.4,6.9c-6.9,0-12.3-3.9-12.4-6.8c0-2.8,0-4.5,0-7.6c0-3.1,5.6-6.9,12.3-6.9h6.5
		c0-0.9,0-1.1-0.1-1.6c0-2.2-1.8-4.2-6.4-4.2h-4.6v-4.8c1.3-0.1,3.9,0,4.6,0c5.9-0.2,12.2,3.4,12.4,6.8V73.6L229.8,73.6z"/>
	<path class="st0" d="M254.9,54.5c-2.5-1-4-1-5.4-1.1c-3.6,0-6.3,1.6-6.3,4.2v22.1h-6.1V55.6c0-2.7,4.9-6.9,12.5-6.9
		c4-0.1,7.9,1.4,7.9,1.4L254.9,54.5"/>
	<path class="st0" d="M277.3,54.2l-7-0.1c-3.6,0.1-5.6,1.7-5.6,4.7v11.8c0,2.7,2.9,4.2,6,4.2l6.7-0.1V54.2 M270.5,79.6
		c-4.6,0-11.9-2.7-11.9-7.2V56.5c0-4.6,7.5-7.2,12.1-7.2h6.6V38.6h6.1v41.1L270.5,79.6z"/>
</g>
<g>
	<g>
		<rect x="168.4" y="38.6" class="st1" width="6" height="41.1"/>
		<path class="st1" d="M150.9,48.7c-6,0-12.2,3.3-12.4,6.9V73c0.2,3.4,6.5,7,12.4,6.8c0.7,0,3.3,0.1,4.6,0v-4.8h-4.6
			c-4.6,0.1-6.4-2-6.4-4.2c-0.1-0.5-0.1-1.4-0.1-2.2h6.5c6.7,0,12.3-3.8,12.3-6.9c0-3.1,0-3.5,0-6.3
			C163.2,52.6,157.8,48.7,150.9,48.7z M157.3,59.7c-0.1,2.6-3,4.1-6.5,4.1h-6.3v-6.1c0-3.2,3.2-4.3,6.3-4.3c2.8,0,6.5,0.9,6.5,4.1
			C157.3,57.9,157.3,59,157.3,59.7z"/>
		<path class="st1" d="M48.5,54.2v14.7c0,2.9,0.6,5.8,5.3,7.3v4.3C43.5,80.5,42.4,72,42.4,69.1V38.6h6.1c0,0,0,5.8,0,10.7h5.6v4.8
			H48.5"/>
		<path class="st1" d="M77.9,54.5c-2.5-1-4-1-5.4-1.1c-3.6,0-6.4,1.6-6.4,4.2v22.1h-6.1V55.6c0-2.7,4.9-6.9,12.5-6.9
			c4-0.1,7.9,1.4,7.9,1.4L77.9,54.5"/>
		<path class="st1" d="M97.3,64H91c-3.5,0-6.5,1.5-6.6,4.1c0,0.7,0.1,3.2,0.1,3.5c0,3.2,3.7,4.1,6.5,4.1c3.1,0,6.3-1.1,6.3-4.3V64
			 M103.5,73.6c-0.2,3.6-6.4,6.9-12.4,6.9c-6.9,0-12.3-3.9-12.4-6.8c0-2.8,0-4.5,0-7.6c0-3.1,5.6-6.9,12.3-6.9h6.5
			c0-0.9,0-1.1-0.1-1.6c0-2.2-1.8-4.2-6.4-4.2h-4.6v-4.8c1.3-0.1,3.9,0,4.6,0c5.9-0.2,12.2,3.4,12.4,6.8V73.6L103.5,73.6z"/>
		<polygon class="st1" points="130.1,49.4 121.6,69 113.1,49.4 106.5,49.4 120.8,80.1 122.2,80.1 136.3,49.4 		"/>
	</g>
</g>
<g>
	<path class="st1" d="M42.4,145.9h-2v-2.7h2V141c0-2.3,1.4-3.5,4.1-3.5c0.6,0,1.3,0.1,2,0.2v2.8c-0.4-0.1-0.7-0.1-1-0.1
		c-1.3,0-1.7,0.4-1.7,1.7v1.1h2.7v2.7h-2.6v11.4h-3.4V145.9z"/>
	<path class="st1" d="M54.1,157.5c-2.6,0-3.9-1.5-3.9-4.5v-9.8h3.3v9.1c0,1.7,0.4,2.5,1.6,2.5c1,0,2-0.5,3.1-1.6v-10.1h3.3v14.1
		h-3.1v-1.6C57,156.9,55.7,157.5,54.1,157.5z"/>
	<path class="st1" d="M70.1,157.5c-3.7,0-6-2.7-6-7.3c0-4.7,2.3-7.3,5.9-7.3c3.7,0,5.8,2.6,5.8,7.1c0,0.2,0,0.5,0,0.7h-8.4
		c0,2.7,1,4,3,4c1.3,0,2.1-0.6,2.9-1.8l2.4,1.5C74.6,156.5,72.7,157.5,70.1,157.5z M72.6,148.4c0-1.9-1-3-2.6-3
		c-1.5,0-2.4,1.1-2.6,3H72.6z"/>
	<path class="st1" d="M78.4,137.7h3.3v19.5h-3.3V137.7z"/>
	<path class="st1" d="M104,154c-1,2.3-2.9,3.6-5.5,3.6c-4,0-6.1-2.5-6.1-7.3c0-4.6,2.3-7.3,6.1-7.3c2.6,0,4.6,1.3,5.4,3.7l-2.8,1.2
		c-0.5-1.4-1.2-2.1-2.4-2.1c-2,0-3,1.5-3,4.7c0,2.9,0.9,4.3,2.7,4.3c1.3,0,2.3-0.7,3-2.1L104,154z"/>
	<path class="st1" d="M113.5,156c-1.3,0.9-2.7,1.4-4.2,1.4c-2.4,0-3.8-1.4-3.8-3.8c0-3.1,2.6-4.8,8-5.5v-1.1c0-1-0.7-1.6-2-1.6
		c-1.3,0-2.3,0.6-3.1,1.6l-2.3-1.4c1.2-1.8,3-2.7,5.4-2.7c3.3,0,5.2,1.6,5.2,4.2v8.3c0,0.5,0.1,1.1,0.2,1.9h-3.2L113.5,156z
		 M108.8,153.4c0,0.9,0.5,1.5,1.5,1.5c1,0,2.1-0.5,3.1-1.5v-3C110.3,150.8,108.8,151.7,108.8,153.4z"/>
	<path class="st1" d="M120.2,143.2h3.2v2.3c0.9-1.7,2.1-2.6,3.5-2.6c0.1,0,0.3,0,0.4,0v3.5h-0.2c-1.5,0-2.8,0.8-3.5,2.2v8.6h-3.4
		V143.2z"/>
	<path class="st1" d="M134,157.5c-3.2,0-5.5-2.9-5.5-7.3c0-4.5,2.3-7.3,5.4-7.3c1.4,0,2.4,0.5,3.4,1.6v-6.8h3.3V154
		c0,0.7,0.1,1.8,0.2,3.3h-2.6l-0.3-1.5C136.8,157,135.6,157.5,134,157.5z M137.3,146.8c-0.9-0.8-1.6-1.2-2.5-1.2c-1.8,0-3,1.6-3,4.6
		c0,2.9,1.1,4.5,3,4.5c0.9,0,1.6-0.4,2.5-1.2V146.8z"/>
	<path class="st1" d="M152.3,137.7h3.3v3.1h-3.3V137.7z M152.3,143.2h3.3v14.1h-3.3V143.2z"/>
	<path class="st1" d="M159.1,143.2h3.1v1.7c1.6-1.3,2.8-1.9,4.3-1.9c2.6,0,3.9,1.5,3.9,4.6v9.8h-3.3v-9.1c0-1.7-0.4-2.5-1.6-2.5
		c-1,0-2,0.5-3.1,1.6v10.1h-3.3V143.2z"/>
	<path class="st1" d="M173.9,143.2h3.1v1.7c1.6-1.3,2.8-1.9,4.4-1.9c2.6,0,3.9,1.5,3.9,4.6v9.8h-3.3v-9.1c0-1.7-0.4-2.5-1.6-2.5
		c-1,0-2,0.5-3.1,1.6v10.1h-3.3V143.2z"/>
	<path class="st1" d="M193.7,142.9c3.8,0,6,2.7,6,7.3c0,4.6-2.3,7.3-6,7.3c-3.7,0-6-2.7-6-7.3C187.7,145.6,190,142.9,193.7,142.9z
		 M193.7,154.7c1.8,0,2.7-1.5,2.7-4.5s-0.9-4.4-2.7-4.4c-1.8,0-2.7,1.5-2.7,4.4S192,154.7,193.7,154.7z"/>
	<path class="st1" d="M200.6,143.2h3.3l2.3,7.6c0.1,0.4,0.3,1.4,0.6,2.8c0.1-1.3,0.5-2.2,0.7-2.8l2.3-7.6h3.3l-4.6,14.1h-3.3
		L200.6,143.2z"/>
	<path class="st1" d="M222.1,156c-1.3,0.9-2.7,1.4-4.2,1.4c-2.4,0-3.8-1.4-3.8-3.8c0-3.1,2.6-4.8,8-5.5v-1.1c0-1-0.7-1.6-2-1.6
		c-1.3,0-2.3,0.6-3.1,1.6l-2.3-1.4c1.2-1.8,3-2.7,5.4-2.7c3.3,0,5.2,1.6,5.2,4.2v8.3c0,0.5,0.1,1.1,0.2,1.9h-3.2L222.1,156z
		 M217.5,153.4c0,0.9,0.5,1.5,1.5,1.5c1,0,2.1-0.5,3.1-1.5v-3C218.9,150.8,217.5,151.7,217.5,153.4z"/>
	<path class="st1" d="M234,154.7c0.3,0,0.8,0,1.4-0.1v2.7c-0.5,0.1-1.4,0.2-2.8,0.2c-2.3,0-3.3-1-3.3-3.3v-8.3h-1.8v-2.7h1.8v-4.5
		h3.3v4.5h2.7v2.7h-2.7v7.1C232.6,154.2,232.8,154.7,234,154.7z"/>
	<path class="st1" d="M237.6,137.7h3.3v3.1h-3.3V137.7z M237.6,143.2h3.3v14.1h-3.3V143.2z"/>
	<path class="st1" d="M249.5,142.9c3.8,0,6,2.7,6,7.3c0,4.6-2.3,7.3-6,7.3c-3.7,0-6-2.7-6-7.3C243.4,145.6,245.7,142.9,249.5,142.9z
		 M249.5,154.7c1.8,0,2.7-1.5,2.7-4.5s-0.9-4.4-2.7-4.4c-1.8,0-2.7,1.5-2.7,4.4S247.7,154.7,249.5,154.7z"/>
	<path class="st1" d="M258,143.2h3.1v1.7c1.6-1.3,2.8-1.9,4.4-1.9c2.6,0,3.9,1.5,3.9,4.6v9.8H266v-9.1c0-1.7-0.4-2.5-1.6-2.5
		c-1,0-2,0.5-3.1,1.6v10.1H258V143.2z"/>
</g>
</svg>
