<?xml version="1.0" encoding="utf-8"?>
<!-- Generator: Adobe Illustrator 24.0.1, SVG Export Plug-In . SVG Version: 6.00 Build 0)  -->
<svg version="1.1" id="Layer_1" xmlns="http://www.w3.org/2000/svg" xmlns:xlink="http://www.w3.org/1999/xlink" x="0px" y="0px"
	 viewBox="0 0 1599.73 514.75" style="enable-background:new 0 0 1599.73 514.75;" xml:space="preserve">
<style type="text/css">
	.st0{fill:#FFFFFF;}
</style>
<g>
	<path class="st0" d="M201.97,234.88c-6.37,4.47-13.13,8.3-20.16,11.59c-4.31,2.02-9.13,2.83-13.26,5.33
		c-3.61-0.45-6.48,2.39-10.13,2.17c-1.76-0.1-3.59,0.86-5.38,1.35c-0.6,0.16-1.19,0.56-1.77,0.52c-4.24-0.27-8.3,1.72-12.57,1.03
		c-4.92,1.89-10.04,0.77-15.06,0.93c-2.01,0.06-4.05-0.58-6.07-0.94c-2.02-0.37-4.33,1.01-6.08-0.99
		c-4.23,0.42-8.12-1.23-12.17-1.89c-4.5-0.74-8.93-1.92-13.03-3.55c-5.69-2.26-11.5-4.34-16.89-7.45
		c-6.51-3.75-13.03-7.4-18.96-12.07c-5.5-4.33-11.08-8.57-15.69-13.84c-7.38-8.46-14.54-17.14-19.39-27.39
		c-1.39-2.93-3.27-5.56-4.44-8.64c-1.7-4.46-3.35-8.93-4.99-13.4c-1.29-3.53-1.92-7.19-2.89-10.77c-1.12-4.11-1.77-8.33-2.21-12.57
		c-0.01-0.15-0.53-0.24-0.82-0.36c0-10.66,0-21.32,0-31.98c1.43-0.9,1.96-2.21,2.02-3.87C2.2,103,3.69,98.18,4.99,93.33
		c1.36-5.07,3.25-9.98,5.11-14.87c1.37-3.58,3.48-6.88,5.21-10.32c5.16-10.27,12.09-19.31,19.82-27.73
		c4.5-4.91,9.68-9.08,14.91-13.26c4.73-3.78,9.74-7.07,14.89-10.06c6.78-3.94,13.97-7.19,21.36-9.88c4.81-1.75,9.83-2.84,14.77-4.11
		c4.59-1.18,9.41-1.43,14.12-2.15c0.31-0.05,0.53-0.63,0.8-0.96c6.67,0,13.33,0,20,0c0.26,0.33,0.51,0.93,0.8,0.95
		c1.32,0.1,2.67-0.02,3.99,0.06c2.09,0.13,4.18,0.37,6.27,0.54c1.94,0.16,4.24-0.3,5.72,0.6c1.88,1.15,4.3-0.04,5.76,1.85
		c4.78,0.13,9.07,2.14,13.52,3.55c6.2,1.97,12,4.86,17.75,7.81c6.3,3.23,12.27,7,17.68,11.61c3.8,3.23,7.98,6.08,11.46,9.62
		c5.17,5.25,9.68,11.11,14.31,16.86c5.79,7.19,9.52,15.37,13.66,23.39c3.04,5.89,4.29,12.52,7.02,18.57
		c-0.41,4.71,2.51,8.88,2.12,13.65c-0.16,1.99,1.25,3.88,0.98,6.08c-0.25,2.04,0.57,4.12,0.76,6.09c0.52,5.45,0.63,11.03-0.02,16.45
		c-0.3,2.52-0.35,5.12-0.9,7.58c-0.53,2.37-0.46,4.82-1.02,7.07c-1.33,5.43-2.21,10.98-4.08,16.27c-2.83,8-6.06,15.86-10.31,23.2
		c-3.06,5.29-6.83,10.16-10.15,15.3c-2.16,3.34-5.1,5.93-7.78,8.78c-0.85,0.9-1.35,2.14-2.17,3.07c-0.67,0.76-1.58,1.3-2.39,1.94
		c-3.22,2.75-7.02,4.89-9.23,8.72c-2.16-0.77-1.07,2.59-2.95,2.3C206.21,231.83,202.89,234.07,201.97,234.88z M29,128.59
		c-0.44,7.65,0.08,15.23,2.03,22.65c1.37,5.23,2.62,10.51,4.98,15.42c3.07,6.42,5.89,12.99,10.08,18.81
		c2.14,2.97,4.2,6.08,6.75,8.67c4.85,4.91,9.31,10.26,15.08,14.19c4.16,2.83,8.12,6.03,12.53,8.38c5.01,2.67,10.35,4.77,15.68,6.77
		c8.92,3.35,18.27,4.98,27.75,5.32c5.68,0.2,11.45,0.84,17.09-0.86c1.97-0.59,4.16,0.49,6.22-0.69c1.78-1.02,4.22,0.36,5.93-1.35
		c6.63-1.11,12.86-3.58,18.76-6.57c5.69-2.89,11.24-6.05,16.42-9.99c5.88-4.48,11.41-9.26,16.27-14.73
		c2.06-2.32,4.28-4.66,5.84-7.51c1.8-3.29,4.56-6.09,6.19-9.45c1.88-3.87,4.17-7.53,5.44-11.74c1.39-4.58,2.93-9.12,4.35-13.7
		c1.43-4.6,2.16-9.33,2.38-13.92c0.54-11.3,0.7-22.66-2.72-33.76c-1.82-5.91-3.39-11.86-6.05-17.49
		c-5.06-10.73-11.64-20.34-20.12-28.64c-2.8-2.74-5.59-5.44-8.72-7.84c-4.63-3.56-9.28-7-14.55-9.58c-2.91-1.42-5.71-3.09-8.65-4.46
		c-3.07-1.44-6.46-2-9.57-3.44c-1.94-0.9-4.23-1.05-6.36-1.53c-2.29-0.52-4.6-1.54-6.85-1.41c-2.39,0.14-4.33-1.17-6.59-1.15
		c-5.83,0.04-11.67-0.22-17.49,0.08c-5.67,0.29-11.3,1.18-16.76,2.93c-5.3,1.7-10.89,2.78-15.82,5.21
		c-5.26,2.59-10.7,4.93-15.47,8.65c-4.29,3.35-9.01,6.13-12.71,10.25c-1.78,1.98-3.66,3.89-5.65,5.65
		c-4.76,4.21-7.66,9.87-11.65,14.68c-3.84,9.24-9.82,17.64-11.03,27.92c-1.87,1.46-0.82,3.86-1.83,5.76
		c-0.87,1.63-0.32,3.96-1.03,6.04c-0.67,1.94-0.14,4.28-0.14,6.45C29,124.59,29,126.59,29,128.59z"/>
	<path class="st0" d="M167.97,514.75c-0.67-2.31-2.75-0.61-4.15-1.4c-1.95-1.1-4.53-1.05-6.81-1.61c-2.41-0.59-4.89-1.06-7.15-2.03
		c-7.59-3.24-15.19-6.47-21.52-12.02c-2.75-2.41-6.02-4.26-8.62-6.81c-2.84-2.78-5.17-6.1-7.75-9.15c-1.26-1.49-2.87-2.76-3.85-4.41
		c-1.89-3.18-3.21-6.71-5.19-9.82c-3.39-5.31-4.27-11.55-6.77-17.2c-0.78-1.76-0.53-3.99-1.06-6.03c-0.8-3.07-0.92-6.35-1.08-9.55
		c-0.17-3.15-0.17-6.33,0-9.49c0.17-3.2,0.49-6.41,1-9.57c0.47-2.92,1.31-5.78,1.96-8.67c1.12-5,3.1-9.76,5.19-14.33
		c1.65-3.59,3.64-7.24,6.01-10.49c4.32-5.92,8.88-11.7,14.48-16.47c6.7-5.71,14.23-10.16,22.2-13.91c4.8-2.26,9.88-3.53,14.93-5
		c2.96-0.86,6.12-0.44,8.93-1.37c2.97-0.98,5.84-0.39,8.74-0.55c3.16-0.17,6.41-0.49,9.48,0.05c7.05,1.25,14.36,1.55,20.93,4.9
		c0.69,0.35,1.39,0.67,2.08,1c3.46,0.3,5.95,3.58,9.65,3.15c0.27,2.46,2.17,1.69,3.62,1.89c0.28,0.04,0.43,0.73,0.73,1.01
		c1.79,1.62,3.03,4.09,5.99,3.94c0.67,2.04,2.81,2.45,4.14,3.73c5.08,4.92,10.6,9.55,14.4,15.52c2.17,3.4,4.55,6.72,6.42,10.31
		c1.85,3.54,3.78,7.14,4.87,10.95c0.68,2.38,1.23,4.78,2.06,7.15c0.82,2.36,0.52,5.08,1.15,7.53c1.94,7.48,1.28,15.12,0.74,22.57
		c-0.63,8.65-3.04,17.06-6.65,25.16c-2.62,5.87-5.59,11.56-9.43,16.52c-3.91,5.06-7.94,10.18-13.45,14
		c-3.62,2.52-7.18,5.17-10.83,7.69c-5.83,4.03-12.19,6.72-18.87,8.78c-4.49,1.38-9.06,2.48-13.74,3.05c-0.3,0.04-0.53,0.63-0.8,0.96
		C182.64,514.75,175.3,514.75,167.97,514.75z M178.98,485.71c3.52-0.17,7.03,0.3,10.6-0.81c2.48-0.77,5.15-1.16,7.71-1.9
		c6.23-1.82,11.91-4.83,16.72-8.96c7.45-6.38,13.88-13.65,17.46-23.16c2.4-6.38,4.05-12.83,4.47-19.6c0.1-1.66,0.15-3.34-0.02-4.99
		c-0.16-1.54-0.82-3.04-0.93-4.58c-0.34-5.07-1.98-9.74-3.96-14.35c-3.83-8.9-9.22-16.5-17.2-22.28c-5.76-4.17-8.36-5.55-15.47-8.5
		c-5.81-2.42-11.82-3.13-17.91-3.74c-1.65-0.16-3.34-0.15-4.99,0.01c-1.54,0.16-3.04,0.82-4.58,0.93
		c-5.07,0.34-9.72,2.03-14.36,3.94c-5.16,2.11-9.5,5.38-13.89,8.74c-2.58,1.98-4.47,4.41-6.59,6.73c-4.18,4.58-7.45,9.69-9.49,15.54
		c-1.81,5.18-4.02,10.29-3.61,15.98c0.04,0.61,0.01,1.38-0.31,1.85c-1.25,1.82-1.2,4.26-0.47,5.61c0.91,1.67,0.55,3.14,0.79,4.69
		c0.39,2.51,0.36,5.15,1.18,7.5c3.08,8.75,6.84,17.18,13.71,23.76c2.82,2.7,5.73,5.32,8.77,7.75c4.65,3.72,10.11,6.14,15.73,7.76
		C167.71,485.16,173.25,486.52,178.98,485.71z"/>
	<path class="st0" d="M1599.73,363.82c-8.16,0-16.33-0.01-24.49,0.02c-0.98,0-1.58-0.14-1.52-1.31c0.06-1.16,0.01-2.33,0.01-3.5
		c0-19.15,0.19-38.31-0.11-57.46c-0.09-6.15-1.74-12.15-6.44-16.78c-2.21-2.18-4.89-3.15-7.83-4.07c-2.92-0.91-5.34-0.62-8.25-0.06
		c-3.83,0.74-7.16,1.98-10.34,4.14c-1.51,1.03-2.42,2.27-3.39,3.78c-4,6.25-4.19,7.36-5.81,14.13c-0.67,2.78-0.78,5.42-0.79,8.12
		c-0.07,16.82-0.03,33.64-0.04,50.47c0,2.46-0.03,2.5-2.28,2.5c-7.33,0.02-14.66-0.01-21.99,0.03c-1.18,0.01-1.92-0.16-1.74-1.59
		c0.1-0.82,0.02-1.66,0.02-2.5c0-31.31,0-62.63,0-93.94c0-0.83,0.05-1.67-0.01-2.5c-0.08-1.03,0.26-1.47,1.36-1.46
		c7.33,0.03,14.66,0.04,21.99-0.01c1.28-0.01,1.71,0.34,1.69,1.66c-0.08,4.33-0.04,8.66-0.01,12.99c0,0.44,0.28,0.88,0.43,1.31
		c0.18-0.39,0.35-0.79,0.55-1.17c3.3-6.18,7.92-10.74,14.37-13.93c5.16-2.56,10.22-4.14,15.92-3.85c1.33,0.07,2.67,0.06,4,0
		c6.53-0.29,12.28,2.2,17.91,5.03c2.15,1.08,3.58,3.13,5.57,4.54c2.06,1.45,3.5,4.08,4.61,6.47c0.91,1.97,2.43,3.47,3.13,5.71
		c0.98,3.13,2.1,6.17,2.51,9.44c0.04,0.3,0.63,0.53,0.96,0.8C1599.73,315.18,1599.73,339.5,1599.73,363.82z"/>
	<path class="st0" d="M229.96,360.82c-2.96,0.15-4.2-2.32-5.99-3.94c-0.31-0.28-0.45-0.97-0.73-1.01c-1.46-0.2-3.35,0.56-3.62-1.89
		c-3.7,0.43-6.19-2.85-9.65-3.15c0.79-2.66-1.7-3.46-2.89-4.97c-0.46-0.59-1.38-0.79-1.9-1.35c-1.38-1.5-2.58-3.18-3.99-4.65
		c-1.24-1.3-2.76-2.28-3.7-3.93c-1-1.77-2.41-3.31-3.51-5.03c-1.92-3.01-4.21-5.9-5.49-9.18c-1.79-4.57-4.3-8.98-4.53-14.07
		c-0.02-0.48,0.09-1.12-0.17-1.41c-2.45-2.73-1.71-6.05-1.84-9.22c-0.08-2.06-0.17-4.03-0.78-6.12c-0.54-1.88-0.52-4.24,0.55-6.6
		c1-2.2,0.38-5.22,0.18-7.86c-0.14-1.86,0.5-3.43,1.09-5.06c0.15-0.43,0.98-0.83,0.91-1.08c-1-3.45,1.69-6.01,2.23-9.12
		c0.51-2.91,2.47-5.58,3.83-8.34c2.66-5.42,5.78-10.52,10.23-14.7c0.92-0.87,2.21-1.61,1.77-3.25c0.92-0.81,4.25-3.05,4.82-2.96
		c1.87,0.29,0.79-3.07,2.95-2.3c2.2-3.83,6.01-5.97,9.23-8.72c1.88,0.37,3.36-0.65,4.91-1.42c2.07-1.03,4.06-2.26,6.2-3.12
		c2.13-0.86,4.72-0.55,6.47-2.46c5,0.22,9.48-2.8,14.67-2.12c2.76,0.36,5.59-1.28,8.56-0.89c4.33,0.57,8.65,1.46,13.06,1.02
		c3.39,2.11,7.73,1.27,11.03,3.48c1.62,1.08,4.24-0.56,5.15,2.07c2.24-0.11,3.4,2.33,5.48,2.41c2.04,0.07,2.68,3.2,5.11,2.18
		c1.51,1.18,2.87,2.69,4.57,3.43c1.57,0.68,2.52,1.98,3.63,2.96c5.43,4.74,10.26,10.11,14.8,15.7c1.44,1.77,1.88,4.41,3.45,5.98
		c1.79,1.79,1.45,4.66,3.66,6.03c-0.76,2.83,2.11,4.44,2.34,7.05c0.2,2.26,1.16,4.47,1.92,6.66c3.33,9.7,1.53,19.74,2.01,29.62
		c0.06,1.21-0.44,2.09-0.96,3.11c-0.7,1.38-1.49,2.84-1.07,4.55c0.32,1.34-0.39,2.42-0.94,3.6c-1.24,2.64-1.81,5.54-2.93,8.27
		c-0.89,2.16-2.49,3.93-3.05,6.23c-0.1,0.41-0.91,0.67-0.99,1.07c-0.87,4.41-4.73,6.9-6.77,10.58c-1.99,3.59-5.49,6.03-8.34,8.96
		c-1.46,1.5-3.02,2.88-4.79,3.95c-5.16,3.14-9.84,7.16-15.72,9.04c-2.65,0.85-4.68,2.83-7.73,3.18c-2.51,0.29-4.88,2.08-7.68,1.8
		c-2.15,2.21-5.15,0.51-7.77,1.77c-2.3,1.11-5.55,0.23-8.38,0.23c-2.83,0-5.67,0.12-8.49-0.04c-1.87-0.11-4.11-0.08-5.5-1.08
		c-2.46-1.75-5.32-0.1-7.83-1.75C235.07,361.65,232.35,361.49,229.96,360.82z M259.54,239.9c-8.15-0.65-14.98,2-21.41,4.39
		c-2.44,0.91-4.72,2.36-6.87,3.86c-2.22,1.54-4.4,3.25-6.2,5.24c-1.63,1.81-3.52,3.41-5.01,5.24c-4.34,5.35-6.36,11.02-8.26,17.53
		c-0.6,2.04-1.06,4.21-1.67,6.26c-0.69,2.29-0.16,4.94-0.16,7.44c0,3.52-0.35,7.09,1.75,10.26c0.16,0.24,0.24,0.6,0.23,0.89
		c-0.13,4.15,2.16,7.39,3.98,10.84c2.23,4.23,5.63,7.59,8.14,11.6c4.74,2.73,8.34,7.17,13.8,8.88c2.62,0.82,4.94,2.66,7.57,3.37
		c2.9,0.78,6.01,0.78,9.03,1.15c0.46,0.06,1.02,0.1,1.33,0.38c1.31,1.17,3.31,1.05,4.16,0.48c2.61-1.75,5.88,0.23,8.25-1.87
		c4.5,0.43,8.07-2.11,11.96-3.68c3.59-1.45,6.39-3.95,9.46-6.19c4.93-3.6,8.51-8.06,11.33-13.32c1.31-2.45,2.21-5.12,3.44-7.55
		c2.5-4.96,3.08-10.31,3.37-15.52c0.35-6.26-1.18-12.37-3.64-18.37c-1.93-4.7-4.29-8.95-7.28-12.96c-2.27-3.04-5.31-5.29-7.88-7.99
		c-2.84-2.98-7.07-3.53-9.88-6.38C272.62,241.84,266.27,239.26,259.54,239.9z"/>
	<path class="st0" d="M869.85,288.22c0-23.47,0-46.94,0-70.4c0-1.17,0.05-2.33-0.02-3.49c-0.06-1.05,0.29-1.51,1.38-1.44
		c0.99,0.06,2,0.01,3,0.01c18.81,0,37.63,0.08,56.44-0.1c2.36-0.02,4.33,1.01,6.58,1.16c2.03,0.14,4.05-0.63,6.19,0.77
		c1.37,0.89,3.67,0.75,5.5,1.01c5.34,0.76,10.05,3.15,15.07,4.69c6.57,2.01,12.17,5.8,17.35,9.82c5.5,4.27,10.62,9.34,14.47,15.35
		c3.18,4.97,5.63,10.28,7.23,15.98c1.14,4.06,2.12,8.14,2.95,12.29c1.5,7.55,0.58,15.07,0.76,22.59c0.11,4.57-1.22,9-2.34,13.46
		c-1.14,4.54-3.18,8.7-4.73,13.05c-1.17,3.3-3.48,6.28-5.67,9.11c-2.59,3.34-5.51,6.44-8.44,9.5c-3.99,4.15-9.84,7.57-16.21,11.43
		c-5.53,3.35-11.45,5.41-17.5,7.23c-3.72,1.12-7.54,1.97-11.4,2.71c-8.68,1.65-17.39,0.65-26.08,0.85
		c-8.65,0.21-17.31,0.05-25.97,0.05c-5.49,0-10.99-0.11-16.48,0.06c-1.95,0.06-2.12-0.62-2.12-2.27
		C869.87,337.15,869.85,312.68,869.85,288.22z M896.85,288.45c0,16.64,0,33.27,0,49.91c0,2.43,0.04,2.56,2.31,2.45
		c9.18-0.47,18.35,0.66,27.57-0.8c5.77-0.91,11.58-1.19,17.22-3.11c8.83-3.02,16.86-6.98,22.93-14.46c3.12-3.84,5.8-7.71,7.41-12.44
		c1.48-4.35,3.54-11.8,3.54-15.5c0-1.83,0-3.66,0-5.49c0-2.5,0.13-5-0.04-7.48c-0.16-2.37-0.52-4.74-1-7.07
		c-0.4-1.96-1.28-3.83-1.63-5.8c-0.77-4.41-2.78-8.35-5.45-11.68c-3.24-4.04-7.16-7.59-11.06-11.03c-1.94-1.71-4.37-3.09-6.81-3.97
		c-2.6-0.93-5.3-1.76-7.9-2.65c-6.38-2.2-13-2.81-19.54-3.29c-8.28-0.61-16.63-0.13-24.95-0.16c-3.08-0.01-2.62-0.06-2.62,2.67
		C896.85,255.18,896.85,271.82,896.85,288.45z"/>
	<path class="st0" d="M837.86,314.96c0,14.82-0.04,29.64,0.03,44.45c0.02,4.84-1.1,9.47-1.8,14.19c-1.05,7.02-3.86,13.12-7.3,19
		c-3.43,5.86-8.02,10.77-14.06,14.23c-4.6,2.63-9.29,4.9-14.47,6.09c-0.9,0.21-1.76,0.85-2.63,0.82c-3.25-0.09-6.27,1.79-9.58,1.05
		c-3.04,1.81-6.38,0.76-9.58,0.98c-2.08,0.14-4.08-0.08-6.11-0.9c-1.87-0.75-4.29,0.86-6.05-1.08c-5.98,0.24-11.31-2.34-16.82-4.03
		c-7.05-2.16-13.3-5.91-19.27-10.15c-0.99-0.7-1.21-1.17-0.27-2.53c4.07-5.83,8.88-11.11,12.48-17.28c0.67-1.15,1.53-1.37,2.77-0.25
		c6.37,5.72,13.94,9.36,22,11.97c2.53,0.82,5.3,1.03,7.98,1.23c2.82,0.2,5.67,0.17,8.49,0.01c2.54-0.15,5.12-0.39,7.57-1.02
		c3.13-0.81,6.24-1.99,8.82-3.98c4.89-3.77,8.04-8.51,10.07-14.63c2.19-6.64,1.38-13.15,1.74-19.73c0.03-0.45-0.18-0.92-0.28-1.37
		c-0.35,0.22-0.76,0.38-1.05,0.66c-2.23,2.12-4.22,4.49-7,6.02c-4.9,2.7-9.66,5.28-15.42,6.33c-5.61,1.03-11.14,0.95-16.6,0.58
		c-4.52-0.31-9.09-1.71-13.37-3.74c-5.04-2.38-9.66-5.13-13.81-8.96c-5.89-5.43-9.96-11.94-12.89-19.19c-1.2-2.97-2-6.18-2.73-9.4
		c-1.56-6.9-1.25-13.86-0.58-20.58c0.96-9.65,4.52-18.59,10.68-26.52c3.84-4.94,8.35-8.81,13.44-12.19
		c2.98-1.98,6.45-2.96,9.78-4.12c4.22-1.46,8.58-2.42,13.14-2.09c2.65,0.19,5.34-0.09,7.99,0.07c2.37,0.15,4.81,0.33,7.06,1.02
		c4.89,1.5,9.81,3.28,13.69,6.64c2.93,2.53,6.16,4.97,7.99,8.62c0.51,1.02,0.93,0.61,0.96-0.24c0.04-0.88,1.72-1.78,0.02-2.67
		c0.02-3.32,0.04-6.64,0.05-9.97c2.94-0.15,5.87-0.38,8.81-0.43c4.66-0.07,9.33,0.08,13.99-0.07c1.8-0.06,2.2,0.41,2.19,2.2
		c-0.09,12.49-0.05,24.97-0.05,37.46C837.86,305.97,837.86,310.47,837.86,314.96z M783.27,279.86c-2.17,0-4.53-0.57-6.46,0.1
		c-7.3,2.52-14.19,5.72-17.97,13.21c-1.92,3.79-3.53,7.46-4.11,11.84c-1.03,7.9-1.27,12.1,0.75,17.93
		c2.69,7.8,4.7,10.42,10.86,15.94c4.36,3.9,9.62,5.14,15.06,5.89c2.68,0.37,5.37-0.18,8.1-0.81c5.21-1.19,9.67-3.51,13.65-6.92
		c3.83-3.28,6.14-7.61,8.11-12.13c0.95-2.18,3.01-13.46,2.59-14.91c-0.25-0.88-0.94-1.73-0.94-2.59c0.04-5.43-2.28-10.01-5.06-14.41
		c-3.31-5.24-5.75-7.37-11.33-10.14C791.86,280.54,788.84,279.86,783.27,279.86z"/>
	<path class="st0" d="M1150.81,312.67c0-16.15-0.01-32.31,0.01-48.46c0-2.3,0.04-2.33,2.45-2.33c6.83-0.01,13.66,0.1,20.49-0.07
		c2.02-0.05,2.13,0.72,2.09,2.3c-0.09,3.83-0.05,7.66-0.01,11.49c0,0.42,0.32,0.83,0.49,1.25c0.16-0.43,0.24-0.92,0.49-1.29
		c5.24-7.74,11.79-13.52,21.26-15.79c5.73-1.38,11.49-1.24,17.08-0.68c5.5,0.55,10.93,2.58,15.14,6.74c1,0.99,2.97,1.47,3.29,2.54
		c0.49,1.64,1.82,2.25,2.64,3.42c0.28,0.4,0.7,0.71,1.05,1.07c1.13,1.18,0.78,4.01,2.64,3.79c1.23-0.15,2.43-2.28,3.27-3.74
		c3.27-5.69,8.51-8.77,14.28-11.22c3.63-1.54,7.3-2.87,11.33-2.82c3.16,0.04,6.34-0.17,9.49,0.04c7.93,0.52,15.07,2.87,20.87,8.76
		c4.54,4.6,8.18,9.59,9.89,15.92c0.74,2.73,1.36,5.44,1.82,8.26c1.82,11.17,0.63,22.39,0.86,33.57c0.23,11.15,0.05,22.31,0.05,33.47
		c0,1.17,0.05,2.33-0.01,3.5c-0.07,1.51-0.92,2.41-2.43,2.42c-7.5,0.04-14.99,0.03-22.49-0.04c-0.36,0-0.96-0.73-1.02-1.18
		c-0.15-1.15-0.05-2.33-0.05-3.49c0-18.48,0.18-36.97-0.11-55.45c-0.08-5.26-1.13-10.51-3.78-15.39c-1.8-3.33-4.03-5.82-7.37-7.39
		c-3.37-1.58-7.08-2.82-10.63-1.88c-5.6,1.48-10.75,3.72-14.27,9.16c-2.67,4.13-3.84,8.39-4.98,12.99
		c-1.09,4.41-0.79,8.75-0.82,13.11c-0.09,15.65-0.05,31.31-0.03,46.96c0,3.12,0.02,2.61-2.68,2.61c-6.5,0-12.99,0.02-19.49-0.01
		c-3.46-0.02-3.82-0.41-3.83-4.03c-0.01-20.65-0.08-41.3,0.05-61.95c0.03-4.84-2.38-8.71-4.46-12.65c-0.74-1.41-2.74-2.54-4.35-3.51
		c-1.3-0.79-2.8-1.28-4.24-1.8c-2.77-0.99-5.76-1.74-8.53-0.87c-4.93,1.56-7.37,1.94-11.08,5.87c-4.42,4.68-6.54,10.05-7.61,16.41
		c-0.86,5.1-0.69,10.08-0.74,15.11c-0.14,14.99-0.05,29.97-0.06,44.96c0,2.42-0.03,2.45-2.32,2.46c-6.66,0.02-13.33,0.03-19.99,0
		c-3.34-0.02-3.67-0.33-3.67-3.68C1150.79,344.97,1150.81,328.82,1150.81,312.67z"/>
	<path class="st0" d="M456.77,363.82c-18.49,0-36.98,0-55.47-0.01c-2.33,0-2.36-0.04-2.36-2.42c-0.02-6.66,0.02-13.32-0.03-19.98
		c-0.01-1.39,0.32-2.38,1.32-3.48c3.63-4.02,6.83-8.4,9.97-12.82c1.49-2.1,3.26-3.99,4.92-5.96c3.9-4.66,7.73-9.37,11.36-14.26
		c3.17-4.27,6.98-8.05,10.14-12.32c2.83-3.82,6.26-7.18,8.6-11.39c1.15-2.07,2.96-3.8,4.54-5.62c3.77-4.35,7.29-8.87,10.67-13.55
		c3.3-4.57,7.21-8.7,10.88-13c2.92-3.41,5.02-7.49,8.45-10.5c0.6-0.53-0.02-1.58-0.94-1.6c-1.33-0.04-2.66-0.01-4-0.01
		c-23.32,0-46.64,0-69.96,0c-1.17,0-2.34-0.05-3.5,0.02c-1.04,0.06-1.46-0.28-1.45-1.37c0.03-7.16,0-14.32,0.07-21.48
		c0-0.39,0.66-1,1.1-1.1c0.79-0.18,1.65-0.05,2.49-0.05c35.48,0,70.96,0,106.44,0c0.83,0,1.67,0.05,2.5-0.01
		c1.06-0.08,1.43,0.32,1.43,1.4c-0.03,7.16,0,14.32-0.04,21.48c0,0.75-0.18,1.66-0.62,2.22c-3.24,4.01-6.76,7.81-9.81,11.96
		c-3.11,4.24-6.89,7.93-9.66,12.46c-1.41,2.32-3.49,4.22-5.23,6.34c-4.72,5.7-9.5,11.35-14.11,17.14
		c-3.89,4.88-7.91,9.68-11.59,14.7c-4.34,5.92-9.46,11.2-13.62,17.28c-3.27,4.78-7.45,8.93-11.2,13.38
		c-1.45,1.72-2.89,3.44-4.22,5.25c-0.69,0.93-1.11,2.06-1.65,3.1c0.96,0.08,1.93,0.24,2.89,0.24c24.98,0.01,49.97,0.01,74.95,0.01
		c1.17,0,2.33,0.05,3.5-0.02c1.07-0.06,1.42,0.35,1.41,1.41c-0.04,6.83-0.1,13.66,0.04,20.48c0.04,1.88-0.53,2.16-2.24,2.15
		c-12.33-0.08-24.65-0.04-36.98-0.04C469.43,363.82,463.1,363.82,456.77,363.82z"/>
	<path class="st0" d="M1394.63,320.84c-12.16,0-24.32,0-36.49,0c-2.43,0-2.32-0.5-2.39,2.41c-0.06,2.46,1.08,4.58,2.09,6.63
		c1.23,2.51,2.71,5.06,4.65,7.03c2.87,2.91,6.28,5.29,10.1,6.88c2.13,0.89,4.4,1.78,6.66,1.95c4.14,0.31,8.45,0.73,12.45-0.09
		c3.83-0.79,7.82-1.98,11.12-4.42c2.81-2.07,5.92-3.83,7.43-7.32c0.6-1.38,1.59-1.34,2.72-0.37c2.45,2.11,4.66,4.73,7.46,6.14
		c2.85,1.43,4.01,4.68,7.17,5.61c0.95,0.28,1.87,1.4,0.53,2.71c-1.21,1.17-2.16,2.62-3.36,3.81c-1.38,1.37-2.88,2.63-4.39,3.87
		c-1.35,1.11-2.68,2.29-4.19,3.16c-5.8,3.35-11.73,6.07-18.56,7.18c-6.09,0.98-12.08,0.64-18.11,0.77
		c-9.86,0.21-18.93-3.12-27.07-8.12c-6.42-3.95-11.76-9.48-15.67-16.22c-2.51-4.34-4.06-9-5.54-13.7c-0.8-2.53-1.27-5.24-1.41-7.89
		c-0.23-4.32,0.16-8.68-0.15-12.98c-0.16-2.23,0.95-4.02,1.13-6.08c0.19-2.19,0.39-4.48,1.17-6.5c0.73-1.9,0.86-4.23,1.92-5.65
		c3.11-4.18,4.64-9.3,8.54-13.03c7.15-6.84,6.64-7.79,17.41-13.32c3.35-1.72,7.01-2.45,10.6-3.36c6.76-1.7,13.7-1.12,20.57-0.97
		c4.7,0.1,9.26,1.59,13.57,3.36c5.08,2.09,9.86,4.87,13.86,8.76c6.01,5.83,9.6,13.15,12.23,20.91c1.31,3.87,1.49,8.1,2.29,12.09
		c0.98,4.93,0.41,9.76,0.82,14.61c0.15,1.79-0.36,2.22-2.17,2.2C1419.29,320.8,1406.96,320.84,1394.63,320.84z M1381.85,302.85
		c7.16,0,14.32,0.02,21.48-0.02c1.44-0.01,2.89-0.25,4.33-0.38c-0.05-1.78-0.05-3.57-0.19-5.35c-0.05-0.58-0.63-1.11-0.69-1.69
		c-0.38-3.96-2.29-7.09-4.9-9.98c-2.63-2.91-5.54-5.3-9.39-6.3c-0.92-0.24-2.06,0.09-2.87-0.3c-5.27-2.51-10.4-0.08-15.58,0.28
		c-7.35,3.34-13.94,7.53-16.68,15.72c-0.64,1.9-1.64,3.69-1.64,5.84c0,1.68,0.24,2.28,2.16,2.25
		C1365.86,302.77,1373.86,302.85,1381.85,302.85z"/>
	<path class="st0" d="M1077.93,366.82c-2.11,0-3.45-0.05-4.78,0.01c-6,0.28-11.34-2.02-16.86-3.92c-8.84-3.04-15.56-8.91-21.43-15.7
		c-5.76-6.67-9.4-14.56-11.19-23.33c-0.42-2.05-0.21-4.29-0.99-6.05c-0.92-2.1-0.96-4.1-0.81-6.14c0.26-3.45,1.39-6.86,1.64-10.23
		c0.32-4.25,2-7.92,3.45-11.63c1.51-3.86,3.98-7.38,6.34-10.84c1.29-1.89,3.21-3.37,4.89-4.98c1.54-1.48,2.58-3.44,4.51-4.56
		c1.89-1.1,3.89-2.15,5.46-3.64c1.67-1.58,3.71-2.36,5.63-3.38c4.08-2.17,11.65-4.18,16.1-4.58c1.38-0.12,2.71-0.76,4.09-0.93
		c1.31-0.17,2.67-0.11,3.99-0.02c5.69,0.37,11.31,1.15,16.75,2.97c5.16,1.73,10.13,4.02,14.51,7.12c6.02,4.26,11.6,9.18,14.56,16.29
		c3.63,3.9,5.01,8.91,6.56,13.76c0.75,2.35,1.64,4.78,1.47,7.41c-0.21,3.07,1.44,5.93,1,9.08c-1.15,8.38-2.36,16.7-6.48,24.3
		c-3.68,6.78-9.46,12.91-16.1,18.31c-2.38,1.94-5.1,3.21-7.49,5.06c-1.75,1.36-4.41,1.49-6.32,2.71c-1.98,1.26-4.21,1.02-6.25,1.85
		C1086.02,367.46,1081.53,366.68,1077.93,366.82z M1077.85,279.93c-5.94-0.58-10.84,1.43-15.71,3.87c-3.26,1.63-5.74,4.06-8.29,6.51
		c-6.06,5.8-8.36,13.17-9.01,21.24c-0.2,2.42,0.36,4.72,0.89,7.1c0.79,3.53,3.88,11.32,6.31,13.88c3.32,3.49,6.67,6.8,11.41,8.61
		c3.09,1.18,6.07,2.19,9.33,2.89c3.56,0.76,6.68,0.73,10.23-0.06c6.67-1.48,12.28-4.33,17.31-8.99c6.65-6.18,11.9-19.73,8.5-29.15
		c-0.77-9.35-7.37-14.96-13.44-20.9C1089.62,282.49,1084.21,278.89,1077.85,279.93z"/>
	<path class="st0" d="M581.91,366.82c-1.83,0-3.67,0.09-5.49-0.02c-8.11-0.49-15.48-2.98-22.49-7.23c-3.12-1.89-5.8-4.3-8.83-6.26
		c-1.76-1.14-3.4-2.81-4.45-5.05c-0.99-2.12-3.5-3.49-4.66-5.57c-2.99-5.38-6-10.78-7.56-16.82c-0.07-0.29-0.47-0.51-0.49-0.79
		c-0.63-6.17-1.8-12.38-0.9-18.53c0.69-4.72,1.76-9.41,3.49-13.99c1.74-4.59,4-8.72,6.82-12.66c5.32-7.43,11.88-13.41,20.26-17.19
		c5.4-2.44,10.83-4.91,16.97-4.84c3.22-1.72,6.73-1.16,10.06-0.91c6.09,0.45,12.14,1.59,17.79,3.99
		c12.73,5.42,14.94,8.67,22.18,16.26c2.45,2.57,4.21,5.85,6.04,8.95c2.28,3.85,3.67,8.14,5.18,12.32
		c1.17,3.26,1.94,17.57,0.97,20.99c-1.18,4.16-1.57,8.48-3.36,12.57c-1.68,3.83-3.24,7.73-5.58,11.14
		c-6.37,9.29-15.01,16.1-25.33,20.34C596.06,366.17,589.1,367.75,581.91,366.82z M582.02,279.91c-3.2,0.12-6.38-0.22-9.6,0.88
		c-7.23,2.48-12.85,6.98-17.5,12.85c-1.84,2.32-3.21,5.04-3.9,7.85c-0.52,2.11-1.87,4.19-1.12,6.55c-2.7,4.24,0.29,8.37,0.25,12.56
		c4.23,11.75,11.97,20.99,24.82,23.33c8.96,1.63,12.33,1.02,20-1.7c5.65-2.01,10.02-6.07,13.47-10.67
		c3.14-4.18,5.85-8.97,5.45-14.68c2.71-4.56-0.26-9.08-0.1-13.62c-2.87-7.45-6.66-14.23-13.87-18.36c-1.87-1.07-3.48-2.44-5.68-3.18
		C590.21,280.35,586.26,279.45,582.02,279.91z"/>
	<path class="st0" d="M655.89,312.62c0-15.82,0-31.64,0-47.46c0-3.27,0.02-3.28,3.5-3.29c6.5-0.01,12.99,0.03,19.49-0.03
		c1.38-0.01,2.09,0.14,2.04,1.82c-0.12,4.16-0.06,8.33-0.02,12.49c0.01,0.56,0.35,1.11,0.53,1.66c0.24-0.57,0.43-1.16,0.71-1.7
		c3.96-7.72,10.48-12.63,18.17-16.04c2.24-0.99,4.97-0.97,7.5-1.16c2.49-0.18,5-0.02,7.49-0.05c0.91-0.01,1.58,0.03,1.58,1.24
		c-0.03,7.16,0,14.32-0.02,21.48c0,1.44-0.7,1.67-1.86,0.91c-0.39-0.25-0.81-0.59-1.23-0.62c-6.79-0.4-13.31,0.25-19.4,3.85
		c-3.07,1.81-5.6,4.15-7.39,6.93c-3.87,6.04-5.23,11.36-5.16,17.85c0.17,16.99,0.06,33.97,0.05,50.96c0,2.3-0.04,2.33-2.44,2.34
		c-7.16,0.01-14.33-0.1-21.49,0.07c-2.02,0.05-2.09-0.71-2.09-2.3C655.91,345.27,655.89,328.94,655.89,312.62z"/>
	<path class="st0" d="M1480.75,313.36c0,15.98,0,31.96,0,47.94c0,2.47-0.03,2.51-2.26,2.51c-7.16,0.02-14.32,0.02-21.48,0
		c-2.21-0.01-2.24-0.04-2.24-2.54c-0.01-32.3,0-64.59,0-96.89c0-0.17,0.02-0.34,0-0.5c-0.18-1.35,0.07-2.08,1.77-2.06
		c7.49,0.09,14.99,0.1,22.48,0c1.74-0.02,1.77,0.77,1.77,2.08C1480.74,280.39,1480.75,296.87,1480.75,313.36z"/>
	<path class="st0" d="M1468.63,246.77c-4.16,0.29-7.13-0.18-10.2-2.42c-3.04-2.21-4.87-4.68-5.8-8.1
		c-2.71-9.98-0.06-16.93,9.85-21.29c1.68-0.74,3.7-1.03,5.54-0.98c2.17,0.07,4.54,0.3,6.42,1.25c3.61,1.83,6.61,4.57,8.44,8.31
		c1.7,3.46,3.05,6.99,0.92,10.8c-0.24,6.41-4.74,9.19-9.7,11.83C1471.95,247.31,1469.92,246.38,1468.63,246.77z"/>
</g>
</svg>
