<svg version="1" xmlns="http://www.w3.org/2000/svg" width="933.333" height="933.333" viewBox="0 0 700.000000 700.000000"><path d="M321.9.4c-.2.2-3.6.7-7.4 1-3.9.4-8 .8-9 1-1.1.2-4.5.7-7.5 1.1-3 .4-6.4.9-7.5 1.1-1.1.3-5.6 1.2-10 2-11 2.1-29.1 6.9-40 10.6-12 4-32 12.2-41.9 17-5.5 2.8-10.3 5.1-10.6 5.1-.3.1-3.9 2.1-8 4.5-4.1 2.5-9.1 5.4-11 6.5-3.6 2-16.9 10.8-20.6 13.6-1.2.9-3.2 2.3-4.4 3.1-9.3 6.2-31.3 25.2-42.9 37-29.5 30.1-54.9 67.2-70.2 102.2-1.7 4-3.9 9.1-4.9 11.3-8.9 20.2-20.4 62.8-22.6 84-.3 2.7-.7 6.1-1 7.5-1.8 11-2.6 57.4-1.1 70.5.4 3.3 1 8.7 1.3 12 .6 5.4 4.6 29.1 5.8 34 .2 1.1 1.4 5.8 2.5 10.5 2.6 10.6 8.7 29.6 13.6 42 8.3 21.2 25.1 52.8 36.3 68.5 5.8 8.1 14.6 20 15.2 20.5.3.3 3.4 4 6.9 8.3 12.4 15.4 37.4 39.1 56.7 53.9 6.8 5.2 27.5 19.1 34.4 23 39.2 22.4 81.2 37.1 123.8 43.4 1.5.2 7 .8 12.2 1.4 5.2.5 11.7 1.2 14.3 1.6 5.8.7 44.2.7 51.2 0 2.8-.3 7.7-.8 11-1.2 3.3-.3 7.4-.8 9-1 1.7-.2 5-.6 7.5-.9 2.5-.3 5.2-.8 6-1 .8-.2 3.1-.7 5-1 1.9-.3 5.5-1.1 8-1.6 2.5-.6 5.6-1.3 7-1.5 4.5-.9 17.3-4.5 28.5-8.1 87.7-28.3 163.6-93.8 205.3-176.9 11.5-23 24.6-60.1 28.8-81.9.4-2.2.8-4.2.9-4.5.2-.9 1.9-10.5 2-11.5.1-.6.4-2.8.8-5 1-5.6 1.7-12 2.2-18.5.3-3 .7-7.8 1.1-10.5.7-5.5.7-44.2 0-49-.2-1.7-.7-7.3-1.1-12.5-.4-5.2-.8-9.7-1-10-.2-.3-.6-2.6-1-5-.5-4-2.9-16.9-4.1-22.5-.2-1.1-.6-3-.8-4.2-5-24.7-20.4-64.8-34.3-89.1-7.1-12.6-22.1-36.1-24.3-38.2-.3-.3-3-3.7-5.9-7.5-16.5-21.4-33.7-38.5-62.6-62.4-5.5-4.5-26.3-18.7-35.5-24.2-9.4-5.5-29.6-16-39-20.2-22.4-9.8-53.6-19.4-75.5-23.2-4.9-.8-9.9-1.7-11-1.9-1.1-.2-4.9-.7-8.5-1.1-3.6-.4-7.4-1-8.5-1.2-2.2-.6-63-1.4-63.6-.9zm49.6 45c11 .7 17.4 1.4 24 2.6 2.8.5 6.6 1.2 8.5 1.4 5.8.9 9.2 1.6 15.5 3.3 3.3.8 7.1 1.7 8.5 1.9 4.7.9 23.4 7.2 35.5 11.9 10.6 4.2 39.9 18.5 41.7 20.3.3.4-2.4 5.2-6 10.7-3.6 5.5-19.4 29.3-35.1 53-36.9 55.9-51 77.2-141.6 214-13.1 19.8-31.6 47.7-41 62-9.5 14.3-29.9 45.1-45.3 68.5L208 537.5V79.4l9.8-4.6c21.6-10.3 49-19.9 63.2-22.3 1.9-.3 4.9-1 6.5-1.5 2.8-.8 12.9-2.5 21.5-3.6 1.9-.3 4.9-.7 6.5-.9 1.7-.3 8-.8 14-1.1 6.1-.4 11.1-.7 11.2-.8.4-.4 21.6.2 30.8.8zM167.3 349.7c0 133.5-.2 243.2-.2 243.6-.1.9-9.4-6.2-18-13.7-9.8-8.7-27.9-27.5-36-37.4-7.3-9.1-18.1-23.7-18.1-24.6 0-.2-1.8-3-3.9-6.2-7.8-11.7-18.4-32.6-25.1-49.4-9.9-25-16.9-53.1-19.5-79-.3-3-.8-7.3-1.1-9.5-1.8-12.5-.2-49.8 3.1-73 3.3-23.6 14.9-59.8 26.7-84 5.9-12.2 18.5-33.6 24-41 18.4-24.6 30.6-38.3 47.9-53.6 10.9-9.7 18.9-16 19.7-15.5.4.2.6 109.7.5 243.3zm381.2-231.3c7.2 6 27.1 25.9 33.8 33.9 32.9 38.9 55.3 83.8 66 132.7 1.4 6.3 2.8 13.3 3.1 15.5.4 2.2.8 5.1 1.1 6.5 2.5 13.6 3.6 47.4 2.1 65.7-1.7 20.1-2.9 27-10.1 58.3-1.4 6.3-10.1 30.7-14.2 40-3.5 8-14.6 29.6-15.9 31.1-.8.8-1.4 1.9-1.4 2.2 0 1.7-16.8 26.5-23.5 34.6-15.3 18.6-41.1 44.8-43.4 43.9-1.2-.4-160-239-160-240.3-.1-.9 20.8-32.5 114.7-173.8 34.1-51.4 38.6-57.7 40-56.5 1 .7 4.4 3.5 7.7 6.2zM363.1 382.2c1 1.3 1.8 2.7 1.9 3.2 0 .4 1.3 2.5 2.9 4.5 1.5 2 3 4 3.2 4.6.2.5 11.2 17.2 24.3 37 13.2 19.8 36.6 55.1 52.1 78.5s36.3 54.8 46.3 69.9c10 15 18.2 27.6 18.2 28 0 2-32.4 18.9-49 25.5-14.9 5.9-39.2 13.5-49 15.2-1.4.3-6.3 1.2-11 2-9.2 1.7-10.3 1.9-20 2.9-3.6.3-8.3.9-10.5 1.2-5.3.7-40.9.7-46-.1-2.2-.3-6.9-.8-10.5-1.1-7.1-.7-27.4-4-33-5.5-1.9-.5-4.6-1.1-6-1.4-9.9-2.1-32.9-9.6-44.5-14.6-2.7-1.2-10.7-4.9-17.6-8.2l-12.6-6 33-49.7c18.2-27.3 53.7-80.8 79-118.9 25.3-38 46.2-69.2 46.4-69.2.3 0 1.3 1 2.4 2.2z"/></svg>