<svg xmlns="http://www.w3.org/2000/svg" viewBox="0 0 20.77 21.37">
    <defs>
        <style>.cls-1{fill:#8a8e8d;}</style>
    </defs>
    <g>
        <path class="cls-1"
              d="M10.35,21.36c-2.79,0-5.58,0-8.37,0a1.92,1.92,0,0,1-2-2C0,15.19,0,11,0,6.82,0,6,0,5.23,0,4.43a1.91,1.91,0,0,1,2-2c.48,0,1,0,1.45,0,.27,0,.38-.08.37-.35s0-.55,0-.83A1.15,1.15,0,0,1,5.11,0,1.14,1.14,0,0,1,6.3,1.28c0,.24,0,.49,0,.73s.09.44.43.44c1.83,0,3.67,0,5.5,0,.65,0,1.29,0,1.94,0,.27,0,.37-.1.36-.36s0-.72,0-1.07a1,1,0,0,1,1-1c.71-.06,1.27.22,1.37.76A8.39,8.39,0,0,1,17,2.11c0,.24.08.33.32.32.54,0,1.08,0,1.63,0a1.79,1.79,0,0,1,1.84,1.86q0,7.63,0,15.25A1.76,1.76,0,0,1,19,21.36H10.35Zm.07-13H1.22c-.52,0-.52,0-.52.54,0,.76,0,1.52,0,2.28q0,4.13,0,8.27A1.12,1.12,0,0,0,1.82,20.7H18.6l.45,0A1.06,1.06,0,0,0,20,20a1.76,1.76,0,0,0,.1-.71q0-5.22,0-10.45c0-.45,0-.45-.45-.45Zm0-.67h0c3.09,0,6.18,0,9.27,0,.35,0,.45-.1.45-.45,0-1,0-2,0-3A1.12,1.12,0,0,0,19,3.1c-.59,0-1.18,0-1.76,0-.19,0-.27.08-.27.27s0,.67,0,1a1.16,1.16,0,0,1-1.25,1.15,1.11,1.11,0,0,1-1.2-1.18c0-.31,0-.62,0-.93s-.09-.31-.31-.31H6.6c-.25,0-.32.12-.31.34s0,.58,0,.86A1.12,1.12,0,0,1,5.06,5.51,1.12,1.12,0,0,1,3.83,4.28c0-.31,0-.62,0-.93,0-.09-.14-.25-.22-.25-.62,0-1.25,0-1.87,0a1.08,1.08,0,0,0-1,1.13c0,1,0,2,0,3,0,.48,0,.48.47.48Zm5.9-5h0c0-.48,0-1,0-1.45s-.17-.62-.56-.63a.54.54,0,0,0-.6.6q0,1.5,0,3a.54.54,0,0,0,.61.59c.36,0,.55-.19.55-.59S16.3,3.24,16.3,2.74Zm-11.82,0h0c0,.51,0,1,0,1.52a.53.53,0,0,0,.56.6.55.55,0,0,0,.6-.6q0-1.5,0-3A.52.52,0,0,0,5,.67c-.38,0-.56.19-.56.58S4.48,2.24,4.48,2.74Z"/>
        <path class="cls-1"
              d="M10.37,11.49a5.27,5.27,0,0,1-.83,0,.52.52,0,0,1-.35-.28c-.07-.21.11-.36.31-.37.61,0,1.22,0,1.83,0,.1,0,.27.23.27.35s-.2.27-.33.29a6.14,6.14,0,0,1-.9,0Z"/>
        <path class="cls-1"
              d="M16,11.49h-.86c-.22,0-.35-.11-.35-.33a.31.31,0,0,1,.35-.34c.56,0,1.13,0,1.69,0a.54.54,0,0,1,.38.34c0,.23-.15.33-.38.33Z"/>
        <path class="cls-1"
              d="M4.78,11.49H4c-.23,0-.42-.11-.39-.33A.53.53,0,0,1,4,10.83c.54,0,1.08,0,1.62,0,.24,0,.41.1.41.36s-.18.32-.4.32H4.78Z"/>
        <path class="cls-1"
              d="M10.38,14.69a4.48,4.48,0,0,1-.83,0,.53.53,0,0,1-.37-.31c0-.23.15-.33.38-.33h1.66c.23,0,.38.1.39.34s-.18.3-.37.31S10.67,14.69,10.38,14.69Z"/>
        <path class="cls-1"
              d="M4.8,17.88H3.94c-.2,0-.38-.07-.38-.3s.14-.32.36-.32H5.67a.28.28,0,0,1,.32.31c0,.22-.13.31-.33.31H4.8Z"/>
        <path class="cls-1"
              d="M10.41,17.26a5.42,5.42,0,0,1,.86,0c.13,0,.23.19.34.3-.11.1-.22.29-.34.3a16.44,16.44,0,0,1-1.75,0,.47.47,0,0,1-.33-.3c0-.22.15-.3.36-.3h.86Z"/>
        <path class="cls-1"
              d="M16.08,14a5,5,0,0,1,.79,0c.14,0,.25.17.38.26-.11.12-.21.35-.33.36a17,17,0,0,1-1.83,0,.41.41,0,0,1-.26-.31.42.42,0,0,1,.28-.3,7.5,7.5,0,0,1,1,0Z"/>
        <path class="cls-1"
              d="M4.75,14.69a4.33,4.33,0,0,1-.82,0c-.14,0-.24-.21-.36-.33.12-.1.23-.28.35-.29a16,16,0,0,1,1.72,0,.48.48,0,0,1,.33.29c.06.22-.11.34-.32.35s-.6,0-.9,0Z"/>
    </g>
</svg>
