<?xml version="1.0" encoding="utf-8"?>
<!-- Generator: Adobe Illustrator 21.0.0, SVG Export Plug-In . SVG Version: 6.00 Build 0)  -->
<svg version="1.1" id="Layer_1" xmlns="http://www.w3.org/2000/svg" xmlns:xlink="http://www.w3.org/1999/xlink" x="0px" y="0px"
	 viewBox="0 0 125.9 125.9" style="enable-background:new 0 0 125.9 125.9;" xml:space="preserve">
<style type="text/css">
	.st0{fill:#00a4dd;}
</style>
<path class="st0" d="M101.4,13.2c-1.7-1.3-3.5-2.6-5.4-3.8c-9.6-6-21-9.5-33.1-9.5C28.2,0,0,28.2,0,62.9c0,22.7,12.1,42.6,30.1,53.7
	c0.6,0.4,1.3,0.8,1.9,1.1c9.1,5.2,19.7,8.1,30.9,8.1c13.9,0,26.7-4.5,37.1-12.2c0.9-0.6,1.7-1.3,2.6-2
	c14.2-11.5,23.2-29.1,23.2-48.8C125.9,42.7,116.3,24.7,101.4,13.2z M91,15.7L37.4,96.7V14.3C45,10.3,53.7,8,62.9,8
	C73.2,8,82.8,10.8,91,15.7z M8,62.9c0-18,8.7-34,22.1-44v88C16.7,96.9,8,80.9,8,62.9z M62.9,117.9c-9.6,0-18.6-2.5-26.5-6.8
	l28.5-42.9l27.3,41.2C83.8,114.7,73.7,117.9,62.9,117.9z M98.2,105L69.3,61.6L97,19.9c12.7,10.1,20.9,25.6,20.9,43
	C117.9,79.8,110.2,94.9,98.2,105z"/>
</svg>
