<?xml version="1.0" encoding="utf-8"?>
<!-- Generator: Adobe Illustrator 21.0.0, SVG Export Plug-In . SVG Version: 6.00 Build 0)  -->
<svg version="1.1" id="Layer_1" xmlns="http://www.w3.org/2000/svg"
     x="0px" y="0px"
     viewBox="0 0 121.5 119.9" style="enable-background:new 0 0 121.5 119.9;" xml:space="preserve">
<style type="text/css">
	.st0{fill:#00413c;}
</style>
    <path class="st0" d="M59.9,0C26.9,0,0,26.9,0,59.9s26.9,59.9,59.9,59.9c33,0,59.9-26.9,59.9-59.9S93,0,59.9,0z M95.1,14L31,109.4
	V9.8C39.5,4.8,49.4,2,59.9,2C73.2,2,85.4,6.5,95.1,14z M2,59.9c0-21,11.2-39.4,28-49.6v99.2C13.2,99.3,2,80.9,2,59.9z M31.5,110.4
	L63.4,63l30.1,44.1c-9.5,6.8-21.1,10.8-33.6,10.8C49.6,117.9,39.9,115.1,31.5,110.4z M94.3,106.5L64,62.1l31.9-47.5
	c13.3,10.6,21.9,27,21.9,45.3C117.9,79,108.6,95.9,94.3,106.5z"/>
</svg>
