<svg xmlns="http://www.w3.org/2000/svg" viewBox="0 0 70.48 70.48">
    <defs>
        <style>
            .cls-1{fill:#00413c;}
            .cls-2{fill:none;stroke:#00413c;stroke-miterlimit:10;stroke-width:3.59px; }
        </style>
    </defs>
    <g>
        <path class="cls-1"
              d="M49.38,27.9c0,.11,0,.18,0,.23.32.63-.68,1.14-.19,1.75a10.25,10.25,0,0,0,1.39,1.39,2,2,0,0,1,.63,1.55c.05.52.47.88.07,1.56s-.11,1.37-.81,1.82c0,0,.13.47.26.51,1,.27,1.4,1.29,1.76,2a4.6,4.6,0,0,1,.06,2.8,4,4,0,0,1-1.19,1.64c-1.71,1.76-3.37,3.58-5.21,5.18a56.44,56.44,0,0,1-6.88,5.46,9.66,9.66,0,0,1-3.12,1.53,7.52,7.52,0,0,0-3.63,2.06c-.92.82-1.86.44-2.81.43-.8-.87-2.05-.85-3-1.52A30.44,30.44,0,0,1,22,51.85a13.8,13.8,0,0,1-2.55-4.31,2.49,2.49,0,0,1-.21-1.16A2.75,2.75,0,0,0,18,43.64a3.65,3.65,0,0,1-.38-.38,3.33,3.33,0,0,1,0-4.75,2.36,2.36,0,0,0,.84-2.18,3,3,0,0,1,.36-1.83A5.93,5.93,0,0,0,19.21,32c0-.74-.24-1.47.27-2.22.4-.59-.21-1.46.37-2.18.24-.29.08-.92.05-1.4a4.06,4.06,0,0,1,1.26-3.06,3.52,3.52,0,0,1,5.56.64,6.22,6.22,0,0,1,.7,1.68c.1.51.12.64.54.21Q31.57,22,35.2,18.4a3.78,3.78,0,0,1,5.51.15,3,3,0,0,1,.37.38c.6,1,.62,1,1.35.48a2.11,2.11,0,0,1,2.16-.15,5.46,5.46,0,0,1,2.5,2.49,3.49,3.49,0,0,1,.11,1.74A1.49,1.49,0,0,0,47.9,25,3,3,0,0,1,49.38,27.9ZM30.71,55.75a1.34,1.34,0,0,0,1.45-.54,4.66,4.66,0,0,1,2.12-1.38c.72-.3,1.45-.55,2.16-.86a24.16,24.16,0,0,0,3.72-2.24A37.64,37.64,0,0,0,44,47.35a18.61,18.61,0,0,0,2-1.67c.65-.77,1.36-1.45,2.06-2.15a10.66,10.66,0,0,1,1.22-1.33c.66-.43.81-1.2,1.45-1.59.13-.08.16-.44.12-.65A1.55,1.55,0,0,0,49,38.52a2.51,2.51,0,0,0-1.65.77c-.71.64-1.36,1.34-2,2s-1.07,1.14-1.67,1.63a1.1,1.1,0,0,1-.94.19,1.3,1.3,0,0,1-.52-.83,1,1,0,0,1,.34-1.11c.63-.55,1.16-1.21,1.8-1.75s1.12-1.28,1.77-1.73c1.21-.83,1.87-2.14,3-3.06A1.64,1.64,0,0,0,49,32.61a1.72,1.72,0,0,0-2.19-.33c-.57.48-1,1.15-1.76,1.39,0,.92-1.05,1-1.42,1.54a25.51,25.51,0,0,1-3.14,3.35,3,3,0,0,1-1.15.67.8.8,0,0,1-1-.46,1.27,1.27,0,0,1,.11-.95,3.73,3.73,0,0,1,.74-.77c2.5-2.5,5-5,7.48-7.49,1.26-1.28,1.22-1.9-.08-3a1.24,1.24,0,0,0-1.58,0c-1,1-2,1.73-2.92,2.79a7.38,7.38,0,0,1-1.83,1.91c-.29.17-.61.14-.63.63,0,.29-.76,0-.67.58-1.06.86-1.87,2-3,2.76-.27.19-.47.66-.85.3a2.05,2.05,0,0,1-.45-.88c-.17-.55.22-.86.56-1.2C37,31.65,38.84,29.82,40.68,28a2.75,2.75,0,0,0,.9-1.61,1.9,1.9,0,0,0-.5-1.73,2.52,2.52,0,0,0-1-.49c-.2,0-.43.35-.69.46a5.51,5.51,0,0,0-1.75,1.41l-2,2-2,2a13.93,13.93,0,0,0-1.8,2.12c-.46.67-1.32,1-1.78,1.71a1.66,1.66,0,0,1-1.63.59c-.58-.31-.51-.87-.5-1.4a5.32,5.32,0,0,0,0-2c-.24-.58,0-1.43-.94-1.76-1.36-.48-2.53.12-2.6,1.55,0,.6.21,1.32-.05,1.77-.49.83-.05,1.75-.45,2.51s-.1,1.74-.21,2.6a2.22,2.22,0,0,1,0,.53,8.43,8.43,0,0,0-.67,3.84,2,2,0,0,1-.84,2c-.19.14-.32.38-.52.49-.6.35-.5.92-.44,1.43a2.39,2.39,0,0,0,.42,1.25c1.17,1.34,1.85,3,3.14,4.28a22,22,0,0,0,4.5,3.45C29.63,55.43,30,55.95,30.71,55.75ZM28.48,27.89c.09.36.06.74.23.89a1.67,1.67,0,0,1,.56,1.58,1,1,0,0,0,.2.62c.09.12.41.23.48.17,1.24-1,2.05-2.45,3.54-3.17.1,0,0-.36.14-.46a36,36,0,0,1,3.32-3.27c1-.79,1.67-1.83,2.57-2.69a1,1,0,0,0-.1-1.42,4.78,4.78,0,0,0-1-.7,1.2,1.2,0,0,0-1.54,0,9.68,9.68,0,0,0-2.82,2.61,30,30,0,0,1-2.6,2.85c-.2.24-.65.3-.79.55a4.44,4.44,0,0,1-1.92,1.91C28.63,27.48,28.57,27.74,28.48,27.89Zm-3.17-1.44c0-.22,0-.34,0-.46,0-1.27-.47-1.82-1.55-1.83s-1.63.52-1.68,1.71a3.2,3.2,0,0,1-.08,1,8.75,8.75,0,0,0-.65,3.85,3.29,3.29,0,0,1-.1,1.21,9.36,9.36,0,0,0-.62,3.5,5,5,0,0,1-1.49,4,2.62,2.62,0,0,0-.51.86,1.84,1.84,0,0,0,.59,2.32c.58.38,1.63.13,1.76-.47.17-.77.27-1.57.37-2.35s-.22-1.64.36-2.36c.13-2,.47-4,.68-6,.08-.81.42-1.52.53-2.3.14-1,1-1.14,1.65-1.59S25.53,27.06,25.31,26.45Zm19.76-3.38c0-1.78,0-1.78-1.53-1.79a3.44,3.44,0,0,0-.53,0c-.27,0-.54.11-.81.17.22.69-.62.38-.71.74s.39.66.62,1L43,24.4a1,1,0,0,0,1.47.2A1.5,1.5,0,0,0,45.06,23.07Z"/>
        <path class="cls-1"
              d="M53.19,23.44a6.23,6.23,0,0,1-1,0,.92.92,0,0,1-.47-1.4,8,8,0,0,1,2.85-2.13c.53-.25.67.31,1,.51a.8.8,0,0,1,.26,1.08,2.43,2.43,0,0,1-.74.76,12.43,12.43,0,0,1-1.11.75C53.61,23.21,53.27,23.39,53.19,23.44Z"/>
        <path class="cls-1"
              d="M51.89,18.73c.52.94-1,1.43-.76,2.42a3.56,3.56,0,0,1-1.22.45c-.41,0-1-1-.88-1.38a9.13,9.13,0,0,1,1.13-2.77c.28-.33.6-.61,1.06-.46A.91.91,0,0,1,51.89,18,6.17,6.17,0,0,0,51.89,18.73Z"/>
        <path class="cls-1"
              d="M54.88,24.51c.74,0,1.52-.19,2.09.57s.43,1.21-.27,1.57a3.18,3.18,0,0,1-2.64.21,1.94,1.94,0,0,0-.63-.19c-.41,0-.5-.2-.46-.55,0-.18,0-.36,0-.54,0-.77.28-1,1-1.08C54.28,24.5,54.58,24.51,54.88,24.51Z"/>
        <circle class="cls-2" cx="35.24" cy="35.24" r="33.44"/>
    </g>
</svg>
