<?xml version="1.0" encoding="utf-8"?>
<!-- Generator: Adobe Illustrator 21.0.0, SVG Export Plug-In . SVG Version: 6.00 Build 0)  -->
<svg version="1.1" id="Layer_1" xmlns="http://www.w3.org/2000/svg" xmlns:xlink="http://www.w3.org/1999/xlink" x="0px" y="0px"
	 viewBox="0 0 595.3 841.9" style="enable-background:new 0 0 595.3 841.9;" xml:space="preserve">
<style type="text/css">
	.st0{fill:#2FA3D8;}
	.st1{fill:#AB752A;}
	.st2{fill:#FAFCF8;}
	.st3{fill:#7C5421;}
	.st4{fill:none;stroke:#4B3213;stroke-width:2.2052;stroke-linecap:round;stroke-miterlimit:10;}
	.st5{fill:none;stroke:#4B3213;stroke-width:2.2052;stroke-linecap:round;stroke-linejoin:round;stroke-miterlimit:10;}
	.st6{fill:#F4C4A9;}
	.st7{fill:#E5B298;}
	.st8{fill:#C9C02D;}
	.st9{fill:none;}
	.st10{fill:#BCD638;}
	.st11{fill:#CE9454;}
	.st12{fill:#E2E1E0;}
	.st13{fill:#D8D5D2;}
	.st14{fill:#C6C4C2;}
	.st15{fill:#FFFFFF;}
	.st16{opacity:0.18;fill:#010101;}
	.st17{fill:#4559A8;}
	.st18{fill:none;stroke:#4559A8;stroke-width:8.0859;stroke-miterlimit:10;}
	.st19{fill:none;stroke:#4559A8;stroke-width:2.2052;stroke-miterlimit:10;}
</style>
<g>
	<path class="st0" d="M264.1,575.3V774c0,3.5,7.5,6.4,16.7,6.4c9.2,0,16.7-2.9,16.7-6.4V575.3H264.1z"/>
	<path class="st1" d="M297.5,768.5c0,0,3.7,1,4.7,3c2.2,4.7,1,38.2,1,38.2s-53.3,10.8-69.9,13c-16.5,2.3-29.2-0.4-31.4-7.1
		c-2.3-6.7-1.2-17.7-1.2-17.7s-0.6-13.2,19.6-17.4s43.9-9.9,43.9-9.9s-1.2,8.8,17.6,8.3C298.4,778.6,297.5,768.5,297.5,768.5z"/>
	<path class="st2" d="M200.4,805.1c0,3.6,0.3,8,1.5,11.3c2.3,6.7,14.9,9.4,31.4,7.1c16.5-2.3,69.9-13,69.9-13s0.1-4.8,0.2-11.1
		c0,0-63.4,11.7-70.7,12.1c-7.4,0.4-21.6,2.9-29.2-3.5L200.4,805.1z"/>
	<path class="st3" d="M264.1,771.4c0,0-1.2,8.8,17.6,8.3c16.6-0.4,15.7-10.5,15.7-10.5s0.2,0.1,0.6,0.2c0.2,0.1,0.4,0.1,0.6,0.2
		c0,0,0.6,9.4-13.6,11.7c-7.7,1.2-15.7-1.5-17.2-2.2c-1.6-0.8-4.9-3.4-5.4-7.3L264.1,771.4z"/>
	<path class="st4" d="M229.4,777.8c0,0,11.4-1.2,14.7,10"/>
	<path class="st4" d="M237.9,776c0,0,10.5-1.2,13.9,9.9"/>
	<path class="st5" d="M245,774.3c0,0,10.5-1.2,13.9,10c0,0,0.6-6.1,0-8.3l-8.8-1.1"/>
	<path class="st5" d="M259.1,776c0,0-2-17-10.5-16.8S249.2,772,259.1,776z"/>
	<path class="st5" d="M259.1,776.2c0,0,22.7,2.8,27.4-8.3C289,762.2,266.2,763.6,259.1,776.2z"/>
	<path class="st3" d="M230.6,791.3c6,7,6.3,16.3,6.2,19.7c0.7-0.1,1.4-0.2,2.2-0.3c0.1-3.9-0.5-13.4-6.8-20.8
		c-3.7-4.3-8.8-7.2-15.2-8.5c-1.6,0.5-3.1,1-4.4,1.6C220.5,783.7,226.5,786.5,230.6,791.3z"/>
</g>
<g>
	<path class="st0" d="M352.2,575.3V774c0,3.5-7.5,6.4-16.7,6.4c-9.2,0-16.7-2.9-16.7-6.4V575.3H352.2z"/>
	<path class="st1" d="M318.8,768.5c0,0-3.7,1-4.7,3c-2.2,4.7-1,38.2-1,38.2s53.3,10.8,69.9,13c16.5,2.3,29.2-0.4,31.4-7.1
		c2.3-6.7,1.2-17.7,1.2-17.7s0.6-13.2-19.6-17.4c-20.3-4.1-43.9-9.9-43.9-9.9s1.2,8.8-17.6,8.3C317.9,778.6,318.8,768.5,318.8,768.5
		z"/>
	<path class="st2" d="M415.9,805.1c0,3.6-0.3,8-1.5,11.3c-2.3,6.7-14.9,9.4-31.4,7.1c-16.5-2.3-69.9-13-69.9-13s-0.1-4.8-0.2-11.1
		c0,0,63.4,11.7,70.7,12.1c7.4,0.4,21.6,2.9,29.2-3.5L415.9,805.1z"/>
	<path class="st3" d="M352.2,771.4c0,0,1.2,8.8-17.6,8.3c-16.6-0.4-15.7-10.5-15.7-10.5s-0.2,0.1-0.6,0.2c-0.2,0.1-0.4,0.1-0.6,0.2
		c0,0-0.6,9.4,13.6,11.7c7.7,1.2,15.7-1.5,17.2-2.2c1.6-0.8,4.9-3.4,5.4-7.3L352.2,771.4z"/>
	<path class="st4" d="M386.9,777.8c0,0-11.4-1.2-14.7,10"/>
	<path class="st4" d="M378.3,776c0,0-10.5-1.2-13.9,9.9"/>
	<path class="st5" d="M371.3,774.3c0,0-10.5-1.2-13.9,10c0,0-0.6-6.1,0-8.3l8.8-1.1"/>
	<path class="st5" d="M357.1,776c0,0-1.7-30.5,10.5-16.8C373.2,765.5,367.1,772,357.1,776z"/>
	<path class="st5" d="M357.1,776.2c0,0-26.7,3.2-24.8-8.6C334.8,752.1,350.1,763.6,357.1,776.2z"/>
	<path class="st3" d="M385.7,791.3c-6,7-6.3,16.3-6.2,19.7c-0.7-0.1-1.4-0.2-2.2-0.3c-0.1-3.9,0.5-13.4,6.8-20.8
		c3.7-4.3,8.8-7.2,15.2-8.5c1.6,0.5,3.1,1,4.4,1.6C395.8,783.7,389.8,786.5,385.7,791.3z"/>
</g>
<path class="st6" d="M412.4,503v-74.4h-11.8v71.5c-5.3,3.7-9.2,13.9-9.2,25.9c0,15.1,6.1,27.3,13.6,27.3c7.5,0,13.6-12.2,13.6-27.3
	C418.7,516.3,416.2,507.8,412.4,503z"/>
<polygon class="st7" points="214.7,444 162,443.3 162,432.9 214.7,432.9 "/>
<g>
	<path class="st8" d="M307.6,282.3c-51.4,0-93.1,55.6-93.1,124.2v174.9h186.1V406.5C400.7,337.9,359,282.3,307.6,282.3z"/>
	<g>
		<rect x="214.5" y="541.1" class="st9" width="186.1" height="8.8"/>
		<rect x="214.5" y="435.2" class="st9" width="186.1" height="8.8"/>
		<rect x="214.5" y="470.5" class="st9" width="186.1" height="8.8"/>
		<rect x="214.5" y="417.6" class="st9" width="186.1" height="8.8"/>
		<rect x="214.5" y="452.8" class="st9" width="186.1" height="8.8"/>
		<path class="st9" d="M398.9,382.3H216.3c-0.4,2.9-0.8,5.8-1.1,8.8h184.7C399.7,388.1,399.3,385.2,398.9,382.3z"/>
		<path class="st9" d="M395.2,364.6H220c-0.8,2.9-1.5,5.8-2.1,8.8h179.4C396.7,370.5,396,367.5,395.2,364.6z"/>
		<path class="st9" d="M400.7,406.5c0-2.2,0-4.4-0.1-6.6H214.7c-0.1,2.2-0.1,4.4-0.1,6.6v2.2h186.1V406.5z"/>
		<rect x="214.5" y="558.7" class="st9" width="186.1" height="8.8"/>
		<rect x="214.5" y="576.3" class="st9" width="186.1" height="5.1"/>
		<rect x="214.5" y="488.1" class="st9" width="186.1" height="8.8"/>
		<path class="st9" d="M307.6,282.3c-26.4,0-50.2,14.7-67.1,38.2h134.3C357.8,297,334,282.3,307.6,282.3z"/>
		<rect x="214.5" y="505.8" class="st9" width="186.1" height="8.8"/>
		<rect x="214.5" y="523.4" class="st9" width="186.1" height="8.8"/>
		<path class="st9" d="M389.3,347H225.9c-1.2,2.9-2.3,5.8-3.3,8.8h169.9C391.6,352.8,390.5,349.9,389.3,347z"/>
		<path class="st9" d="M380.5,329.3H234.7c-1.7,2.8-3.3,5.8-4.8,8.8h155.4C383.8,335.1,382.2,332.2,380.5,329.3z"/>
		<path class="st10" d="M374.7,320.5H240.4c-2,2.8-3.9,5.8-5.8,8.8h145.8C378.7,326.3,376.8,323.3,374.7,320.5z"/>
		<path class="st10" d="M385.3,338.2H229.9c-1.4,2.9-2.7,5.8-4,8.8h163.4C388,344,386.7,341,385.3,338.2z"/>
		<path class="st10" d="M392.6,355.8H222.6c-1,2.9-1.9,5.8-2.7,8.8h175.3C394.4,361.6,393.5,358.7,392.6,355.8z"/>
		<path class="st10" d="M397.3,373.5H217.9c-0.6,2.9-1.1,5.8-1.6,8.8h182.6C398.4,379.3,397.9,376.4,397.3,373.5z"/>
		<path class="st10" d="M399.9,391.1H215.2c-0.3,2.9-0.5,5.9-0.6,8.8h185.9C400.4,396.9,400.2,394,399.9,391.1z"/>
		<rect x="214.5" y="408.7" class="st10" width="186.1" height="8.8"/>
		<rect x="214.5" y="426.4" class="st10" width="186.1" height="8.8"/>
		<rect x="214.5" y="444" class="st10" width="186.1" height="8.8"/>
		<rect x="214.5" y="461.7" class="st10" width="186.1" height="8.8"/>
		<rect x="214.5" y="479.3" class="st10" width="186.1" height="8.8"/>
		<rect x="214.5" y="496.9" class="st10" width="186.1" height="8.8"/>
		<rect x="214.5" y="514.6" class="st10" width="186.1" height="8.8"/>
		<rect x="214.5" y="532.2" class="st10" width="186.1" height="8.8"/>
		<rect x="214.5" y="549.9" class="st10" width="186.1" height="8.8"/>
		<rect x="214.5" y="567.5" class="st10" width="186.1" height="8.8"/>
	</g>
</g>
<path class="st6" d="M307.3,81.6c-43,0-77.9,26-77.9,58.2v77.8c0,28.4,27.2,52,63.2,57.1v9.3c-7.3,1.6-14.3,4.3-21,8
	c3,14.2,17.9,24.9,35.8,24.9c18,0,32.9-10.9,35.8-25.1c-6.5-3.6-13.4-6.2-20.5-7.8v-9.4c35.6-5.3,62.5-28.8,62.5-57v-77.8
	C385.2,107.7,350.3,81.6,307.3,81.6z"/>
<path class="st11" d="M314.7,160.7c6.4,6.1,13.2,11.1,16.1,20.5c-3.1-1.3-5.8-2.4-8.6-3.6c-15.1-6.2-30.6-9.8-46.7-9.5
	c-14.1,0.3-27.7,3.6-40.8,9.3c-1.5,0.7-2,1.5-1.9,3.4c0.6,12.6,1.1,25.1-0.1,37.7c-0.3,2.9-0.7,5.8-1.1,9.3
	c-2.1-1.9-3.8-3.3-5.4-4.9c-7.7-8-12.3-18-15.3-29.2c-4.1-15.5-4.8-31.3-4.1-47.3c0.5-10.6,1.3-21.2,4.1-31.4
	c5.5-20.1,16-35.3,33.7-43.4c0.8-0.4,1.7-0.6,3.2-1.1c-3.9,7.3-6.7,14.4-7.9,22.3c-0.4,2.6-0.8,5.3-1,8
	c9.7-19.3,21.9-36.2,37.2-50.2c15.4-14.1,33.2-22.4,52.7-26.4c-5.2,11.4-8.7,23.2-9.1,36.6c11.5-11.5,24.9-17.9,39.8-22.4
	c-5,12.1-8,24.1-6.5,37.2c2.1-3.7,3.9-7.7,6.4-10.9c2.5-3.2,5.8-5.7,9.3-8.9c0.8,3.8,1.4,6.7,2,9.6c2.3,10.5,6.2,20.1,12.5,28.5
	c10.7,14.2,16.1,31.2,18.3,49.5c1.3,11.1,1.9,22.3,0.6,33.5c-2,17,4.3,27.4-11.6,43.5c-0.4,0.7-5.8,6.3-6.6,7.5
	c-1.1-3.5-1.7-6-2.5-9.2c-2.7-10.8-2.6-23.5-1.2-34.7c0.2-1.5-0.2-2.4-1.2-3.3c-7.1-6-15.1-9.9-23.5-12.9
	c-12.6-4.4-25.5-6.4-38.6-7.2C316.4,160.7,315.8,160.7,314.7,160.7z"/>
<g>
	<path class="st12" d="M341.8,428.7c0,2.7-2.2,4.9-4.9,4.9H207c-2.7,0-4.9-2.2-4.9-4.9v0c0-2.7,2.2-4.9,4.9-4.9h134.9V428.7z"/>
	<path class="st13" d="M246.3,433.6H102.3c-2.2,0-4-1.8-4-4v-1.9c0-2.2,1.8-4,4-4h144.1c2.2,0,4,1.8,4,4v1.9
		C250.3,431.8,248.5,433.6,246.3,433.6z"/>
	<g>
		<path class="st14" d="M104.7,426.2h136.7c6.2,0,11.3-5.1,11.3-11.3V315c0-6.2-5.1-11.3-11.3-11.3H104.7c-6.2,0-11.3,5.1-11.3,11.3
			v99.9C93.4,421.1,98.5,426.2,104.7,426.2z"/>
		<circle class="st15" cx="176.8" cy="369.8" r="14.7"/>
	</g>
</g>
<ellipse class="st6" cx="165.4" cy="429.7" rx="27.3" ry="13.6"/>
<ellipse class="st6" cx="138.1" cy="437.8" rx="6.5" ry="5"/>
<path class="st10" d="M394,360.2c2.1,7,3.8,14.4,4.9,22c0,0,0,0,0,0c0,0,0,0,0,0c0.2,1.4,0.4,2.8,0.6,4.2c0,0.1,0,0.2,0,0.3
	c0.3,2.8,0.6,5.5,0.8,8.3c0,0.2,0,0.5,0,0.7c0.2,2.4,0.3,4.9,0.3,7.3c0,0,0,0,0,0c0,1.1,0,2.2,0,3.3v2.2v8.8v8.8v8.8v4.2l24.4-10.9
	l-32.6-73.1c0.5,1.5,1,3.1,1.5,4.7C393.9,360.1,394,360.2,394,360.2z"/>
<path class="st16" d="M394,360.2c2.1,7,3.8,14.4,4.9,22c0,0,0,0,0,0c0,0,0,0,0,0c0.2,1.4,0.4,2.8,0.6,4.2c0,0.1,0,0.2,0,0.3
	c0.3,2.8,0.6,5.5,0.8,8.3c0,0.2,0,0.5,0,0.7c0.2,2.4,0.3,4.9,0.3,7.3c0,0,0,0,0,0c0,1.1,0,2.2,0,3.3v2.2v8.8v8.8v8.8v4.2l24.4-10.9
	l-32.6-73.1c0.5,1.5,1,3.1,1.5,4.7C393.9,360.1,394,360.2,394,360.2z"/>
<path class="st17" d="M213.6,225.7L213.6,225.7c-11.9,0-32.8-9.8-32.8-21.7v-42.1c0-11.9,20.8-21.7,32.8-21.7h0v62.2
	c0,0,5.2,12.4,11.6,19.6c0,0-3,2.5-8.5,3.5C216.8,225.5,215.7,225.7,213.6,225.7z"/>
<path class="st17" d="M400.9,225.7L400.9,225.7c11.9,0,32.8-9.8,32.8-21.7v-42.1c0-11.9-20.8-21.7-32.8-21.7h0v62.2
	c0,0-5.2,12.4-11.6,19.6c0,0,3,2.5,8.5,3.5C397.7,225.5,398.9,225.7,400.9,225.7z"/>
<path class="st18" d="M202.2,179.8c0-58.2,47.2-105.4,105.4-105.4s105.4,47.2,105.4,105.4"/>
<path class="st19" d="M407.6,224.2c0,0-11.3,49.6,14.9,63.3c26.2,13.7,21.7-49.6-19.6-17.8c-31.5,24.2,2.9,67.3,10.1,88.2
	c7.1,21-12.9,82.9-105.6,71.3"/>
<circle class="st17" cx="307.3" cy="428.7" r="4.2"/>
<path class="st11" d="M213.6,173.7c0,0-2.4,24.3-8.8,32.1c0,0,5.7-0.1,10.1-4.6L213.6,173.7z"/>
<path class="st11" d="M400.7,139.8c0,0,1.8,4.3,7,11.2c0,0-5.6,0-11.6-4"/>
<path class="st11" d="M400.2,147.2c0,0,6.6,28.3,12.7,33.7c0,0-9.5-2.2-14.6-5.4L400.2,147.2z"/>
<path class="st11" d="M400.9,174c0,0,2.3,30.6,7.6,37c0,0-5.1-1.7-10.2-6.2l-2.1,2L400.9,174z"/>
<path class="st11" d="M399.5,204.2c0,0,0.3,13.2,1.4,14.9c0,0-5.1-1.4-8.7-4.9L399.5,204.2z"/>
<path class="st11" d="M213.6,147c0,0-3.7,26.4-7.1,30.5c0,0,3.5,0.8,8.3-5.4C214.9,172.1,216.5,153.8,213.6,147z"/>
<path class="st16" d="M310.8,274.6L310.8,274.6c-0.8,0.1-1.6,0.3-6.2,0.5c-4.5,0.1-12.1-0.4-12.1-0.4v9.3c6.2-0.9,18.8-0.7,18.8-0.7
	s-32.9,19.6-32.1,230.2v67.5v0.6h5.7v197.1c0,0-40.9,6.2-59.1,8.7c0,0-18.6,4-19.7,33.9c0,0,5,5.7,27.1,2.4
	c16.5-2.5,69.9-13,69.9-13s0-0.6,0-1.7c0.2-5.6,1-33-1-37.2c-0.6-1.3-2.3-2.1-3.5-2.6v0c0,0,0,0,0,0c-0.1,0-0.2-0.1-0.2-0.1
	c0,0-0.1,0-0.1,0c-0.1,0-0.2-0.1-0.3-0.1c-0.4-0.1-0.6-0.2-0.6-0.2s0,0.2,0,0.5v-0.5V581.5h21.3v187.1v0.5c0-0.3,0-0.5,0-0.5
	s-0.2,0.1-0.6,0.2c-0.1,0-0.2,0.1-0.3,0.1c0,0-0.1,0-0.1,0c-0.1,0-0.1,0.1-0.2,0.1c0,0,0,0,0,0v0c-1.2,0.5-2.8,1.3-3.5,2.6
	c-2,4.2-1.2,31.6-1,37.2c0,1.1,0,1.7,0,1.7s53.3,10.8,69.9,13c16.5,2.3,29.2-0.4,31.4-7.1c1.1-3.4,1.4-7.8,1.5-11.3l0,0
	c0.1-3.9-0.2-7.1-0.2-7.1s0.4-9.7-12.1-15.1l0,0c0,0,0,0,0,0c-1-0.4-2-0.8-3.1-1.2c-0.1,0-0.2-0.1-0.2-0.1c-0.4-0.1-0.7-0.2-1.1-0.3
	c0,0,0,0,0,0l0,0c-1-0.3-2-0.5-3.1-0.8c-2.9-0.6-5.8-1.2-8.7-1.8c0.4-0.1,0.7-0.5,0.7-0.9c0.1-0.6-0.4-1.1-1-1.2
	c-0.1,0-2.8-0.3-6.1,0.7c-0.7-0.2-1.4-0.3-2.1-0.5c0.3-0.2,0.5-0.5,0.6-0.8c0.1-0.6-0.4-1.2-1-1.2c-0.1,0-2.6-0.3-5.7,0.7
	c-0.4-0.1-0.8-0.2-1.1-0.3c0.4-0.1,0.7-0.5,0.7-0.9c0.1-0.6-0.4-1.2-1-1.2c-0.1,0-2.4-0.2-5.3,0.6c0,0,0,0-0.1,0l-0.6,0.1
	c-0.4-0.1-0.8-0.2-1.2-0.3c3.5-2.3,5.8-5,6.4-7.7c0.6-2.5-0.2-5.1-2.2-7.4c-3-3.3-5.5-4.5-7.6-3.6c-2.6,1.1-4.1,4.9-4.6,11.8
	c-0.1,1.8-0.2,3.5-0.2,5c-0.2,0-0.3-0.1-0.5-0.1c-1.1-1.5-2.2-2.9-3.3-4.2V581.5h48.5v-5.1v-8.8v-8.8v-6.8c1.4,1,2.9,1.5,4.4,1.5
	c7.5,0,13.6-12.2,13.6-27.3c0-9.7-2.5-18.1-6.2-23v-68.9l12.6-5.6L408.7,392c6.8-13,8-26.2,5.2-34.5c-1.6-4.7-4.5-10.4-7.8-16.9
	c-11.1-21.9-26.4-51.8-2.6-70.1c1.1-0.8,2.1-1.6,3.2-2.3c2.9,9.6,8,16.5,15.2,20.2c6.4,3.3,12,2.6,15.3-1.9c4-5.6,3.7-16.5-2.8-22.8
	c-7.8-7.6-18.8-3.5-26.4,1c-1.1-4.8-1.6-9.6-1.8-14c-0.4-12.9,2-24.5,2.3-26.1c11.5-2.8,25-11,25-20.7v-42.1
	c0-9.2-12.4-17.1-23.6-20.3c-3.9-10.5-9.5-20.3-16.3-29c-2.7-6.6-6.2-12.8-10.5-18.6c-6.3-8.4-10.2-17.9-12.5-28.5
	c-0.6-2.9-1.2-5.8-2-9.6c-3.4,3.2-6.7,5.7-9.3,8.9c-2.5,3.2-4.3,7.2-6.4,10.9c-1.5-13.1,1.4-25.2,6.5-37.2
	c-14.9,4.5-28.3,10.9-39.8,22.4c0.3-13.4,3.9-25.2,9.1-36.6c-3.9,0.8-7.8,1.8-11.6,3c0,0-32.3,118.6-6.3,247.1
	C311,274.4,311,274.6,310.8,274.6z M264.1,581.5 M246.4,761.4c0.1-0.3,0.2-1.1,2.3-1.2c0,0,0.1,0,0.1,0c4.7,0,7.4,6.9,8.6,12.1
	c-0.6,0.1-1.3,0.3-1.9,0.5C250,769.2,246,763.8,246.4,761.4z M352.2,771.4v-0.6c0,0,0,0,0,0C352.2,770.9,352.2,771.1,352.2,771.4z
	 M361.6,756.9c0.2-0.1,0.4-0.1,0.6-0.1c1.1,0,2.7,1.1,4.6,3.1c1.6,1.8,2.2,3.6,1.7,5.5c-0.6,2.6-3.3,5.3-7.3,7.5
	c-1.1-0.3-2.1-0.5-3-0.7C358.2,765.5,359.1,757.9,361.6,756.9z M400.5,399.4c0,0.1,0,0.1,0,0.2C400.5,399.5,400.5,399.4,400.5,399.4
	z M399.4,386.5C399.4,386.5,399.4,386.5,399.4,386.5C399.4,386.5,399.4,386.5,399.4,386.5L399.4,386.5L399.4,386.5z M398.9,382.3
	C398.9,382.3,398.9,382.3,398.9,382.3C398.9,382.3,398.9,382.3,398.9,382.3C398.9,382.3,398.9,382.3,398.9,382.3
	C398.9,382.3,398.9,382.3,398.9,382.3z M398.4,379.4c0,0.1,0,0.1,0,0.2C398.4,379.5,398.4,379.4,398.4,379.4z M397.4,373.7
	c0,0.1,0,0.2,0.1,0.3C397.4,373.9,397.4,373.8,397.4,373.7z M397.9,376.5c0,0.1,0,0.2,0.1,0.3C397.9,376.7,397.9,376.6,397.9,376.5z
	 M396.8,370.9c0,0.1,0.1,0.2,0.1,0.4C396.8,371.1,396.8,371,396.8,370.9z M395.4,365.4c0,0.1,0.1,0.2,0.1,0.3
	C395.5,365.6,395.4,365.5,395.4,365.4z M396.1,368.1c0,0.1,0.1,0.2,0.1,0.3C396.2,368.3,396.1,368.2,396.1,368.1z M394.7,362.8
	c0,0.1,0,0.1,0.1,0.2C394.7,362.9,394.7,362.8,394.7,362.8z M213.6,202.3L213.6,202.3c0,0,0,0.1,0,0.1
	C213.7,202.4,213.6,202.3,213.6,202.3z M402.2,268.8c-25.2,19.4-9.5,50.3,2,72.8c3.3,6.5,6.1,12,7.7,16.6c2.5,7.4,1.5,19.3-4.3,31.2
	l-15.1-33.9c-0.5-1.3-0.9-2.7-1.4-4c-0.1-0.1-0.1-0.3-0.2-0.4c-0.5-1.4-1.1-2.8-1.6-4.1c0,0,0,0,0,0l0,0c-1.9-4.6-4-9-6.3-13.3
	c0,0,0-0.1,0-0.1c-1.7-3-3.4-6-5.2-8.8c0,0,0,0,0,0c-0.5-0.7-1-1.5-1.5-2.2c0,0,0,0,0,0c-1-1.5-2-2.9-3.1-4.3c0,0-0.1-0.1-0.1-0.1
	c-0.5-0.7-1-1.3-1.5-2c-0.1-0.1-0.1-0.2-0.2-0.2c-0.5-0.6-1-1.2-1.5-1.8c-0.1-0.1-0.2-0.2-0.3-0.3c-0.5-0.6-1-1.1-1.4-1.7
	c-0.1-0.1-0.2-0.2-0.3-0.4c-0.5-0.5-0.9-1.1-1.4-1.6c-0.1-0.1-0.2-0.3-0.4-0.4c-0.5-0.5-0.9-1-1.4-1.5c-0.1-0.1-0.3-0.3-0.4-0.4
	c-0.5-0.5-0.9-0.9-1.4-1.4c-0.2-0.2-0.3-0.3-0.5-0.5c-0.5-0.4-0.9-0.9-1.4-1.3c-0.2-0.2-0.3-0.3-0.5-0.5c-0.5-0.4-0.9-0.8-1.4-1.2
	c-0.2-0.2-0.4-0.3-0.6-0.5c-0.4-0.4-0.9-0.8-1.4-1.2c-0.2-0.2-0.4-0.3-0.6-0.5c-0.4-0.4-0.9-0.7-1.3-1.1c-0.2-0.2-0.4-0.3-0.6-0.5
	c-0.4-0.3-0.9-0.7-1.3-1c-0.2-0.2-0.4-0.3-0.7-0.5c-0.4-0.3-0.9-0.7-1.3-1c-0.2-0.2-0.5-0.3-0.7-0.5c-0.4-0.3-0.9-0.6-1.3-0.9
	c-0.2-0.2-0.5-0.3-0.7-0.5c-0.4-0.3-0.9-0.6-1.3-0.9c-0.3-0.2-0.5-0.3-0.8-0.5c-0.4-0.3-0.9-0.5-1.3-0.8c-0.3-0.2-0.5-0.3-0.8-0.5
	c-0.4-0.3-0.9-0.5-1.3-0.7c-0.3-0.1-0.5-0.3-0.8-0.4c-0.4-0.2-0.9-0.5-1.3-0.7c-0.3-0.1-0.6-0.3-0.8-0.4c-0.4-0.2-0.9-0.4-1.3-0.6
	c-0.3-0.1-0.6-0.3-0.9-0.4c-0.4-0.2-0.9-0.4-1.3-0.6c-0.3-0.1-0.6-0.3-0.9-0.4c-0.4-0.2-0.9-0.4-1.3-0.5c-0.3-0.1-0.6-0.2-0.9-0.4
	c-0.4-0.2-0.9-0.3-1.3-0.5c-0.3-0.1-0.6-0.2-0.9-0.3c-0.4-0.2-0.9-0.3-1.3-0.4c-0.3-0.1-0.6-0.2-1-0.3c-0.4-0.1-0.9-0.3-1.3-0.4
	c-0.3-0.1-0.7-0.2-1-0.3c-0.4-0.1-0.9-0.2-1.3-0.3c-0.3-0.1-0.7-0.2-1-0.3c-0.4-0.1-0.9-0.2-1.3-0.3c-0.1,0-0.2,0-0.2-0.1v-9.4
	c31.2-4.7,55.6-23.2,61.2-46.6c0,0,0,0,0,0c0.6-0.9,3.8-4.3,5.5-6.2c-0.1,0.1-0.1,0.2-0.2,0.2c0,0,3,2.5,8.5,3.5
	c0,0,1.1,0.2,3.2,0.2c1.7,0,3.5-0.2,5.4-0.5c-0.7,3.5-2.5,14-2.2,25.6c0.2,5.6,0.8,10.7,2,15.3C404.6,267,403.2,268,402.2,268.8z
	 M435.4,285.3c-2.6,3.6-7.1,4.1-12.5,1.3c-7.8-4.1-12-11.5-14.3-19.5c10.1-6.3,18.8-6.9,24.3-1.6
	C438.5,270.8,438.9,280.5,435.4,285.3z"/>
</svg>
