<svg viewBox="0 0 24 24" xmlns="http://www.w3.org/2000/svg">
	<defs>
		<style>.cls-1 {
			fill: #FFFFFF;
			}</style>
	</defs>

	<g>
		<path d="m2.062166,20.304893a0.713789,0.656035 0 0 1 -0.632776,-0.704332l0,-17.588183a0.712694,0.655029 0 0 1 0.632776,-0.704332l11.488498,0l0,2.796199a1.794325,1.649144 0 0 0 1.69908,1.710521l2.707362,0l0,6.792782c0.218954,-0.018111 0.437907,-0.028173 0.656861,-0.028173a6.992285,6.426529 0 0 1 0.766338,0.038235l0,-7.630937l-4.943973,-4.986672l-12.370881,0a2.135893,1.963075 0 0 0 -2.064733,2.012378l0,17.593214a2.136988,1.964081 0 0 0 2.061449,2.012378l10.187913,0a6.921125,6.361127 0 0 1 -0.464182,-1.314083l-9.723731,0.001006z" class="cls-1"/>
		<path d="m10.914463,8.594867l-6.552188,0a0.455424,0.418575 0 0 0 0,0.836143l6.551093,0a0.455424,0.418575 0 1 0 0,-0.836143l0.001095,0z" class="cls-1"/>
		<path d="m18.61944,14.073563a5.353417,4.920264 0 1 0 5.353417,4.920264a5.354511,4.92127 0 0 0 -5.353417,-4.920264zm3.271167,3.514618l0,0l0,0l-0.010948,0.011068l-0.019706,0.018111l-3.801035,3.773209l-0.016422,0.015093l-0.030654,0.027167l0,0a0.540816,0.497057 0 0 1 -0.049265,0.038235a0.842972,0.774765 0 0 1 -1.162644,-0.113699l-1.86658,-2.073755l-0.009853,-0.01308l0,0l-0.013137,-0.016099a0.794802,0.730493 0 0 1 -0.154362,-0.522212a0.812318,0.746592 0 0 1 0.287924,-0.489008l0,0l0,0l0.014232,-0.010062l0.018611,-0.012074a0.839687,0.771747 0 0 1 0.587891,-0.14791a0.829834,0.762691 0 0 1 0.557237,0.272677l1.258983,1.39659l3.164975,-3.141322l0,0a0.844066,0.775772 0 0 1 1.168118,-0.054334l0,0l0,0l0.012042,0.011068l0.010948,0.009056a0.806844,0.741561 0 0 1 0.250702,0.503094a0.796991,0.732506 0 0 1 -0.197058,0.518187z" class="cls-1"/>
		<path d="m10.914463,5.53907l-6.552188,0a0.454329,0.417568 0 1 0 0,0.836143l6.551093,0a0.454329,0.417568 0 1 0 0,-0.836143l0.001095,0z" class="cls-1"/>
		<path d="m10.914463,11.649656l-6.552188,0a0.455424,0.418575 0 0 0 0,0.836143l6.551093,0a0.455424,0.418575 0 1 0 0,-0.836143l0.001095,0z" class="cls-1"/>
	</g>
</svg>
